<svg width="265" height="66" viewBox="0 0 265 66" fill="none" xmlns="http://www.w3.org/2000/svg">
<path fill-rule="evenodd" clip-rule="evenodd" d="M8.41783 52.5392L12.7694 40.7231L16.9204 52.5392H8.41783ZM21.1491 64.447H25.1391L14.7835 36.0029H10.8372L0 64.447H4.02813L7.21024 55.7297H18.0475L21.1491 64.447Z" fill="#8A0051"/>
<path fill-rule="evenodd" clip-rule="evenodd" d="M33.8137 54.6235C30.1161 53.824 26.297 52.9512 26.297 48.4909C26.297 44.5743 29.609 42.1055 34.6117 42.1055C37.8475 42.1055 40.9378 43.3102 42.4801 46.2551L39.1158 47.659C38.846 46.8723 37.1046 44.8921 34.1993 44.8921C31.3519 44.8921 29.9268 46.5771 29.9268 48.0361C29.9268 50.084 32.6344 50.9371 34.9436 51.4018C39.7245 52.3636 43.8812 53.5868 43.8812 58.0937C43.8812 61.5964 40.7697 64.8873 34.8264 64.8873C30.4508 64.8873 27.3422 63.424 25.8464 60.3662L29.6839 59.6967C30.6471 61.3718 32.3886 62.0978 34.9832 62.0978C38.2006 62.0978 40.0819 60.8704 40.0819 58.5471C40.0833 56.0895 36.9958 55.3113 33.8137 54.6235Z" fill="#8A0051"/>
<path fill-rule="evenodd" clip-rule="evenodd" d="M51.8499 42.7609H55.7792V45.7849H51.8499V58.0896C51.8499 60.6418 51.8499 61.7364 53.4021 61.7364C54.0871 61.7364 55.049 61.4609 55.7792 61.235V64.2292C55.1394 64.3196 53.6295 64.5936 52.2581 64.5936C48.0563 64.5936 48.0563 62.5513 48.1014 59.7322V45.7849H44.6736V42.7609H48.1014V37.5944L51.8499 36.0352V42.7609Z" fill="#8A0051"/>
<path fill-rule="evenodd" clip-rule="evenodd" d="M62.6831 42.8166V46.6893C64.7381 42.6033 68.6236 42.5115 70.0854 42.4663V46.2134C66.522 46.2374 64.7749 46.9676 63.5983 48.8842C62.6323 50.4491 62.6831 52.6482 62.6831 54.5055V64.4473H59.0547V42.8166H62.6831Z" fill="#8A0051"/>
<path fill-rule="evenodd" clip-rule="evenodd" d="M112.04 36.0068V39.5548L95.9418 61.0343H112.444V64.4467H91.5479V60.7519L107.725 39.5138H91.5606V36.0068H112.04Z" fill="#8A0051"/>
<path fill-rule="evenodd" clip-rule="evenodd" d="M138.822 42.9663V46.1089C140.842 42.5779 144.283 42.2573 145.567 42.2573C148.319 42.2573 151.617 43.6344 152.669 47.2035C153.038 48.4803 153.038 49.8037 153.038 51.6299V64.4473H149.42V52.2231C149.42 50.0311 149.42 49.3941 149.189 48.6625C148.548 46.6103 146.53 45.6979 144.557 45.6979C142.952 45.6979 141.575 46.1993 140.427 47.3391C138.821 48.9365 138.821 50.5763 138.821 52.1779V64.4473H135.191V42.9663H138.822Z" fill="#8A0051"/>
<path fill-rule="evenodd" clip-rule="evenodd" d="M194.778 60.6174C193.424 62.7445 190.963 64.8857 186.534 64.8857C178.89 64.8857 176.003 58.9946 176.003 53.7024C176.003 47.5882 179.33 42.0474 186.215 42.0474C188.915 42.0474 192.698 42.8609 194.791 46.3481L191.39 47.7675C190.747 46.3509 189.363 44.714 186.352 44.714C180.386 44.714 180.037 51.5118 180.037 53.4298C180.037 60.5567 184.132 62.0976 186.578 62.0976C189.379 62.0976 190.809 60.7544 191.565 59.2742L194.778 60.6174Z" fill="#8A0051"/>
<path fill-rule="evenodd" clip-rule="evenodd" d="M117.659 51.4174H129.129C128.808 45.7594 125.547 44.8032 123.372 44.8032C120.268 44.8047 118.069 47.0828 117.659 51.4174ZM132.115 60.3381C130.878 62.444 128.489 64.8605 123.78 64.8605C117.396 64.8605 113.724 60.5217 113.724 53.2479C113.724 45.1224 119.084 42.0166 123.646 42.0166C127.612 42.0166 131.414 44.2086 132.692 49.6378C133.105 51.4641 133.105 53.1109 133.105 54.0247H117.569C117.478 57.6376 118.992 62.2095 124.101 62.1205C126.186 62.0852 127.653 61.1389 128.589 59.6559L132.115 60.3381Z" fill="#8A0051"/>
<path fill-rule="evenodd" clip-rule="evenodd" d="M158.919 51.4174H170.39C170.071 45.7594 166.81 44.8032 164.633 44.8032C161.532 44.8047 159.331 47.0828 158.919 51.4174ZM173.378 60.3381C172.14 62.444 169.753 64.8605 165.044 64.8605C158.66 64.8605 154.987 60.5217 154.987 53.2479C154.987 45.1224 160.347 42.0166 164.907 42.0166C168.875 42.0166 172.674 44.2086 173.954 49.6378C174.365 51.4641 174.365 53.1109 174.365 54.0247H158.829C158.737 57.6376 160.256 62.2095 165.361 62.1205C167.445 62.0852 168.917 61.1389 169.851 59.6559L173.378 60.3381Z" fill="#8A0051"/>
<path fill-rule="evenodd" clip-rule="evenodd" d="M214.614 64.4693L210.84 64.4834C210.84 64.4834 210.514 62.9594 210.408 61.2956C209.312 62.434 207.278 64.7885 203.168 64.7885C198.965 64.7885 195.846 62.2956 195.846 58.6432C195.846 57.4977 196.167 56.3579 196.808 55.3947C198.046 53.5657 200.339 52.1024 206.778 51.601L210.2 51.327V50.7776C210.2 48.5376 210.2 44.7905 205.375 44.7905C202.34 44.7905 201.306 46.2622 200.956 47.5913L197.614 46.1958C197.667 46.08 197.727 45.9614 197.791 45.8413C199.075 43.4657 201.593 42.0024 205.236 42.0024C207.241 42.0024 209.837 42.5067 211.529 43.8315C213.937 45.6563 213.879 49.2508 213.879 49.2508L214.025 60.3437C214.025 60.3465 214.153 63.5668 214.614 64.4693ZM209.652 58.5062C210.2 57.3184 210.247 56.8156 210.247 53.6575C208.834 53.8863 206.923 54.1603 204.584 54.6645C200.565 55.5317 199.88 57.0458 199.88 58.5528C199.88 60.29 201.251 61.7547 203.945 61.7547C206.459 61.7547 208.604 60.7491 209.652 58.5062Z" fill="#8A0051"/>
<path fill-rule="evenodd" clip-rule="evenodd" d="M88.9858 64.4693L85.2119 64.4834C85.2119 64.4834 84.8842 62.9594 84.7797 61.2956C83.6837 62.434 81.6527 64.7885 77.5412 64.7885C73.3352 64.7885 70.218 62.2956 70.218 58.6432C70.218 57.4977 70.5386 56.3579 71.1813 55.3947C72.4199 53.5657 74.7108 52.1024 81.1471 51.601L84.5735 51.327V50.7776C84.5735 48.5376 84.5735 44.7905 79.746 44.7905C76.7108 44.7905 75.6797 46.2622 75.3266 47.5913L71.9849 46.1958C72.04 46.08 72.0979 45.9614 72.1629 45.8413C73.4467 43.4657 75.9664 42.0024 79.6062 42.0024C81.6103 42.0024 84.2091 42.5067 85.8997 43.8315C88.3079 45.6563 88.25 49.2508 88.25 49.2508L88.3954 60.3437C88.3954 60.3465 88.524 63.5668 88.9858 64.4693ZM84.0241 58.5062C84.5749 57.3184 84.6173 56.8156 84.6173 53.6575C83.2077 53.8863 81.294 54.1603 78.9579 54.6645C74.941 55.5317 74.2546 57.0458 74.2546 58.5528C74.2546 60.29 75.6232 61.7547 78.3166 61.7547C80.8293 61.7547 82.9747 60.7491 84.0241 58.5062Z" fill="#8A0051"/>
<path fill-rule="evenodd" clip-rule="evenodd" d="M264.213 34.5071C264.198 34.3744 264.183 34.2416 264.15 34.1131C264.083 33.8504 264.011 33.5877 263.91 33.3363C263.802 33.0693 263.667 32.8108 263.525 32.5609C263.365 32.2854 263.187 32.0213 262.999 31.7629C262.891 31.6117 262.765 31.4705 262.635 31.3363C262.49 31.1866 262.34 31.0383 262.176 30.9084C261.806 30.6146 261.439 30.3152 261.035 30.068C260.153 29.527 259.275 28.9649 258.329 28.5483C257.185 28.0455 256.079 27.4494 254.899 27.0398L246.952 24.28C246.952 22.7688 246.996 21.2575 246.952 19.7477C246.885 17.5062 246.795 15.2634 246.621 13.0275C246.5 11.4711 246.313 9.91888 246.071 8.37655C245.881 7.1732 245.595 5.98679 245.328 4.79898C245.267 4.52639 245.175 4.26227 245.085 3.99957C245.004 3.76228 244.917 3.52642 244.819 3.29478C244.732 3.08575 244.636 2.87954 244.532 2.67616C244.439 2.49396 244.336 2.316 244.227 2.14228C244.13 1.9855 244.021 1.83296 243.91 1.68466C243.808 1.55049 243.701 1.42196 243.586 1.29908C243.483 1.18609 243.373 1.07875 243.258 0.975645C243.155 0.882427 243.045 0.796272 242.932 0.712941C242.828 0.636672 242.719 0.566053 242.609 0.502495C242.506 0.443175 242.401 0.385267 242.291 0.340071C242.099 0.260977 241.904 0.186121 241.705 0.129625C241.54 0.0830165 241.369 0.0575936 241.199 0.033583C241.072 0.0152219 240.944 0.00674762 240.816 0.00392285C240.599 -0.000314313 240.379 -0.00455147 240.162 0.0109848C239.931 0.0279334 239.699 0.0561812 239.472 0.101378C239.227 0.149399 238.986 0.210131 238.75 0.289225C238.496 0.373968 238.249 0.477072 238.01 0.594301C237.743 0.725653 237.487 0.87819 237.235 1.03638C236.968 1.20445 236.704 1.37959 236.451 1.56885C236.009 1.90217 235.557 2.22561 235.154 2.60413C233.495 4.1634 231.865 5.75375 230.272 7.37799C229.421 8.24379 228.598 9.13924 227.828 10.0742C224.766 13.7818 221.718 17.5006 218.773 21.3013C217.465 22.9877 216.289 24.7715 215.079 26.5257C214.776 26.965 214.494 27.4184 214.232 27.883C213.779 28.6952 213.354 29.5228 212.939 30.3547C212.831 30.5708 212.747 30.7996 212.665 31.027C212.586 31.2445 212.514 31.4648 212.456 31.688C212.402 31.8984 212.355 32.1131 212.331 32.3292C212.31 32.5284 212.307 32.7303 212.32 32.9295C212.327 33.0298 212.357 33.1286 212.389 33.2233C212.425 33.3264 212.471 33.4252 212.525 33.5199C212.584 33.623 212.653 33.7204 212.725 33.8136C212.805 33.9153 212.885 34.0142 212.975 34.1046C213.172 34.2981 213.372 34.4873 213.586 34.6625C213.805 34.8433 214.031 35.0156 214.268 35.1709C214.682 35.4421 215.11 35.6949 215.535 35.9435C215.721 36.0523 215.917 36.1455 216.107 36.2444C216.175 36.2783 215.973 36.1737 215.906 36.137C215.898 36.1342 215.877 36.1215 215.884 36.1243C215.895 36.1271 215.906 36.1356 215.916 36.1413C216.021 36.1963 216.125 36.25 216.231 36.3051C218.848 37.6723 221.475 39.0197 224.08 40.4081C226.698 41.8035 229.315 43.2032 231.901 44.6565L237.716 47.9234C235.697 49.4516 233.639 50.9275 231.661 52.5052C230.906 53.1083 230.204 53.7763 229.519 54.4585C228.962 55.0136 228.438 55.6025 227.944 56.2113C227.548 56.6985 227.188 57.2141 226.852 57.7437C226.588 58.1561 226.356 58.5926 226.149 59.0346C225.991 59.3708 225.864 59.7211 225.752 60.0756C225.671 60.3241 225.619 60.5798 225.574 60.8368C225.547 60.9908 225.541 61.1504 225.533 61.3086C225.53 61.3623 225.54 61.4159 225.54 61.4696C225.543 61.6122 225.536 61.7535 225.544 61.8947C225.551 62.0275 225.567 62.1602 225.588 62.2888C225.608 62.4145 225.635 62.5388 225.669 62.6616C225.7 62.7775 225.741 62.8933 225.784 63.0063C225.828 63.115 225.878 63.2224 225.931 63.3269C225.985 63.4286 226.04 63.5317 226.109 63.6235C226.243 63.8071 226.379 63.9893 226.539 64.1503C226.698 64.3113 226.873 64.4582 227.057 64.5924C227.241 64.728 227.438 64.8466 227.639 64.9568C227.842 65.0669 228.053 65.163 228.267 65.252C228.481 65.3409 228.695 65.4356 228.921 65.485C229.733 65.6644 230.551 65.8282 231.376 65.9398C231.78 65.9949 232.191 66.0175 232.596 65.985C234.002 65.8748 235.406 65.7322 236.798 65.5133C238.424 65.2576 240.037 64.9158 241.646 64.5641C243.542 64.1489 245.434 63.7096 247.312 63.2167C248.64 62.8679 249.99 62.5585 251.261 62.0388C252.262 61.6306 253.274 61.2408 254.267 60.8128C254.49 60.7182 254.7 60.5939 254.909 60.471C255.098 60.3609 255.285 60.2408 255.463 60.1137C255.62 60.0021 255.775 59.8835 255.915 59.7507C256.033 59.6391 256.142 59.5148 256.238 59.3821C256.322 59.2705 256.391 59.1462 256.449 59.0177C256.5 58.9047 256.538 58.7832 256.565 58.6604C256.59 58.5488 256.601 58.4315 256.601 58.3171C256.601 58.2056 256.587 58.094 256.567 57.9852C256.545 57.8793 256.514 57.7734 256.474 57.6703C256.436 57.5672 256.385 57.4669 256.33 57.3708C256.275 57.2748 256.214 57.1802 256.149 57.0912C256.084 57.0022 256.015 56.9132 255.94 56.8313C255.795 56.6788 255.646 56.5248 255.49 56.3864C255.353 56.2649 255.206 56.1562 255.058 56.0517C254.912 55.9486 254.761 55.8525 254.61 55.7607C253.575 55.1364 252.543 54.4995 251.501 53.8851L247.135 51.3075C249.787 49.5095 252.462 47.7454 255.089 45.9093C256.211 45.1255 257.316 44.3147 258.381 43.4546C259.293 42.7173 260.162 41.9264 261.012 41.1213C261.418 40.7386 261.778 40.3134 262.145 39.894C262.312 39.7033 262.466 39.4999 262.611 39.2923C262.745 39.1044 262.881 38.9152 262.987 38.709C263.328 38.031 263.665 37.3488 263.95 36.6455C264.064 36.3588 264.112 36.0494 264.177 35.7472C264.207 35.6074 264.218 35.4633 264.23 35.3207C264.241 35.1837 264.245 35.0452 264.244 34.9082C264.237 34.7755 264.228 34.6399 264.213 34.5071ZM231.626 16.6659C233.106 15.1306 234.589 13.5981 236.095 12.0869C236.369 11.8115 236.674 11.5643 236.968 11.3087C237.069 11.2197 237.178 11.1349 237.287 11.0516C237.37 10.9881 237.452 10.9217 237.543 10.8652C237.606 10.8256 237.674 10.7917 237.743 10.7635C237.817 10.7338 237.89 10.7042 237.969 10.6915C238.051 10.6773 238.134 10.6787 238.219 10.683C238.261 10.6844 238.304 10.6957 238.345 10.7098C238.387 10.7225 238.431 10.7423 238.47 10.7649C238.513 10.7889 238.555 10.8172 238.592 10.8482C238.636 10.8835 238.677 10.9231 238.713 10.9655C238.756 11.0135 238.795 11.0643 238.829 11.118C238.869 11.1801 238.911 11.2437 238.937 11.3129C239.009 11.4993 239.074 11.69 239.122 11.8849C239.191 12.1632 239.244 12.4456 239.288 12.7309C239.396 13.4258 239.494 14.1221 239.572 14.8199C239.674 15.7238 239.747 16.6305 239.831 17.5359L240.28 22.3564L234.908 21.1205L229.896 20.2957L228.683 20.2025L228.289 20.1926C229.4 19.0161 230.503 17.8311 231.626 16.6659ZM228.257 23.369L228.277 23.3394L228.306 23.3238L228.346 23.3196L228.411 23.3295L228.599 23.3832L229.085 23.5696L229.746 23.8634C231.452 24.5936 233.158 25.3238 234.866 26.0512C235.997 26.5342 237.13 27.013 238.26 27.496L240.496 28.4508L240.695 28.5398C240.815 30.3067 240.962 32.0722 241.055 33.8405C241.129 35.2218 241.158 36.6059 241.192 37.9887C241.196 38.1638 241.182 38.3375 241.17 38.5112C241.164 38.6087 241.154 38.7076 241.14 38.805C241.124 38.9025 241.106 38.9999 241.078 39.0931C241.049 39.1849 241.018 39.2782 240.972 39.3629C240.928 39.4462 240.867 39.5225 240.807 39.596C240.777 39.6327 240.736 39.6652 240.698 39.6948C240.658 39.7245 240.614 39.7541 240.569 39.7796C240.523 39.805 240.47 39.8262 240.42 39.8445C240.363 39.8643 240.305 39.8813 240.246 39.8926C240.174 39.9053 240.1 39.9123 240.028 39.9151C239.952 39.9166 239.876 39.9151 239.8 39.9053C239.718 39.8954 239.639 39.8784 239.561 39.8587C239.476 39.8375 239.393 39.8149 239.314 39.7824C239.14 39.7089 238.966 39.6313 238.802 39.538C238.616 39.4321 238.437 39.3121 238.263 39.1849C238.071 39.0437 237.887 38.8926 237.709 38.7358C237.514 38.5635 237.324 38.3884 237.147 38.2005C236.76 37.7867 236.377 37.3658 236.019 36.9265C235.37 36.1342 234.697 35.356 234.127 34.5057C233.342 33.3334 232.537 32.1753 231.773 30.9889C231.317 30.2813 230.849 29.5765 230.469 28.8223L228.745 25.4057L228.373 24.3167L228.289 23.9933L228.238 23.6812L228.233 23.4552L228.257 23.369ZM247.313 53.652C247.778 53.9458 248.246 54.2353 248.703 54.5376C249.295 54.9274 249.888 55.3144 250.462 55.7296C250.874 56.0277 251.268 56.3497 251.658 56.6788C251.83 56.8257 251.993 56.9838 252.148 57.1505C252.274 57.2875 252.384 57.4372 252.495 57.5869C252.503 57.5968 252.504 57.6095 252.503 57.6208C252.503 57.6477 252.5 57.6731 252.491 57.6985C252.487 57.7155 252.474 57.7296 252.463 57.7409C252.446 57.7564 252.428 57.7705 252.408 57.779C252.381 57.7917 252.353 57.7988 252.323 57.8044C252.282 57.8129 252.24 57.8186 252.199 57.8214C249.933 57.9909 247.665 58.1462 245.401 58.3242L236.55 59.0191L236.274 59.036L236.401 58.899L236.959 58.4061C238.107 57.553 239.218 56.6477 240.401 55.8455L245.414 52.4473C246.045 52.8484 246.679 53.2495 247.313 53.652ZM254.131 36.226C254.107 36.3079 254.076 36.3884 254.038 36.4633C253.991 36.5508 253.938 36.6356 253.874 36.7104C253.723 36.8898 253.563 37.065 253.391 37.2246C253.021 37.5621 252.655 37.9081 252.247 38.1977C250.84 39.1948 249.449 40.216 248.025 41.1891C247.045 41.86 246.034 42.4871 245.034 43.1297L239.219 46.8655C238.396 46.3938 237.572 45.9206 236.749 45.4503L226.218 39.4307C223.84 38.0098 221.447 36.613 219.084 35.1667C218.639 34.8941 218.221 34.5777 217.796 34.2755C217.66 34.1794 217.535 34.0693 217.405 33.9676C217.364 33.9365 217.319 33.9083 217.28 33.8744C217.191 33.7925 217.101 33.7077 217.018 33.6173C216.967 33.5608 216.925 33.5001 216.882 33.4365C216.841 33.3702 216.8 33.3009 216.772 33.2275C216.742 33.1526 216.715 33.0735 216.704 32.9916C216.691 32.9069 216.69 32.8207 216.703 32.736C216.715 32.6428 216.741 32.5524 216.773 32.4648C216.807 32.3702 216.85 32.277 216.902 32.1908C217.006 32.0128 217.118 31.8363 217.245 31.671C217.392 31.4818 217.549 31.301 217.715 31.1301C219.076 29.7304 220.457 28.3505 221.824 26.9565L225.51 23.1953L225.686 23.8026L226.133 24.8704L226.163 24.9354C227.137 26.6246 228.053 28.3491 229.087 30.003C230.274 31.9041 231.55 33.7501 232.824 35.5932C233.423 36.4562 234.047 37.3022 234.705 38.1228C235.277 38.8361 235.869 39.5366 236.511 40.1892C237.075 40.7612 237.692 41.2838 238.319 41.788C238.63 42.0366 238.979 42.2371 239.321 42.4419C239.482 42.5408 239.655 42.6199 239.829 42.6976C239.994 42.7696 240.162 42.8331 240.333 42.8882C240.5 42.9419 240.67 42.9857 240.842 43.021C240.997 43.0535 241.157 43.0789 241.315 43.093C241.459 43.1057 241.605 43.1086 241.75 43.1029C241.883 43.1001 242.017 43.0874 242.15 43.0662C242.273 43.0478 242.395 43.0196 242.514 42.9857C242.627 42.9546 242.737 42.9151 242.846 42.8685C242.946 42.8275 243.045 42.7781 243.141 42.7244C243.232 42.6735 243.323 42.6213 243.407 42.5577C243.559 42.4419 243.712 42.3219 243.85 42.1905C243.969 42.0775 244.078 41.9532 244.177 41.8233C244.304 41.658 244.418 41.4829 244.524 41.3035C244.652 41.086 244.774 40.8615 244.88 40.6312C244.999 40.3742 245.109 40.1129 245.198 39.8445C245.381 39.2852 245.556 38.7217 245.696 38.1483C245.884 37.3743 246.092 36.5989 246.175 35.8051L246.652 31.2134C247.741 31.7205 248.856 32.1809 249.921 32.736C250.96 33.2783 251.956 33.9054 252.966 34.5043C253.084 34.5749 253.195 34.6568 253.301 34.7444C253.45 34.8687 253.594 35 253.731 35.1399C253.803 35.2133 253.867 35.2966 253.923 35.3814C253.978 35.4647 254.029 35.5537 254.067 35.6455C254.103 35.7359 254.127 35.8334 254.145 35.9294C254.154 35.9774 254.151 36.0268 254.148 36.0763C254.149 36.1285 254.145 36.1794 254.131 36.226Z" fill="#EFAB00"/>
</svg>
