<svg width="237" height="59" viewBox="0 0 237 59" fill="none" xmlns="http://www.w3.org/2000/svg">
<path d="M21.0719 29.4976C24.2076 25.091 27.8472 25.9677 32.1372 26.4626C30.9989 25.2465 30.4385 23.7122 30.4385 22.0648C30.4385 18.2697 33.5867 15.1922 37.4719 15.1922C45.5854 15.1922 44.5831 24.3768 41.0638 24.3768C40.2737 24.3768 39.6391 23.8218 39.4676 23.1643C39.3262 22.6216 39.4621 21.9835 39.2749 21.4691C39.0116 20.7515 38.2833 20.2247 37.4684 20.2247C36.9434 20.2247 36.4715 20.4316 36.125 20.7655C35.0326 21.819 35.715 23.9279 36.4273 25.0061C37.419 26.5015 39.1601 27.4667 41.1575 27.4472L41.4827 27.4371C47.0455 26.8114 48.6823 22.076 47.27 17.7789C46.6566 15.9123 44.516 13.1653 42.105 12.0146C46.5452 9.4445 47.9081 3.5176 47.7508 0L0 29.4982L47.7508 59C47.9081 55.4807 46.5452 49.5538 42.105 46.9854C44.516 45.8329 46.6566 43.086 47.27 41.2194C48.6823 36.9223 47.0455 32.1868 41.4827 31.5593L41.1575 31.5493C39.1601 31.5293 37.419 32.495 36.4273 33.9904C35.715 35.0687 35.0326 37.1775 36.125 38.2309C36.4715 38.5652 36.9434 38.7718 37.4684 38.7718C38.2833 38.7718 39.0116 38.2469 39.2749 37.5275C39.4623 37.0131 39.3262 36.3767 39.4676 35.8323C39.6391 35.1747 40.2737 34.6197 41.0638 34.6197C44.5831 34.6197 45.5854 43.8043 37.4719 43.8043C33.5867 43.8043 30.4385 40.7269 30.4385 36.9317C30.4385 35.2843 30.9989 33.75 32.1372 32.5338C27.8472 33.0304 24.2076 33.9079 21.0719 29.4976Z" fill="#9B804D"/>
<path d="M79.5865 44.3836V29.3198C79.5865 29.1324 79.5815 28.9486 79.5765 28.7684V28.7584L79.5665 28.5659V28.5559V28.5408L79.563 28.5058V28.4908C79.2253 23.2091 75.6141 21.3955 71.1137 21.3955C67.582 21.3955 64.7714 22.5356 63.3468 23.9302V26.739C65.2681 25.7032 68.0204 24.7169 70.1751 24.7169C72.8531 24.7169 74.7267 25.5229 74.7321 28.4908L74.7338 28.5158V28.7723L74.7439 30.2289C67.7582 30.9094 61.9126 32.1768 61.9126 38.2256C61.9126 42.6553 65.0201 45.7222 71.2828 45.7222C73.4305 45.7222 77.8207 45.3294 79.5865 44.3836ZM74.7439 42.1781C73.3615 42.7455 70.9028 42.8003 69.5876 42.4081C68.8258 42.1801 68.2 41.83 67.7405 41.3103C67.1359 40.6263 66.8107 39.6647 66.8107 38.3955C66.8107 34.2222 70.2064 33.2959 74.7439 33.2959V42.1781Z" fill="#253168"/>
<path d="M170.552 45.2586V41.5765C170.134 41.7003 169.802 41.785 169.343 41.785C167.591 41.785 166.882 40.6166 166.882 38.8649V24.7115H170.552V21.4873H166.882V15.792L161.793 18.9702L161.795 21.4873H159.098V24.7115H161.795V39.6267C161.795 42.7536 163.547 45.718 167.966 45.718C169.177 45.718 170.092 45.467 170.552 45.2586Z" fill="#253168"/>
<path d="M156.271 38.5654C156.271 35.8202 155.209 33.464 150.565 31.6327C148.487 30.8055 147.027 29.8457 147.027 27.9278C147.027 26.2697 148.222 24.8309 150.433 24.8309C152.114 24.8309 154.034 25.925 154.905 26.8495V23.9807C151.909 19.4538 141.809 20.8042 141.809 28.1893C141.809 30.6304 142.737 33.0716 147.249 34.772C149.682 35.6876 151.059 36.6015 151.059 38.606C151.059 42.9066 144.175 42.387 141.786 40.607L141.811 44.3649C143.218 45.0791 144.996 45.7172 147.782 45.7172C153 45.7172 156.271 42.4029 156.271 38.5654Z" fill="#253168"/>
<path d="M214.892 45.08L214.888 28.4784C214.888 24.7398 212.613 21.3901 205.697 21.3901C201.787 21.3901 198.822 22.0336 196.632 23.0659L196.634 45.08H201.875L201.873 25.3408C202.861 24.9555 203.763 24.6974 205.481 24.6974C208.79 24.6974 209.649 26.6736 209.649 28.5631L209.651 45.08H214.892Z" fill="#253168"/>
<path d="M107.276 21.4244C101.413 21.223 98.3234 21.9124 95.9194 23.0718V45.0806H101.155V25.4334C102.355 24.7458 105.26 24.3516 107.275 25.1699L107.276 21.4244Z" fill="#253168"/>
<path d="M90.3012 21.5015H85.209V45.0799H90.3012V21.5015Z" fill="#253168"/>
<path d="M137.595 44.3836V29.3199C137.595 29.1325 137.59 28.9486 137.585 28.7684V28.7584L137.575 28.5659V28.5559V28.5409L137.571 28.5058V28.4908C137.233 23.2091 133.622 21.3955 129.122 21.3955C125.59 21.3955 122.78 22.5357 121.353 23.9303V26.739C123.276 25.7032 126.028 24.7169 128.183 24.7169C130.861 24.7169 132.735 25.5229 132.74 28.4908V28.5158V28.7724L132.75 30.2289C125.765 30.9094 119.919 32.1769 119.919 38.2257C119.919 42.6554 123.026 45.7222 129.287 45.7222C131.437 45.7222 135.829 45.3294 137.595 44.3836ZM132.75 42.1781C131.366 42.7455 128.909 42.8003 127.594 42.4081C126.832 42.1801 126.205 41.8301 125.747 41.3104C125.141 40.6264 124.817 39.6647 124.817 38.3955C124.817 34.2222 128.211 33.2959 132.75 33.2959V42.1781Z" fill="#253168"/>
<path d="M191.009 44.3836V29.3199C191.009 29.1325 191.005 28.9486 190.999 28.7684L190.997 28.7584L190.987 28.5659V28.5559V28.5409L190.985 28.5058L190.983 28.4908C190.648 23.2091 187.034 21.3955 182.534 21.3955C179.004 21.3955 176.194 22.5357 174.767 23.9303V26.739C176.69 25.7032 179.441 24.7169 181.597 24.7169C184.275 24.7169 186.149 25.5229 186.154 28.4908V28.5158V28.7724L186.164 30.2289C179.179 30.9094 173.333 32.1769 173.333 38.2257C173.333 42.6554 176.442 45.7222 182.703 45.7222C184.853 45.7222 189.245 45.3294 191.009 44.3836ZM186.164 42.1781C184.782 42.7455 182.325 42.8003 181.008 42.4081C180.248 42.1801 179.62 41.8301 179.161 41.3104C178.556 40.6264 178.231 39.6647 178.231 38.3955C178.231 34.2222 181.627 33.2959 186.164 33.2959V42.1781Z" fill="#253168"/>
<path d="M236.751 44.3836V29.3199C236.751 29.1325 236.746 28.9486 236.741 28.7684L236.74 28.7584L236.73 28.5659V28.5559V28.5409L236.726 28.5058V28.4908C236.388 23.2091 232.777 21.3955 228.277 21.3955C224.745 21.3955 221.935 22.5357 220.51 23.9303V26.739C222.433 25.7032 225.183 24.7169 227.338 24.7169C230.016 24.7169 231.89 25.5229 231.897 28.4908V28.5158V28.7724L231.907 30.2289C224.921 30.9094 219.076 32.1769 219.076 38.2257C219.076 42.6554 222.183 45.7222 228.446 45.7222C230.594 45.7222 234.986 45.3294 236.751 44.3836ZM231.907 42.1781C230.525 42.7455 228.068 42.8003 226.751 42.4081C225.991 42.1801 225.363 41.8301 224.904 41.3104C224.299 40.6264 223.974 39.6647 223.974 38.3955C223.974 34.2222 227.368 33.2959 231.907 33.2959V42.1781Z" fill="#253168"/>
<path d="M90.4689 15.828C90.4689 14.4086 89.2952 13.2808 87.7538 13.2808C86.2567 13.2808 85.0405 14.4086 85.0405 15.828C85.0405 17.2049 86.2567 18.3309 87.7538 18.3309C89.2952 18.3309 90.4689 17.2049 90.4689 15.828Z" fill="#253168"/>
</svg>
