<svg width="80" height="80" viewBox="0 0 80 80" fill="none" xmlns="http://www.w3.org/2000/svg">
<mask id="mask0_1404_485" style="mask-type:luminance" maskUnits="userSpaceOnUse" x="0" y="0" width="80" height="80">
<path d="M80 0H0V80H80V0Z" fill="white"/>
</mask>
<g mask="url(#mask0_1404_485)">
<path d="M80 0H0V80H80V0Z" fill="#E5004B"/>
<path d="M11.1305 72.0459L12.4531 69.034C12.7982 68.9833 13.1312 68.9447 13.4498 68.9182C13.7683 68.8916 14.0772 68.8796 14.3717 68.8796C14.9615 68.8751 15.55 68.9366 16.1262 69.063C16.6356 69.1784 17.1241 69.3722 17.5742 69.6374C18.0228 69.9062 18.4294 70.2396 18.7808 70.6268C19.1735 71.061 19.5175 71.5368 19.8065 72.0459H22.7339L16.4809 58.618H14.4803L8.20557 72.0459H11.1305ZM15.4746 62.1512L17.8879 67.4847C17.4808 67.2062 17.026 67.005 16.5461 66.891C15.9143 66.7376 15.2654 66.6662 14.6154 66.6786C14.2582 66.6786 13.8673 66.6979 13.4449 66.7365L15.4746 62.1512ZM30.4542 72.0459L36.6517 58.618H33.5916L29.5251 67.9215L25.4779 58.618H22.3405L28.4415 72.0459H30.4542ZM45.7041 72.5623C46.7155 72.5721 47.7192 72.3869 48.6605 72.0169C49.5369 71.6736 50.3356 71.158 51.0092 70.5005C51.6828 69.8431 52.2177 69.0572 52.5822 68.1893C53.3351 66.3521 53.3351 64.2925 52.5822 62.4552C52.2198 61.5939 51.688 60.8143 51.0183 60.1626C50.3399 59.5069 49.5386 58.9918 48.6605 58.647C46.7581 57.9165 44.6526 57.9165 42.7502 58.647C41.8721 58.9918 41.0707 59.5069 40.3924 60.1626C39.7219 60.8136 39.19 61.5935 38.8285 62.4552C38.0722 64.2918 38.0722 66.3528 38.8285 68.1893C39.193 69.0572 39.7279 69.8431 40.4015 70.5005C41.0751 71.158 41.8738 71.6736 42.7502 72.0169C43.6907 72.3867 44.6936 72.5719 45.7041 72.5623ZM45.7041 70.0693C45.0758 70.0762 44.4527 69.9556 43.8724 69.7146C43.3284 69.486 42.8359 69.1504 42.4244 68.7275C42.0042 68.2922 41.6759 67.7768 41.4591 67.2119C41.2239 66.5999 41.1069 65.9489 41.114 65.2933C41.1068 64.6503 41.224 64.0119 41.4591 63.4133C41.6734 62.8605 41.9978 62.3571 42.4127 61.9335C42.8276 61.5099 43.3242 61.1751 43.8724 60.9493C45.0486 60.4764 46.3621 60.4764 47.5383 60.9493C48.0865 61.1751 48.5831 61.5099 48.998 61.9335C49.4128 62.3571 49.7373 62.8605 49.9516 63.4133C50.1855 64.0122 50.3027 64.6504 50.2967 65.2933C50.3047 65.9529 50.1876 66.608 49.9516 67.224C49.7329 67.785 49.4048 68.297 48.9863 68.7299C48.5747 69.1528 48.0823 69.4885 47.5383 69.717C46.9572 69.9582 46.3332 70.0789 45.7041 70.0718M57.3099 58.6204V72.0483H60.0925V63.5099L67.3325 72.0459H69.4828V58.618H66.7002V67.154L59.4602 58.618L57.3099 58.6204Z" fill="white"/>
</g>
</svg>
