<svg width="100" height="100" viewBox="0 0 100 100" fill="none" xmlns="http://www.w3.org/2000/svg">
<path d="M49.9987 99.9883C40.1099 99.9902 30.4426 97.0591 22.2198 91.5658C13.9971 86.0724 7.58839 78.2637 3.80444 69.1274C0.020493 59.9911 -0.96867 49.9378 0.962084 40.2392C2.89284 30.5406 7.65676 21.6326 14.6512 14.642C24.0285 5.26599 36.7464 -0.000909287 50.007 1.17747e-07C63.2677 0.000909523 75.9848 5.26955 85.3609 14.6469C94.7369 24.0242 100.004 36.7421 100.003 50.0027C100.002 63.2634 94.7333 75.9805 85.356 85.3566C80.7246 90.0126 75.2158 93.7039 69.1485 96.2171C63.0811 98.7302 56.5757 100.015 50.0084 99.998M50.0084 1.48772C23.244 1.47802 1.47747 23.2445 1.47747 49.9993C1.47747 76.7541 23.244 98.5173 49.9987 98.5173C76.7535 98.5173 98.52 76.7541 98.52 49.9993C98.52 23.2445 76.7535 1.47802 49.9987 1.47802" fill="#A67F12"/>
<mask id="mask0_1400_279" style="mask-type:luminance" maskUnits="userSpaceOnUse" x="0" y="0" width="100" height="100">
<path d="M1.47755 49.9993C1.47755 23.2446 23.2441 1.47804 49.9988 1.47804C76.7536 1.47804 98.5201 23.2446 98.5201 49.9993C98.5201 76.7541 76.7536 98.5173 49.9988 98.5173C23.2441 98.5173 1.47755 76.7541 1.47755 49.9993ZM14.6513 14.6517C5.27522 24.0278 0.0078124 36.7444 0.0078125 50.0042C0.0078126 63.2639 5.27522 75.9805 14.6513 85.3566C24.0273 94.7326 36.7439 100 50.0037 100C63.2634 100 75.98 94.7326 85.3561 85.3566C94.7321 75.9805 99.9995 63.2639 99.9995 50.0042C99.9995 36.7444 94.7321 24.0278 85.3561 14.6517C75.98 5.27571 63.2634 0.00830088 50.0037 0.00830078C36.7439 0.00830068 24.0273 5.27571 14.6513 14.6517Z" fill="white"/>
</mask>
<g mask="url(#mask0_1400_279)">
<path d="M99.9877 0.0102539H0.00976562V99.9882H99.9877V0.0102539Z" fill="#A67F12"/>
</g>
<path d="M49.9988 86.5235C42.7737 86.5235 35.7109 84.381 29.7034 80.3669C23.6959 76.3529 19.0137 70.6475 16.2488 63.9724C13.4838 57.2973 12.7604 49.9522 14.17 42.8659C15.5795 35.7796 19.0587 29.2705 24.1677 24.1615C29.2766 19.0526 35.7857 15.5734 42.872 14.1639C49.9583 12.7543 57.3034 13.4777 63.9785 16.2427C70.6537 19.0076 76.359 23.6898 80.373 29.6973C84.3871 35.7047 86.5296 42.7676 86.5296 49.9927C86.5202 59.6784 82.6684 68.9646 75.8196 75.8135C68.9708 82.6623 59.6845 86.5141 49.9988 86.5235ZM49.9988 14.9393C43.0645 14.9387 36.2857 16.9944 30.5197 20.8464C24.7537 24.6984 20.2595 30.1738 17.6054 36.5801C14.9513 42.9864 14.2566 50.0359 15.609 56.837C16.9614 63.6382 20.3003 69.8855 25.2034 74.7891C30.1065 79.6926 36.3535 83.0321 43.1545 84.3851C49.9556 85.7382 57.0051 85.0441 63.4117 82.3905C69.8182 79.737 75.294 75.2433 79.1466 69.4777C82.9991 63.7121 85.0554 56.9335 85.0554 49.9992C85.0452 40.7044 81.3485 31.7933 74.7764 25.2206C68.2044 18.6479 59.2935 14.9504 49.9988 14.9393Z" fill="#A67F12"/>
<mask id="mask1_1400_279" style="mask-type:luminance" maskUnits="userSpaceOnUse" x="13" y="13" width="74" height="74">
<path d="M14.9389 49.999C14.9382 43.0647 16.9939 36.2859 20.846 30.5199C24.698 24.754 30.1734 20.2597 36.5797 17.6057C42.986 14.9516 50.0354 14.2568 56.8366 15.6092C63.6377 16.9617 69.8851 20.3005 74.7886 25.2036C79.6922 30.1067 83.0316 36.3537 84.3847 43.1548C85.7377 49.9558 85.0436 57.0053 82.3901 63.4119C79.7366 69.8184 75.2429 75.2942 69.4773 79.1468C63.7116 82.9993 56.9331 85.0556 49.9987 85.0556C40.704 85.0454 31.7928 81.3487 25.2202 74.7767C18.6475 68.2046 14.95 59.2938 14.9389 49.999ZM13.4712 49.999C13.4712 57.2241 15.6137 64.287 19.6277 70.2944C23.6418 76.3019 29.3471 80.9841 36.0222 83.7491C42.6974 86.514 50.0425 87.2374 57.1288 85.8279C64.215 84.4183 70.7242 80.9391 75.8331 75.8302C80.942 70.7213 84.4213 64.2121 85.8308 57.1258C87.2404 50.0396 86.5169 42.6944 83.752 36.0193C80.9871 29.3442 76.3048 23.6389 70.2974 19.6248C64.2899 15.6108 57.2271 13.4683 50.002 13.4683C40.3163 13.4777 31.03 17.3295 24.1812 24.1783C17.3324 31.0271 13.4806 40.3134 13.4712 49.999Z" fill="white"/>
</mask>
<g mask="url(#mask1_1400_279)">
<path d="M86.523 13.4717H13.4712V86.5235H86.523V13.4717Z" fill="#A67F12"/>
</g>
<path d="M49.9988 79.0655C44.2501 79.0655 38.6304 77.3608 33.8505 74.167C29.0706 70.9732 25.3451 66.4336 23.1452 61.1225C20.9452 55.8113 20.3696 49.9671 21.4911 44.3288C22.6127 38.6905 25.3809 33.5114 29.4459 29.4464C33.5109 25.3814 38.69 22.6131 44.3283 21.4916C49.9666 20.3701 55.8108 20.9457 61.122 23.1457C66.4332 25.3456 70.9727 29.0711 74.1665 33.851C77.3603 38.6309 79.065 44.2506 79.065 49.9993C79.0573 57.7058 75.9925 65.0944 70.5432 70.5437C65.0939 75.993 57.7053 79.0578 49.9988 79.0655ZM49.9988 21.4213C44.3466 21.4213 38.8214 23.0973 34.1217 26.2375C29.4221 29.3777 25.7592 33.841 23.5962 39.063C21.4332 44.2849 20.8672 50.031 21.9699 55.5746C23.0726 61.1182 25.7944 66.2104 29.7911 70.2071C33.7878 74.2038 38.8799 76.9256 44.4235 78.0283C49.9671 79.131 55.7132 78.565 60.9352 76.402C66.1571 74.239 70.6204 70.5761 73.7606 65.8764C76.9008 61.1768 78.5769 55.6515 78.5769 49.9993C78.5675 42.4228 75.5536 35.1594 70.1962 29.802C64.8388 24.4446 57.5753 21.4307 49.9988 21.4213Z" fill="#A67F12"/>
<mask id="mask2_1400_279" style="mask-type:luminance" maskUnits="userSpaceOnUse" x="20" y="20" width="60" height="60">
<path d="M21.4208 49.9985C21.4189 44.3458 23.0933 38.8196 26.2323 34.1187C29.3714 29.4178 33.834 25.7534 39.0558 23.5889C44.2775 21.4244 50.0239 20.857 55.5682 21.9586C61.1124 23.0602 66.2054 25.7813 70.2031 29.7776C74.2008 33.7739 76.9236 38.866 78.0271 44.4099C79.1305 49.9538 78.5652 55.7003 76.4024 60.9229C74.2397 66.1454 70.5768 70.6092 65.877 73.7499C61.1771 76.8905 55.6514 78.5668 49.9988 78.5668C42.4229 78.5574 35.1599 75.5439 29.8026 70.1872C24.4453 64.8306 21.431 57.5679 21.4208 49.992M20.9326 49.992C20.9326 55.7407 22.6373 61.3604 25.8312 66.1403C29.025 70.9202 33.5645 74.6457 38.8757 76.8457C44.1868 79.0456 50.0311 79.6212 55.6694 78.4997C61.3077 77.3782 66.4868 74.6099 70.5517 70.5449C74.6167 66.4799 77.385 61.3008 78.5065 55.6625C79.6281 50.0242 79.0525 44.18 76.8525 38.8688C74.6526 33.5577 70.9271 29.0182 66.1471 25.8243C61.3672 22.6305 55.7476 20.9258 49.9988 20.9258C42.2924 20.9335 34.9037 23.9983 29.4544 29.4476C24.0051 34.8969 20.9403 42.2855 20.9326 49.992Z" fill="white"/>
</mask>
<g mask="url(#mask2_1400_279)">
<path d="M79.065 20.9326H20.9326V79.065H79.065V20.9326Z" fill="#A67F12"/>
</g>
<path d="M49.9954 81.2152H49.7271C49.353 81.1744 49.0102 80.9873 48.7734 80.6947C48.5128 80.3889 48.3141 80.0354 48.1883 79.6537C48.143 79.7733 48.0913 79.8962 48.0396 80.0061C47.9348 80.2464 47.7767 80.4598 47.5773 80.63C47.3178 80.8239 46.9988 80.9211 46.6754 80.9048C46.5511 80.9047 46.4269 80.8971 46.3036 80.8822C46.1631 80.8669 46.0245 80.8376 45.8898 80.7949C45.6441 80.7154 45.4207 80.5792 45.2376 80.3972C45.0545 80.2152 44.9169 79.9926 44.8359 79.7475L44.8165 79.7055C44.7803 79.6149 44.7543 79.5205 44.7389 79.4242C44.611 79.5497 44.4676 79.6583 44.3122 79.7475C44.0323 79.9064 43.7159 79.99 43.394 79.9899C43.1795 79.9895 42.9664 79.9534 42.7636 79.8833C42.552 79.8103 42.3582 79.6935 42.1947 79.5406C41.9492 79.3002 41.7843 78.9896 41.7227 78.6516C41.7227 78.5772 41.7001 78.5061 41.6904 78.4382C41.5908 78.4526 41.4903 78.4602 41.3897 78.4608C41.0204 78.4677 40.6599 78.3479 40.3681 78.1214C40.0116 77.8405 39.772 77.4373 39.6957 76.9899C39.6311 76.9899 39.5632 76.9899 39.4953 76.9899C39.2911 76.9925 39.0876 76.9664 38.8907 76.9123C38.2022 76.7119 38.034 76.3627 37.8336 75.6741C37.7811 75.4749 37.7691 75.2671 37.7981 75.0631C37.5688 75.197 37.33 75.3137 37.0836 75.4123C36.8383 75.5169 36.5771 75.5792 36.311 75.5965H36.2786C35.8737 75.6066 35.4779 75.4753 35.1593 75.2251C34.8407 74.9749 34.6192 74.6216 34.5329 74.2258C34.5075 74.12 34.4956 74.0114 34.4974 73.9026C34.4941 73.8423 34.4941 73.7818 34.4974 73.7215C34.5036 73.6607 34.5133 73.6002 34.5264 73.5405C34.5264 73.5405 34.5264 73.5017 34.5264 73.4661L34.5426 73.4079C34.5426 73.3724 34.562 73.3368 34.5749 73.3013L34.6008 73.2237C34.6008 73.1849 34.6331 73.1396 34.6525 73.1008C34.6719 73.062 34.7043 72.9812 34.7398 72.9133C34.7494 72.8922 34.7602 72.8717 34.7721 72.8519C34.7877 72.8187 34.805 72.7863 34.8239 72.7549C34.9354 72.5601 35.0619 72.3742 35.2021 72.1989V72.1762C35.2603 72.1051 35.3153 72.0372 35.3734 71.9726C35.4316 71.9079 35.4931 71.84 35.5513 71.7754C36.0685 71.2452 39.3045 68.5167 40.3099 67.7279C40.5589 67.5307 40.9403 67.2527 41.338 66.9585L41.5901 66.7742C42.2108 66.3151 42.9188 65.8044 43.4652 65.3485C43.5622 65.2709 43.6527 65.1934 43.74 65.119C43.8844 64.9983 44.004 64.8905 44.0988 64.7957C44.1817 64.7248 44.2536 64.642 44.3122 64.55C44.3328 64.4673 44.3368 64.3812 44.3241 64.2969C44.3113 64.2126 44.282 64.1316 44.2378 64.0586C44.1958 64.0845 44.1473 64.1201 44.0891 64.1621L43.9953 64.2332C43.3931 64.727 42.7318 65.144 42.0266 65.4746L41.9522 65.5069C41.7011 65.6128 41.4325 65.6709 41.1602 65.6783C40.1903 65.6783 39.6084 65.2192 39.4242 64.3561C39.3874 64.1889 39.3874 64.0157 39.4242 63.8485C39.1876 63.9867 38.9425 64.1098 38.6903 64.217C38.5284 64.28 38.362 64.3308 38.1925 64.369V64.4336H37.8013C37.5786 64.4659 37.3539 64.4821 37.1289 64.4821C36.5815 64.4947 36.0392 64.3749 35.548 64.133C35.2981 63.9742 35.0915 63.7558 34.947 63.4973C34.8026 63.2388 34.7247 62.9484 34.7204 62.6524C34.3713 62.7784 34.0739 62.8657 33.8799 62.9207H33.854C33.5698 62.9857 33.2792 63.0182 32.9876 63.0177C32.2864 63.0116 31.5957 62.8469 30.9671 62.536C30.6584 62.3805 30.4053 62.1333 30.2427 61.8282C30.08 61.5232 30.0158 61.1753 30.0587 60.8323C29.9298 60.8758 29.798 60.9104 29.6643 60.9357C29.5188 60.9584 29.341 60.9778 29.1794 60.9875H29.008C28.5151 60.9987 28.0252 60.9073 27.5694 60.7191C26.7774 60.3571 26.4638 59.5262 26.7354 58.4982C26.8031 58.2491 26.8985 58.0084 27.0199 57.7805C26.6735 57.8505 26.3222 57.8937 25.9692 57.9098H25.7591H25.5263C25.0969 57.9462 24.6671 57.8432 24.3008 57.6161C23.9345 57.389 23.6512 57.0499 23.4929 56.649C23.3749 56.3579 23.3241 56.044 23.3442 55.7305C23.3644 55.4171 23.455 55.1122 23.6092 54.8387C23.522 54.8387 23.4282 54.8128 23.3312 54.7934C23.0463 54.7431 22.7677 54.6618 22.5004 54.5509C21.4433 54.1113 20.7838 53.5552 20.5413 52.8957C20.273 52.1684 20.3764 51.6026 20.8646 51.108C20.5736 51.0886 20.2568 51.0627 19.9206 51.0336C19.6393 51.011 19.3387 50.969 19.0057 50.9108C18.3048 50.7843 17.6234 50.5669 16.9787 50.2642C16.8494 50.2028 16.7298 50.1414 16.6134 50.0735L16.4098 49.9571C16.2644 49.8592 16.1261 49.7512 15.996 49.6338C15.4238 49.1133 14.7837 48.0627 14.7772 47.3709C14.7711 47.2651 14.7878 47.1592 14.8263 47.0604C14.8648 46.9617 14.9241 46.8724 15.0003 46.7987C15.0715 46.7317 15.1535 46.677 15.2427 46.637C14.9194 46.5562 14.5962 46.4786 14.3731 46.4172C13.5099 46.1941 11.6543 45.2986 10.9948 44.6133C10.4452 44.0443 9.58854 42.402 9.91182 41.7425C9.94648 41.6709 9.9911 41.6045 10.0444 41.5453C9.72108 41.4451 9.37517 41.3255 9.03896 41.1897C8.01416 40.7727 5.62188 39.25 4.89773 37.9763C4.28026 36.8772 3.95051 35.3901 4.46453 34.9924C4.79218 34.7838 5.17202 34.6717 5.56045 34.6691L5.41175 34.5883L5.34386 34.5495C4.91389 34.3135 4.59061 34.1196 4.33199 33.9482C3.23432 33.2163 2.29536 32.2708 1.57117 31.168C1.31901 30.7219 0.452612 28.8339 1.10887 28.1356C1.15841 28.0867 1.21134 28.0413 1.26728 27.9999L1.3869 27.9223L1.49358 27.8673L1.5841 27.8253C1.65343 27.7956 1.72472 27.7708 1.79746 27.7509C2.13698 27.654 2.4886 27.6061 2.84166 27.6087C2.96127 27.6087 3.08089 27.6087 3.1908 27.6248C3.30072 27.641 3.36214 27.6248 3.44296 27.6539C3.91393 27.768 4.36434 27.9545 4.77811 28.2068C4.99471 28.3296 5.20808 28.4557 5.39881 28.5753C5.04967 28.1906 4.68436 27.7574 4.32875 27.2822C3.71314 26.5345 3.38825 25.5897 3.41387 24.6216C3.41139 24.5925 3.41139 24.5633 3.41387 24.5343C3.41387 24.4696 3.41387 24.4244 3.41387 24.3759C3.42661 24.2768 3.44496 24.1786 3.46883 24.0817C3.46883 24.0526 3.48822 24.0073 3.50115 23.9685V23.92C3.50115 23.8942 3.52378 23.8522 3.53995 23.8101C3.59021 23.662 3.66094 23.5216 3.75008 23.3931C3.86039 23.2551 4.00314 23.1466 4.1656 23.0772C4.32806 23.0078 4.50518 22.9797 4.68113 22.9955C5.27395 23.0204 5.84909 23.2047 6.34603 23.5289C6.7469 23.7778 7.40316 24.2272 8.09821 24.7056C8.74477 25.142 9.39134 25.5914 9.91182 25.9276C10.9431 26.6033 17.4119 30.2014 19.9335 31.4816C20.6027 31.8049 21.7795 32.3868 23.1405 33.0463C26.4929 34.6627 30.9768 36.8384 32.5997 37.8276C32.965 37.5496 41.3541 48.0821 42.1559 48.9937C42.6828 49.5918 43.9113 49.9216 44.4479 49.9636C44.4997 49.831 44.5546 49.6565 44.5902 49.5304C44.5579 49.4851 44.5255 49.4302 44.4867 49.372L44.4415 49.3041C44.2817 49.0455 44.137 48.7778 44.0083 48.5023L43.9857 48.4442C43.9664 48.4029 43.9523 48.3595 43.9436 48.3148V48.276V48.2405C43.9331 47.814 44.0357 47.3924 44.241 47.0185C44.117 46.3191 44.1457 45.6012 44.3251 44.9139C44.7033 43.7695 46.2228 42.7609 47.642 42.7091H47.9232C48.8286 42.68 49.7243 42.9039 50.5095 43.3557C50.8067 43.5382 51.0812 43.7552 51.3274 44.0023C51.4418 44.1203 51.5497 44.2444 51.6507 44.374C51.864 44.6327 52.0968 44.9269 52.3425 45.2404C52.378 45.2922 52.4039 45.3245 52.4298 45.3568C52.4556 45.3891 52.53 45.4861 52.5752 45.5508C53.0117 46.1262 54.072 47.5681 54.4244 48.3569C54.7369 48.9758 55.0923 49.5721 55.488 50.1414H55.6302C57.0703 49.6563 58.4604 49.0338 59.7812 48.2825L59.9202 48.1952C60.4605 47.8777 60.9618 47.498 61.4137 47.0637C62.9881 45.4926 63.3534 44.2932 63.7737 43.026C63.8254 42.8579 63.8804 42.7027 63.9353 42.5184C64.3006 41.429 65.1767 39.4052 66.9515 38.1089C68.0539 37.3039 73.0939 34.876 76.7534 33.0915C78.1403 32.4191 79.3397 31.8404 80.0186 31.4978C82.5369 30.224 89.0058 26.6227 90.0403 25.9438C90.5737 25.6011 91.2461 25.1388 91.8992 24.6927C92.5522 24.2466 93.2149 23.7875 93.6061 23.545C94.1034 23.2217 94.6783 23.0375 95.271 23.0116C95.4478 22.9951 95.6259 23.0232 95.7891 23.0932C95.9523 23.1632 96.0954 23.273 96.2053 23.4125C96.3163 23.5774 96.4014 23.7584 96.4574 23.9491C96.6061 24.4405 96.8292 25.7466 95.6557 27.2983C95.3324 27.7218 94.98 28.1518 94.5856 28.5915C94.7602 28.4815 94.9251 28.3813 95.0867 28.2908C95.5324 28.0063 96.0216 27.7967 96.535 27.6701C96.7347 27.6366 96.937 27.6204 97.1395 27.6216C97.5113 27.6216 98.4327 27.6733 98.8756 28.1486C99.5221 28.8468 98.6687 30.7348 98.4036 31.2133C98.2519 31.4691 98.08 31.7123 97.8895 31.9406C97.6451 32.2397 97.3839 32.5246 97.1072 32.7941L96.9908 32.9073C96.5748 33.3098 96.1237 33.6744 95.6428 33.9967C95.2936 34.2295 94.8507 34.4816 94.4078 34.7176H94.618H94.647C94.9547 34.7352 95.2518 34.8358 95.507 35.0086C95.8496 35.2543 95.7882 35.9299 95.6751 36.4504C95.5493 36.99 95.3457 37.5084 95.0705 37.9892C94.3529 39.2824 91.9606 40.7856 90.9325 41.2027C90.6093 41.3384 90.244 41.458 89.9271 41.5583C89.9811 41.6187 90.0268 41.6861 90.0629 41.7587C90.3862 42.4053 89.5263 44.0572 88.9767 44.6262C88.3301 45.3116 86.4583 46.207 85.5984 46.4301C85.3721 46.4915 85.0618 46.5691 84.7288 46.6499C84.8192 46.6911 84.9022 46.7468 84.9745 46.8148C85.0483 46.8892 85.1058 46.9783 85.1431 47.0763C85.1804 47.1743 85.1967 47.2791 85.1911 47.3838C85.1911 48.0594 84.5445 49.1101 83.9755 49.6468C83.3286 50.1651 82.5743 50.5328 81.7675 50.7233L81.6285 50.3418L81.732 50.733C81.1804 50.8816 80.6168 50.9812 80.0477 51.0304L79.1069 51.1048C79.5951 51.5929 79.6985 52.1619 79.4302 52.8925C79.2017 53.4207 78.8035 53.8575 78.2987 54.1339H78.2761L78.205 54.205H78.1468C77.9299 54.3273 77.7053 54.4353 77.4743 54.5283C77.1185 54.6745 76.7443 54.7713 76.3623 54.816C76.5235 55.0905 76.6188 55.3986 76.6406 55.7161C76.6625 56.0336 76.6104 56.3519 76.4883 56.6458C76.3735 56.9477 76.1871 57.2173 75.9452 57.4314C75.5249 57.7675 74.9954 57.9367 74.4581 57.9066H74.2221H74.0411C73.687 57.8903 73.3347 57.8471 72.9872 57.7773C73.1123 58.0038 73.2089 58.2448 73.2749 58.495C73.5497 59.5198 73.2361 60.3538 72.4441 60.7159C71.9914 60.9028 71.5049 60.9942 71.0152 60.9842C70.8456 60.9847 70.6761 60.975 70.5076 60.9551H70.346L70.3201 60.9293H70.3007C70.1702 60.9053 70.0417 60.8718 69.916 60.8291C69.9602 61.1718 69.8965 61.5197 69.7336 61.8245C69.5708 62.1293 69.317 62.3757 69.0076 62.5295C68.5655 62.7506 68.0907 62.8991 67.6013 62.9692C67.3979 62.9987 67.1927 63.0138 66.9871 63.0144C66.6887 63.0162 66.3913 62.9815 66.1013 62.911C65.888 62.856 65.6035 62.7655 65.2349 62.6362C65.2345 62.9331 65.1583 63.2249 65.0134 63.484C64.8686 63.7431 64.66 63.961 64.4073 64.1168C63.9129 64.3593 63.3673 64.4791 62.8168 64.466C62.4975 64.4667 62.1789 64.4342 61.8663 64.369C61.662 64.331 61.4617 64.2736 61.2683 64.1976C61.0155 64.0917 60.7703 63.9686 60.5344 63.8291C60.5565 63.9213 60.5685 64.0156 60.57 64.1104C60.574 64.1842 60.5674 64.2582 60.5506 64.3302C60.3695 65.1998 59.7682 65.6589 58.8113 65.6589C57.9579 65.6589 56.849 64.8862 55.9729 64.2138L55.8824 64.1427C55.8242 64.0974 55.7757 64.0651 55.7337 64.036C55.6478 64.1833 55.619 64.357 55.6529 64.5242C55.6529 64.5242 55.6529 64.5242 55.6529 64.5403C55.8009 64.7255 55.9702 64.8926 56.1572 65.0382C56.7682 65.5684 57.7542 66.2925 58.5462 66.8777C59.0021 67.2009 59.3932 67.4983 59.6583 67.7052C60.5635 68.4165 63.861 71.1967 64.4073 71.7527C64.6967 72.0436 64.9486 72.3694 65.1573 72.7226C65.4488 73.1537 65.5644 73.6799 65.4806 74.1935C65.3948 74.5893 65.1733 74.9426 64.8546 75.1923C64.5358 75.442 64.1397 75.5724 63.7349 75.561C63.2518 75.5102 62.7854 75.3558 62.3674 75.1084L62.3028 75.0858L62.2834 75.0631L62.2122 75.0243C62.2414 75.2294 62.2293 75.4382 62.1767 75.6386C62.126 75.836 62.0578 76.0286 61.973 76.214C61.889 76.38 61.7682 76.5246 61.6197 76.6367C61.4712 76.7487 61.299 76.8253 61.1163 76.8606C60.9196 76.9158 60.7161 76.943 60.5118 76.9414H60.3178C60.29 77.1013 60.2411 77.2567 60.1723 77.4037C60.0894 77.5737 59.9803 77.7297 59.8491 77.866C59.7807 77.9423 59.7049 78.0116 59.6228 78.0729C59.3315 78.2939 58.9731 78.408 58.6077 78.3962C58.5081 78.3949 58.4088 78.3874 58.3102 78.3735C58.3026 78.7017 58.1951 79.0198 58.0023 79.2855C57.8094 79.5511 57.5402 79.7517 57.2305 79.8606C57.0231 79.9355 56.8044 79.9738 56.5839 79.9738C56.2491 79.9717 55.921 79.8802 55.6335 79.7087C55.4932 79.6257 55.3621 79.5282 55.2423 79.4177C55.2291 79.5065 55.2052 79.5933 55.1712 79.6763V79.7055C55.1004 79.8802 55.0116 80.0471 54.9061 80.2033L54.6895 80.4522C54.4106 80.6863 54.0662 80.8285 53.7035 80.8596C53.5801 80.8745 53.456 80.882 53.3317 80.8822C53.0379 80.8992 52.7464 80.8209 52.5006 80.6589C52.2549 80.497 52.0679 80.2601 51.9675 79.9835C51.9448 79.9414 51.9222 79.8897 51.8996 79.8348C51.8769 79.7798 51.8446 79.7022 51.8188 79.6311C51.7318 79.883 51.6157 80.1238 51.4728 80.3488C51.3533 80.5744 51.182 80.7685 50.9729 80.9152C50.7639 81.0618 50.5231 81.1569 50.2702 81.1925H50.0051M38.7841 46.6984H38.7032H38.658C38.5306 46.7197 38.4022 46.7338 38.2733 46.7405H38.2248H38.1375" fill="#A67F12"/>
<path d="M43.0514 47.9625C42.9835 47.8882 42.9189 47.8106 42.851 47.733C42.8476 47.6791 42.8476 47.6252 42.851 47.5713C42.8865 47.2093 42.9447 46.8472 42.9512 46.4851H42.977C43.0385 46.5045 43.0902 46.4657 43.1451 46.4431C43.523 46.2705 43.879 46.0534 44.2055 45.7965C44.4878 45.5504 44.7128 45.2454 44.8647 44.9031C45.0166 44.5607 45.0917 44.1893 45.0848 43.8148C45.143 43.0389 45.0848 42.2566 45.0654 41.4775C45.046 40.8859 45.0105 40.291 44.9555 39.6994C44.9555 39.541 44.9264 39.3762 44.9006 39.2274C44.8812 39.1402 44.8812 39.0302 44.81 38.9656C44.7975 38.9564 44.7831 38.9501 44.7679 38.9471C44.7526 38.9441 44.7369 38.9445 44.7218 38.9482C44.7067 38.9519 44.6926 38.9588 44.6805 38.9685C44.6684 38.9782 44.6585 38.9905 44.6516 39.0044C44.6161 39.1272 44.6516 39.2662 44.6161 39.3923C44.573 39.611 44.5169 39.8269 44.448 40.0389C44.2434 40.6028 44.0014 41.1526 43.7238 41.6844C43.5105 42.0917 43.2389 42.47 43.0191 42.8773C42.7094 43.4652 42.5111 44.1053 42.4339 44.7653C42.4239 45.2191 42.503 45.6705 42.6667 46.0939C42.7992 46.5336 42.6667 46.9927 42.6667 47.442C42.6681 47.4646 42.6681 47.4873 42.6667 47.5099C41.8587 46.5385 41.1665 45.4764 40.6042 44.345C40.6042 44.2124 40.6042 44.0767 40.6042 43.9409C40.6463 43.4025 40.7372 42.8691 40.8757 42.3471C40.9145 42.4053 40.9889 42.4021 41.0535 42.3924C41.2702 42.3927 41.4866 42.3743 41.7001 42.3374C42.4048 42.2469 42.6958 41.8105 43.0352 41.2415C43.4005 40.5949 43.7077 39.9096 44.0956 39.2727C44.1519 39.1762 44.2228 39.0889 44.3057 39.0141C44.3866 38.9527 44.4835 38.8492 44.3995 38.7522C44.3154 38.6552 44.1473 38.8007 44.06 38.8848C43.921 38.9915 43.7788 39.0917 43.6333 39.1919C42.7992 39.79 41.6257 40.2329 41.0665 41.1316C40.7972 41.5883 40.6296 42.0978 40.5751 42.6251C40.4667 43.0486 40.4007 43.4818 40.3779 43.9183C40.2486 43.6402 40.1192 43.3622 39.9996 43.081C39.7446 42.51 39.5286 41.9225 39.3531 41.3223L39.4339 41.2803C39.694 41.0959 39.9076 40.8535 40.0578 40.5723C40.4037 40.3169 40.8208 40.1682 41.157 39.8999C41.8035 39.2533 42.0622 38.3384 42.227 37.472C42.3143 37.0421 42.4048 36.6089 42.4695 36.1789C42.5471 35.5517 42.7055 34.9407 42.8154 34.3233C42.8461 34.1026 42.8623 33.8801 42.8639 33.6573C42.877 33.5214 42.8639 33.3842 42.8251 33.2532C42.8101 33.227 42.786 33.2073 42.7574 33.1978C42.7288 33.1882 42.6976 33.1896 42.6699 33.2015C42.6117 33.2241 42.5923 33.2791 42.5697 33.3308C42.2521 33.972 41.8914 34.5909 41.4899 35.1832C41.1115 35.6777 40.7865 36.2109 40.5201 36.7737C40.3491 37.1811 40.2191 37.6046 40.1322 38.0378C40.019 38.6488 40.0255 39.2727 39.9738 39.8902C39.9608 40.0881 39.9227 40.2837 39.8606 40.4721C39.7326 40.7039 39.564 40.9109 39.3628 41.0831C39.3447 41.0989 39.3252 41.113 39.3046 41.1251C39.1039 40.4159 38.9431 39.696 38.8229 38.9688C38.7072 38.4027 38.6315 37.829 38.5966 37.2522C38.5675 36.735 38.5772 36.2145 38.5966 35.694C38.5934 35.6736 38.5934 35.6529 38.5966 35.6326C38.6096 35.6148 38.6164 35.5932 38.616 35.5711C38.6174 35.5539 38.6174 35.5366 38.616 35.5194C38.6144 35.5055 38.6144 35.4914 38.616 35.4774C38.6483 35.1961 38.6483 34.9116 38.7033 34.6369C38.8035 34.2683 38.9781 33.9256 39.088 33.5603C39.2722 33.0043 39.4274 32.4418 39.6246 31.889C39.7536 31.481 39.8615 31.0666 39.9479 30.6476C40.0567 30.2559 40.1239 29.8539 40.1483 29.4482C40.2264 28.5993 40.2545 27.7465 40.2324 26.8943C40.212 26.3851 40.1526 25.8782 40.0546 25.3781C40.0513 25.3444 40.0387 25.3123 40.0181 25.2855C39.9975 25.2586 39.9699 25.2381 39.9382 25.2261C39.9255 25.2217 39.912 25.2199 39.8986 25.221C39.8851 25.2221 39.8721 25.2259 39.8602 25.2323C39.8483 25.2387 39.8379 25.2475 39.8297 25.2581C39.8214 25.2687 39.8154 25.281 39.8121 25.294C39.7248 25.5818 39.644 25.8759 39.5503 26.1637C39.388 26.5447 39.2466 26.9343 39.1268 27.3307C39.0382 27.877 38.9141 28.417 38.755 28.9471C38.5846 29.4118 38.4442 29.8869 38.3347 30.3695C38.2183 30.9482 38.0858 31.5237 37.9888 32.1056C37.8886 32.7521 37.714 33.3987 37.8433 34.0453C37.9045 34.3778 38.0009 34.703 38.1311 35.0151C38.1941 35.1681 38.2664 35.3171 38.3477 35.4612C38.3477 35.4612 38.3477 35.4871 38.3477 35.5033C38.2932 36.1548 38.2792 36.8091 38.3056 37.4623C38.3456 38.0461 38.4212 38.627 38.5319 39.2016C38.5998 39.6316 38.6871 40.0615 38.7873 40.4947L38.7227 40.4462C38.3453 40.1252 38.0183 39.7492 37.7528 39.3309C37.7108 39.2662 37.6655 39.2048 37.6235 39.1434C37.5815 39.082 37.5976 38.9947 37.5912 38.9171C37.5298 38.471 37.5912 38.0151 37.5168 37.569C37.4037 36.638 36.9317 35.8071 36.547 34.9828C36.3045 34.5011 36.0297 34.0356 35.7905 33.5506C35.5028 32.972 35.2248 32.3901 34.9338 31.8146C34.7916 31.5334 34.6687 31.2424 34.5426 30.9515C34.534 30.9202 34.5193 30.891 34.4993 30.8655C34.4793 30.8399 34.4545 30.8186 34.4263 30.8027C34.2226 30.751 34.284 30.9999 34.284 31.126C34.3293 31.876 34.4327 32.6196 34.4101 33.389C34.4101 33.7123 34.4101 34.0356 34.4101 34.3588C34.4312 34.6733 34.47 34.9863 34.5265 35.2964C34.7449 36.3668 35.2733 37.3494 36.0459 38.1218C36.3433 38.4785 36.6998 38.7814 37.0998 39.0173C37.2765 39.1055 37.4253 39.2409 37.5298 39.4085C37.6946 39.6445 37.853 39.8805 38.0502 40.1003C38.2853 40.3733 38.5548 40.6145 38.852 40.818C39.15 42.0501 39.5713 43.249 40.1095 44.3967C39.8607 44.2534 39.6013 44.1291 39.3337 44.0249C39.2864 44.0076 39.2449 43.9774 39.214 43.9377C38.5449 43.2911 38.3121 42.3471 37.769 41.6068C37.2259 40.8665 36.5664 40.443 35.7776 39.9904C35.4208 39.7834 35.0465 39.6082 34.659 39.4667C34.284 39.3341 33.8928 39.2339 33.5243 39.082C33.0911 38.8977 32.6741 38.6779 32.2312 38.5001C32.118 38.4613 31.9726 38.3643 31.8594 38.4516C31.839 38.4742 31.8276 38.5035 31.8276 38.534C31.8276 38.5645 31.839 38.5939 31.8594 38.6164C32.1827 39.0076 32.5836 39.3438 32.9101 39.7415C33.3077 40.2038 33.7021 40.6693 34.0674 41.1607C34.2549 41.4193 34.4554 41.665 34.6526 41.9139C34.8457 42.1784 35.0621 42.4251 35.2991 42.651C35.5253 42.8532 35.783 43.017 36.0621 43.1359C36.4371 43.3105 36.7959 43.5206 37.1774 43.679C37.4048 43.7807 37.642 43.8587 37.8854 43.9118C38.1117 43.9571 38.3412 43.9861 38.5643 44.0411C39.1414 44.1874 39.6938 44.4184 40.2033 44.7265H40.255C40.4781 45.1758 40.7141 45.6187 40.9727 46.0487C41.296 46.5465 41.6193 47.0185 41.9684 47.5099C42.1656 47.7621 42.3757 48.0045 42.5891 48.2438H42.4436C42.2949 48.1791 42.143 48.1048 41.9878 48.0466C41.5982 47.8939 41.235 47.6812 40.9113 47.4162C40.3197 46.9086 39.6796 46.414 38.8972 46.2685C38.4511 46.1715 37.9888 46.2006 37.5395 46.1295C36.6828 45.997 35.923 45.4829 35.0857 45.3407C34.853 45.2987 34.284 45.1629 34.1676 45.4344C34.1587 45.4634 34.1575 45.4942 34.1643 45.5237C34.1711 45.5533 34.1857 45.5805 34.2064 45.6026C34.4398 45.7788 34.6887 45.9335 34.95 46.0648C35.422 46.3235 35.839 46.6694 36.2981 46.9474C36.6114 47.1217 36.9432 47.2605 37.2873 47.3612C37.7528 47.4841 38.228 47.5487 38.6968 47.6489C39.1512 47.7148 39.5947 47.8409 40.0158 48.0239C40.5433 48.3532 41.1561 48.5196 41.7777 48.5024C42.1039 48.4458 42.4374 48.4458 42.7637 48.5024L42.8025 48.5186C43.1258 48.664 43.3844 49.0778 43.6333 49.3106C44.2572 49.899 44.8133 50.6037 45.6021 50.9658L45.9609 51.1371C46.0805 51.1759 46.1969 51.302 46.3262 51.2503C46.3629 51.2333 46.3931 51.2049 46.4123 51.1694C46.4315 51.1338 46.4388 51.0931 46.4329 51.0531C46.4329 50.9755 46.3489 50.9464 46.2907 50.9108L46.0094 50.7524C45.8115 50.6392 45.6215 50.5128 45.4404 50.3742C45.2177 50.1979 45.0091 50.0044 44.8165 49.7955C44.5838 49.566 44.3542 49.3268 44.1279 49.0908" fill="#A67F12"/>
<path d="M66.3794 47.9044C65.7716 47.8009 75.7546 47.9044 77.3095 48.1242C80.19 48.5477 81.9486 48.2115 80.3258 50.5423C81.118 50.4097 81.8827 50.1464 82.5887 49.7632C87.6642 45.4022 67.9021 48.1662 66.3729 47.9044" fill="white"/>
<path d="M25.8722 57.4573C24.6793 56.9012 23.9325 55.5919 24.6599 54.4604H24.6114C24.6114 54.4604 24.3593 54.635 24.078 54.8775C23.0565 56.3226 24.55 57.8517 25.9046 57.5187C25.9026 57.4954 25.8923 57.4736 25.8755 57.4573" fill="white"/>
<path d="M44.4255 65.0742C41.6777 67.4794 37.2487 70.1982 35.1991 72.9493C35.0062 73.1993 34.9043 73.5077 34.9104 73.8234C34.9165 74.1391 35.0301 74.4433 35.2326 74.6857C35.435 74.928 35.714 75.0941 36.0236 75.1563C36.3332 75.2186 36.6547 75.1733 36.9351 75.028C32.2475 72.8685 39.6054 69.8814 41.3123 67.8641C42.1852 66.8943 45.4924 65.5009 44.4255 65.0742Z" fill="white"/>
<path d="M29.1439 60.5482C28.5523 60.199 27.964 60.0988 27.7215 59.3779C27.2398 58.4695 27.6116 57.4156 28.6913 57.186C28.4521 57.2216 28.1127 57.2669 27.8767 57.2895C26.4769 58.6731 26.8422 60.8941 29.1892 60.5934L29.1375 60.5482" fill="white"/>
<path d="M33.3079 62.5035C31.9339 62.3645 30.7798 61.6338 30.7863 60.0918C29.4608 62.0024 32.4932 62.9819 33.8219 62.5326C33.6517 62.5085 33.4797 62.4988 33.3079 62.5035Z" fill="white"/>
<path d="M28.7041 57.1855L28.953 57.1499C28.8694 57.1568 28.7863 57.1687 28.7041 57.1855Z" fill="white"/>
<path d="M13.3483 42.3599C14.1953 42.3826 18.3883 43.2813 20.0855 43.5884C21.7827 43.8955 34.1708 44.9785 31.2322 44.3093C25.8948 43.0938 13.4711 42.9742 6.55616 37.1422C4.72962 35.6034 5.35356 34.8016 6.96673 35.2413C4.81368 34.8469 3.90202 35.2154 5.27274 37.8275C6.32987 39.6444 9.79867 41.3093 11.2858 41.5194C9.59177 41.5 10.4129 43.3298 11.3084 44.3837C12.844 45.6768 15.6856 46.7501 17.6803 46.582C17.2115 46.4301 9.27496 42.263 13.3483 42.3793" fill="white"/>
<path d="M81.5316 46.6503C83.5262 46.8184 86.3808 45.7516 87.9034 44.452C88.7989 43.3981 89.6201 41.5684 87.9261 41.5878C89.4067 41.3776 92.882 39.7127 93.9391 37.8959C95.3098 35.3096 94.3982 34.9282 92.2451 35.3096C93.8615 34.87 94.4822 35.6717 92.6557 37.2105C85.7407 43.0296 73.317 43.1621 67.9796 44.3777C65.041 45.0469 77.4291 43.9639 79.1264 43.6568C80.8236 43.3496 85.0165 42.4509 85.8635 42.4283C89.9466 42.3184 82.0003 46.4855 81.5316 46.6309" fill="white"/>
<path d="M36.6051 63.8163C36.0782 63.5965 35.1342 62.4262 35.312 61.896L35.1795 62.0803H35.1989C34.8756 63.493 36.1978 64.3691 37.853 64.0361C37.4909 63.9812 36.8508 63.9003 36.6181 63.826" fill="white"/>
<path d="M41.0665 65.0477C39.8639 65.0477 40.1484 63.4087 40.5267 63.0337C40.4403 63.0363 40.3549 63.0538 40.2745 63.0854C39.2141 64.3074 40.3941 65.801 41.9168 65.0962L41.0665 65.0477Z" fill="white"/>
<path d="M10.6488 34.2978C9.0001 33.3086 4.13148 31.0068 2.72198 29.6588C2.27262 29.1641 1.80062 28.5079 2.48275 28.2169C3.61747 27.8936 3.26186 27.9906 4.58084 28.5628C-0.859979 26.2029 1.45148 31.87 4.58084 33.648C10.9462 37.6309 23.0596 40.2268 30.0295 41.3906C29.7063 41.3033 10.9818 34.6017 10.6488 34.3075" fill="white"/>
<path d="M68.3418 42.6254C75.3117 41.4746 87.4154 38.8754 93.8002 34.8958C96.9199 33.1145 99.2313 27.4603 93.8002 29.8073C95.1192 29.2351 94.77 29.1252 95.8983 29.4614C96.5804 29.7556 96.0987 30.4119 95.6591 30.9033C94.2495 32.2513 89.3809 34.5466 87.7322 35.5423C87.4089 35.8236 68.6845 42.5414 68.3515 42.6254" fill="white"/>
<path d="M38.2476 74.2483C38.3815 74.0898 38.5262 73.9407 38.6808 73.8022C38.7034 73.6826 38.726 73.605 38.726 73.605C38.726 73.605 38.4448 73.9768 38.2476 74.2515" fill="white"/>
<path d="M78.8321 51.3926C78.7234 51.2914 78.5975 51.2104 78.4604 51.1533C78.441 51.1657 78.4248 51.1823 78.413 51.2019C78.4012 51.2216 78.394 51.2437 78.3921 51.2665C78.3903 51.2894 78.3937 51.3123 78.4022 51.3336C78.4106 51.3549 78.4239 51.374 78.441 51.3893C79.4335 52.1717 78.9097 53.3872 78.0498 53.8204C78.9744 53.3613 79.6113 52.1167 78.8321 51.3926Z" fill="white"/>
<path d="M75.8646 54.7871C75.6513 55.175 76.2687 55.6891 75.9196 55.841C76.1426 55.9121 76.0295 56.5361 75.8614 56.6686C75.5543 56.7721 75.328 57.1891 75.6933 57.1503C76.4207 56.6233 76.3398 55.2106 75.8646 54.7871Z" fill="white"/>
<path d="M69.4409 60.4639C69.4343 60.4417 69.4343 60.4181 69.4409 60.396C69.3947 60.3128 69.3428 60.2328 69.2857 60.1567C69.5055 61.0264 68.5777 62.2969 67.5303 62.5749C68.6553 62.5393 69.8902 61.5695 69.4409 60.4639Z" fill="white"/>
<path d="M72.8709 58.6114C72.799 58.3505 72.6902 58.1012 72.5477 57.8711C73.1942 59.6976 72.0951 60.3895 70.498 60.5673C71.6683 60.7483 73.4076 60.341 72.8677 58.6276" fill="white"/>
<path d="M51.0882 76.5146C51.2078 77.1935 50.7649 80.3939 49.2552 79.2301C48.5666 78.5674 49.1905 75.0113 48.822 74.4197C48.3144 74.1352 48.1075 77.1999 48.0332 77.187C47.9491 77.7333 46.7983 80.5879 45.7702 79.1655C45.0849 78.3055 46.0547 74.8109 46.3651 74.1255C45.7508 75.2505 45.0493 77.423 43.8402 78.4898C43.1937 79.0588 43.2325 78.6191 42.8704 78.4316C41.9975 77.8853 43.656 74.7365 43.8726 74.3454C43.3133 74.8206 42.4113 77.3357 41.4577 77.5394C40.9404 77.6202 41.0794 77.368 40.7497 76.9445C39.9479 76.0167 41.4964 73.8734 41.962 73.3076C41.6969 73.6018 39.5438 75.9682 39.3757 76.0393C38.574 76.2462 38.4608 74.3195 38.6936 73.8152C37.8175 75.0275 38.1505 77.048 40.0837 76.5146C39.9059 77.5588 41.241 78.4252 42.1204 77.8885C41.7098 79.1816 43.8402 79.1137 44.6581 78.9262C44.823 78.9004 44.9135 78.8778 44.9135 78.8778C45.0493 80.2711 47.1345 80.6978 47.9006 79.2948C48.0488 79.0769 48.1796 78.8478 48.2918 78.6094C48.6151 79.5146 49.5235 80.5006 50.5742 79.8799C51.7348 79.8217 51.2434 76.715 51.1108 76.5146" fill="white"/>
<path d="M54.7024 78.5839C54.7477 79.085 53.9847 80.0193 53.2444 79.473C52.2196 78.9816 51.4502 74.3457 51.1948 73.6895C51.0752 75.1571 51.3629 79.5635 53.3931 80.0743C54.6474 80.1745 55.0645 79.4277 54.7024 78.5839Z" fill="white"/>
<path d="M64.8277 73.5728C63.0819 75.6839 59.5323 70.9866 58.2521 70.2495H58.2166C59.1605 71.5426 61.6078 74.3164 63.4117 74.8207C64.0291 75.0696 65.3223 74.1483 64.8277 73.5728Z" fill="white"/>
<path d="M57.6993 77.9663C57.2338 79.017 55.9374 78.5353 55.3394 77.5073C54.8965 76.9447 53.9816 75.2766 53.9234 74.8951C53.9084 74.7875 53.864 74.6862 53.7949 74.6023C53.7259 74.5184 53.6349 74.4553 53.5322 74.4199C53.8555 75.713 54.4536 77.7012 55.5689 78.684C56.2898 79.6021 58.0582 79.1172 57.6993 77.9663Z" fill="white"/>
<path d="M60.6123 76.3821C60.2931 76.4232 59.9687 76.3843 59.6683 76.2689C59.2706 77.7883 57.5411 77.478 57.1467 75.8519C56.9947 75.312 55.6014 73.3594 55.5303 73.2656C55.9861 74.1094 56.7717 76.5211 57.5152 77.3972C58.1068 77.8045 60.0433 77.8174 59.9398 76.6989C59.941 76.6784 59.9464 76.6584 59.9556 76.6402C59.9648 76.6219 59.9778 76.6057 59.9935 76.5927C60.0093 76.5796 60.0276 76.57 60.0473 76.5643C60.067 76.5587 60.0876 76.5572 60.1079 76.5599C60.5088 76.6407 61.4011 76.5922 61.6015 76.0782C61.3086 76.2617 60.9761 76.3725 60.6317 76.4015" fill="white"/>
<path d="M57.4309 62.8496C57.3889 62.5878 57.1076 62.5263 56.71 62.0155C56.3123 61.5048 56.5128 61.5242 56.335 61.5112C55.6884 61.7569 57.4083 64.1233 57.4309 62.8496Z" fill="white"/>
<path d="M48.1398 48.6256C47.8941 47.9435 45.8058 48.5319 45.2917 48.5383C45.1657 48.5836 45.3661 48.7905 45.2917 48.8454C45.2174 48.9004 45.1721 49.2657 45.1721 49.2657C45.3499 48.9683 45.8833 49.3465 45.5698 48.5577C46.0902 48.6935 46.8823 48.3444 47.3963 48.59C47.6808 48.784 47.7454 49.0847 47.3963 49.0588C47.0472 49.0329 46.6592 48.784 46.5558 49.0265C46.2745 50.4101 44.9394 49.8961 45.3984 51.936H45.4307C45.6215 50.6429 46.8532 49.3174 48.1851 49.2431C48.2301 49.1425 48.2487 49.0321 48.2391 48.9223C48.2295 48.8126 48.192 48.7071 48.1301 48.6159" fill="white"/>
<path d="M39.266 49.4172C33.9415 46.2943 37.1064 43.5076 32.3833 39.3696C35.9038 44.5421 33.0299 46.1747 39.7315 49.9636C39.5861 49.7733 39.4307 49.5909 39.266 49.4172Z" fill="white"/>
<path d="M69.3504 38.374C64.7598 40.3686 65.7943 46.2879 62.0345 49.0972C60.4892 50.2222 56.5808 52.0068 55.6012 52.3074C54.1982 53.0154 55.1422 54.412 55.1971 55.2654C54.7963 53.0607 56.5129 53.1512 58.4299 52.4076C69.0982 48.2502 62.5809 41.3643 72.1015 36.9839C71.9496 37.055 70.0099 37.9537 69.3342 38.374" fill="white"/>
<path d="M73.954 54.6643C72.412 54.063 68.135 53.1546 66.3666 52.272C65.2093 51.8938 63.276 51.2278 63.3407 51.8841C65.6845 53.4035 71.1285 55.3529 73.954 54.965C73.954 54.965 74.1512 54.7839 73.954 54.6643Z" fill="white"/>
<path d="M53.3675 55.4141C51.8448 54.2406 54.014 50.5067 51.2144 46.9668C50.1443 48.2826 50.2058 47.9366 51.6282 48.9065C52.6821 50.8462 51.0851 51.4313 49.7176 52.1587C51.1659 51.8936 51.0948 51.677 50.626 53.3839C50.1896 57.0564 48.2952 56.5004 46.0063 54.9357C47.6615 58.2849 53.6099 56.6167 54.5733 54.9874C54.3502 55.1361 53.6035 55.4594 53.3675 55.4012" fill="white"/>
<path d="M47.6452 43.1165C47.1631 43.1181 46.688 43.2313 46.2569 43.4472C45.8259 43.6631 45.4507 43.9759 45.1608 44.3611C44.8708 44.7462 44.6739 45.1933 44.5856 45.6672C44.4973 46.1411 44.5199 46.6291 44.6517 47.0928C44.4476 47.432 44.3362 47.8188 44.3284 48.2146C44.3655 48.2381 44.4044 48.2586 44.4448 48.276C44.4997 47.8687 45.3047 48.4538 45.3823 48.276C45.337 47.8913 45.2465 47.9721 45.3305 47.5325C45.3079 47.4775 45.1657 47.4581 45.0848 47.3514C44.962 46.6564 45.9383 43.7663 47.3252 43.6466C48.3049 43.4119 49.3323 43.4737 50.2767 43.8244C50.2767 43.8244 50.2767 43.7663 50.2767 43.6919C49.4708 43.2376 48.5485 43.0318 47.6258 43.1003" fill="white"/>
<path d="M51.9838 45.27C49.4525 42.3604 49.9568 45.1665 48.0139 45.5932C47.7533 45.697 47.5144 45.8483 47.3091 46.0394C46.9309 46.3917 46.7046 46.8573 47.1087 47.1999C47.2412 47.4521 47.1087 47.4424 47.0602 47.7592C47.0117 48.076 50.1895 48.1407 49.2326 47.95C49.0063 47.8239 47.7617 47.8142 47.3867 47.3034C47.3688 47.0623 47.4248 46.8214 47.5472 46.6129C47.6697 46.4044 47.8528 46.2382 48.0721 46.1364C48.3695 46.0297 48.8835 45.4704 49.391 45.034C50.0796 44.4359 51.4083 44.8788 52.0096 45.6514C51.9708 45.6029 52.0452 45.3669 51.9838 45.27Z" fill="white"/>
<path d="M55.7239 50.5295C54.7541 50.7881 53.5224 46.9734 52.2551 45.7837C52.0806 46.2621 54.4211 49.9863 54.6377 50.5036C54.9287 51.0015 54.9966 51.1243 55.4233 50.9368C56.2703 50.7525 59.626 48.9971 60.1367 48.5348C58.7369 49.3469 57.2584 50.0152 55.7239 50.5295Z" fill="white"/>
<path d="M54.5732 55.0004C54.6088 54.9746 54.6347 54.9584 54.6379 54.9422C54.6411 54.9261 54.6153 54.9584 54.5732 55.0004Z" fill="white"/>
<path d="M45.0914 53.2095C39.9189 50.0704 35.422 50.3743 33.7183 43.2136C32.3735 40.3364 33.1073 40.7632 30.0362 38.3644C28.0706 37.123 24.521 35.4775 22.4779 34.4171C19.4067 32.7684 7.76857 24.6864 5.29224 24.9256C8.70285 26.3093 22.5781 36.1984 26.1051 37.8569C28.1418 38.9592 30.8832 39.4215 31.6009 40.33C32.9554 42.2987 34.0481 46.8311 34.685 48.8517C35.1343 50.2676 37.4781 51.1437 37.4005 51.9519C37.4264 52.3722 37.8014 52.0263 36.5309 52.4401C35.2604 52.8539 32.9748 54.0565 31.2259 54.4994C29.4769 54.9423 26.9973 55.2914 27.1654 55.5759C27.3335 55.8604 27.6601 56.161 29.839 55.6664C33.0718 54.7742 36.408 54.05 38.1182 52.3011C38.4867 51.7256 36.9803 50.6847 37.4167 50.2353C38.2605 50.7784 42.6635 52.647 43.9567 53.2289C45.3015 53.5522 45.0397 54.0597 45.1981 54.7354C45.1981 54.7354 45.4632 53.6621 45.0882 53.2095" fill="white"/>
<path d="M54.9482 73.7442C54.7381 73.3045 53.9396 71.6946 53.7068 71.1579C53.3835 70.2721 52.8242 68.4747 52.2294 67.8669C51.7607 67.3884 51.3339 67.6277 51.085 67.6277C50.8361 67.6277 51.085 68.1094 51.085 68.1094C52.7758 69.4025 55.417 75.2216 55.6109 75.2216C55.8049 75.2216 55.1713 74.1774 54.9644 73.7409" fill="white"/>
<path d="M59.9978 64.1012C59.6745 64.6411 59.0991 65.0193 58.1972 64.6734C56.9719 64.4632 56.6325 63.2509 55.6109 63.1992C55.2294 63.2897 54.696 64.4665 55.2876 64.7316C55.113 64.2725 55.3523 63.6033 55.6723 63.571C56.4126 63.9137 57.612 65.2165 58.8017 65.2682C59.6842 65.2682 60.0269 64.8383 60.1465 64.266C60.2047 64.1626 60.0625 63.9169 60.0043 64.1012" fill="white"/>
<path d="M58.3588 72.936C57.6831 71.8983 55.3652 68.5653 55.126 68.229C54.6734 67.6601 53.4772 65.9661 52.7854 65.7915C52.5462 65.9693 52.3716 65.9596 52.4783 66.1665C52.7046 66.3799 52.6399 66.4478 52.8727 66.5609C54.2486 68.0824 55.5435 69.6751 56.7521 71.3325C57.0398 71.7657 58.5431 73.3757 58.3491 72.9489" fill="white"/>
<path d="M64.6047 62.5589C64.4495 63.8003 63.1176 64.0298 61.9312 63.9878C63.1111 64.282 64.9474 63.9619 64.8407 62.4781C64.8214 62.4656 64.7995 62.4577 64.7766 62.4551C64.7538 62.4525 64.7307 62.4552 64.709 62.463C64.6874 62.4708 64.6679 62.4836 64.6521 62.5002C64.6362 62.5168 64.6244 62.5369 64.6176 62.5589" fill="white"/>
<path d="M40.6816 39.3698C40.691 38.5591 40.824 37.7546 41.076 36.984C41.4119 36.0847 41.8456 35.225 42.3692 34.4204L40.6816 39.3698Z" fill="white"/>
<path d="M43.4233 45.2376C43.4233 45.2376 42.6022 44.2677 43.1421 43.2979C43.682 42.328 44.5451 40.6729 44.5451 40.6729C44.5451 40.6729 44.2218 44.5134 43.4233 45.2279" fill="white"/>
<path d="M49.2908 46.5626C49.2908 46.633 49.27 46.7017 49.2309 46.7602C49.1918 46.8187 49.1363 46.8643 49.0713 46.8912C49.0063 46.9181 48.9348 46.9251 48.8658 46.9114C48.7968 46.8977 48.7335 46.8638 48.6837 46.8141C48.634 46.7644 48.6001 46.701 48.5864 46.632C48.5727 46.563 48.5797 46.4915 48.6067 46.4266C48.6336 46.3616 48.6792 46.306 48.7376 46.267C48.7961 46.2279 48.8649 46.207 48.9352 46.207C49.0295 46.207 49.12 46.2445 49.1867 46.3112C49.2533 46.3779 49.2908 46.4683 49.2908 46.5626Z" fill="white"/>
<path d="M45.1721 49.356C45.0369 49.6441 44.9864 49.9648 45.0266 50.2805C45.0221 50.5821 45.0713 50.8821 45.1721 51.1663C45.11 50.5645 45.11 49.9578 45.1721 49.356Z" fill="white"/>
<path d="M45.5634 55.7729C45.5634 55.7729 44.6873 62.0026 46.1809 63.8808C47.0836 64.8612 48.2043 65.6154 49.4525 66.0824C49.4525 66.0824 45.4955 65.8044 44.9265 63.0338C44.3576 60.2633 45.5731 55.7729 45.5731 55.7729" fill="white"/>
<path d="M30.7828 17.0084C30.5888 17.1248 30.4175 17.238 30.2688 17.3479C29.7623 17.7121 29.3183 18.0429 28.9369 18.3403C28.5554 18.6345 28.3162 18.822 28.2192 18.9061L27.6308 18.1981L28.1675 17.6647L27.7278 17.1765L27.217 16.7627L25.2773 18.1593L25.5747 18.9384L25.7946 19.3716L26.4864 19.0839L26.9519 19.8339C26.8808 19.8759 26.7224 19.9729 26.4832 20.1249C26.2439 20.2768 26.0273 20.4223 25.8366 20.5645C25.4745 20.8264 25.1706 21.0591 24.9217 21.2563C24.6728 21.4535 24.5176 21.5796 24.453 21.6443L23.8646 20.9363L24.2558 20.516L24.0521 19.3264L21.9734 12.3726L23.0402 11.4351L29.4283 15.9675L30.0748 16.3489L30.7214 16.0257L31.1869 16.7757C31.0996 16.8209 30.9735 16.8888 30.7828 17.0084ZM23.9325 14.1733L24.9443 17.1216L26.3183 16.1L23.9325 14.1733Z" fill="#A67F12"/>
<path d="M41.6194 4.8982C41.5783 5.12981 41.5567 5.36448 41.5548 5.59972L41.5192 12.7992L40.1388 13.2356L36.9997 8.63209V14.2281L35.6226 14.6613L31.2162 8.41549C31.1301 8.28547 31.0327 8.16324 30.9253 8.05019L30.7378 7.85622L29.9813 7.96937L29.7744 7.12237C29.8488 7.12237 30.0072 7.07064 30.2561 7.00922C30.505 6.9478 30.7184 6.88961 30.9027 6.83142C31.4716 6.65361 31.9921 6.47904 32.4706 6.31417C32.949 6.14929 33.2529 6.03614 33.3855 5.99089L33.7087 6.84758L32.9846 7.19026C32.9846 7.21935 33.0202 7.30017 33.059 7.42949C33.1003 7.55852 33.1567 7.68222 33.2271 7.79803L35.7066 11.8972L35.5385 5.75489L36.8931 5.32493L40.239 10.4554L40.0063 5.4704C40.0014 5.36818 39.9829 5.26707 39.9513 5.16975C39.9513 5.12449 39.9222 5.0857 39.9093 5.0566L39.8834 5.00488L39.0687 5.09863L38.8683 4.2387C38.9621 4.2193 39.1496 4.17405 39.4308 4.09969C39.7121 4.02534 39.9739 3.95745 40.2099 3.88309C40.6237 3.75055 40.9987 3.62447 41.3285 3.50485C41.6582 3.38524 41.8716 3.30442 41.9589 3.26562L42.2822 4.12232L41.71 4.40034C41.6906 4.48763 41.6615 4.64927 41.6194 4.8982Z" fill="#A67F12"/>
<path d="M54.2628 12.0688C54.0365 12.0494 53.8329 12.0365 53.6486 12.0333C53.0246 12.0333 52.4718 12.0333 51.9869 12.0333C51.502 12.0333 51.2013 12.0494 51.072 12.0559L51.0268 11.1378L51.7736 11.0311L51.7154 10.3845L51.5537 9.73795L49.1711 9.70886L48.9448 10.5106L48.864 10.9891L49.5849 11.1572L49.5106 12.0365C49.4298 12.0365 49.2455 12.0106 48.9642 11.9912C48.683 11.9718 48.4179 11.9557 48.1754 11.9524C47.7293 11.9524 47.3446 11.9524 47.0278 11.9524C46.711 11.9524 46.5073 11.9718 46.42 11.9783L46.3748 11.0602L46.9405 10.9794L47.4868 9.90283L49.9826 3.08483L51.4115 2.97168L53.8102 10.4233L54.0882 11.1054L54.793 11.2347L54.7186 12.1141C54.6443 12.1044 54.4891 12.0882 54.2628 12.0688ZM50.4804 5.70341L49.5106 8.67436H51.224L50.4804 5.70341Z" fill="#A67F12"/>
<path d="M65.2027 14.9655C65.0896 14.9203 64.8245 14.8265 64.4042 14.6778C63.984 14.5291 63.4861 14.3545 62.9139 14.1896C62.9139 14.0539 62.8848 13.792 62.8493 13.4041C62.8137 13.0161 62.7846 12.7575 62.762 12.6088L62.3611 10.3555L62.1801 10.3006C62.004 10.2436 61.8313 10.1766 61.6628 10.1001L61.3395 11.1476C61.1965 11.6152 61.0885 12.0928 61.0163 12.5765L61.7727 12.8997L61.4333 13.7952C61.3201 13.75 61.0486 13.653 60.6186 13.501C60.1887 13.3491 59.6811 13.1778 59.1121 13.0097C58.8794 12.9385 58.6369 12.8706 58.3848 12.8092L57.8772 12.6928L58.0809 11.8362L58.9182 11.9331L59.1251 11.4902C59.2101 11.3089 59.2856 11.1233 59.3514 10.9342L60.6445 6.73154C60.7813 6.28345 60.8819 5.82506 60.9451 5.36083L60.2081 4.97612L60.5475 4.09033L61.026 4.27784C61.2749 4.37159 61.5238 4.45564 61.7695 4.53323C61.9376 4.58495 62.1639 4.64638 62.4484 4.7175L63.0659 4.86944C63.5734 4.98582 63.9807 5.0925 64.2879 5.19272C65.0428 5.38652 65.6979 5.8559 66.1241 6.50848C66.3119 6.82174 66.4271 7.17311 66.4612 7.53676C66.4953 7.9004 66.4475 8.26707 66.3213 8.6098C66.1815 9.08409 65.9008 9.50464 65.5163 9.81564C65.118 10.1284 64.6518 10.3432 64.1553 10.4428C64.2652 11.1088 64.3881 11.6961 64.5239 12.2047C64.6629 12.7155 64.734 12.9935 64.7437 13.0452L64.9538 13.8437L65.5196 14.0765L65.2027 14.9655ZM62.2512 9.2208C62.4681 9.31052 62.7016 9.35316 62.9362 9.34592C63.1708 9.33867 63.4012 9.2817 63.6122 9.17878C64.0082 8.90491 64.2882 8.49354 64.3978 8.02466C64.5612 7.60776 64.5542 7.14335 64.3784 6.73154C64.2596 6.53904 64.1034 6.37233 63.9191 6.24128C63.7347 6.11023 63.5259 6.01751 63.3051 5.9686L63.0465 5.90394C62.8525 6.36946 62.7232 6.72507 62.6424 6.9643L61.9635 9.14322L62.2512 9.2208Z" fill="#A67F12"/>
<path d="M78.1208 12.9415C78.4456 13.6141 78.5583 14.3694 78.4441 15.1075C78.3089 15.9242 77.987 16.6986 77.5034 17.3705C77.0581 18.0562 76.4579 18.6276 75.7512 19.0386C75.1031 19.4047 74.3586 19.5638 73.6175 19.4944C72.7777 19.3981 71.977 19.0863 71.2931 18.5892C71.0636 18.4308 70.8567 18.2853 70.6757 18.1496L70.2101 17.7907C69.8416 17.5095 69.4924 17.2541 69.1595 17.0278C68.959 16.8888 68.7489 16.753 68.5129 16.6204C68.2769 16.4879 68.1444 16.4006 68.0732 16.3651L68.5452 15.615L69.3179 15.9577C69.3793 15.8834 69.4989 15.7508 69.6735 15.5536C69.7998 15.42 69.9175 15.2786 70.0259 15.1301L72.5151 11.4964C72.6697 11.2681 72.8121 11.0318 72.9419 10.7885C73.0841 10.5298 73.1714 10.3585 73.2069 10.2777L72.5992 9.70869L73.1843 8.96191C73.2393 9.01041 73.3718 9.11709 73.5787 9.2852C73.7856 9.4533 73.9893 9.60848 74.1897 9.73132C74.4484 9.90913 74.8201 10.1387 75.3083 10.4231L75.8837 10.7723C76.1326 10.921 76.3169 11.0374 76.4365 11.1182C77.1466 11.5696 77.7271 12.1979 78.1208 12.9415ZM74.9462 11.4609C74.5938 11.9135 74.3869 12.1883 74.319 12.2852L71.833 15.9189C71.527 16.3694 71.2726 16.7702 71.0701 17.1215C71.2867 17.2993 71.5065 17.4642 71.7328 17.6162C72.4656 18.1205 73.1746 18.2282 73.86 17.9394C74.6604 17.5463 75.333 16.9342 75.7997 16.1743C76.3345 15.4679 76.6604 14.6256 76.7404 13.7432C76.7554 13.3668 76.6676 12.9935 76.4865 12.6631C76.3054 12.3328 76.0378 12.058 75.7124 11.8682C75.4662 11.7167 75.2102 11.5817 74.9462 11.4641V11.4609Z" fill="#A67F12"/>
<path d="M28.2258 81.9524L27.6084 82.7703L26.9359 82.279L26.5448 82.6249C26.4189 82.7313 26.3001 82.8457 26.1892 82.9675L23.3152 86.2392L21.7311 88.0495L20.4606 86.9374L21.1072 80.0451L19.0058 82.4471C18.7906 82.6885 18.5908 82.9433 18.4078 83.21C18.2429 83.4557 18.1524 83.585 18.1362 83.6044L18.6923 84.1993L18.0231 84.8684C17.9681 84.807 17.8129 84.6551 17.5543 84.4094C17.2957 84.1637 16.9498 83.8436 16.5069 83.4557C16.3258 83.2973 16.1351 83.1324 15.9282 82.9805C15.7213 82.8285 15.5888 82.7219 15.5273 82.6798L16.0575 81.9848L16.7752 82.4115L17.189 82.0494C17.3227 81.9335 17.45 81.8105 17.5705 81.6809L20.4412 78.4061C20.6167 78.2067 20.7818 77.9984 20.9358 77.7821C21.091 77.5655 21.2009 77.4007 21.2591 77.2907L20.7451 76.6442L21.4175 75.9814C21.4693 76.0396 21.5889 76.1593 21.7699 76.3403C21.9509 76.5213 22.1352 76.6927 22.3162 76.8511L23.2861 77.6916V78.0343C23.2538 78.2283 23.1859 78.5936 23.0824 79.1302C22.979 79.6701 22.9143 80.0063 22.8917 80.1453L22.4326 84.8361L24.7538 82.1884C25.0473 81.8309 25.3224 81.4586 25.5782 81.0731L25.0641 80.4266L25.7333 79.78L26.6288 80.6432C26.9521 80.9244 27.2754 81.196 27.5987 81.4578C27.9219 81.7197 28.1353 81.8813 28.2258 81.9524Z" fill="#A67F12"/>
<path d="M31.4456 83.7403C31.6913 83.8728 31.895 83.9763 32.0631 84.0636L35.0954 85.4698C35.1924 85.5151 35.4187 85.5991 35.742 85.722L36.4274 85.9612L36.5437 86.2619L35.8099 88.0625L34.9661 87.7393C35.089 87.3578 35.1601 87.1186 35.1763 87.0216C35.1957 86.9147 35.1957 86.8052 35.1763 86.6983C34.8885 86.5302 34.5976 86.375 34.3066 86.2425L33.0782 85.68C32.7969 86.2069 32.6417 86.5043 32.6094 86.5754L31.8562 88.1918C31.9273 88.2339 32.0243 88.2824 32.1439 88.3406L32.7904 88.6348C32.8935 88.6819 33.0021 88.7156 33.1137 88.735C33.1878 88.7527 33.2638 88.7614 33.34 88.7608L33.7797 88.0852L34.4521 88.4731L34.006 89.4074C33.8637 89.7145 33.7312 90.0087 33.6116 90.2867C33.492 90.5647 33.4111 90.7555 33.3723 90.8589L32.6191 90.5874L32.8292 89.86L32.506 89.6692C32.384 89.5919 32.2578 89.5218 32.1277 89.4591L31.7786 89.2975C31.5975 89.2134 31.4779 89.1617 31.4197 89.1423L30.7732 90.5259C30.6115 90.8708 30.437 91.2749 30.2495 91.7382L31.6622 92.3848C31.9564 92.5235 32.2641 92.6318 32.5803 92.7081C32.7396 92.5952 32.8869 92.4662 33.02 92.3234C33.175 92.139 33.3207 91.947 33.4564 91.7479L34.2193 92.1682L33.1267 94.0788L32.8034 94.1822C32.6935 94.1208 32.5027 94.0206 32.2344 93.8848C31.9661 93.7491 31.7301 93.6294 31.5361 93.5389L28.3453 92.0583C28.0673 91.9387 27.8216 91.8352 27.6082 91.7512C27.3949 91.6671 27.2494 91.6089 27.175 91.5831L27.4983 90.7684L28.3098 90.9753C28.3518 90.9236 28.4423 90.7846 28.5781 90.5615C28.6826 90.3962 28.7786 90.2257 28.8658 90.0507L30.6988 86.1035C30.9048 85.6914 31.0642 85.2577 31.174 84.8103L30.5016 84.3351L30.951 83.5107C31.0447 83.5334 31.1999 83.6207 31.4456 83.7403Z" fill="#A67F12"/>
<path d="M50.7034 90.1766C50.5707 90.3671 50.456 90.5694 50.3607 90.7812L47.3995 97.2629L45.9803 97.0916L45.0104 91.6669L42.7248 96.7069L41.3056 96.5388L39.8864 89.1195C39.86 88.9678 39.821 88.8186 39.77 88.6734C39.7248 88.5408 39.6925 88.4568 39.6828 88.4212L38.9521 88.2175L39.1138 87.3608L39.5955 87.4546C39.8412 87.4998 40.061 87.5354 40.242 87.558C40.8272 87.6259 41.3703 87.6809 41.8584 87.7261L42.8283 87.8037L42.7798 88.7122L41.9619 88.7315C41.9619 88.7639 41.9619 88.8447 41.9328 88.9772C41.915 89.1103 41.915 89.2451 41.9328 89.3781L42.5179 94.0851L44.8553 88.4859L46.2518 88.654L47.1861 94.6379L48.9997 90.0473C49.0384 89.9546 49.0623 89.8564 49.0708 89.7563C49.0733 89.7165 49.0733 89.6766 49.0708 89.6367V89.5785L48.2982 89.3328L48.4663 88.4762C48.5568 88.4956 48.7443 88.5311 49.0288 88.5796C49.3133 88.6281 49.5784 88.6701 49.8209 88.6992C50.2476 88.7477 50.6355 88.7865 50.9847 88.8124C51.3338 88.8382 51.5536 88.8512 51.6312 88.8544L51.5827 89.7628L50.9556 89.779C50.9329 89.8372 50.8424 89.9697 50.7034 90.1766Z" fill="#A67F12"/>
<path d="M56.7069 94.8933C56.7784 95.0602 56.8684 95.2185 56.9752 95.3653C57.4232 95.5084 57.8994 95.5394 58.3621 95.4558C58.6899 95.409 58.9932 95.2556 59.2253 95.0194C59.3287 94.9098 59.403 94.7761 59.4414 94.6304C59.4798 94.4847 59.4811 94.3317 59.4451 94.1853C59.4052 93.9543 59.2918 93.7423 59.1218 93.5808C58.9449 93.4208 58.7384 93.2967 58.5141 93.2155C58.2813 93.1282 57.958 93.0248 57.5442 92.9116C57.1031 92.7939 56.671 92.6448 56.2511 92.4655C55.8944 92.3058 55.5743 92.0748 55.3103 91.7866C55.0093 91.4439 54.8129 91.022 54.7446 90.5711C54.6483 90.1153 54.6911 89.6412 54.8675 89.21C55.0485 88.7852 55.3482 88.4215 55.7306 88.1626C56.1621 87.8698 56.6517 87.6735 57.166 87.5872C58.0834 87.4291 59.019 87.4063 59.943 87.5193L60.221 89.9148L59.193 90.0473L59.0216 89.1454C58.9607 89.0071 58.8848 88.876 58.7953 88.7542C58.6286 88.6966 58.4563 88.6566 58.2813 88.6346C58.1032 88.6165 57.9234 88.6252 57.7479 88.6605C57.4248 88.7051 57.1262 88.8578 56.9009 89.0937C56.8084 89.201 56.7426 89.3288 56.7089 89.4664C56.6752 89.6041 56.6745 89.7477 56.7069 89.8857C56.7467 90.0994 56.8613 90.2919 57.0302 90.4288C57.208 90.5688 57.408 90.6781 57.6218 90.7521C57.8481 90.8362 58.1585 90.9299 58.5496 91.0398C58.992 91.1656 59.426 91.3189 59.8492 91.4989C60.2176 91.6468 60.5487 91.8742 60.8191 92.1648C61.1204 92.4976 61.3181 92.9111 61.388 93.3545C61.4946 93.86 61.4426 94.3861 61.2393 94.861C61.0278 95.3255 60.6922 95.7226 60.2695 96.0087C59.8079 96.3264 59.2829 96.5404 58.7307 96.6358C58.2707 96.7262 57.8028 96.7695 57.3341 96.7651C56.9606 96.7657 56.5876 96.7365 56.2188 96.6778C56.0656 96.6576 55.9142 96.6252 55.7662 96.5809L55.5043 94.1821L56.5323 94.0528L56.7069 94.8933Z" fill="#A67F12"/>
<path d="M66.6542 84.5906L67.165 85.4667L66.4926 85.8805C66.5281 86.013 66.5799 86.1811 66.651 86.3783C66.7221 86.5755 66.7868 86.7339 66.8385 86.8374L68.7782 90.7394C68.9988 91.1689 69.2472 91.5836 69.5217 91.9808L70.2394 91.7125L70.5982 92.5885C70.4948 92.6306 70.2362 92.7437 69.8288 92.928C69.4215 93.1123 68.9592 93.3321 68.4387 93.5907C68.2189 93.7006 68.0023 93.817 67.7922 93.9399L67.3978 94.1759L66.9452 93.4388L67.5917 92.9539C67.5788 92.9064 67.5271 92.7545 67.4366 92.498C67.3754 92.3086 67.303 92.1229 67.22 91.942L65.2803 88.0432C65.1426 87.7576 64.9849 87.4821 64.8083 87.2188C64.6563 86.999 64.5723 86.8762 64.5626 86.8568L63.8061 87.0669L63.4473 86.1973C63.5087 86.1779 63.6509 86.1197 63.8772 86.0259C64.1035 85.9322 64.3234 85.832 64.5432 85.7221C65.0669 85.4634 65.513 85.2242 65.9204 85.0108C66.3277 84.7975 66.5572 84.6488 66.6542 84.5906ZM75.1888 90.3094L74.8235 89.4366L74.2546 89.6305C73.747 89.4915 73.4464 89.401 73.3494 89.359L70.9959 88.3374L69.7286 87.7975L70.1941 85.1175C70.2911 84.7619 70.4334 84.3352 70.6112 83.8244L71.2286 83.4365L70.7243 82.5571L70.1392 82.8804C69.8159 83.055 69.4086 83.2683 68.8978 83.527C68.6715 83.6412 68.4452 83.749 68.2189 83.8503L67.7825 84.0248L68.1445 84.8912L68.5292 84.7845L68.4969 85.5184L67.9312 88.9225L69.3601 89.6014C70.0713 89.9247 70.5045 90.1348 70.6532 90.1995C70.8019 90.2642 71.2383 90.5228 71.8138 90.8881L71.4258 91.1952L71.8687 91.9485C71.9237 91.9129 72.053 91.8321 72.2599 91.7125C72.4668 91.5928 72.6769 91.4797 72.9065 91.3698C73.4302 91.1068 73.9108 90.8762 74.3483 90.678L75.1888 90.3094Z" fill="#A67F12"/>
<path d="M78.9552 76.9511C78.9552 77.0416 78.9746 77.2388 78.9972 77.5362C79.0129 77.7804 79.0442 78.0234 79.091 78.2636L80.1126 82.269L80.5878 82.7992C80.9114 83.1579 81.2604 83.4928 81.632 83.8014L82.2785 83.3229L82.8604 84.0665L82.2139 84.6096C81.8647 84.9006 81.4703 85.2411 81.0307 85.6312C80.8529 85.7928 80.6718 85.9545 80.4908 86.1484C80.3098 86.3424 80.1934 86.4523 80.1416 86.5105L79.5145 85.9027L80.0285 85.24L79.7537 84.8424C79.6429 84.6775 79.5231 84.5188 79.3949 84.3671L78.6804 83.5686L74.3 81.9943C74.1373 81.9443 73.9689 81.9149 73.7989 81.907C73.6017 81.907 73.4756 81.8876 73.4109 81.8908L72.7644 82.3046L72.231 81.6128C72.2891 81.5708 72.4185 81.4738 72.6157 81.3186C72.8129 81.1634 72.981 81.0244 73.1232 80.8951C73.5543 80.5029 73.9551 80.1343 74.3258 79.7895C74.6911 79.4436 74.9207 79.2205 75.0176 79.1235L75.6642 79.7701L75.2439 80.3003L75.4896 80.4587C75.6002 80.5277 75.7158 80.5882 75.8355 80.6397L78.5317 81.6904L77.7203 78.7259C77.6924 78.6494 77.6483 78.58 77.591 78.5222C77.5166 78.4285 77.4649 78.3703 77.439 78.3412L76.9509 78.5675L76.4207 77.8757L76.8733 77.52C77.0996 77.339 77.3 77.1677 77.4843 77.006C77.8076 76.7215 78.0888 76.4532 78.3377 76.2108C78.5867 75.9683 78.7451 75.8099 78.8097 75.7388L79.4563 76.3853L78.9552 76.9511Z" fill="#A67F12"/>
<path fill-rule="evenodd" clip-rule="evenodd" d="M82.996 19.9991L83.7815 20.5778L83.2029 21.3634L83.3483 22.33L82.385 22.4754L81.8063 23.261L81.0207 22.6823L80.0541 22.8311L79.9086 21.8644L79.123 21.2858L79.7017 20.5002L79.553 19.5368L80.5196 19.3881L81.0983 18.6025L81.8839 19.1812L82.8472 19.0357L82.996 19.9991Z" fill="#A67F12"/>
<path fill-rule="evenodd" clip-rule="evenodd" d="M20.0887 19.9991L20.8743 20.5778L20.2956 21.3634L20.4411 22.33L19.4777 22.4754L18.8991 23.261L18.1135 22.6823L17.1469 22.8311L17.0014 21.8644L16.2158 21.2858L16.7945 20.5002L16.6458 19.5368L17.6124 19.3881L18.1911 18.6025L18.9766 19.1812L19.94 19.0357L20.0887 19.9991Z" fill="#A67F12"/>
<path fill-rule="evenodd" clip-rule="evenodd" d="M15.0165 71.6073L15.802 72.1828L15.2234 72.9716L15.3688 73.935L14.4055 74.0804L13.8268 74.866L13.0412 74.2873L12.0746 74.436L11.9291 73.4694L11.1436 72.8908L11.7222 72.1052L11.5735 71.1418L12.5401 70.9931L13.1188 70.2075L13.9044 70.7862L14.8678 70.6407L15.0165 71.6073Z" fill="#A67F12"/>
<path fill-rule="evenodd" clip-rule="evenodd" d="M88.0682 71.6073L88.8538 72.1828L88.2751 72.9716L88.4206 73.935L87.4572 74.0804L86.8785 74.866L86.093 74.2873L85.1264 74.436L84.9809 73.4694L84.1953 72.8908L84.774 72.1052L84.6285 71.1418L85.5919 70.9931L86.1706 70.2075L86.9561 70.7862L87.9227 70.6407L88.0682 71.6073Z" fill="#A67F12"/>
</svg>
