<svg width="235" height="66" viewBox="0 0 235 66" fill="none" xmlns="http://www.w3.org/2000/svg">
<path fill-rule="evenodd" clip-rule="evenodd" d="M221.082 23.8706C229.033 23.8706 234.135 30.1518 232.861 37.7854H214.65C215.05 41.0979 217.812 43.1629 220.905 43.1606C223.72 43.1583 226.043 41.881 227.299 39.2925L232.328 41.8333C230.279 45.847 225.969 48.481 221.084 48.481C213.733 48.4424 208.621 42.9717 208.621 36.1758C208.621 29.38 213.772 23.9092 221.084 23.8706H221.082ZM227.157 33.6054C226.55 31.0534 223.794 29.182 220.996 29.182C218.199 29.182 215.526 30.976 214.837 33.6054H227.157Z" fill="#1B1B1C"/>
<path d="M202.269 24.5376L196.553 41.2526L190.877 24.5376H184.445L192.954 47.8117H200.193L208.7 24.5376H202.269Z" fill="#1B1B1C"/>
<path d="M175.266 47.8117H181.315V24.5376H175.266V47.8117Z" fill="#1B1B1C"/>
<path fill-rule="evenodd" clip-rule="evenodd" d="M175.266 15.522H181.317V21.5756H175.266V15.522Z" fill="#1B1B1C"/>
<path d="M162.555 27.0626L162.38 24.5401H156.768V47.812H162.817V37.7015C162.817 31.9917 167.16 29.5375 171.961 30.5915V24.3716C169.039 23.6409 164.747 24.0916 162.555 27.0626Z" fill="#1B1B1C"/>
<path d="M137.516 42.0564H132.863V23.9457H137.516C142.848 23.9457 146.614 27.6679 146.614 33.002C146.614 38.3363 142.848 42.0585 137.516 42.0585V42.0564ZM137.516 18.1903H126.809V47.8118H137.516C146.149 47.8118 152.665 41.4644 152.665 32.9999C152.665 24.5352 146.149 18.188 137.516 18.188V18.1924V18.1903Z" fill="#1B1B1C"/>
<path d="M105.833 26.9396L105.658 24.5353H100.046V47.8096H106.095V35.8367C106.095 28.6993 115.957 28.153 115.957 34.2657V47.8096H122.008V33.7262C122.008 23.2968 110.505 22.0219 105.833 26.9417V26.9396Z" fill="#1B1B1C"/>
<path d="M89.3091 47.8118H95.3603V24.5376H89.3091V47.8118Z" fill="#1B1B1C"/>
<path fill-rule="evenodd" clip-rule="evenodd" d="M89.3088 15.522H95.36V21.5756H89.3088V15.522Z" fill="#1B1B1C"/>
<path d="M0 33C0 23.8387 0 19.2558 1.2772 15.57C3.60165 8.86982 8.86982 3.60165 15.57 1.2772C19.2558 0 23.8387 0 33 0C42.1613 0 46.7442 0 50.4299 1.2772C57.1324 3.60165 62.3984 8.86755 64.7227 15.57C66 19.2558 66 23.8366 66 33C66 42.1634 66 46.7442 64.7227 50.4299C62.3984 57.1324 57.1324 62.3984 50.4299 64.7227C46.7442 66 42.1634 66 33 66C23.8366 66 19.2558 66 15.57 64.7227C8.86755 62.3984 3.60165 57.1324 1.2772 50.4299C0 46.7442 0 42.1634 0 33Z" fill="#A7E92F"/>
<path fill-rule="evenodd" clip-rule="evenodd" d="M20.607 15.647H20.5751C20.1517 15.647 19.7874 15.647 19.4937 15.6857C19.1819 15.7267 18.8814 15.8223 18.6377 16.0659C18.3941 16.3095 18.2984 16.61 18.2575 16.9218C18.2187 17.2132 18.2188 17.5799 18.2188 18.0033V20.8536C18.2188 21.2772 18.2187 21.6413 18.2575 21.935C18.3008 22.2492 18.3941 22.5475 18.6377 22.7911C18.8814 23.0348 19.1819 23.1303 19.4937 23.1712C19.7851 23.21 20.1517 23.21 20.5751 23.21H23.6327C24.0561 23.21 24.4204 23.21 24.7141 23.1712C25.026 23.1303 25.3265 23.0348 25.5702 22.7911C25.8137 22.5475 25.9094 22.2471 25.9503 21.935C25.9891 21.6437 25.9891 21.2772 25.9891 20.8536V18.0033C25.9891 17.5799 25.9891 17.2155 25.9503 16.9218C25.9071 16.6077 25.8137 16.3095 25.5702 16.0659C25.3265 15.8223 25.026 15.7267 24.7141 15.6857C24.4227 15.647 24.0561 15.647 23.6327 15.647H20.607ZM20.607 28.658H20.5751C20.1517 28.658 19.7874 28.658 19.4937 28.6967C19.1819 28.74 18.8814 28.8334 18.6377 29.0769C18.3941 29.3204 18.2984 29.6211 18.2575 29.9329C18.2187 30.2243 18.2188 30.5909 18.2188 31.0143V47.9093C18.2188 48.3327 18.2187 48.6971 18.2575 48.9908C18.3008 49.3049 18.3941 49.6032 18.6377 49.8468C18.8814 50.0903 19.1819 50.186 19.4937 50.2269C19.7851 50.2657 20.1517 50.2657 20.5751 50.2657H23.6327C24.0561 50.2657 24.4204 50.2657 24.7141 50.2269C25.026 50.1837 25.3265 50.0903 25.5702 49.8468C25.8137 49.6032 25.9094 49.3026 25.9503 48.9908C25.9891 48.6994 25.9891 48.3327 25.9891 47.9093V31.0143C25.9891 30.5909 25.9891 30.2266 25.9503 29.9329C25.9071 29.6188 25.8137 29.3204 25.5702 29.0769C25.3265 28.8334 25.026 28.7377 24.7141 28.6967C24.4227 28.658 24.0561 28.658 23.6327 28.658H20.607ZM34.0028 15.647H37.3677C47.3462 15.647 54.907 23.0188 54.907 32.9585C54.907 42.8985 47.3462 50.2702 37.3677 50.2702H34.0028C33.5794 50.2702 33.2151 50.2702 32.9214 50.2315C32.6072 50.1883 32.3089 50.0949 32.0654 49.8514C31.8218 49.6077 31.7261 49.3072 31.6852 48.9954C31.6464 48.704 31.6465 48.3374 31.6465 47.914V45.1319C31.6465 44.7083 31.6464 44.3442 31.6852 44.0505C31.7261 43.7363 31.8218 43.438 32.0654 43.1945C32.3089 42.9508 32.6096 42.8552 32.9214 42.8141C33.2128 42.7755 33.5794 42.7755 34.0028 42.7755H37.3677C40.2545 42.7755 42.6906 41.7601 44.4047 40.0413C46.1191 38.3247 47.1368 35.8751 47.1368 32.9608C47.1368 30.0468 46.1168 27.5972 44.4047 25.8805C42.6906 24.1617 40.2545 23.1463 37.37 23.1463H34.0051C33.5816 23.1463 33.2174 23.1463 32.9237 23.1075C32.6096 23.0666 32.3112 22.9709 32.0677 22.7274C31.8242 22.4838 31.7285 22.1832 31.6875 21.8714C31.6488 21.58 31.6488 21.2133 31.6488 20.7899V18.0079C31.6488 17.5845 31.6488 17.2202 31.6875 16.9265C31.7285 16.6123 31.8242 16.314 32.0677 16.0704C32.3112 15.8268 32.6119 15.7312 32.9237 15.6902C33.2151 15.6515 33.5816 15.6515 34.0051 15.6515L34.0028 15.647Z" fill="#1B1B1C"/>
</svg>
