<svg width="150" height="66" viewBox="0 0 150 66" fill="none" xmlns="http://www.w3.org/2000/svg">
<path d="M132.74 37.8927H140.767V45.3603C139.294 45.9221 136.402 46.4841 133.661 46.4841C124.782 46.4841 121.829 41.9767 121.829 32.8233C121.829 24.0876 124.64 18.9469 133.511 18.9469C138.455 18.9469 141.26 20.4981 143.585 23.4562L149.719 17.821C145.973 12.48 139.436 10.8613 133.298 10.8613C119.498 10.8558 112.241 18.3832 112.241 32.7504C112.241 47.0464 118.798 54.7961 133.224 54.7961C139.848 54.7961 146.322 53.11 149.848 50.6389V29.934H132.74L132.74 37.8927ZM90.631 45.8515H111.06V54.1621H80.772V11.4877H90.6318L90.631 45.8515Z" fill="#6B6C6B"/>
<path d="M56.3353 56.3348C69.2229 43.4472 69.2221 22.5508 56.334 9.66604C43.4459 -3.22103 22.55 -3.22258 9.66524 9.66477C-3.22235 22.5521 -3.22157 43.4488 9.66651 56.3335C22.5544 69.2216 43.4505 69.2219 56.3353 56.3348Z" fill="#A50034"/>
<path d="M22.9882 26.563C23.7407 26.5594 24.4752 26.3328 25.0991 25.912C25.7229 25.4914 26.2082 24.8953 26.4935 24.1991C26.7791 23.5029 26.8518 22.7375 26.7028 22C26.5535 21.2624 26.1894 20.5856 25.6561 20.0548C25.1226 19.5241 24.4439 19.1631 23.7056 19.0176C22.9675 18.8722 22.2026 18.9487 21.5078 19.2375C20.8128 19.5264 20.2191 20.0144 19.8014 20.6405C19.3838 21.2664 19.161 22.0019 19.161 22.7544C19.1621 23.2558 19.262 23.752 19.455 24.2147C19.6482 24.6776 19.9304 25.0978 20.2857 25.4514C20.6412 25.8051 21.0629 26.0853 21.5264 26.276C21.9902 26.4668 22.4868 26.5643 22.9882 26.563ZM57.8935 34.0453H41.1113V31.5594H60.3532C60.3794 32.0409 60.3925 32.5222 60.3925 33.0094C60.3925 47.9781 48.1929 60.1121 33.1477 60.1121C18.102 60.1121 5.90039 47.9856 5.90039 33.0094C5.90039 18.0345 18.0981 5.90674 33.1452 5.90674C33.5423 5.90674 33.9376 5.91477 34.3309 5.93104V8.39834C33.9376 8.3808 33.5436 8.37213 33.1487 8.37213C19.4731 8.37213 8.38275 19.4028 8.38275 33.0069C8.38275 46.6112 19.4716 57.6439 33.1487 57.6439C46.45 57.6439 57.3164 47.2072 57.8915 34.1145L57.8935 34.0453ZM41.0731 44.402H34.3287V19.0632H31.8352V46.9047H34.3344V46.8881H41.0788L41.0731 44.402Z" fill="white"/>
</svg>
