<svg width="168" height="49" viewBox="0 0 168 49" fill="none" xmlns="http://www.w3.org/2000/svg">
<path d="M48.8886 48.0648H58.0845C59.0239 48.0648 59.9248 47.6916 60.5891 47.0273C61.2533 46.3631 61.6265 45.4622 61.6265 44.5227V43.7408C62.5347 45.0984 63.7696 46.2058 65.2177 46.9614C66.6658 47.7169 68.2805 48.0964 69.9135 48.0648H77.7528C78.6922 48.0648 79.5931 47.6916 80.2574 47.0273C80.9216 46.3631 81.2948 45.4622 81.2948 44.5227V44.2153C84.4885 46.9993 88.5797 48.5371 92.8164 48.546C95.1951 48.5446 97.5499 48.0713 99.7444 47.1536C101.939 46.2358 103.93 44.8919 105.601 43.1995V44.5361C105.6 45.0018 105.691 45.4631 105.869 45.8936C106.046 46.3242 106.307 46.7154 106.636 47.045C106.965 47.3746 107.356 47.6361 107.786 47.8146C108.216 47.993 108.677 48.0848 109.143 48.0848H118.814C119.327 48.0807 119.833 47.9644 120.297 47.744C120.763 47.9666 121.272 48.083 121.788 48.0848H131.425C131.896 48.0902 132.364 48.0012 132.801 47.823C133.237 47.6448 133.634 47.381 133.967 47.0472C134.3 46.7134 134.563 46.3163 134.741 45.8793C134.918 45.4424 135.006 44.9743 135 44.5027V43.8344C137.291 46.1089 140.193 47.6691 143.353 48.3252C146.514 48.9813 149.797 48.7051 152.804 47.5301C153.349 47.8703 153.979 48.053 154.622 48.0581H164.111C165.053 48.0581 165.955 47.6842 166.621 47.0187C167.286 46.3532 167.66 45.4506 167.66 44.5094V16.0395C167.661 15.1475 167.325 14.2882 166.719 13.6338C166.113 12.9794 165.282 12.5783 164.392 12.5108H164.038V12.2569C164.061 11.6503 163.962 11.0452 163.746 10.478C163.53 9.91069 163.202 9.39283 162.781 8.95543C162.36 8.51802 161.855 8.17006 161.297 7.93238C160.738 7.69469 160.137 7.57219 159.53 7.57219C158.923 7.57219 158.322 7.69469 157.764 7.93238C157.205 8.17006 156.701 8.51802 156.28 8.95543C155.859 9.39283 155.53 9.91069 155.314 10.478C155.098 11.0452 154.999 11.6503 155.022 12.2569V12.4975H154.642C153.901 12.5009 153.179 12.7344 152.576 13.1658C150.693 12.3725 148.672 11.957 146.629 11.9428C142.27 11.9648 138.094 13.6975 135 16.7679V3.54881C135 3.08053 134.907 2.61688 134.727 2.18458C134.547 1.75228 134.284 1.35988 133.951 1.03C133.619 0.700116 133.224 0.439278 132.791 0.262519C132.357 0.0857595 131.893 -0.00342685 131.425 0.000100697H121.788C121.272 0.00429968 120.763 0.1206 120.297 0.340938C119.832 0.118321 119.323 0.00190276 118.807 0.000100697H109.143C108.202 0.000100697 107.299 0.373982 106.634 1.03949C105.968 1.70501 105.594 2.60764 105.594 3.54881V16.3269C103.93 14.6226 101.943 13.2673 99.7492 12.3401C97.5552 11.4129 95.1983 10.9325 92.8164 10.9269C88.6571 10.9263 84.632 12.399 81.4552 15.0838C81.2569 14.3358 80.816 13.6747 80.2016 13.2042C79.5872 12.7337 78.834 12.4805 78.0602 12.4841H76.1355V6.46932C76.1345 5.89124 75.9923 5.32215 75.7213 4.81155C75.4503 4.30094 75.0586 3.86427 74.5804 3.53952C74.1021 3.21477 73.5518 3.01176 72.9772 2.94816C72.4027 2.88455 71.8213 2.96227 71.2836 3.17456L62.0208 6.85025C61.3621 7.11343 60.7973 7.568 60.3994 8.15529C60.0016 8.74257 59.7888 9.43563 59.7887 10.145V12.4841H59.6149C59.3537 12.4843 59.0934 12.5157 58.8397 12.5776C58.5918 12.5216 58.3386 12.4925 58.0845 12.4908H46.8837C46.3698 12.4915 45.8627 12.608 45.4 12.8316C44.932 12.6097 44.421 12.4933 43.903 12.4908H31.8735C31.1892 12.4908 30.5196 12.6889 29.9456 13.0613C29.3716 13.4337 28.9177 13.9644 28.6389 14.5893C27.0304 13.3912 25.1859 12.5482 23.2274 12.1162C21.2688 11.6842 19.2409 11.6729 17.2776 12.0831C16.3659 12.338 15.4728 12.6551 14.6044 13.0321C14.0426 12.6823 13.3949 12.4949 12.7331 12.4908H3.5506C3.08408 12.489 2.62183 12.5796 2.19048 12.7573C1.75913 12.935 1.36722 13.1963 1.03734 13.5262C0.70746 13.8561 0.446131 14.248 0.268417 14.6794C0.0907037 15.1107 0.000119749 15.573 0.00188688 16.0395V44.5027C-0.0133375 44.9609 0.0636928 45.4176 0.228402 45.8455C0.393111 46.2734 0.64214 46.6638 0.960695 46.9936C1.27925 47.3234 1.66083 47.5858 2.08278 47.7652C2.50473 47.9446 2.95843 48.0374 3.41694 48.038H15.4799C15.9955 48.0338 16.504 47.9175 16.9702 47.6972C17.4393 47.9159 17.9497 48.0321 18.4672 48.038H29.6547C30.1215 48.0381 30.5838 47.946 31.015 47.7671C31.4462 47.5882 31.8378 47.326 32.1675 46.9955C32.4683 46.6901 32.7106 46.3322 32.8826 45.9396C34.4974 47.143 36.3497 47.9894 38.3164 48.4226C40.2832 48.8558 42.3196 48.866 44.2906 48.4524C45.2041 48.2032 46.0977 47.886 46.9639 47.5034C47.5434 47.8599 48.2082 48.0538 48.8886 48.0648Z" fill="white"/>
<path fill-rule="evenodd" clip-rule="evenodd" d="M63.3174 37.6461V23.9057H59.615V16.2936H63.3174V10.4125L72.5802 6.7168V16.2936H78.0536V23.9123H72.5668V35.1399C72.5668 36.8708 73.4356 37.499 75.5875 37.499H77.7529V44.8504H69.9136C65.73 44.8504 63.3174 41.6559 63.3174 37.6795" fill="#E2001A"/>
<path d="M109.17 3.80273H118.847V44.7967H109.17V3.80273Z" fill="#E2001A"/>
<path fill-rule="evenodd" clip-rule="evenodd" d="M121.841 3.7959L131.478 3.80258V44.7966H121.841V3.7959Z" fill="#E2001A"/>
<path fill-rule="evenodd" clip-rule="evenodd" d="M87.9244 26.779C87.9244 25.048 89.9694 22.7691 92.8031 22.7691C95.8773 22.7691 97.7886 25.3488 97.7886 26.779H87.9244ZM107.145 33.6893C106.414 36.9525 104.602 39.8734 102.004 41.979C99.4064 44.0846 96.1737 45.2516 92.8298 45.2911C84.7032 45.2911 78.3008 38.481 78.3008 30.0336C78.3008 21.5862 84.7032 14.7026 92.8298 14.7026C100.956 14.7026 107.533 21.5595 107.533 30.0069C107.538 30.8193 107.475 31.6308 107.345 32.4328H87.6504C87.7619 33.706 88.3524 34.8894 89.3026 35.744C90.2527 36.5987 91.4918 37.061 92.7696 37.0375C93.816 37.0341 94.8365 36.7118 95.695 36.1136C96.5535 35.5154 97.2092 34.6697 97.5748 33.6893H107.145Z" fill="#E2001A"/>
<path fill-rule="evenodd" clip-rule="evenodd" d="M48.862 16.2935H58.0646V44.8168H48.8687V42.05C46.6365 44.2087 45.8546 44.6297 43.5222 45.3247C40.0537 46.1668 35.6161 44.5762 33.9387 42.2706C32.5922 40.512 31.866 38.357 31.8736 36.1422V16.2935H41.0361V33.0011C41.0361 35.8816 42.6133 37.8263 44.9925 37.8263C47.1712 37.8263 48.862 35.9016 48.862 33.0011V16.2935Z" fill="#E2001A"/>
<path fill-rule="evenodd" clip-rule="evenodd" d="M12.6998 44.7767H3.47046V16.2935H12.6998V19.0736C14.9319 16.9083 15.7139 16.4873 18.0462 15.7856C21.5014 14.9368 25.9256 16.5341 27.6231 18.8464C28.945 20.6163 29.6726 22.7593 29.7015 24.9681V44.7767H20.4856V28.0691C20.4856 25.1953 18.9351 23.2572 16.5359 23.2572C14.3706 23.2572 12.6797 25.1753 12.6797 28.0691V44.7767" fill="black"/>
<path fill-rule="evenodd" clip-rule="evenodd" d="M142.351 30.5084C142.384 29.2643 142.783 28.0575 143.498 27.0389C144.213 26.0203 145.213 25.2352 146.372 24.7817C147.531 24.3282 148.798 24.2265 150.014 24.4892C151.231 24.752 152.343 25.3675 153.211 26.2589C154.08 27.1503 154.666 28.278 154.897 29.5009C155.128 30.7238 154.993 31.9877 154.51 33.1344C154.026 34.2812 153.215 35.2599 152.178 35.9482C151.142 36.6365 149.925 37.0039 148.68 37.0043C146.98 36.9814 145.358 36.2843 144.171 35.0663C142.985 33.8482 142.33 32.2088 142.351 30.5084ZM132.995 30.5819C132.995 22.3817 139.137 15.7388 146.735 15.7388C149.663 15.8151 152.483 16.8584 154.755 18.7061V16.2935H164.205V44.8102H154.675V42.5112C152.67 44.5161 149.75 45.4116 146.655 45.4116C139.11 45.445 132.948 38.762 132.948 30.5819H132.995Z" fill="#E2001A"/>
<path fill-rule="evenodd" clip-rule="evenodd" d="M159.059 10.7666H159.26C159.601 10.7666 159.988 10.8 159.988 11.201C159.988 11.602 159.601 11.6688 159.26 11.6688H159.059V10.7666ZM158.391 13.5868H159.059V12.1968H159.253C159.56 12.1968 159.621 12.297 159.727 12.5376L160.122 13.5868H160.897L160.342 12.2836C160.282 12.1299 160.162 11.9495 159.988 11.9361C160.182 11.9192 160.363 11.829 160.493 11.6838C160.624 11.5386 160.694 11.3493 160.69 11.1542C160.69 10.2319 159.821 10.252 159.093 10.252H158.424L158.391 13.5868Z" fill="black"/>
<path d="M159.5 9.08253C158.94 9.08253 158.392 9.24872 157.926 9.56008C157.46 9.87144 157.097 10.314 156.882 10.8318C156.668 11.3495 156.612 11.9193 156.721 12.469C156.83 13.0186 157.1 13.5235 157.496 13.9198C157.893 14.3161 158.398 14.586 158.947 14.6953C159.497 14.8047 160.067 14.7485 160.585 14.5341C161.102 14.3196 161.545 13.9564 161.856 13.4904C162.168 13.0244 162.334 12.4766 162.334 11.9162C162.335 11.5438 162.262 11.1749 162.12 10.8307C161.978 10.4865 161.769 10.1738 161.506 9.91051C161.242 9.64721 160.93 9.43852 160.586 9.29643C160.241 9.15434 159.872 9.08165 159.5 9.08253ZM159.5 14.4691C158.995 14.4691 158.502 14.3194 158.082 14.0388C157.662 13.7583 157.335 13.3596 157.142 12.8931C156.948 12.4266 156.898 11.9133 156.996 11.4181C157.095 10.9229 157.338 10.468 157.695 10.111C158.052 9.75392 158.507 9.51078 159.002 9.41227C159.497 9.31376 160.011 9.36432 160.477 9.55755C160.944 9.75077 161.342 10.078 161.623 10.4978C161.903 10.9176 162.053 11.4112 162.053 11.9162C162.053 12.5932 161.784 13.2426 161.305 13.7213C160.827 14.2001 160.177 14.4691 159.5 14.4691Z" fill="black"/>
</svg>
