<svg width="105" height="60" viewBox="0 0 105 60" fill="none" xmlns="http://www.w3.org/2000/svg">
<path fill-rule="evenodd" clip-rule="evenodd" d="M68.7429 60H54.5304V0H68.7429V60ZM49.455 30.0729C49.455 43.7304 38.3807 54.7821 24.7371 54.7821C11.0925 54.7821 0 43.7121 0 30.0729C0 16.4336 11.0743 5.3625 24.7179 5.3625C38.3625 5.3625 49.455 16.4143 49.455 30.0729ZM32.1964 30.0729C32.1973 29.092 32.0046 28.1206 31.6295 27.2143C31.2544 26.308 30.7042 25.4845 30.0105 24.7912C29.3167 24.0978 28.4929 23.5481 27.5864 23.1735C26.6799 22.7989 25.7084 22.6068 24.7275 22.6082C23.7466 22.6068 22.7751 22.7989 21.8686 23.1735C20.9621 23.5481 20.1383 24.0978 19.4445 24.7912C18.7508 25.4845 18.2006 26.308 17.8255 27.2143C17.4504 28.1206 17.2577 29.092 17.2586 30.0729C17.2579 31.0535 17.4506 32.0247 17.8257 32.9309C18.2008 33.837 18.7509 34.6602 19.4445 35.3535C20.1382 36.0467 20.9618 36.5964 21.8681 36.971C22.7744 37.3455 23.7457 37.5377 24.7264 37.5364C25.7073 37.538 26.6788 37.346 27.5854 36.9716C28.492 36.5971 29.3158 36.0475 30.0097 35.3542C30.7036 34.661 31.2539 33.8376 31.6291 32.9314C32.0043 32.0251 32.1971 31.0537 32.1964 30.0729ZM104.818 15.0729H95.3721L89.8264 20.6111L84.2807 15.0718H74.8329V24.6718L80.3046 30.1361L74.8329 35.6014V45.0729H84.4275L89.8436 39.6632L95.2596 45.0729H104.854V35.6014L99.3825 30.1371L104.854 24.6729V15.0729H104.818Z" fill="#002F34"/>
</svg>
