<?xml version="1.0" encoding="utf-8"?>
<!-- Generator: Adobe Illustrator 25.0.1, SVG Export Plug-In . SVG Version: 6.00 Build 0)  -->
<svg version="1.0" id="katman_1" xmlns="http://www.w3.org/2000/svg" xmlns:xlink="http://www.w3.org/1999/xlink" x="0px" y="0px"
	 viewBox="0 0 560 400" style="enable-background:new 0 0 560 400;" xml:space="preserve">
<style type="text/css">
	.st0{fill-rule:evenodd;clip-rule:evenodd;fill:#28458E;}
	.st1{fill-rule:evenodd;clip-rule:evenodd;fill:#0096D6;}
	.st2{fill-rule:evenodd;clip-rule:evenodd;fill:#EB7B30;}
	.st3{fill-rule:evenodd;clip-rule:evenodd;fill:#00984A;}
	.st4{fill-rule:evenodd;clip-rule:evenodd;fill:#DF002C;}
</style>
<path class="st0" d="M156.7,207.6h11.7c4.6,0,6.3,1.6,6.3,5.4c0,3.7-1.7,5.3-6.3,5.3h-11.7V207.6z M138.5,246.7h18.2v-15.9h19.5
	c12.9,0,17.5-7.6,17.5-17.4c0-11.4-4.8-17.8-17.7-17.8h-37.5L138.5,246.7z M199.7,195.6h48.9V208h-30.7v6.9h28.6v12.5h-28.6v6.9
	h30.7v12.5h-48.9V195.6z M274.3,207.6h11.7c4.6,0,6.3,1.6,6.3,5.4c0,3.7-1.7,5.3-6.3,5.3h-11.7V207.6z M256.2,246.7h18.2v-15.9h19.5
	c12.9,0,17.5-7.6,17.5-17.4c0-11.4-4.8-17.8-17.7-17.8h-37.5L256.2,246.7z M328.9,225c-8.9-1.5-12.6-7.2-12.6-14.4
	c0-13.3,11.7-16.8,26.6-16.8c20.5,0,28.9,5.9,29.6,16.8h-21.1c0-2.1-1.1-3.4-2.8-4.1c-1.6-0.8-3.7-1.1-5.7-1.1
	c-5.4,0-7.3,1.5-7.3,3.7c0,1.4,0.6,2.4,2.4,2.6l21.7,3.6c9.2,1.5,14.8,6.2,14.8,14.9c0,12.5-9.2,18.3-29.6,18.3
	c-14,0-29.3-2.1-29.3-17.2h21.9c0.1,1.7,0.6,2.9,1.9,3.7c1.4,0.7,3.3,1.1,6.2,1.1c5.7,0,7.2-1.7,7.2-4.2c0-1.5-0.8-3-3.3-3.4
	L328.9,225z M380.6,195.6h18.2v51.2h-18.2V195.6z M466.1,226.8c-1.2,6.7-3.2,12.2-7.7,15.9c-4.4,3.7-11.4,5.8-22.5,5.8
	c-11,0-31.5-0.9-31.5-27.4c0-26.5,20.4-27.4,31.5-27.4c11,0,27.8,1.6,30.2,21.9h-20.5c-0.5-3.7-2.7-9-9.7-9
	c-7.4,0-12.1,4.1-12.1,14.5c0,10.4,4.6,14.5,11.2,14.5c5.7,0,9.2-2.6,10.6-8.8L466.1,226.8L466.1,226.8z M489.9,221.2
	c0-10.4,4.7-14.5,12.1-14.5c7.4,0,12.1,4.1,12.1,14.5c0,10.4-4.7,14.5-12.1,14.5C494.6,235.6,489.9,231.5,489.9,221.2L489.9,221.2z
	 M470.5,221.2c0,26.5,20.4,27.4,31.5,27.4c11,0,31.5-0.9,31.5-27.4c0-26.5-20.4-27.4-31.5-27.4C491,193.8,470.5,194.6,470.5,221.2
	L470.5,221.2z M111,196.1c1.2-24.5-20-52.2-48.9-55.6l0-0.3c28.4,0,50.3,26.3,50.3,47.1c0,4.3-0.4,7-1,8.9L111,196.1z M109.3,199.2
	c-1.9,2.3-4.3,4.6-7.1,6.9c-5.1-29.5-26.8-55.3-42.1-62.8l-0.3,0.2c15.4,12.7,33.8,37.2,41,63.8c-3.4,2.5-7.4,4.8-11.7,6.7
	c-14.5-16.6-28.1-48.6-32.5-68.9l-0.4,0.1c0.1,19.7,14.1,53.2,31.2,69.5c-3.8,1.5-7.9,2.7-12.1,3.4c-16.4-6.5-28-27.2-28-48.5
	c0-13.9,4.2-22.5,5.1-24.2l-0.3-0.1c-1,1.5-7.2,10.1-7.2,25.1c0,24,11.9,42.4,27.6,48.2c-5.4,0.6-11,0.4-16.9-0.8l-0.1,0.4
	c1.7,0.6,7.4,3,16.1,3c19.7,0,33-12.2,38.4-21.6L109.3,199.2z"/>
<path class="st1" d="M69.3,131.5c-14.9,0-32.5,10.8-32.5,20.6c0,3.8,3.5,7,10.7,7c16.8,0,32.3-11.5,32.3-20.5
	C79.9,134,75.4,131.5,69.3,131.5z M75.3,138.4c0,7.5-14.5,16.8-26.6,16.8c-5.4,0-8.2-2.1-8.2-5.6c0-7.7,14.7-16.7,26-16.7
	C73.9,132.9,75.3,136.6,75.3,138.4L75.3,138.4z"/>
<path class="st2" d="M30.9,156.7c-0.4,0.7-2.1,4-2.1,7.4c0,6.3,6.3,12.1,18,12.1c22.4,0,48.2-16.5,48.2-31.7c0-6.9-6.5-10.6-11-11.4
	l-0.1,0.3c1.4,0.4,6.5,2.8,6.5,8.9c0,12.2-22.8,28.8-45.5,28.8c-8.7,0-14.2-4.3-14.2-10.6c0-2,0.4-3.3,0.5-3.7L30.9,156.7z"/>
<path class="st3" d="M104.2,145.5c0.6,0.5,4.3,3.5,4.3,9.3c0,19.8-31,39.3-58.4,39.3c-16.4,0-23.8-8.1-23.5-15.2h0.3
	c0.6,3.7,6,10.4,20.3,10.4c27.5,0,58.1-20.1,58.1-37.8c0-3-0.8-4.9-1.3-5.8L104.2,145.5z"/>
<path class="st4" d="M114.6,164c0.1,0.4,0.8,2.3,0.8,5.3c0,22-31.4,40.9-58.7,40.9c-14.1,0-21.4-6.8-22.9-9.6l0.2-0.2
	c3.9,3.4,11.5,6,20.5,6c24.1,0,60.1-18.3,59.8-42.3L114.6,164z"/>
</svg>
