<svg width="117" height="66" viewBox="0 0 117 66" fill="none" xmlns="http://www.w3.org/2000/svg">
<path d="M116.928 0H0V66H116.928V0Z" fill="#FFD400"/>
<path d="M30.696 21.8897C27.3164 21.9546 22.5069 22.1301 22.5069 22.1301C22.3718 22.1351 22.2439 22.1919 22.1495 22.2887C22.0551 22.3855 22.0016 22.5149 22 22.6501V43.2917C22 43.3682 22.0152 43.444 22.0446 43.5146C22.0741 43.5852 22.1173 43.6493 22.1717 43.7031C22.2261 43.7568 22.2907 43.7993 22.3616 43.828C22.4325 43.8567 22.5084 43.871 22.5849 43.8702H26.2765C26.353 43.871 26.4289 43.8567 26.4999 43.828C26.5708 43.7993 26.6353 43.7568 26.6897 43.7031C26.7441 43.6493 26.7873 43.5852 26.8168 43.5146C26.8463 43.444 26.8615 43.3682 26.8615 43.2917V36.396C26.8614 36.3329 26.8741 36.2704 26.8988 36.2123C26.9236 36.1542 26.9598 36.1017 27.0053 36.058C27.0509 36.0143 27.1048 35.9803 27.1638 35.9579C27.2229 35.9356 27.2858 35.9254 27.3489 35.9281C27.8688 35.9281 28.8502 35.9801 30.696 35.9801C35.1155 35.9801 37.7672 32.9904 37.7672 28.9413C37.7672 24.8923 35.096 21.7987 30.696 21.8897ZM29.3962 32.373C28.3043 32.373 27.6609 32.373 27.2904 32.373C27.1697 32.3679 27.0556 32.3164 26.972 32.2292C26.8885 32.142 26.8418 32.0258 26.842 31.905V25.9972C26.8418 25.8764 26.8885 25.7602 26.972 25.673C27.0556 25.5858 27.1697 25.5343 27.2904 25.5292C27.6609 25.5292 28.3043 25.5292 29.3962 25.5292C32.0544 25.5292 33.5427 26.6211 33.5427 28.9738C33.5427 31.3266 32.0544 32.425 29.3962 32.425" fill="black"/>
<path d="M49.3294 21.8896C46.5217 21.8896 40.7764 22.6046 40.7764 32.8864C40.7764 43.1682 46.5217 43.8831 49.3294 43.8831C52.1371 43.8831 57.8759 43.1682 57.8759 32.8864C57.8759 22.6046 52.1306 21.8896 49.3294 21.8896ZM49.3294 40.484C46.1253 40.484 45.6768 37.4229 45.6768 32.8864C45.6768 28.3499 46.1448 25.2823 49.3294 25.2823C52.514 25.2823 52.9755 28.4084 52.9755 32.8864C52.9755 37.3644 52.5335 40.484 49.3294 40.484Z" fill="black"/>
<path d="M86.3751 21.8896C83.574 21.8896 77.8286 22.6046 77.8286 32.8864C77.8286 43.1682 83.574 43.8831 86.3751 43.8831C89.1763 43.8831 94.9282 43.1682 94.9282 32.8864C94.9282 22.6046 89.1828 21.8896 86.3751 21.8896ZM86.3751 40.484C83.171 40.484 82.7226 37.4229 82.7226 32.8864C82.7226 28.3499 83.171 25.2823 86.3751 25.2823C89.5793 25.2823 90.0277 28.4084 90.0277 32.8864C90.0277 37.3644 89.5793 40.484 86.3751 40.484Z" fill="black"/>
<path d="M60.9243 32.8864C60.9243 38.4758 62.8156 43.8831 69.9193 43.8831C71.8428 43.8659 73.7385 43.4219 75.4697 42.5833C75.5633 42.5368 75.6364 42.4573 75.6749 42.3601C75.7133 42.2628 75.7143 42.1548 75.6776 42.0569L74.7742 39.7496C74.7375 39.6525 74.6658 39.5727 74.5732 39.5258C74.4806 39.4789 74.3738 39.4683 74.2738 39.4961C73.2456 39.7882 72.1839 39.9455 71.1152 39.9641C67.1376 39.9641 65.7988 36.8834 65.7988 32.8864C65.7988 28.8894 67.1376 25.8477 71.1152 25.8477C72.1817 25.866 73.2414 26.0233 74.2673 26.3156C74.3682 26.3437 74.4759 26.3334 74.5696 26.2865C74.6633 26.2397 74.7362 26.1597 74.7742 26.0622L75.6776 23.7159C75.7143 23.618 75.7133 23.51 75.6749 23.4127C75.6364 23.3155 75.5633 23.236 75.4697 23.1895C73.7385 22.3509 71.8428 21.9069 69.9193 21.8896C62.8156 21.8896 60.9243 27.297 60.9243 32.8864Z" fill="black"/>
</svg>
