<svg width="199" height="66" viewBox="0 0 199 66" fill="none" xmlns="http://www.w3.org/2000/svg">
<path d="M198.656 15.7138C201.364 31.2317 159.119 51.5539 104.289 61.1035C49.465 70.6532 2.82614 65.8074 0.122628 50.2829C-2.5787 34.7628 39.6774 14.4472 94.501 4.8997C149.327 -4.65431 195.957 0.191483 198.656 15.7138Z" fill="#034EA2"/>
<path d="M147.056 38.7502L146.774 22.6143H151.862V42.9518H144.547L139.469 26.2612H139.36L139.642 42.9518H134.586V22.6143H142.219L146.942 38.7502H147.056Z" fill="white"/>
<path d="M54.5665 24.5185L51.7516 43.1658H46.2026L50.0133 22.6143H59.1546L62.9478 43.1658H57.4207L54.6822 24.5185H54.5665Z" fill="white"/>
<path d="M75.871 43.1658L72.4338 24.6888H72.3224L72.1935 43.1658H67.0464L67.5006 22.6143H75.8863L78.4239 38.3243H78.5331L81.0728 22.6143H89.4541L89.8996 43.1658H84.7634L84.628 24.6888H84.521L81.0859 43.1658H75.871Z" fill="white"/>
<path d="M37.548 37.368C37.7489 37.8659 37.6878 38.5057 37.5939 38.8922C37.4213 39.5758 36.9584 40.2724 35.5913 40.2724C34.3029 40.2724 33.5211 39.5343 33.5211 38.4053V36.4158H28.0093L28.0049 38.0078C28.0049 42.5894 31.6125 43.9717 35.4778 43.9717C39.1946 43.9717 42.2562 42.7007 42.7432 39.2766C42.9921 37.5012 42.8065 36.3394 42.7213 35.9005C41.8544 31.5984 34.0539 30.3144 33.4731 27.9078C33.3748 27.4951 33.4032 27.0584 33.4512 26.8247C33.5932 26.1696 34.043 25.4467 35.3293 25.4467C36.5303 25.4467 37.2401 26.1892 37.2401 27.3117C37.2401 27.6895 37.2401 28.5805 37.2401 28.5805H42.3654V27.137C42.3654 22.6602 38.3472 21.9614 35.4363 21.9614C31.7806 21.9614 28.7932 23.1691 28.2473 26.5146C28.0988 27.4383 28.077 28.2616 28.2931 29.2924C29.1907 33.4918 36.491 34.7081 37.548 37.368Z" fill="white"/>
<path d="M104.376 37.3311C104.579 37.8246 104.514 38.447 104.422 38.8335C104.254 39.5148 103.795 40.2005 102.437 40.2005C101.166 40.2005 100.391 39.4624 100.391 38.3596L100.386 36.3877H94.9314L94.9248 37.9578C94.9248 42.4935 98.4996 43.8627 102.326 43.8627C106.003 43.8627 109.036 42.6092 109.515 39.2157C109.764 37.4533 109.587 36.3069 109.497 35.8767C108.635 31.6139 100.913 30.343 100.338 27.9605C100.24 27.5499 100.269 27.1175 100.319 26.897C100.465 26.2375 100.906 25.5321 102.179 25.5321C103.369 25.5321 104.064 26.2571 104.064 27.3709C104.064 27.7443 104.064 28.6265 104.064 28.6265H109.15V27.1983C109.15 22.7696 105.165 22.0752 102.282 22.0752C98.6678 22.0752 95.7044 23.2675 95.1694 26.5891C95.0209 27.4997 95.0056 28.3077 95.2174 29.3341C96.1019 33.4898 103.33 34.6974 104.376 37.3311Z" fill="white"/>
<path d="M121.639 40.0914C123.065 40.0914 123.51 39.1044 123.609 38.5999C123.65 38.3772 123.661 38.0802 123.657 37.8138V22.606H128.854V37.3486C128.865 37.7264 128.828 38.5038 128.81 38.6982C128.446 42.5351 125.412 43.7798 121.637 43.7798C117.856 43.7798 114.821 42.5351 114.461 38.6982C114.443 38.5038 114.406 37.7264 114.417 37.3486V22.606H119.61V37.8138C119.61 38.0802 119.619 38.3794 119.658 38.5999C119.769 39.1044 120.202 40.0914 121.639 40.0914Z" fill="white"/>
<path d="M164.511 39.8752C166 39.8752 166.52 38.934 166.616 38.3859C166.653 38.1501 166.664 37.864 166.662 37.6041V34.6211H164.552V31.6206H171.84V37.1368C171.835 37.5211 171.827 37.805 171.765 38.4907C171.423 42.2294 168.18 43.5636 164.537 43.5636C160.888 43.5636 157.649 42.2294 157.302 38.4907C157.243 37.805 157.235 37.5211 157.228 37.1368L157.232 28.4825C157.232 28.1178 157.278 27.4714 157.318 27.1285C157.774 23.2873 160.888 22.0513 164.537 22.0513C168.182 22.0513 171.372 23.2807 171.75 27.1285C171.818 27.7837 171.796 28.4825 171.796 28.4825V29.1682H166.614V28.0173C166.618 28.0195 166.607 27.5282 166.546 27.2356C166.459 26.7813 166.064 25.7375 164.498 25.7375C163 25.7375 162.561 26.7245 162.452 27.2356C162.388 27.5063 162.364 27.8732 162.364 28.2051V37.6041C162.36 37.864 162.375 38.1501 162.417 38.3859C162.506 38.9362 163.024 39.8752 164.511 39.8752Z" fill="white"/>
</svg>
