<svg width="183" height="53" viewBox="0 0 183 53" fill="none" xmlns="http://www.w3.org/2000/svg">
<path d="M174.95 46.1497C178.55 46.1497 181.1 45.4997 183 44.0997V37.7497C181.05 39.0997 178.7 39.9497 175.4 39.9497C169.85 39.9497 167.55 35.6497 167.55 28.8497C167.55 21.6997 170.35 18.0497 175.45 18.0497C178.45 18.0497 181.4 19.0997 182.95 20.0997V13.4997C181.3 12.5997 178.45 11.9497 174.55 11.9497C164.6 11.9497 159.45 19.0997 159.45 29.0997C159.5 40.0497 164.55 46.1497 174.95 46.1497ZM126.3 43.2497V36.8997C123.9 38.5497 119.8 39.9997 116.05 39.9997C110.35 39.9997 108.2 37.2997 107.85 31.7997H126.65V27.6997C126.65 16.2497 121.6 11.9497 113.85 11.9497C104.35 11.9497 99.8501 19.1997 99.8501 29.1497C99.8501 40.5997 105.5 46.1497 115.4 46.1497C120.35 46.1497 124 44.7997 126.3 43.2497ZM54.95 12.5497V25.5497H44.55V12.5497H36.75V45.4997H44.55V31.7497H54.95V45.4997H62.75V12.5497H54.95ZM97.9001 39.2997H94.4501V12.5497H71.75V15.3497C71.75 23.3997 71.25 33.7997 68.5 39.2997H66V52.9997H73.2V45.4997H90.6501V52.9997H97.8501V39.2997H97.9001ZM151.15 45.4997H160L147.5 27.7497L158.5 12.5497H150.65L139.65 27.7497V12.5497H131.85V45.4997H139.65V29.2997L151.15 45.4997ZM113.65 18.0497C117.5 18.0497 118.7 21.2497 118.7 25.3997V26.0497H107.85C108.05 20.7997 109.95 18.0497 113.65 18.0497ZM86.65 39.2997H75.65C77.8 34.3497 78.4 25.3497 78.4 19.6497V18.6497H86.65V39.2997Z" fill="black"/>
<path d="M30.25 45.5H22.3V6.15001H18.75C12.25 6.15001 8.85001 9.40001 8.85001 14.25C8.85001 19.75 11.2 22.3 16.05 25.55L20.05 28.25L8.55001 45.5H0L10.35 30.1C4.4 25.85 1.05 21.7 1.05 14.7C1.05 5.95001 7.15001 0 18.7 0H30.2V45.5H30.25Z" fill="#FC3F1D"/>
</svg>
