<svg width="233" height="59" viewBox="0 0 233 59" fill="none" xmlns="http://www.w3.org/2000/svg">
<path d="M20.6224 29.4978C23.6913 25.188 27.2533 26.0455 31.4518 26.5295C30.3377 25.3401 29.7893 23.8395 29.7893 22.2283C29.7893 18.5166 32.8703 15.5068 36.6727 15.5068C44.6131 15.5068 43.6322 24.4895 40.188 24.4895C39.4147 24.4895 38.7936 23.9467 38.6258 23.3037C38.4874 22.7729 38.6204 22.1488 38.4373 21.6457C38.1795 20.9439 37.4668 20.4287 36.6693 20.4287C36.1555 20.4287 35.6936 20.631 35.3545 20.9576C34.2854 21.988 34.9532 24.0505 35.6504 25.105C36.6209 26.5676 38.3248 27.5115 40.2797 27.4925L40.598 27.4826C46.042 26.8707 47.644 22.2393 46.2618 18.0366C45.6615 16.211 43.5666 13.5244 41.2069 12.3991C45.5525 9.88539 46.8863 4.08873 46.7323 0.648438L0 29.4984L46.7323 58.3519C46.8863 54.9099 45.5525 49.1133 41.2069 46.6013C43.5666 45.4742 45.6615 42.7876 46.2618 40.962C47.644 36.7593 46.0421 32.1279 40.598 31.5142L40.2797 31.5044C38.3248 31.4848 36.6209 32.4293 35.6504 33.8919C34.9532 34.9465 34.2854 37.0089 35.3545 38.0392C35.6936 38.3661 36.1555 38.5682 36.6693 38.5682C37.4668 38.5682 38.1795 38.0548 38.4373 37.3512C38.6207 36.8481 38.4874 36.2257 38.6258 35.6933C38.7936 35.0502 39.4147 34.5074 40.188 34.5074C43.6322 34.5074 44.6131 43.4901 36.6727 43.4901C32.8703 43.4901 29.7893 40.4803 29.7893 36.7686C29.7893 35.1573 30.3377 33.6567 31.4518 32.4673C27.2533 32.953 23.6913 33.8112 20.6224 29.4978Z" fill="#E5E5E5"/>
<path d="M77.8893 44.0567V29.3239C77.8893 29.1406 77.8844 28.9608 77.8795 28.7846V28.7748L77.8697 28.5866V28.5768V28.562L77.8662 28.5278V28.5131C77.5357 23.3474 74.0015 21.5737 69.5971 21.5737C66.1407 21.5737 63.3901 22.6888 61.9959 24.0528V26.7998C63.8762 25.7868 66.5698 24.8221 68.6786 24.8221C71.2994 24.8221 73.1331 25.6104 73.1383 28.5131L73.14 28.5376V28.7885L73.1499 30.213C66.3132 30.8786 60.5923 32.1181 60.5923 38.034C60.5923 42.3663 63.6335 45.3658 69.7627 45.3658C71.8645 45.3658 76.1611 44.9816 77.8893 44.0567ZM73.1499 41.8996C71.797 42.4545 69.3907 42.5081 68.1036 42.1245C67.3581 41.9016 66.7456 41.5592 66.2959 41.0509C65.7042 40.3819 65.3859 39.4415 65.3859 38.2002C65.3859 34.1185 68.7092 33.2126 73.1499 33.2126V41.8996Z" fill="#E5E5E5"/>
<path d="M166.914 44.9123V41.3112C166.506 41.4322 166.181 41.515 165.731 41.515C164.016 41.515 163.323 40.3724 163.323 38.6591V24.8167H166.914V21.6634H163.323V16.0933L158.342 19.2016L158.344 21.6634H155.704V24.8167H158.344V39.4042C158.344 42.4624 160.058 45.3616 164.383 45.3616C165.568 45.3616 166.464 45.1162 166.914 44.9123Z" fill="#E5E5E5"/>
<path d="M152.938 38.3668C152.938 35.682 151.899 33.3775 147.354 31.5865C145.32 30.7774 143.891 29.8387 143.891 27.9629C143.891 26.3414 145.06 24.9342 147.225 24.9342C148.87 24.9342 150.748 26.0042 151.601 26.9084V24.1026C148.669 19.6752 138.784 20.9959 138.784 28.2188C138.784 30.6062 139.692 32.9937 144.109 34.6568C146.489 35.5523 147.837 36.446 147.837 38.4065C147.837 42.6126 141.101 42.1044 138.762 40.3635L138.786 44.0389C140.163 44.7373 141.904 45.3614 144.63 45.3614C149.737 45.3614 152.938 42.12 152.938 38.3668Z" fill="#E5E5E5"/>
<path d="M210.309 44.7376L210.305 28.5008C210.305 24.8444 208.079 21.5684 201.31 21.5684C197.483 21.5684 194.582 22.1976 192.438 23.2073L192.44 44.7376H197.569L197.568 25.4322C198.535 25.0554 199.417 24.8029 201.098 24.8029C204.337 24.8029 205.178 26.7357 205.178 28.5837L205.179 44.7376H210.309Z" fill="#E5E5E5"/>
<path d="M104.988 21.6019C99.2502 21.4049 96.2263 22.0792 93.8735 23.2131V44.7382H98.9976V25.5228C100.172 24.8503 103.014 24.4648 104.987 25.265L104.988 21.6019Z" fill="#E5E5E5"/>
<path d="M88.3748 21.6772H83.3911V44.7375H88.3748V21.6772Z" fill="#E5E5E5"/>
<path d="M134.66 44.0567V29.324C134.66 29.1407 134.655 28.9608 134.65 28.7846V28.7748L134.64 28.5866V28.5768V28.5621L134.637 28.5278V28.5131C134.307 23.3474 130.772 21.5737 126.368 21.5737C122.912 21.5737 120.161 22.6888 118.765 24.0528V26.7998C120.647 25.7868 123.341 24.8221 125.449 24.8221C128.07 24.8221 129.904 25.6104 129.909 28.5131V28.5376V28.7885L129.919 30.213C123.082 30.8786 117.361 32.1182 117.361 38.0341C117.361 42.3664 120.403 45.3658 126.53 45.3658C128.634 45.3658 132.932 44.9816 134.66 44.0567ZM129.919 41.8996C128.564 42.4545 126.16 42.5081 124.873 42.1245C124.127 41.9016 123.513 41.5593 123.065 41.051C122.472 40.382 122.155 39.4415 122.155 38.2002C122.155 34.1185 125.476 33.2126 129.919 33.2126V41.8996Z" fill="#E5E5E5"/>
<path d="M186.934 44.0567V29.324C186.934 29.1407 186.931 28.9608 186.925 28.7846L186.923 28.7748L186.913 28.5866V28.5768V28.5621L186.911 28.5278L186.91 28.5131C186.581 23.3474 183.045 21.5737 178.641 21.5737C175.186 21.5737 172.435 22.6888 171.039 24.0528V26.7998C172.921 25.7868 175.613 24.8221 177.724 24.8221C180.345 24.8221 182.178 25.6104 182.183 28.5131V28.5376V28.7885L182.193 30.213C175.357 30.8786 169.636 32.1182 169.636 38.0341C169.636 42.3664 172.679 45.3658 178.806 45.3658C180.91 45.3658 185.208 44.9816 186.934 44.0567ZM182.193 41.8996C180.84 42.4545 178.436 42.5081 177.147 42.1245C176.403 41.9016 175.789 41.5593 175.339 41.051C174.748 40.382 174.429 39.4415 174.429 38.2002C174.429 34.1185 177.753 33.2126 182.193 33.2126V41.8996Z" fill="#E5E5E5"/>
<path d="M231.702 44.0567V29.324C231.702 29.1407 231.697 28.9608 231.692 28.7846L231.691 28.7748L231.681 28.5866V28.5768V28.5621L231.677 28.5278V28.5131C231.347 23.3474 227.813 21.5737 223.408 21.5737C219.952 21.5737 217.201 22.6888 215.807 24.0528V26.7998C217.689 25.7868 220.381 24.8221 222.49 24.8221C225.11 24.8221 226.944 25.6104 226.951 28.5131V28.5376V28.7885L226.961 30.213C220.124 30.8786 214.403 32.1182 214.403 38.0341C214.403 42.3664 217.445 45.3658 223.574 45.3658C225.676 45.3658 229.974 44.9816 231.702 44.0567ZM226.961 41.8996C225.608 42.4545 223.204 42.5081 221.915 42.1245C221.171 41.9016 220.557 41.5593 220.107 41.051C219.515 40.382 219.197 39.4415 219.197 38.2002C219.197 34.1185 222.518 33.2126 226.961 33.2126V41.8996Z" fill="#E5E5E5"/>
<path d="M88.5392 16.1284C88.5392 14.7402 87.3905 13.6372 85.882 13.6372C84.4168 13.6372 83.2266 14.7402 83.2266 16.1284C83.2266 17.4751 84.4168 18.5764 85.882 18.5764C87.3905 18.5764 88.5392 17.4751 88.5392 16.1284Z" fill="#E5E5E5"/>
</svg>
