<svg width="260" height="66" viewBox="0 0 260 66" fill="none" xmlns="http://www.w3.org/2000/svg">
<g opacity="0.6">
<path fill-rule="evenodd" clip-rule="evenodd" d="M10.2304 51.8485L14.4615 40.3453L18.4975 51.8485H10.2304ZM22.6091 63.4411H26.4886L16.4198 35.75H12.5828L2.04565 63.4411H5.96225L9.05624 54.9546H19.5934L22.6091 63.4411Z" fill="#E5E5E5"/>
<path fill-rule="evenodd" clip-rule="evenodd" d="M34.9232 53.878C31.3279 53.0998 27.6146 52.25 27.6146 47.9078C27.6146 44.0949 30.8349 41.6914 35.6991 41.6914C38.8453 41.6914 41.85 42.8643 43.3496 45.7312L40.0785 47.0979C39.8162 46.332 38.1229 44.4043 35.2981 44.4043C32.5296 44.4043 31.1439 46.0447 31.1439 47.465C31.1439 49.4588 33.7765 50.2893 36.0218 50.7417C40.6704 51.678 44.7119 52.8688 44.7119 57.2564C44.7119 60.6664 41.6866 63.8702 35.9078 63.8702C31.6534 63.8702 28.6308 62.4457 27.1765 59.4688L30.9077 58.817C31.8443 60.4478 33.5375 61.1545 36.0603 61.1545C39.1886 61.1545 41.0178 59.9597 41.0178 57.6978C41.0192 55.3053 38.0172 54.5477 34.9232 53.878Z" fill="#E5E5E5"/>
<path fill-rule="evenodd" clip-rule="evenodd" d="M52.4601 42.3295H56.2805V45.2734H52.4601V57.2524C52.4601 59.737 52.4601 60.8026 53.9693 60.8026C54.6353 60.8026 55.5705 60.5345 56.2805 60.3145V63.2295C55.6584 63.3175 54.1904 63.5842 52.8569 63.5842C48.7714 63.5842 48.7714 61.596 48.8154 58.8515V45.2734H45.4824V42.3295H48.8154V37.2997L52.4601 35.7817V42.3295Z" fill="#E5E5E5"/>
<path fill-rule="evenodd" clip-rule="evenodd" d="M62.993 42.383V46.1532C64.9912 42.1754 68.7691 42.086 70.1904 42.042V45.6899C66.7256 45.7132 65.0269 46.4241 63.8829 48.29C62.9436 49.8135 62.993 51.9544 62.993 53.7625V63.4411H59.4651V42.383H62.993Z" fill="#E5E5E5"/>
<path fill-rule="evenodd" clip-rule="evenodd" d="M110.984 35.7539V39.2079L95.3311 60.1189H111.376V63.4409H91.0588V59.8439L106.788 39.168H91.0712V35.7539H110.984Z" fill="#E5E5E5"/>
<path fill-rule="evenodd" clip-rule="evenodd" d="M137.024 42.5286V45.588C138.988 42.1505 142.333 41.8384 143.581 41.8384C146.258 41.8384 149.464 43.179 150.487 46.6536C150.846 47.8966 150.846 49.185 150.846 50.9629V63.441H147.328V51.5404C147.328 49.4064 147.328 48.7863 147.104 48.074C146.48 46.0761 144.518 45.1879 142.599 45.1879C141.039 45.1879 139.7 45.676 138.584 46.7856C137.022 48.3408 137.022 49.9371 137.022 51.4964V63.441H133.493V42.5286H137.024Z" fill="#E5E5E5"/>
<path fill-rule="evenodd" clip-rule="evenodd" d="M191.43 59.7133C190.113 61.784 187.721 63.8685 183.414 63.8685C175.982 63.8685 173.175 58.1334 173.175 52.9813C173.175 47.0289 176.409 41.6348 183.104 41.6348C185.73 41.6348 189.407 42.4268 191.443 45.8216L188.136 47.2035C187.511 45.8244 186.165 44.2308 183.237 44.2308C177.437 44.2308 177.097 50.8486 177.097 52.7159C177.097 59.6541 181.079 61.1543 183.457 61.1543C186.18 61.1543 187.571 59.8466 188.306 58.4056L191.43 59.7133Z" fill="#E5E5E5"/>
<path fill-rule="evenodd" clip-rule="evenodd" d="M116.447 50.757H127.599C127.287 45.2487 124.116 44.3179 122.001 44.3179C118.983 44.3192 116.845 46.5371 116.447 50.757ZM130.502 59.4415C129.299 61.4916 126.977 63.8442 122.398 63.8442C116.191 63.8442 112.621 59.6202 112.621 52.539C112.621 44.6286 117.832 41.605 122.268 41.605C126.124 41.605 129.821 43.739 131.064 49.0245C131.465 50.8024 131.465 52.4056 131.465 53.2952H116.359C116.271 56.8125 117.743 61.2634 122.71 61.1767C124.737 61.1424 126.164 60.2211 127.074 58.7774L130.502 59.4415Z" fill="#E5E5E5"/>
<path fill-rule="evenodd" clip-rule="evenodd" d="M156.564 50.757H167.718C167.408 45.2487 164.237 44.3179 162.12 44.3179C159.105 44.3192 156.965 46.5371 156.564 50.757ZM170.622 59.4415C169.419 61.4916 167.099 63.8442 162.52 63.8442C156.313 63.8442 152.741 59.6202 152.741 52.539C152.741 44.6286 157.953 41.605 162.387 41.605C166.244 41.605 169.939 43.739 171.183 49.0245C171.582 50.8024 171.582 52.4056 171.582 53.2952H156.476C156.387 56.8125 157.865 61.2634 162.828 61.1767C164.855 61.1424 166.286 60.2211 167.193 58.7774L170.622 59.4415Z" fill="#E5E5E5"/>
<path fill-rule="evenodd" clip-rule="evenodd" d="M210.717 63.4629L207.047 63.4767C207.047 63.4767 206.73 61.9931 206.627 60.3733C205.562 61.4816 203.584 63.7737 199.588 63.7737C195.501 63.7737 192.469 61.3468 192.469 57.7911C192.469 56.6759 192.78 55.5663 193.404 54.6286C194.608 52.8479 196.837 51.4234 203.098 50.9353L206.425 50.6686V50.1337C206.425 47.9529 206.425 44.3051 201.734 44.3051C198.783 44.3051 197.778 45.7378 197.437 47.0317L194.188 45.6732C194.239 45.5604 194.298 45.4449 194.36 45.3281C195.608 43.0153 198.057 41.5908 201.598 41.5908C203.548 41.5908 206.072 42.0817 207.718 43.3714C210.059 45.1479 210.003 48.6473 210.003 48.6473L210.144 59.4466C210.144 59.4493 210.269 62.5843 210.717 63.4629ZM205.893 57.6577C206.425 56.5013 206.471 56.0118 206.471 52.9373C205.097 53.1601 203.239 53.4268 200.965 53.9177C197.057 54.7619 196.391 56.2359 196.391 57.7031C196.391 59.3943 197.724 60.8202 200.343 60.8202C202.788 60.8202 204.874 59.8412 205.893 57.6577Z" fill="#E5E5E5"/>
<path fill-rule="evenodd" clip-rule="evenodd" d="M88.5677 63.4629L84.8983 63.4767C84.8983 63.4767 84.5797 61.9931 84.4781 60.3733C83.4124 61.4816 81.4377 63.7737 77.44 63.7737C73.3504 63.7737 70.3196 61.3468 70.3196 57.7911C70.3196 56.6759 70.6313 55.5663 71.2562 54.6286C72.4605 52.8479 74.688 51.4234 80.946 50.9353L84.2776 50.6686V50.1337C84.2776 47.9529 84.2776 44.3051 79.5837 44.3051C76.6325 44.3051 75.6301 45.7378 75.2867 47.0317L72.0376 45.6732C72.0911 45.5604 72.1474 45.4449 72.2106 45.3281C73.4589 43.0153 75.9088 41.5908 79.4478 41.5908C81.3964 41.5908 83.9233 42.0817 85.5671 43.3714C87.9085 45.1479 87.8522 48.6473 87.8522 48.6473L87.9937 59.4466C87.9937 59.4493 88.1187 62.5843 88.5677 63.4629ZM83.7434 57.6577C84.279 56.5013 84.3202 56.0118 84.3202 52.9373C82.9496 53.1601 81.0888 53.4268 78.8174 53.9177C74.9118 54.7619 74.2444 56.2359 74.2444 57.7031C74.2444 59.3943 75.5751 60.8202 78.194 60.8202C80.637 60.8202 82.723 59.8412 83.7434 57.6577Z" fill="#E5E5E5"/>
<path fill-rule="evenodd" clip-rule="evenodd" d="M258.942 34.2939C258.929 34.1646 258.913 34.0354 258.882 33.9103C258.816 33.6545 258.746 33.3988 258.648 33.154C258.543 32.8941 258.412 32.6425 258.274 32.3991C258.118 32.131 257.945 31.8739 257.763 31.6223C257.657 31.4751 257.535 31.3376 257.408 31.207C257.267 31.0613 257.121 30.9169 256.962 30.7904C256.602 30.5044 256.245 30.2129 255.852 29.9723C254.995 29.4456 254.141 28.8984 253.221 28.4928C252.109 28.0033 251.034 27.423 249.887 27.0243L242.159 24.3375C242.159 22.8663 242.202 21.395 242.159 19.9251C242.095 17.743 242.007 15.5595 241.838 13.3829C241.72 11.8676 241.539 10.3565 241.303 8.85501C241.119 7.68351 240.84 6.52851 240.58 5.37214C240.521 5.10676 240.432 4.84964 240.344 4.59389C240.266 4.36289 240.181 4.13326 240.086 3.90776C240.001 3.70426 239.907 3.50351 239.807 3.30551C239.716 3.12814 239.616 2.95489 239.51 2.78576C239.416 2.63314 239.31 2.48464 239.201 2.34026C239.103 2.20964 238.998 2.08451 238.887 1.96489C238.787 1.85489 238.68 1.75039 238.568 1.65001C238.468 1.55926 238.361 1.47539 238.251 1.39426C238.149 1.32001 238.044 1.25126 237.937 1.18939C237.836 1.13164 237.735 1.07526 237.628 1.03126C237.441 0.954264 237.251 0.881389 237.058 0.826389C236.897 0.781014 236.731 0.756264 236.566 0.732889C236.442 0.715014 236.318 0.706764 236.194 0.704014C235.982 0.699889 235.768 0.695764 235.558 0.710889C235.333 0.727389 235.108 0.754889 234.887 0.798889C234.649 0.845639 234.414 0.904764 234.185 0.981764C233.938 1.06426 233.697 1.16464 233.465 1.27876C233.206 1.40664 232.957 1.55514 232.711 1.70914C232.452 1.87276 232.195 2.04326 231.949 2.22751C231.519 2.55201 231.08 2.86689 230.688 3.23539C229.075 4.75339 227.49 6.30164 225.941 7.88289C225.114 8.72576 224.314 9.59751 223.565 10.5078C220.588 14.1171 217.624 17.7375 214.761 21.4376C213.49 23.0794 212.346 24.816 211.169 26.5238C210.875 26.9514 210.6 27.3928 210.346 27.8451C209.905 28.6358 209.492 29.4415 209.088 30.2514C208.984 30.4618 208.901 30.6845 208.822 30.9059C208.745 31.1176 208.675 31.3321 208.618 31.5494C208.566 31.7543 208.521 31.9633 208.498 32.1736C208.477 32.3675 208.474 32.5641 208.487 32.758C208.494 32.8556 208.522 32.9519 208.554 33.044C208.588 33.1444 208.634 33.2406 208.686 33.3328C208.743 33.4331 208.811 33.528 208.881 33.6188C208.958 33.7178 209.036 33.814 209.124 33.902C209.315 34.0904 209.51 34.2746 209.717 34.4451C209.93 34.6211 210.15 34.7889 210.38 34.9401C210.783 35.2041 211.199 35.4503 211.612 35.6923C211.794 35.7981 211.984 35.8889 212.168 35.9851C212.234 36.0181 212.038 35.9164 211.973 35.8806C211.965 35.8779 211.945 35.8655 211.951 35.8683C211.962 35.871 211.973 35.8793 211.983 35.8848C212.085 35.9384 212.186 35.9906 212.289 36.0443C214.834 37.3753 217.388 38.687 219.921 40.0386C222.467 41.3971 225.011 42.7598 227.526 44.1746L233.18 47.355C231.216 48.8428 229.215 50.2796 227.292 51.8155C226.558 52.4026 225.875 53.053 225.209 53.7171C224.668 54.2575 224.159 54.8309 223.678 55.4235C223.293 55.8979 222.943 56.3998 222.616 56.9154C222.36 57.3169 222.134 57.7418 221.932 58.1721C221.779 58.4994 221.655 58.8404 221.547 59.1855C221.468 59.4275 221.417 59.6764 221.374 59.9266C221.347 60.0765 221.342 60.2319 221.334 60.3859C221.331 60.4381 221.341 60.4904 221.341 60.5426C221.343 60.6815 221.336 60.819 221.345 60.9565C221.352 61.0858 221.367 61.215 221.387 61.3401C221.406 61.4625 221.433 61.5835 221.466 61.7031C221.496 61.8159 221.536 61.9286 221.578 62.0386C221.621 62.1445 221.669 62.249 221.721 62.3508C221.773 62.4498 221.827 62.5501 221.894 62.6395C222.024 62.8183 222.156 62.9956 222.311 63.1524C222.467 63.3091 222.637 63.4521 222.815 63.5828C222.994 63.7148 223.186 63.8303 223.381 63.9375C223.579 64.0448 223.784 64.1383 223.992 64.2249C224.2 64.3115 224.408 64.4036 224.628 64.4518C225.418 64.6264 226.213 64.7859 227.015 64.8945C227.408 64.9481 227.807 64.9701 228.201 64.9385C229.568 64.8313 230.933 64.6924 232.287 64.4793C233.868 64.2304 235.436 63.8976 237 63.5553C238.844 63.151 240.683 62.7234 242.51 62.2435C243.801 61.9039 245.113 61.6028 246.349 61.0968C247.323 60.6994 248.306 60.3199 249.272 59.9033C249.489 59.8111 249.693 59.6901 249.897 59.5705C250.081 59.4633 250.262 59.3464 250.435 59.2226C250.587 59.114 250.738 58.9985 250.874 58.8693C250.99 58.7606 251.095 58.6396 251.189 58.5104C251.27 58.4018 251.337 58.2808 251.393 58.1556C251.443 58.0456 251.48 57.9274 251.506 57.8078C251.531 57.6991 251.542 57.585 251.542 57.4736C251.542 57.365 251.528 57.2564 251.509 57.1505C251.487 57.0474 251.457 56.9443 251.418 56.8439C251.381 56.7435 251.332 56.6459 251.278 56.5524C251.224 56.4589 251.165 56.3668 251.102 56.2801C251.039 56.1935 250.972 56.1069 250.899 56.0271C250.758 55.8786 250.613 55.7288 250.461 55.594C250.328 55.4758 250.185 55.3699 250.041 55.2681C249.899 55.1678 249.752 55.0743 249.605 54.9849C248.599 54.3771 247.596 53.757 246.583 53.1589L242.338 50.6495C244.916 48.8991 247.517 47.1818 250.071 45.3943C251.163 44.6311 252.237 43.8419 253.272 43.0045C254.159 42.2868 255.004 41.5168 255.83 40.733C256.225 40.3604 256.575 39.9465 256.932 39.5381C257.094 39.3525 257.244 39.1545 257.385 38.9524C257.515 38.7695 257.647 38.5853 257.75 38.3845C258.083 37.7245 258.409 37.0604 258.687 36.3756C258.798 36.0965 258.845 35.7954 258.908 35.5011C258.937 35.365 258.948 35.2248 258.959 35.0859C258.97 34.9525 258.974 34.8178 258.973 34.6844C258.966 34.5551 258.957 34.4231 258.942 34.2939ZM227.258 16.9249C228.697 15.4303 230.139 13.9384 231.603 12.4671C231.869 12.199 232.166 11.9584 232.452 11.7095C232.551 11.6229 232.656 11.5404 232.762 11.4593C232.843 11.3974 232.923 11.3328 233.011 11.2778C233.072 11.2393 233.138 11.2063 233.206 11.1788C233.277 11.1499 233.348 11.121 233.425 11.1086C233.505 11.0949 233.586 11.0963 233.668 11.1004C233.71 11.1018 233.751 11.1128 233.791 11.1265C233.832 11.1389 233.874 11.1581 233.913 11.1801C233.954 11.2035 233.995 11.231 234.031 11.2613C234.074 11.2956 234.113 11.3341 234.149 11.3754C234.19 11.4221 234.229 11.4716 234.262 11.5239C234.3 11.5844 234.341 11.6463 234.366 11.7136C234.436 11.8951 234.499 12.0808 234.546 12.2705C234.613 12.5414 234.665 12.8164 234.708 13.0941C234.812 13.7706 234.909 14.4485 234.984 15.1278C235.083 16.0078 235.154 16.8905 235.235 17.7719L235.672 22.4648L230.45 21.2616L225.576 20.4586L224.396 20.3679L224.013 20.3583C225.094 19.2129 226.166 18.0593 227.258 16.9249ZM223.983 23.4506L224.002 23.4218L224.029 23.4066L224.069 23.4025L224.132 23.4121L224.315 23.4644L224.787 23.6459L225.43 23.9319C227.089 24.6428 228.748 25.3536 230.408 26.0618C231.508 26.532 232.61 26.9981 233.708 27.4684L235.882 28.3979L236.076 28.4845C236.193 30.2046 236.335 31.9234 236.426 33.6449C236.497 34.9896 236.526 36.3371 236.559 37.6833C236.563 37.8538 236.55 38.0229 236.537 38.192C236.532 38.2869 236.522 38.3831 236.508 38.478C236.493 38.5729 236.475 38.6678 236.448 38.7585C236.421 38.8479 236.39 38.9386 236.345 39.0211C236.302 39.1023 236.243 39.1765 236.184 39.248C236.155 39.2838 236.116 39.3154 236.079 39.3443C236.04 39.3731 235.998 39.402 235.954 39.4268C235.908 39.4515 235.857 39.4721 235.808 39.49C235.753 39.5093 235.697 39.5258 235.639 39.5368C235.569 39.5491 235.498 39.556 235.428 39.5588C235.353 39.5601 235.279 39.5588 235.205 39.5491C235.126 39.5395 235.049 39.523 234.973 39.5038C234.891 39.4831 234.81 39.4611 234.733 39.4295C234.564 39.358 234.395 39.2824 234.236 39.1916C234.054 39.0885 233.88 38.9716 233.711 38.8479C233.524 38.7104 233.346 38.5633 233.173 38.4106C232.983 38.2429 232.798 38.0724 232.626 37.8895C232.25 37.4866 231.878 37.0769 231.529 36.6493C230.899 35.8779 230.244 35.1203 229.69 34.2925C228.927 33.1513 228.144 32.0238 227.401 30.8688C226.957 30.1799 226.503 29.4938 226.133 28.7595L224.457 25.4334L224.095 24.3733L224.013 24.0584L223.964 23.7545L223.959 23.5345L223.983 23.4506ZM242.511 52.932C242.963 53.218 243.417 53.4999 243.862 53.7941C244.438 54.1736 245.015 54.5504 245.572 54.9546C245.973 55.2448 246.356 55.5583 246.735 55.8786C246.903 56.0216 247.061 56.1756 247.212 56.3379C247.334 56.4713 247.441 56.617 247.55 56.7628C247.556 56.7724 247.558 56.7848 247.556 56.7958C247.556 56.8219 247.554 56.8466 247.545 56.8714C247.541 56.8879 247.529 56.9016 247.518 56.9126C247.502 56.9278 247.484 56.9415 247.464 56.9498C247.438 56.9621 247.411 56.969 247.382 56.9745C247.342 56.9828 247.301 56.9883 247.261 56.991C245.058 57.156 242.853 57.3073 240.652 57.4805L232.045 58.157L231.777 58.1735L231.901 58.0401L232.444 57.5603C233.56 56.7298 234.639 55.8484 235.79 55.0674L240.664 51.7591C241.278 52.1496 241.894 52.5401 242.511 52.932ZM249.14 35.9673C249.116 36.047 249.086 36.1254 249.049 36.1983C249.004 36.2835 248.952 36.366 248.89 36.4389C248.743 36.6135 248.588 36.784 248.42 36.9394C248.06 37.268 247.705 37.6049 247.308 37.8868C245.94 38.8575 244.587 39.8516 243.203 40.799C242.25 41.4521 241.267 42.0626 240.295 42.6883L234.641 46.3251C233.84 45.8659 233.04 45.4053 232.239 44.9474L222 39.0871C219.687 37.7039 217.361 36.344 215.063 34.936C214.631 34.6706 214.224 34.3626 213.811 34.0684C213.679 33.9749 213.557 33.8676 213.43 33.7686C213.391 33.7384 213.347 33.7109 213.31 33.6779C213.223 33.5981 213.135 33.5156 213.054 33.4276C213.005 33.3726 212.964 33.3135 212.922 33.2516C212.883 33.187 212.843 33.1196 212.815 33.0481C212.786 32.9753 212.76 32.8983 212.749 32.8185C212.737 32.736 212.736 32.6521 212.748 32.5696C212.76 32.4789 212.785 32.3909 212.817 32.3056C212.85 32.2135 212.891 32.1228 212.942 32.0389C213.043 31.8656 213.152 31.6938 213.275 31.5329C213.418 31.3486 213.571 31.1726 213.733 31.0063C215.055 29.6436 216.398 28.3003 217.727 26.9431L221.312 23.2815L221.482 23.8728L221.917 24.9123L221.946 24.9755C222.894 26.62 223.784 28.2989 224.789 29.909C225.944 31.7598 227.184 33.5569 228.423 35.3513C229.005 36.1914 229.612 37.015 230.252 37.8139C230.808 38.5083 231.383 39.1903 232.008 39.8255C232.556 40.3824 233.156 40.8911 233.766 41.382C234.068 41.624 234.407 41.8193 234.74 42.0186C234.896 42.1149 235.065 42.1919 235.234 42.2675C235.395 42.3376 235.558 42.3995 235.724 42.4531C235.886 42.5054 236.051 42.548 236.219 42.5824C236.37 42.614 236.525 42.6388 236.679 42.6525C236.819 42.6649 236.96 42.6676 237.102 42.6621C237.231 42.6594 237.361 42.647 237.49 42.6264C237.61 42.6085 237.729 42.581 237.845 42.548C237.954 42.5178 238.062 42.4793 238.167 42.4339C238.265 42.394 238.361 42.3459 238.454 42.2936C238.542 42.2441 238.632 42.1933 238.713 42.1314C238.861 42.0186 239.009 41.9018 239.144 41.7739C239.259 41.6639 239.365 41.5429 239.461 41.4164C239.585 41.2555 239.696 41.085 239.799 40.9104C239.924 40.6986 240.042 40.48 240.145 40.2559C240.26 40.0056 240.367 39.7513 240.454 39.49C240.632 38.9455 240.803 38.3969 240.939 37.8386C241.121 37.0851 241.323 36.3303 241.404 35.5575L241.868 31.0874C242.927 31.581 244.011 32.0293 245.046 32.5696C246.057 33.0976 247.025 33.7081 248.007 34.2911C248.122 34.3599 248.229 34.4396 248.332 34.5249C248.478 34.6459 248.618 34.7738 248.751 34.9099C248.821 34.9814 248.883 35.0625 248.938 35.145C248.992 35.2261 249.041 35.3128 249.078 35.4021C249.112 35.4901 249.136 35.585 249.154 35.6785C249.162 35.7253 249.159 35.7734 249.156 35.8215C249.158 35.8724 249.154 35.9219 249.14 35.9673Z" fill="#E5E5E5"/>
</g>
</svg>
