<svg width="80" height="80" viewBox="0 0 80 80" fill="none" xmlns="http://www.w3.org/2000/svg">
<g clip-path="url(#clip0_1271_490)">
<mask id="mask0_1271_490" style="mask-type:luminance" maskUnits="userSpaceOnUse" x="0" y="0" width="80" height="80">
<path d="M80 0H0V80H80V0Z" fill="white"/>
</mask>
<g mask="url(#mask0_1271_490)">
<path d="M80 0H0V80H80V0Z" fill="#E5E5E5"/>
<path d="M11.1305 72.0454L12.4531 69.0335C12.7982 68.9828 13.1312 68.9442 13.4498 68.9177C13.7683 68.8911 14.0772 68.8791 14.3717 68.8791C14.9615 68.8746 15.55 68.9361 16.1262 69.0625C16.6356 69.1779 17.1241 69.3717 17.5742 69.6369C18.0228 69.9057 18.4294 70.2391 18.7808 70.6263C19.1735 71.0605 19.5175 71.5363 19.8065 72.0454H22.7339L16.4809 58.6175H14.4803L8.20557 72.0454H11.1305ZM15.4746 62.1507L17.8879 67.4842C17.4808 67.2057 17.026 67.0045 16.5461 66.8905C15.9143 66.7371 15.2654 66.6657 14.6154 66.6781C14.2582 66.6781 13.8673 66.6974 13.4449 66.736L15.4746 62.1507ZM30.4542 72.0454L36.6517 58.6175H33.5916L29.5251 67.921L25.4779 58.6175H22.3405L28.4415 72.0454H30.4542ZM45.7041 72.5618C46.7155 72.5716 47.7192 72.3864 48.6605 72.0164C49.5369 71.6731 50.3356 71.1575 51.0092 70.5C51.6828 69.8426 52.2177 69.0567 52.5822 68.1889C53.3351 66.3516 53.3351 64.292 52.5822 62.4547C52.2198 61.5934 51.688 60.8138 51.0183 60.1621C50.3399 59.5064 49.5386 58.9914 48.6605 58.6465C46.7581 57.916 44.6526 57.916 42.7502 58.6465C41.8721 58.9914 41.0707 59.5064 40.3924 60.1621C39.7219 60.8131 39.19 61.593 38.8285 62.4547C38.0722 64.2913 38.0722 66.3523 38.8285 68.1889C39.193 69.0567 39.7279 69.8426 40.4015 70.5C41.0751 71.1575 41.8738 71.6731 42.7502 72.0164C43.6907 72.3862 44.6936 72.5714 45.7041 72.5618ZM45.7041 70.0689C45.0758 70.0758 44.4527 69.9551 43.8724 69.7141C43.3284 69.4856 42.8359 69.1499 42.4244 68.727C42.0042 68.2917 41.6759 67.7763 41.4591 67.2115C41.2239 66.5994 41.1069 65.9484 41.114 65.2928C41.1068 64.6498 41.224 64.0114 41.4591 63.4128C41.6734 62.8601 41.9978 62.3566 42.4127 61.933C42.8276 61.5094 43.3242 61.1746 43.8724 60.9488C45.0486 60.4759 46.3621 60.4759 47.5383 60.9488C48.0865 61.1746 48.5831 61.5094 48.998 61.933C49.4128 62.3566 49.7373 62.8601 49.9516 63.4128C50.1855 64.0118 50.3027 64.6499 50.2967 65.2928C50.3047 65.9524 50.1876 66.6075 49.9516 67.2235C49.7329 67.7845 49.4048 68.2965 48.9863 68.7294C48.5747 69.1523 48.0823 69.488 47.5383 69.7165C46.9572 69.9577 46.3332 70.0784 45.7041 70.0713M57.3099 58.6199V72.0478H60.0925V63.5094L67.3325 72.0454H69.4828V58.6175H66.7002V67.1535L59.4602 58.6175L57.3099 58.6199Z" fill="white"/>
</g>
</g>
<defs>
<clipPath id="clip0_1271_490">
<rect width="80" height="80" fill="white"/>
</clipPath>
</defs>
</svg>
