<svg width="101" height="100" viewBox="0 0 101 100" fill="none" xmlns="http://www.w3.org/2000/svg">
<g clip-path="url(#clip0_1271_364)">
<path d="M50.0755 100C40.1844 100.002 30.515 97.0703 22.2904 91.5757C14.0659 86.0812 7.65574 78.2707 3.87095 69.1324C0.0861714 59.9941 -0.90321 49.9385 1.02797 40.2378C2.95915 30.5371 7.72412 21.6271 14.7201 14.635C24.0995 5.25689 36.8202 -0.0111634 50.0837 -0.0102538C63.3473 -0.00934418 76.0673 5.26046 85.4454 14.6399C94.8235 24.0193 100.092 36.7399 100.091 50.0035C100.09 63.2671 94.8199 75.987 85.4405 85.3651C80.808 90.0222 75.2981 93.7143 69.2294 96.2281C63.1607 98.7418 56.6538 100.027 50.0852 100.01M50.0852 1.47779C23.3148 1.46809 1.54347 23.2394 1.54347 50.0001C1.54347 76.7607 23.3148 98.5288 50.0755 98.5288C76.8361 98.5288 98.6074 76.7607 98.6074 50.0001C98.6074 23.2394 76.8361 1.46809 50.0755 1.46809" fill="#E5E5E5"/>
<mask id="mask0_1271_364" style="mask-type:luminance" maskUnits="userSpaceOnUse" x="0" y="-1" width="101" height="102">
<path d="M1.54331 50.0001C1.54331 23.2394 23.3146 1.46811 50.0753 1.46811C76.8359 1.46811 98.6073 23.2394 98.6073 50.0001C98.6073 76.7607 76.8359 98.5288 50.0753 98.5288C23.3146 98.5288 1.54331 76.7607 1.54331 50.0001ZM14.7199 14.6447C5.34181 24.0228 0.0732421 36.7423 0.0732422 50.0049C0.0732423 63.2676 5.34181 75.987 14.7199 85.3652C24.098 94.7433 36.8175 100.012 50.0801 100.012C63.3428 100.012 76.0622 94.7433 85.4403 85.3652C94.8185 75.987 100.087 63.2676 100.087 50.0049C100.087 36.7423 94.8185 24.0228 85.4403 14.6447C76.0622 5.26661 63.3428 -0.00195303 50.0801 -0.00195312C36.8175 -0.00195322 24.098 5.26661 14.7199 14.6447Z" fill="white"/>
</mask>
<g mask="url(#mask0_1271_364)">
<path d="M100.075 0H0.0751953V100H100.075V0Z" fill="#E5E5E5"/>
</g>
<path d="M50.0752 86.5323C42.8485 86.5323 35.7841 84.3893 29.7753 80.3744C23.7666 76.3594 19.0833 70.6528 16.3177 63.9762C13.5522 57.2996 12.8286 49.9529 14.2385 42.8651C15.6483 35.7772 19.1283 29.2666 24.2384 24.1566C29.3484 19.0465 35.859 15.5665 42.9469 14.1567C50.0347 12.7468 57.3814 13.4704 64.058 16.236C70.7346 19.0015 76.4412 23.6848 80.4562 29.6936C84.4711 35.7023 86.6141 42.7667 86.6141 49.9934C86.6046 59.6813 82.752 68.9696 75.9017 75.8199C69.0514 82.6702 59.763 86.5229 50.0752 86.5323ZM50.0752 14.9323C43.1394 14.9317 36.3591 16.9878 30.5918 20.8407C24.8246 24.6936 20.3294 30.1702 17.6747 36.5779C15.02 42.9856 14.3251 50.0366 15.6778 56.8393C17.0306 63.6419 20.3702 69.8907 25.2743 74.7953C30.1785 79.6999 36.4269 83.0401 43.2295 84.3934C50.032 85.7468 57.0831 85.0525 63.491 82.3984C69.899 79.7444 75.376 75.2497 79.2294 69.4827C83.0828 63.7158 85.1396 56.9358 85.1396 49.9999C85.1293 40.7031 81.4318 31.79 74.8583 25.2159C68.2848 18.6417 59.372 14.9435 50.0752 14.9323Z" fill="#E5E5E5"/>
<mask id="mask1_1271_364" style="mask-type:luminance" maskUnits="userSpaceOnUse" x="13" y="13" width="74" height="74">
<path d="M15.0078 49.9998C15.0072 43.0639 17.0633 36.2836 20.9162 30.5164C24.7691 24.7491 30.2457 20.2539 36.6534 17.5992C43.0611 14.9446 50.1121 14.2497 56.9148 15.6024C63.7174 16.9551 69.9662 20.2947 74.8708 25.1989C79.7754 30.103 83.1156 36.3515 84.4689 43.154C85.8223 49.9565 85.128 57.0076 82.4739 63.4156C79.8198 69.8235 75.3251 75.3005 69.5582 79.1539C63.7913 83.0074 57.0112 85.0641 50.0754 85.0641C40.7786 85.0538 31.8655 81.3564 25.2914 74.7829C18.7172 68.2093 15.0189 59.2966 15.0078 49.9998ZM13.5398 49.9998C13.5398 57.2265 15.6828 64.2909 19.6977 70.2997C23.7126 76.3084 29.4192 80.9917 36.0958 83.7572C42.7724 86.5228 50.1192 87.2464 57.207 85.8365C64.2948 84.4267 70.8054 80.9467 75.9155 75.8366C81.0255 70.7266 84.5055 64.216 85.9154 57.1281C87.3252 50.0403 86.6016 42.6936 83.8361 36.017C81.0706 29.3404 76.3873 23.6338 70.3785 19.6188C64.3697 15.6039 57.3053 13.4609 50.0786 13.4609C40.3908 13.4704 31.1025 17.323 24.2522 24.1733C17.4019 31.0236 13.5492 40.312 13.5398 49.9998Z" fill="white"/>
</mask>
<g mask="url(#mask1_1271_364)">
<path d="M86.6077 13.4644H13.5398V86.5323H86.6077V13.4644Z" fill="#E5E5E5"/>
</g>
<path d="M50.0753 79.0725C44.3253 79.0725 38.7044 77.3674 33.9234 74.1729C29.1425 70.9783 25.4162 66.4378 23.2157 61.1255C21.0153 55.8132 20.4395 49.9676 21.5613 44.3281C22.6831 38.6886 25.452 33.5083 29.5179 29.4424C33.5838 25.3766 38.764 22.6077 44.4035 21.4859C50.0431 20.3641 55.8886 20.9398 61.2009 23.1403C66.5133 25.3407 71.0538 29.067 74.2483 33.848C77.4429 38.629 79.1479 44.2499 79.1479 49.9999C79.1402 57.7081 76.0748 65.0983 70.6243 70.5488C65.1738 75.9993 57.7835 79.0648 50.0753 79.0725ZM50.0753 21.4155C44.4219 21.4155 38.8954 23.092 34.1947 26.2329C29.494 29.3737 25.8303 33.838 23.6668 39.0611C21.5033 44.2842 20.9373 50.0316 22.0402 55.5764C23.1431 61.1212 25.8655 66.2145 29.8631 70.2121C33.8607 74.2097 38.954 76.9321 44.4988 78.035C50.0436 79.1379 55.791 78.5719 61.0141 76.4084C66.2372 74.2449 70.7015 70.5812 73.8424 65.8805C76.9832 61.1798 78.6597 55.6533 78.6597 49.9999C78.6503 42.4217 75.6357 35.1567 70.2771 29.7981C64.9186 24.4395 57.6535 21.4249 50.0753 21.4155Z" fill="#E5E5E5"/>
<mask id="mask2_1271_364" style="mask-type:luminance" maskUnits="userSpaceOnUse" x="21" y="20" width="59" height="60">
<path d="M21.4909 50C21.489 44.3461 23.1638 38.8187 26.3036 34.1167C29.4433 29.4148 33.9069 25.7495 39.1298 23.5846C44.3528 21.4196 50.1004 20.8521 55.6459 21.954C61.1914 23.0558 66.2855 25.7775 70.2841 29.7747C74.2826 33.7719 77.006 38.8651 78.1097 44.4102C79.2134 49.9553 78.6479 55.7031 76.4847 60.9268C74.3215 66.1505 70.6578 70.6153 65.9569 73.7566C61.2561 76.898 55.7292 78.5747 50.0753 78.5747C42.4977 78.5652 35.2331 75.5511 29.8747 70.1932C24.5162 64.8354 21.5012 57.5711 21.4909 49.9935M21.0027 49.9935C21.0027 55.7435 22.7078 61.3644 25.9023 66.1454C29.0968 70.9264 33.6374 74.6527 38.9497 76.8531C44.262 79.0536 50.1076 79.6293 55.7471 78.5075C61.3866 77.3858 66.5669 74.6169 70.6328 70.551C74.6986 66.4851 77.4675 61.3049 78.5893 55.6653C79.7111 50.0258 79.1354 44.1802 76.9349 38.8679C74.7345 33.5556 71.0082 29.0151 66.2272 25.8205C61.4462 22.626 55.8253 20.9209 50.0753 20.9209C42.3671 20.9286 34.9769 23.9941 29.5264 29.4446C24.0759 34.8951 21.0104 42.2853 21.0027 49.9935Z" fill="white"/>
</mask>
<g mask="url(#mask2_1271_364)">
<path d="M79.1479 20.9272H21.0027V79.0725H79.1479V20.9272Z" fill="#E5E5E5"/>
</g>
<path d="M50.072 81.2226H49.8036C49.4294 81.1818 49.0865 80.9947 48.8497 80.702C48.589 80.3962 48.3902 80.0426 48.2644 79.6608C48.2192 79.7805 48.1674 79.9034 48.1157 80.0133C48.0108 80.2537 47.8527 80.4671 47.6533 80.6374C47.3938 80.8313 47.0747 80.9285 46.7511 80.9122C46.6268 80.9121 46.5027 80.9045 46.3793 80.8896C46.2388 80.8742 46.1001 80.845 45.9654 80.8023C45.7197 80.7228 45.4962 80.5865 45.3131 80.4045C45.1299 80.2225 44.9923 79.9998 44.9113 79.7546L44.8919 79.7126C44.8556 79.622 44.8296 79.5276 44.8143 79.4313C44.6863 79.5568 44.5429 79.6655 44.3874 79.7546C44.1075 79.9136 43.791 79.9972 43.4691 79.9971C43.2545 79.9967 43.0414 79.9606 42.8386 79.8904C42.6269 79.8174 42.433 79.7006 42.2695 79.5477C42.024 79.3072 41.859 78.9965 41.7974 78.6585C41.7974 78.5841 41.7747 78.5129 41.765 78.445C41.6654 78.4595 41.565 78.4671 41.4643 78.4677C41.0949 78.4746 40.7343 78.3548 40.4425 78.1282C40.086 77.8472 39.8463 77.4439 39.77 76.9964C39.7053 76.9964 39.6374 76.9964 39.5695 76.9964C39.3653 76.9991 39.1617 76.9729 38.9648 76.9188C38.2761 76.7183 38.1079 76.3691 37.9074 75.6804C37.855 75.4811 37.8429 75.2733 37.8719 75.0692C37.6426 75.2031 37.4038 75.3199 37.1573 75.4185C36.9119 75.5231 36.6506 75.5854 36.3845 75.6028H36.3521C35.9471 75.6128 35.5512 75.4815 35.2325 75.2312C34.9139 74.981 34.6923 74.6276 34.606 74.2318C34.5806 74.1259 34.5686 74.0173 34.5704 73.9084C34.5672 73.8481 34.5672 73.7876 34.5704 73.7273C34.5767 73.6665 34.5864 73.606 34.5995 73.5462C34.5995 73.5462 34.5995 73.5075 34.5995 73.4719L34.6157 73.4137C34.6157 73.3781 34.6351 73.3425 34.6481 73.307L34.6739 73.2294C34.6739 73.1906 34.7063 73.1453 34.7257 73.1065C34.7451 73.0677 34.7774 72.9869 34.813 72.9189C34.8225 72.8979 34.8333 72.8773 34.8453 72.8575C34.8609 72.8243 34.8781 72.7919 34.897 72.7605C35.0086 72.5657 35.1351 72.3797 35.2754 72.2043V72.1817C35.3336 72.1106 35.3885 72.0427 35.4467 71.978C35.5049 71.9133 35.5664 71.8454 35.6246 71.7808C36.1419 71.2505 39.3787 68.5214 40.3843 67.7324C40.6333 67.5351 41.0149 67.257 41.4126 66.9628L41.6648 66.7785C42.2856 66.3193 42.9938 65.8084 43.5402 65.3525C43.6372 65.2749 43.7278 65.1973 43.8151 65.1229C43.9595 65.0022 44.0792 64.8944 44.174 64.7996C44.2569 64.7287 44.3288 64.6458 44.3874 64.5538C44.4081 64.471 44.4121 64.385 44.3994 64.3006C44.3866 64.2163 44.3573 64.1353 44.3131 64.0623C44.271 64.0882 44.2225 64.1238 44.1643 64.1658L44.0705 64.2369C43.4681 64.7309 42.8067 65.1479 42.1013 65.4786L42.027 65.5109C41.7758 65.6168 41.5072 65.6749 41.2347 65.6823C40.2647 65.6823 39.6827 65.2232 39.4983 64.3598C39.4616 64.1926 39.4616 64.0194 39.4983 63.8521C39.2617 63.9904 39.0165 64.1135 38.7643 64.2208C38.6024 64.2837 38.4359 64.3345 38.2664 64.3727V64.4374H37.8751C37.6524 64.4696 37.4276 64.4859 37.2025 64.4859C36.655 64.4985 36.1126 64.3787 35.6213 64.1367C35.3713 63.9779 35.1648 63.7594 35.0202 63.5009C34.8757 63.2423 34.7978 62.9519 34.7936 62.6557C34.4443 62.7818 34.1469 62.8692 33.9528 62.9241H33.927C33.6427 62.9891 33.352 63.0216 33.0604 63.0211C32.359 63.015 31.6681 62.8503 31.0394 62.5393C30.7306 62.3838 30.4775 62.1365 30.3148 61.8314C30.1521 61.5263 30.0879 61.1783 30.1308 60.8353C30.0019 60.8788 29.87 60.9134 29.7363 60.9387C29.5908 60.9614 29.413 60.9808 29.2513 60.9905H29.0799C28.5869 61.0017 28.0968 60.9103 27.641 60.7221C26.8488 60.3599 26.5351 59.5289 26.8068 58.5007C26.8745 58.2515 26.97 58.0107 27.0913 57.7828C26.7448 57.8528 26.3935 57.896 26.0404 57.9122H25.8302H25.5974C25.1679 57.9486 24.738 57.8455 24.3717 57.6184C24.0053 57.3912 23.7219 57.052 23.5635 56.6511C23.4455 56.3599 23.3947 56.0459 23.4148 55.7324C23.435 55.4189 23.5256 55.114 23.6799 54.8403C23.5926 54.8403 23.4989 54.8144 23.4019 54.795C23.1168 54.7447 22.8382 54.6634 22.5708 54.5525C21.5135 54.1128 20.8538 53.5566 20.6113 52.897C20.3429 52.1694 20.4464 51.6035 20.9347 51.1088C20.6437 51.0894 20.3268 51.0636 19.9905 51.0345C19.7092 51.0118 19.4084 50.9698 19.0754 50.9116C18.3743 50.7851 17.6928 50.5677 17.048 50.2649C16.9186 50.2034 16.799 50.142 16.6826 50.0741L16.4789 49.9577C16.3335 49.8597 16.1952 49.7517 16.065 49.6343C15.4927 49.1137 14.8524 48.0628 14.8459 47.3709C14.8398 47.265 14.8565 47.1591 14.8951 47.0604C14.9336 46.9616 14.9929 46.8723 15.0691 46.7985C15.1403 46.7315 15.2223 46.6769 15.3116 46.6369C14.9882 46.556 14.6649 46.4784 14.4418 46.417C13.5784 46.1939 11.7224 45.2982 11.0627 44.6127C10.513 44.0436 9.65614 42.4009 9.97949 41.7413C10.0142 41.6696 10.0588 41.6032 10.1121 41.5441C9.78871 41.4438 9.44272 41.3242 9.10644 41.1884C8.08141 40.7712 5.6886 39.2483 4.96429 37.9742C4.34669 36.8748 4.01687 35.3874 4.531 34.9897C4.85872 34.781 5.23864 34.6689 5.62716 34.6663L5.47842 34.5855L5.41052 34.5467C4.98046 34.3107 4.65711 34.1166 4.39842 33.9453C3.30052 33.2132 2.36135 32.2674 1.63699 31.1644C1.38478 30.7182 0.518195 28.8298 1.1746 28.1314C1.22415 28.0824 1.27709 28.0371 1.33304 27.9956L1.45268 27.918L1.55939 27.863L1.64993 27.821C1.71927 27.7913 1.79058 27.7665 1.86334 27.7466C2.20293 27.6497 2.55463 27.6018 2.90777 27.6043C3.02741 27.6043 3.14705 27.6043 3.25699 27.6205C3.36693 27.6367 3.42837 27.6205 3.50921 27.6496C3.98027 27.7637 4.43078 27.9503 4.84465 28.2025C5.0613 28.3254 5.27471 28.4515 5.46549 28.5712C5.11627 28.1864 4.75088 27.7531 4.39519 27.2777C3.77944 26.5299 3.45448 25.5849 3.4801 24.6166C3.47763 24.5875 3.47763 24.5583 3.4801 24.5292C3.4801 24.4646 3.4801 24.4193 3.4801 24.3708C3.49285 24.2718 3.5112 24.1735 3.53507 24.0766C3.53507 24.0475 3.55447 24.0022 3.56741 23.9634V23.9149C3.56741 23.889 3.59004 23.847 3.60621 23.8049C3.65648 23.6568 3.72723 23.5164 3.81639 23.3878C3.92672 23.2498 4.06951 23.1412 4.23201 23.0718C4.3945 23.0024 4.57165 22.9744 4.74765 22.9901C5.3406 23.015 5.91587 23.1993 6.41291 23.5236C6.81387 23.7726 7.47027 24.2221 8.16548 24.7006C8.81219 25.1371 9.45889 25.5866 9.97949 25.9229C11.011 26.5987 17.4813 30.1976 20.0034 31.4781C20.6728 31.8014 21.8498 32.3835 23.2111 33.0431C26.5642 34.6599 31.0491 36.836 32.6724 37.8255C33.0378 37.5474 41.4288 48.0822 42.2307 48.9941C42.7577 49.5923 43.9865 49.9221 44.5232 49.9642C44.575 49.8316 44.6299 49.657 44.6655 49.5309C44.6332 49.4856 44.6008 49.4306 44.562 49.3724L44.5168 49.3045C44.3569 49.0458 44.2122 48.7781 44.0835 48.5026L44.0608 48.4444C44.0416 48.4032 44.0275 48.3597 44.0188 48.3151V48.2763V48.2407C44.0083 47.8141 44.1109 47.3924 44.3163 47.0184C44.1922 46.3189 44.2209 45.6008 44.4004 44.9134C44.7787 43.7687 46.2984 42.7599 47.718 42.7081H47.9993C48.9049 42.679 49.8007 42.9029 50.5861 43.3548C50.8834 43.5373 51.158 43.7544 51.4042 44.0015C51.5186 44.1195 51.6266 44.2437 51.7275 44.3734C51.9409 44.6321 52.1738 44.9263 52.4195 45.24C52.4551 45.2917 52.4809 45.324 52.5068 45.3564C52.5327 45.3887 52.6071 45.4857 52.6523 45.5504C53.0888 46.126 54.1494 47.5681 54.5019 48.3571C54.8145 48.9761 55.1699 49.5726 55.5657 50.142H55.708C57.1484 49.6568 58.5387 49.0342 59.8598 48.2827L59.9989 48.1954C60.5394 47.8779 61.0408 47.498 61.4928 47.0637C63.0675 45.4922 63.4329 44.2925 63.8533 43.025C63.905 42.8569 63.96 42.7017 64.0149 42.5173C64.3803 41.4276 65.2566 39.4035 67.0318 38.1068C68.1344 37.3017 73.1755 34.8733 76.8359 33.0884C78.223 32.4158 79.4227 31.837 80.1017 31.4943C82.6206 30.2203 89.0909 26.6181 90.1256 25.9391C90.6592 25.5963 91.3317 25.1339 91.9849 24.6877C92.6381 24.2415 93.301 23.7823 93.6922 23.5398C94.1897 23.2164 94.7647 23.0321 95.3575 23.0063C95.5343 22.9898 95.7125 23.0178 95.8757 23.0879C96.039 23.1579 96.1821 23.2677 96.292 23.4072C96.4031 23.5722 96.4881 23.7532 96.5442 23.944C96.6929 24.4355 96.916 25.7418 95.7423 27.2939C95.4189 27.7175 95.0665 28.1476 94.672 28.5873C94.8466 28.4774 95.0115 28.3771 95.1732 28.2866C95.619 28.0021 96.1083 27.7923 96.6218 27.6658C96.8216 27.6323 97.0239 27.616 97.2265 27.6173C97.5983 27.6173 98.5199 27.669 98.9629 28.1443C99.6096 28.8428 98.7559 30.7311 98.4908 31.2097C98.3391 31.4656 98.1672 31.7088 97.9766 31.9373C97.7321 32.2364 97.4709 32.5214 97.1941 32.7909L97.0777 32.9041C96.6616 33.3067 96.2104 33.6714 95.7293 33.9938C95.3801 34.2266 94.9371 34.4788 94.4941 34.7148H94.7043H94.7334C95.0411 34.7324 95.3383 34.833 95.5935 35.0059C95.9363 35.2516 95.8749 35.9274 95.7617 36.448C95.6359 36.9877 95.4322 37.5062 95.157 37.9872C94.4392 39.2806 92.0464 40.7842 91.0181 41.2013C90.6947 41.3371 90.3294 41.4568 90.0125 41.557C90.0665 41.6175 90.1121 41.6849 90.1483 41.7575C90.4716 42.4042 89.6115 44.0565 89.0618 44.6256C88.4151 45.3111 86.5429 46.2068 85.6828 46.4299C85.4564 46.4913 85.146 46.569 84.813 46.6498C84.9034 46.6909 84.9864 46.7466 85.0587 46.8147C85.1326 46.8891 85.1901 46.9783 85.2274 47.0763C85.2647 47.1743 85.281 47.2791 85.2754 47.3838C85.2754 48.0596 84.6287 49.1105 84.0596 49.6473C83.4125 50.1657 82.658 50.5335 81.8511 50.724L81.712 50.3425L81.8155 50.7337C81.2638 50.8824 80.7001 50.982 80.1308 51.0312L79.1899 51.1056C79.6781 51.5939 79.7816 52.163 79.5132 52.8937C79.2846 53.422 78.8864 53.859 78.3815 54.1354H78.3588L78.2877 54.2065H78.2295C78.0126 54.3288 77.7879 54.4368 77.5569 54.5299C77.201 54.6761 76.8268 54.7729 76.4446 54.8177C76.6058 55.0922 76.7011 55.4003 76.723 55.7179C76.7449 56.0355 76.6928 56.3538 76.5707 56.6479C76.4558 56.9498 76.2694 57.2194 76.0275 57.4336C75.6071 57.7698 75.0775 57.939 74.54 57.9089H74.304H74.1229C73.7688 57.8927 73.4164 57.8494 73.0688 57.7796C73.1939 58.0061 73.2906 58.2472 73.3566 58.4974C73.6314 59.5225 73.3178 60.3567 72.5256 60.7189C72.0727 60.9058 71.5862 60.9972 71.0963 60.9872C70.9267 60.9877 70.7572 60.978 70.5887 60.9581H70.427L70.4011 60.9323H70.3817C70.2512 60.9083 70.1226 60.8748 69.9969 60.832C70.0411 61.1748 69.9774 61.5228 69.8145 61.8277C69.6517 62.1325 69.3978 62.379 69.0883 62.5329C68.6461 62.754 68.1712 62.9025 67.6817 62.9726C67.4783 63.0022 67.273 63.0173 67.0674 63.0179C66.7689 63.0197 66.4714 62.9849 66.1814 62.9144C65.968 62.8595 65.6834 62.7689 65.3148 62.6396C65.3144 62.9365 65.2381 63.2284 65.0933 63.4876C64.9484 63.7468 64.7397 63.9646 64.487 64.1205C63.9925 64.3631 63.4468 64.4829 62.8961 64.4697C62.5767 64.4705 62.2581 64.438 61.9455 64.3727C61.7411 64.3347 61.5408 64.2774 61.3473 64.2014C61.0945 64.0954 60.8492 63.9723 60.6133 63.8327C60.6354 63.9249 60.6473 64.0193 60.6488 64.1141C60.6528 64.1879 60.6463 64.2619 60.6294 64.3339C60.4483 65.2038 59.8469 65.6629 58.8898 65.6629C58.0361 65.6629 56.927 64.8901 56.0508 64.2175L55.9602 64.1464C55.902 64.1011 55.8535 64.0688 55.8115 64.0397C55.7255 64.187 55.6968 64.3608 55.7306 64.528C55.7306 64.528 55.7306 64.528 55.7306 64.5441C55.8787 64.7293 56.048 64.8964 56.2351 65.0421C56.8462 65.5724 57.8324 66.2967 58.6246 66.882C59.0806 67.2053 59.4718 67.5028 59.737 67.7097C60.6424 68.4211 63.9406 71.2019 64.487 71.7581C64.7764 72.049 65.0285 72.3749 65.2372 72.7282C65.5287 73.1594 65.6444 73.6857 65.5606 74.1994C65.4747 74.5953 65.2532 74.9487 64.9343 75.1984C64.6155 75.4482 64.2193 75.5787 63.8144 75.5672C63.3313 75.5164 62.8647 75.362 62.4467 75.1145L62.382 75.0919L62.3626 75.0692L62.2915 75.0304C62.3206 75.2356 62.3085 75.4444 62.2559 75.6448C62.2052 75.8423 62.137 76.0349 62.0522 76.2204C61.9682 76.3864 61.8473 76.531 61.6988 76.6431C61.5502 76.7552 61.378 76.8318 61.1953 76.8671C60.9985 76.9223 60.795 76.9495 60.5906 76.9479H60.3966C60.3688 77.1078 60.3199 77.2633 60.2511 77.4103C60.1681 77.5804 60.059 77.7364 59.9278 77.8727C59.8594 77.9491 59.7836 78.0184 59.7014 78.0797C59.4101 78.3007 59.0516 78.4149 58.6861 78.403C58.5865 78.4018 58.4872 78.3942 58.3886 78.3804C58.3809 78.7086 58.2735 79.0268 58.0805 79.2925C57.8876 79.5582 57.6184 79.7589 57.3086 79.8678C57.1012 79.9427 56.8824 79.981 56.6619 79.981C56.327 79.9789 55.9988 79.8873 55.7112 79.7158C55.571 79.6328 55.4398 79.5353 55.32 79.4248C55.3068 79.5136 55.2829 79.6004 55.2488 79.6835V79.7126C55.1781 79.8874 55.0892 80.0543 54.9837 80.2105L54.767 80.4595C54.4881 80.6936 54.1437 80.8359 53.7808 80.867C53.6574 80.8819 53.5333 80.8894 53.409 80.8896C53.1151 80.9066 52.8235 80.8282 52.5777 80.6663C52.3319 80.5043 52.1448 80.2674 52.0444 79.9907C52.0218 79.9486 51.9991 79.8969 51.9765 79.8419C51.9539 79.787 51.9215 79.7093 51.8957 79.6382C51.8087 79.8902 51.6926 80.1311 51.5497 80.3561C51.4301 80.5817 51.2588 80.7759 51.0497 80.9226C50.8406 81.0693 50.5997 81.1643 50.3468 81.2H50.0817M38.8581 46.6983H38.7773H38.732C38.6046 46.7196 38.4762 46.7336 38.3472 46.7403H38.2987H38.2114" fill="#E5E5E5"/>
<path d="M43.1264 47.9626C43.0585 47.8883 42.9938 47.8107 42.9259 47.7331C42.9225 47.6792 42.9225 47.6252 42.9259 47.5714C42.9615 47.2092 43.0197 46.8471 43.0261 46.4849H43.052C43.1135 46.5043 43.1652 46.4655 43.2202 46.4429C43.5981 46.2702 43.9542 46.0531 44.2808 45.7962C44.5631 45.55 44.7881 45.2449 44.9401 44.9025C45.092 44.5601 45.1672 44.1886 45.1603 43.814C45.2185 43.038 45.1603 42.2555 45.1409 41.4762C45.1215 40.8845 45.0859 40.2895 45.0309 39.6978C45.0309 39.5393 45.0018 39.3744 44.976 39.2257C44.9566 39.1384 44.9566 39.0284 44.8854 38.9637C44.8729 38.9546 44.8585 38.9483 44.8432 38.9453C44.828 38.9423 44.8123 38.9426 44.7972 38.9463C44.7821 38.95 44.768 38.957 44.7559 38.9667C44.7437 38.9764 44.7339 38.9886 44.727 39.0025C44.6914 39.1254 44.727 39.2645 44.6914 39.3906C44.6483 39.6093 44.5922 39.8253 44.5233 40.0373C44.3186 40.6014 44.0766 41.1512 43.799 41.6831C43.5855 42.0906 43.3139 42.4689 43.094 42.8763C42.7843 43.4644 42.5859 44.1046 42.5088 44.7647C42.4988 45.2186 42.5779 45.6702 42.7416 46.0937C42.8742 46.5334 42.7416 46.9926 42.7416 47.442C42.743 47.4647 42.743 47.4873 42.7416 47.5099C41.9334 46.5384 41.2411 45.476 40.6786 44.3443C40.6786 44.2118 40.6786 44.0759 40.6786 43.9401C40.7208 43.4016 40.8117 42.8681 40.9502 42.346C40.989 42.4042 41.0634 42.401 41.1281 42.3913C41.3448 42.3916 41.5612 42.3732 41.7748 42.3363C42.4797 42.2458 42.7707 41.8092 43.1102 41.2401C43.4756 40.5934 43.7828 39.9079 44.1708 39.2709C44.2271 39.1744 44.298 39.0871 44.381 39.0122C44.4618 38.9508 44.5588 38.8473 44.4748 38.7503C44.3907 38.6533 44.2225 38.7988 44.1352 38.8829C43.9962 38.9896 43.8539 39.0898 43.7084 39.1901C42.8742 39.7883 41.7004 40.2313 41.141 41.1302C40.8717 41.5871 40.7041 42.0966 40.6495 42.6241C40.5412 43.0477 40.4751 43.4809 40.4523 43.9175C40.3229 43.6394 40.1936 43.3613 40.0739 43.08C39.8189 42.509 39.6028 41.9213 39.4272 41.321L39.5081 41.2789C39.7683 41.0946 39.9819 40.8521 40.1321 40.5708C40.4781 40.3154 40.8953 40.1666 41.2315 39.8982C41.8782 39.2515 42.1369 38.3364 42.3018 37.4699C42.3891 37.0398 42.4797 36.6065 42.5443 36.1764C42.622 35.5491 42.7804 34.938 42.8903 34.3204C42.9211 34.0997 42.9373 33.8772 42.9388 33.6543C42.952 33.5183 42.9388 33.3811 42.9 33.2501C42.885 33.2239 42.8609 33.2042 42.8323 33.1947C42.8037 33.1851 42.7725 33.1864 42.7448 33.1984C42.6866 33.221 42.6672 33.276 42.6446 33.3277C42.3269 33.969 41.9661 34.5881 41.5646 35.1805C41.1861 35.6752 40.8609 36.2084 40.5945 36.7714C40.4235 37.1789 40.2935 37.6024 40.2065 38.0357C40.0933 38.6469 40.0998 39.2709 40.0481 39.8885C40.0351 40.0865 39.997 40.2821 39.9349 40.4706C39.8068 40.7025 39.6382 40.9095 39.4369 41.0817C39.4189 41.0975 39.3994 41.1116 39.3787 41.1237C39.178 40.4144 39.0172 39.6943 38.8969 38.967C38.7812 38.4007 38.7056 37.8269 38.6706 37.25C38.6415 36.7326 38.6512 36.212 38.6706 35.6914C38.6674 35.6711 38.6674 35.6503 38.6706 35.63C38.6836 35.6122 38.6905 35.5906 38.69 35.5685C38.6915 35.5513 38.6915 35.534 38.69 35.5168C38.6884 35.5028 38.6884 35.4887 38.69 35.4748C38.7223 35.1935 38.7223 34.9089 38.7773 34.6341C38.8775 34.2654 39.0521 33.9227 39.1621 33.5573C39.3464 33.0011 39.5016 32.4385 39.6988 31.8856C39.8278 31.4775 39.9357 31.063 40.0222 30.6439C40.131 30.2522 40.1982 29.8501 40.2227 29.4442C40.3008 28.5951 40.3289 27.7422 40.3067 26.8898C40.2864 26.3804 40.2269 25.8734 40.1289 25.3732C40.1256 25.3396 40.113 25.3075 40.0924 25.2806C40.0719 25.2537 40.0442 25.2332 40.0125 25.2213C39.9998 25.2168 39.9863 25.2151 39.9728 25.2161C39.9594 25.2172 39.9463 25.221 39.9345 25.2274C39.9226 25.2338 39.9122 25.2426 39.9039 25.2532C39.8957 25.2639 39.8897 25.2761 39.8864 25.2892C39.7991 25.5769 39.7182 25.8712 39.6245 26.159C39.4622 26.5401 39.3207 26.9298 39.2009 27.3263C39.1123 27.8727 38.9881 28.4128 38.829 28.943C38.6586 29.4078 38.5182 29.883 38.4087 30.3658C38.2923 30.9446 38.1597 31.5202 38.0627 32.1022C37.9624 32.7489 37.7878 33.3956 37.9172 34.0423C37.9783 34.375 38.0748 34.7002 38.205 35.0124C38.268 35.1654 38.3403 35.3144 38.4216 35.4586C38.4216 35.4586 38.4216 35.4845 38.4216 35.5006C38.3672 36.1523 38.3531 36.8067 38.3796 37.4602C38.4196 38.0441 38.4951 38.6251 38.6059 39.1998C38.6738 39.6299 38.7611 40.0599 38.8614 40.4932L38.7967 40.4447C38.4192 40.1236 38.0922 39.7475 37.8266 39.3291C37.7846 39.2645 37.7393 39.203 37.6973 39.1416C37.6553 39.0802 37.6714 38.9928 37.665 38.9152C37.6035 38.469 37.665 38.0131 37.5906 37.5669C37.4774 36.6356 37.0053 35.8046 36.6205 34.98C36.378 34.4982 36.1032 34.0326 35.8639 33.5476C35.5761 32.9688 35.298 32.3868 35.007 31.8112C34.8647 31.5299 34.7419 31.2389 34.6157 30.9478C34.6071 30.9166 34.5924 30.8874 34.5724 30.8618C34.5524 30.8363 34.5276 30.815 34.4993 30.7991C34.2956 30.7474 34.3571 30.9963 34.3571 31.1224C34.4023 31.8726 34.5058 32.6163 34.4832 33.3859C34.4832 33.7093 34.4832 34.0326 34.4832 34.356C34.5042 34.6705 34.5431 34.9836 34.5996 35.2937C34.818 36.3644 35.3466 37.3472 36.1193 38.1198C36.4168 38.4766 36.7733 38.7796 37.1735 39.0155C37.3502 39.1037 37.499 39.2391 37.6035 39.4067C37.7684 39.6428 37.9269 39.8788 38.1241 40.0987C38.3592 40.3717 38.6288 40.613 38.926 40.8166C39.2241 42.0489 39.6455 43.2481 40.1839 44.3961C39.9349 44.2527 39.6755 44.1284 39.4078 44.0242C39.3606 44.0069 39.3191 43.9767 39.2882 43.9369C38.6188 43.2902 38.386 42.346 37.8428 41.6055C37.2996 40.8651 36.6399 40.4415 35.851 39.9888C35.4941 39.7818 35.1197 39.6065 34.7322 39.4649C34.3571 39.3324 33.9658 39.2321 33.5972 39.0802C33.1639 38.8958 32.7468 38.676 32.3038 38.4981C32.1906 38.4593 32.0451 38.3623 31.9319 38.4496C31.9115 38.4722 31.9001 38.5016 31.9001 38.5321C31.9001 38.5625 31.9115 38.5919 31.9319 38.6145C32.2553 39.0058 32.6562 39.3421 32.9828 39.7398C33.3805 40.2022 33.775 40.6678 34.1404 41.1593C34.328 41.418 34.5284 41.6637 34.7257 41.9127C34.9189 42.1772 35.1353 42.424 35.3724 42.65C35.5986 42.8522 35.8564 43.016 36.1355 43.135C36.5106 43.3096 36.8695 43.5198 37.2511 43.6782C37.4785 43.7799 37.7158 43.8579 37.9592 43.911C38.1856 43.9563 38.4151 43.9854 38.6383 44.0404C39.2156 44.1867 39.768 44.4177 40.2776 44.7259H40.3294C40.5525 45.1753 40.7885 45.6183 41.0472 46.0484C41.3706 46.5464 41.6939 47.0185 42.0432 47.5099C42.2404 47.7622 42.4506 48.0047 42.664 48.244H42.5185C42.3697 48.1793 42.2178 48.1049 42.0626 48.0467C41.6729 47.8941 41.3096 47.6813 40.9858 47.4162C40.3941 46.9085 39.7538 46.4138 38.9713 46.2683C38.5251 46.1713 38.0627 46.2004 37.6132 46.1292C36.7563 45.9967 35.9965 45.4825 35.159 45.3403C34.9262 45.2982 34.3571 45.1624 34.2407 45.434C34.2317 45.463 34.2305 45.4938 34.2373 45.5233C34.2442 45.5529 34.2587 45.5801 34.2795 45.6022C34.5129 45.7784 34.7618 45.9332 35.0232 46.0646C35.4953 46.3232 35.9124 46.6692 36.3716 46.9473C36.6849 47.1217 37.0168 47.2605 37.361 47.3612C37.8266 47.4841 38.302 47.5488 38.7708 47.649C39.2253 47.7149 39.6689 47.8411 40.0901 48.0241C40.6177 48.3534 41.2307 48.5199 41.8524 48.5026C42.1787 48.4461 42.5123 48.4461 42.8386 48.5026L42.8774 48.5188C43.2008 48.6643 43.4594 49.0782 43.7084 49.311C44.3325 49.8995 44.8887 50.6044 45.6776 50.9666L46.0366 51.138C46.1562 51.1768 46.2726 51.3029 46.4019 51.2511C46.4386 51.2341 46.4688 51.2058 46.488 51.1702C46.5073 51.1347 46.5145 51.0939 46.5087 51.0539C46.5087 50.9763 46.4246 50.9472 46.3664 50.9116L46.0851 50.7532C45.8871 50.6399 45.697 50.5135 45.516 50.3749C45.2932 50.1985 45.0845 50.005 44.8919 49.7961C44.6591 49.5665 44.4295 49.3272 44.2031 49.0911" fill="#E5E5E5"/>
<path d="M66.4595 47.9045C65.8516 47.801 75.8367 47.9045 77.392 48.1244C80.2731 48.548 82.0321 48.2117 80.4089 50.5431C81.2014 50.4104 81.9662 50.1471 82.6724 49.7638C87.749 45.4018 67.9825 48.1664 66.453 47.9045" fill="white"/>
<path d="M25.9435 57.4599C24.7503 56.9037 24.0034 55.5941 24.7309 54.4624H24.6824C24.6824 54.4624 24.4302 54.637 24.1489 54.8795C23.1271 56.3249 24.621 57.8544 25.9758 57.5213C25.9739 57.498 25.9635 57.4762 25.9467 57.4599" fill="white"/>
<path d="M44.5006 65.0776C41.7521 67.4834 37.3222 70.2028 35.2722 72.9545C35.0792 73.2045 34.9773 73.513 34.9834 73.8287C34.9895 74.1445 35.1032 74.4488 35.3056 74.6912C35.5081 74.9336 35.7872 75.0997 36.0969 75.162C36.4065 75.2242 36.7281 75.179 37.0086 75.0337C32.32 72.8737 39.6795 69.8859 41.3868 67.8682C42.2598 66.8981 45.5677 65.5045 44.5006 65.0776Z" fill="white"/>
<path d="M29.2159 60.5509C28.6242 60.2016 28.0357 60.1014 27.7932 59.3803C27.3114 58.4717 27.6832 57.4176 28.7632 57.188C28.524 57.2236 28.1844 57.2688 27.9484 57.2915C26.5483 58.6754 26.9137 60.8968 29.2612 60.5961L29.2095 60.5509" fill="white"/>
<path d="M33.3805 62.5069C32.0063 62.3679 30.8519 61.6371 30.8584 60.0947C29.5326 62.0057 32.5657 62.9855 33.8946 62.536C33.7244 62.512 33.5524 62.5022 33.3805 62.5069Z" fill="white"/>
<path d="M28.7761 57.1879L29.0251 57.1523C28.9415 57.1592 28.8583 57.1711 28.7761 57.1879Z" fill="white"/>
<path d="M13.4169 42.3591C14.2641 42.3817 18.4579 43.2807 20.1555 43.5878C21.8531 43.895 34.244 44.9783 31.3047 44.3089C25.9662 43.0931 13.5397 42.9735 6.62324 37.1402C4.7963 35.601 5.42037 34.7991 7.0339 35.2389C4.88037 34.8444 3.96852 35.213 5.33953 37.8257C6.39689 39.6429 9.86647 41.3082 11.3539 41.5184C9.65952 41.499 10.4808 43.3292 11.3765 44.3833C12.9124 45.6767 15.7547 46.7502 17.7498 46.5821C17.2809 46.4301 9.34263 42.2621 13.4169 42.3785" fill="white"/>
<path d="M81.615 46.6499C83.6101 46.8181 86.4653 45.751 87.9883 44.4511C88.8839 43.397 89.7053 41.5668 88.0109 41.5862C89.4918 41.3761 92.9679 39.7108 94.0252 37.8936C95.3963 35.3067 94.4844 34.9252 92.3309 35.3067C93.9476 34.867 94.5685 35.6689 92.7415 37.208C85.825 43.0284 73.3986 43.161 68.06 44.3768C65.1208 45.0461 77.5116 43.9629 79.2092 43.6557C80.9068 43.3485 85.1007 42.4496 85.9479 42.427C90.0318 42.317 82.0838 46.485 81.615 46.6305" fill="white"/>
<path d="M36.6787 63.8201C36.1516 63.6002 35.2074 62.4297 35.3853 61.8994L35.2527 62.0837H35.2721C34.9488 63.4968 36.2713 64.3731 37.9268 64.04C37.5647 63.985 36.9244 63.9042 36.6916 63.8298" fill="white"/>
<path d="M41.141 65.0521C39.9381 65.0521 40.2227 63.4127 40.601 63.0376C40.5146 63.0402 40.4293 63.0577 40.3488 63.0893C39.2882 64.3116 40.4684 65.8055 41.9914 65.1006L41.141 65.0521Z" fill="white"/>
<path d="M10.7168 34.2948C9.06771 33.3054 4.19802 31.0031 2.78821 29.6547C2.33875 29.16 1.86665 28.5036 2.54892 28.2126C3.68389 27.8892 3.3282 27.9862 4.64748 28.5586C-0.79454 26.1981 1.51743 31.8665 4.64748 33.6449C11.0143 37.6286 23.1303 40.2251 30.1018 41.3892C29.7784 41.3019 11.0499 34.5988 10.7168 34.3045" fill="white"/>
<path d="M68.4224 42.624C75.3938 41.4729 87.5002 38.8731 93.8864 34.8926C97.0067 33.111 99.3187 27.4555 93.8864 29.8031C95.2057 29.2307 94.8564 29.1208 95.9849 29.4571C96.6672 29.7513 96.1854 30.4077 95.7456 30.8992C94.3358 32.2476 89.4661 34.5434 87.817 35.5393C87.4937 35.8207 68.7651 42.5399 68.4321 42.624" fill="white"/>
<path d="M38.3215 74.2548C38.4555 74.0962 38.6003 73.9471 38.7548 73.8086C38.7775 73.6889 38.8001 73.6113 38.8001 73.6113C38.8001 73.6113 38.5188 73.9832 38.3215 74.258" fill="white"/>
<path d="M78.9151 51.3936C78.8063 51.2924 78.6804 51.2114 78.5432 51.1543C78.5239 51.1666 78.5077 51.1833 78.4958 51.2029C78.484 51.2225 78.4769 51.2447 78.475 51.2675C78.4731 51.2904 78.4765 51.3133 78.485 51.3347C78.4935 51.356 78.5068 51.375 78.5238 51.3903C79.5165 52.1729 78.9927 53.3887 78.1326 53.822C79.0574 53.3628 79.6944 52.1179 78.9151 51.3936Z" fill="white"/>
<path d="M75.9467 54.7886C75.7333 55.1766 76.3509 55.6907 76.0017 55.8427C76.2248 55.9138 76.1116 56.5379 75.9435 56.6705C75.6363 56.774 75.41 57.1911 75.7754 57.1523C76.5029 56.6252 76.4221 55.2122 75.9467 54.7886Z" fill="white"/>
<path d="M69.5216 60.4669C69.5151 60.4447 69.5151 60.4211 69.5216 60.3989C69.4754 60.3157 69.4235 60.2358 69.3664 60.1597C69.5863 61.0295 68.6583 62.3003 67.6106 62.5783C68.7359 62.5428 69.9711 61.5727 69.5216 60.4669Z" fill="white"/>
<path d="M72.9525 58.614C72.8806 58.353 72.7717 58.1037 72.6292 57.8735C73.2759 59.7005 72.1765 60.3925 70.5791 60.5703C71.7496 60.7514 73.4893 60.344 72.9493 58.6302" fill="white"/>
<path d="M51.165 76.5211C51.2846 77.2002 50.8417 80.4014 49.3316 79.2373C48.6429 78.5744 49.2669 75.0175 48.8983 74.4258C48.3906 74.1413 48.1837 77.2066 48.1093 77.1937C48.0253 77.7402 46.8741 80.5954 45.8459 79.1726C45.1604 78.3125 46.1304 74.8171 46.4408 74.1316C45.8265 75.2568 45.1248 77.4298 43.9154 78.4968C43.2687 79.0659 43.3075 78.6262 42.9454 78.4386C42.0723 77.8921 43.7311 74.7427 43.9478 74.3514C43.3884 74.8268 42.4862 77.3425 41.5323 77.5462C41.015 77.627 41.154 77.3748 40.8242 76.9512C40.0223 76.0232 41.5711 73.8793 42.0368 73.3135C41.7716 73.6077 39.6181 75.9747 39.4499 76.0458C38.648 76.2527 38.5349 74.3256 38.7677 73.8211C37.8914 75.0337 38.2244 77.0547 40.1581 76.5211C39.9802 77.5656 41.3157 78.4321 42.1952 77.8954C41.7845 79.1888 43.9154 79.1209 44.7335 78.9333C44.8984 78.9075 44.989 78.8848 44.989 78.8848C45.1248 80.2785 47.2104 80.7053 47.9767 79.302C48.1249 79.0841 48.2557 78.8549 48.368 78.6165C48.6914 79.5218 49.6 80.5081 50.6509 79.8872C51.8117 79.829 51.3202 76.7216 51.1876 76.5211" fill="white"/>
<path d="M54.7801 78.5909C54.8253 79.0921 54.0622 80.0266 53.3218 79.4801C52.2967 78.9886 51.5272 74.3517 51.2717 73.6953C51.1521 75.1633 51.4399 79.5706 53.4705 80.0815C54.7251 80.1818 55.1422 79.4348 54.7801 78.5909Z" fill="white"/>
<path d="M64.9075 73.5789C63.1614 75.6904 59.611 70.9921 58.3305 70.2549H58.2949C59.2391 71.5483 61.6869 74.3227 63.4912 74.8271C64.1088 75.0761 65.4022 74.1545 64.9075 73.5789Z" fill="white"/>
<path d="M57.7776 77.973C57.312 79.0239 56.0154 78.5421 55.4172 77.5138C54.9742 76.9512 54.0591 75.2827 54.0009 74.9011C53.9859 74.7935 53.9414 74.6921 53.8724 74.6082C53.8033 74.5243 53.7124 74.4612 53.6096 74.4258C53.933 75.7192 54.5312 77.7078 55.6467 78.6908C56.3678 79.6091 58.1366 79.1241 57.7776 77.973Z" fill="white"/>
<path d="M60.691 76.3886C60.3718 76.4298 60.0473 76.3909 59.7468 76.2754C59.3491 77.7952 57.6192 77.4848 57.2247 75.8583C57.0727 75.3183 55.679 73.3653 55.6079 73.2715C56.0638 74.1154 56.8496 76.5276 57.5933 77.4039C58.185 77.8114 60.1219 77.8243 60.0184 76.7055C60.0196 76.685 60.025 76.665 60.0342 76.6468C60.0435 76.6285 60.0564 76.6123 60.0722 76.5993C60.0879 76.5862 60.1062 76.5765 60.1259 76.5709C60.1456 76.5653 60.1663 76.5637 60.1866 76.5664C60.5875 76.6473 61.48 76.5988 61.6805 76.0847C61.3875 76.2682 61.0549 76.379 60.7104 76.408" fill="white"/>
<path d="M57.509 62.8533C57.467 62.5914 57.1857 62.53 56.788 62.0191C56.3902 61.5082 56.5907 61.5276 56.4129 61.5146C55.7662 61.7604 57.4864 64.1273 57.509 62.8533Z" fill="white"/>
<path d="M48.2159 48.6257C47.9702 47.9434 45.8813 48.5319 45.3672 48.5384C45.2411 48.5836 45.4416 48.7906 45.3672 48.8456C45.2928 48.9005 45.2476 49.2659 45.2476 49.2659C45.4254 48.9684 45.9589 49.3468 45.6453 48.5578C46.1659 48.6936 46.9581 48.3444 47.4722 48.5901C47.7568 48.7841 47.8214 49.0848 47.4722 49.059C47.123 49.0331 46.735 48.7841 46.6315 49.0266C46.3502 50.4106 45.0147 49.8965 45.4739 51.9368H45.5062C45.697 50.6434 46.929 49.3176 48.2612 49.2433C48.3063 49.1427 48.3248 49.0323 48.3152 48.9225C48.3056 48.8127 48.2681 48.7072 48.2062 48.616" fill="white"/>
<path d="M39.34 49.418C34.0144 46.2944 37.18 43.5071 32.4558 39.3682C35.9771 44.5418 33.1025 46.1747 39.8056 49.9644C39.6602 49.7741 39.5048 49.5917 39.34 49.418Z" fill="white"/>
<path d="M69.4312 38.3723C64.8396 40.3674 65.8743 46.288 62.1138 49.0979C60.5681 50.2232 56.6588 52.0081 55.679 52.3088C54.2757 53.017 55.2199 54.4139 55.2749 55.2675C54.8739 53.0623 56.5909 53.1528 58.5084 52.4091C69.179 48.2508 62.6602 41.3634 72.183 36.9819C72.031 37.0531 70.0909 37.952 69.4151 38.3723" fill="white"/>
<path d="M74.0357 54.666C72.4933 54.0645 68.2154 53.1559 66.4466 52.2732C65.289 51.8948 63.3554 51.2287 63.42 51.8851C65.7643 53.4049 71.2096 55.3547 74.0357 54.9667C74.0357 54.9667 74.2329 54.7856 74.0357 54.666Z" fill="white"/>
<path d="M53.4445 55.416C51.9215 54.2422 54.0912 50.5075 51.291 46.9668C50.2207 48.2828 50.2821 47.9369 51.7049 48.9069C52.759 50.847 51.1617 51.4323 49.7939 52.1598C51.2425 51.8947 51.1714 51.678 50.7025 53.3853C50.266 57.0586 48.3711 56.5025 46.0818 54.9374C47.7374 58.2874 53.687 56.6189 54.6506 54.9892C54.4275 55.1379 53.6806 55.4613 53.4445 55.4031" fill="white"/>
<path d="M47.7212 43.1155C47.239 43.1171 46.7637 43.2303 46.3326 43.4463C45.9014 43.6623 45.5262 43.9751 45.2361 44.3604C44.9461 44.7456 44.7492 45.1927 44.6609 45.6668C44.5725 46.1408 44.5951 46.6289 44.7269 47.0927C44.5229 47.432 44.4114 47.8189 44.4036 48.2148C44.4407 48.2383 44.4796 48.2588 44.52 48.2762C44.5749 47.8688 45.3801 48.454 45.4577 48.2762C45.4124 47.8914 45.3219 47.9722 45.406 47.5325C45.3833 47.4775 45.241 47.4581 45.1602 47.3514C45.0373 46.6562 46.0139 43.7654 47.401 43.6458C48.381 43.4109 49.4086 43.4729 50.3533 43.8236C50.3533 43.8236 50.3533 43.7654 50.3533 43.6911C49.5471 43.2366 48.6246 43.0308 47.7018 43.0993" fill="white"/>
<path d="M52.0606 45.2693C49.5287 42.3591 50.0331 45.1658 48.0898 45.5926C47.8292 45.6964 47.5902 45.8477 47.3849 46.0389C47.0066 46.3913 46.7802 46.8569 47.1844 47.1997C47.317 47.4519 47.1844 47.4422 47.1359 47.7591C47.0874 48.076 50.266 48.1406 49.3088 47.9499C49.0825 47.8238 47.8376 47.8141 47.4625 47.3032C47.4446 47.062 47.5006 46.8211 47.6231 46.6125C47.7455 46.404 47.9286 46.2377 48.148 46.1359C48.4455 46.0291 48.9596 45.4698 49.4673 45.0332C50.156 44.435 51.485 44.878 52.0864 45.6508C52.0476 45.6023 52.122 45.3663 52.0606 45.2693Z" fill="white"/>
<path d="M55.8019 50.53C54.8318 50.7887 53.5998 46.9731 52.3323 45.7832C52.1577 46.2618 54.4988 49.9868 54.7154 50.5042C55.0064 51.0021 55.0743 51.125 55.5011 50.9374C56.3483 50.7531 59.7047 48.9973 60.2156 48.5349C58.8155 49.3472 57.3367 50.0156 55.8019 50.53Z" fill="white"/>
<path d="M54.6506 55.0024C54.6862 54.9765 54.7121 54.9604 54.7153 54.9442C54.7185 54.928 54.6927 54.9604 54.6506 55.0024Z" fill="white"/>
<path d="M45.1668 53.2108C39.9932 50.0711 35.4953 50.375 33.7913 43.2128C32.4461 40.3349 33.1801 40.7618 30.1083 38.3625C28.1423 37.1208 24.5919 35.475 22.5483 34.4144C19.4765 32.7653 7.83577 24.6815 5.35889 24.9207C8.77026 26.3047 22.6485 36.196 26.1763 37.8548C28.2134 38.9575 30.9555 39.4199 31.6733 40.3285C33.0282 42.2977 34.1211 46.8311 34.7581 48.852C35.2076 50.2683 37.5519 51.1446 37.4743 51.953C37.5001 52.3734 37.8752 52.0274 36.6044 52.4413C35.3337 52.8551 33.0476 54.058 31.2982 54.501C29.5489 54.944 27.0688 55.2932 27.2369 55.5778C27.4051 55.8623 27.7316 56.163 29.911 55.6683C33.1446 54.7759 36.4816 54.0516 38.1921 52.3022C38.5607 51.7267 37.0539 50.6855 37.4904 50.236C38.3344 50.7792 42.7384 52.6482 44.0319 53.2302C45.377 53.5536 45.1151 54.0613 45.2735 54.7371C45.2735 54.7371 45.5387 53.6635 45.1636 53.2108" fill="white"/>
<path d="M55.0257 73.7499C54.8156 73.3102 54.0169 71.6999 53.7841 71.1631C53.4607 70.2771 52.9013 68.4793 52.3063 67.8714C51.8375 67.3928 51.4107 67.6321 51.1617 67.6321C50.9127 67.6321 51.1617 68.1139 51.1617 68.1139C52.8528 69.4073 55.4946 75.2276 55.6886 75.2276C55.8826 75.2276 55.2489 74.1832 55.0419 73.7467" fill="white"/>
<path d="M60.0766 64.1043C59.7532 64.6443 59.1776 65.0226 58.2755 64.6766C57.05 64.4665 56.7105 63.2539 55.6887 63.2021C55.3071 63.2927 54.7736 64.4697 55.3653 64.7348C55.1907 64.2757 55.43 63.6063 55.7501 63.574C56.4906 63.9168 57.6902 65.2199 58.8802 65.2716C59.7629 65.2716 60.1057 64.8415 60.2253 64.2692C60.2835 64.1657 60.1412 63.92 60.083 64.1043" fill="white"/>
<path d="M58.4372 72.942C57.7614 71.904 55.443 68.5703 55.2037 68.234C54.751 67.6649 53.5546 65.9705 52.8626 65.7959C52.6234 65.9737 52.4488 65.964 52.5555 66.171C52.7818 66.3844 52.7171 66.4523 52.95 66.5655C54.3261 68.0873 55.6213 69.6804 56.8302 71.3382C57.118 71.7715 58.6216 73.3817 58.4275 72.9549" fill="white"/>
<path d="M64.6844 62.5623C64.5292 63.804 63.197 64.0336 62.0103 63.9916C63.1905 64.2858 65.0271 63.9657 64.9204 62.4815C64.9011 62.469 64.8792 62.4611 64.8564 62.4585C64.8335 62.4559 64.8104 62.4586 64.7888 62.4664C64.7671 62.4742 64.7476 62.487 64.7318 62.5036C64.7159 62.5203 64.7041 62.5404 64.6973 62.5623" fill="white"/>
<path d="M40.7563 39.368C40.7657 38.5571 40.8987 37.7524 41.1508 36.9817C41.4868 36.0822 41.9205 35.2223 42.4442 34.4175L40.7563 39.368Z" fill="white"/>
<path d="M43.4984 45.2371C43.4984 45.2371 42.6771 44.2671 43.2171 43.297C43.7571 42.327 44.6204 40.6714 44.6204 40.6714C44.6204 40.6714 44.2971 44.5128 43.4984 45.2274" fill="white"/>
<path d="M49.3671 46.5627C49.3671 46.6331 49.3463 46.7018 49.3072 46.7603C49.2681 46.8188 49.2126 46.8644 49.1476 46.8913C49.0826 46.9183 49.0111 46.9253 48.9421 46.9116C48.8731 46.8978 48.8097 46.864 48.7599 46.8142C48.7102 46.7645 48.6763 46.7011 48.6626 46.6321C48.6489 46.5631 48.6559 46.4916 48.6828 46.4266C48.7098 46.3616 48.7553 46.3061 48.8138 46.267C48.8723 46.2279 48.9411 46.207 49.0114 46.207C49.1058 46.207 49.1963 46.2445 49.263 46.3112C49.3297 46.3779 49.3671 46.4684 49.3671 46.5627Z" fill="white"/>
<path d="M45.2476 49.3564C45.1123 49.6447 45.0619 49.9654 45.1021 50.2812C45.0975 50.5829 45.1468 50.8829 45.2476 51.1672C45.1854 50.5652 45.1854 49.9584 45.2476 49.3564Z" fill="white"/>
<path d="M45.639 55.7749C45.639 55.7749 44.7627 62.0059 46.2566 63.8846C47.1595 64.8652 48.2805 65.6195 49.5289 66.0866C49.5289 66.0866 45.5711 65.8085 45.002 63.0374C44.4329 60.2663 45.6487 55.7749 45.6487 55.7749" fill="white"/>
<path d="M30.8553 17.0018C30.6613 17.1183 30.4899 17.2314 30.3412 17.3414C29.8346 17.7057 29.3905 18.0366 29.009 18.3341C28.6274 18.6283 28.3881 18.8159 28.2911 18.8999L27.7026 18.1918L28.2394 17.6582L27.7996 17.17L27.2887 16.7561L25.3486 18.153L25.6461 18.9323L25.866 19.3656L26.5579 19.0778L27.0236 19.8279C26.9524 19.87 26.794 19.967 26.5547 20.119C26.3154 20.2709 26.0988 20.4164 25.908 20.5587C25.5459 20.8206 25.2419 21.0535 24.9929 21.2507C24.7439 21.4479 24.5887 21.574 24.5241 21.6387L23.9356 20.9306L24.3268 20.5102L24.1231 19.3203L22.0439 12.365L23.111 11.4272L29.5005 15.9606L30.1472 16.3422L30.7939 16.0189L31.2595 16.769C31.1722 16.8143 31.0461 16.8822 30.8553 17.0018ZM24.0035 14.166L25.0156 17.115L26.3898 16.0932L24.0035 14.166Z" fill="#E5E5E5"/>
<path d="M41.6941 4.88879C41.6529 5.12046 41.6313 5.35518 41.6294 5.59046L41.5938 12.7915L40.2131 13.2281L37.0734 8.62351V14.2207L35.6959 14.654L31.2886 8.40686C31.2024 8.27681 31.105 8.15455 30.9976 8.04148L30.81 7.84747L30.0534 7.96064L29.8464 7.11345C29.9208 7.11345 30.0792 7.06172 30.3282 7.00028C30.5772 6.93884 30.7906 6.88064 30.9749 6.82244C31.544 6.64459 32.0646 6.46998 32.5432 6.30507C33.0218 6.14016 33.3257 6.02699 33.4583 5.98172L33.7816 6.8386L33.0573 7.18136C33.0573 7.21046 33.0929 7.2913 33.1317 7.42064C33.1731 7.5497 33.2295 7.67343 33.2998 7.78926L35.78 11.8894L35.6118 5.74567L36.9667 5.31561L40.3134 10.4472L40.0805 5.46112C40.0757 5.35888 40.0572 5.25775 40.0256 5.16041C40.0256 5.11514 39.9965 5.07633 39.9835 5.04723L39.9577 4.9955L39.1428 5.08927L38.9423 4.22915C39.0361 4.20975 39.2237 4.16448 39.505 4.09011C39.7863 4.01574 40.0482 3.94783 40.2843 3.87346C40.6981 3.74089 41.0732 3.61478 41.4031 3.49514C41.7329 3.3755 41.9463 3.29466 42.0336 3.25586L42.3569 4.11274L41.7846 4.39083C41.7652 4.47813 41.7361 4.63981 41.6941 4.88879Z" fill="#E5E5E5"/>
<path d="M54.3402 12.0611C54.1139 12.0417 53.9102 12.0287 53.7259 12.0255C53.1018 12.0255 52.5489 12.0255 52.0638 12.0255C51.5788 12.0255 51.2781 12.0417 51.1488 12.0481L51.1035 11.1298L51.8504 11.0231L51.7922 10.3764L51.6305 9.72968L49.2474 9.70058L49.0211 10.5025L48.9403 10.9811L49.6613 11.1492L49.587 12.0287C49.5061 12.0287 49.3218 12.0029 49.0405 11.9834C48.7592 11.964 48.494 11.9479 48.2515 11.9446C47.8053 11.9446 47.4205 11.9446 47.1036 11.9446C46.7867 11.9446 46.583 11.964 46.4957 11.9705L46.4504 11.0522L47.0163 10.9714L47.5628 9.89459L50.0591 3.07509L51.4883 2.96191L53.8875 10.4152L54.1656 11.0975L54.8705 11.2268L54.7962 12.1063C54.7218 12.0966 54.5666 12.0805 54.3402 12.0611ZM50.557 5.69424L49.587 8.66585H51.3007L50.557 5.69424Z" fill="#E5E5E5"/>
<path d="M65.2825 14.9581C65.1693 14.9129 64.9042 14.8191 64.4838 14.6704C64.0635 14.5216 63.5655 14.347 62.9932 14.1821C62.9932 14.0463 62.9641 13.7844 62.9285 13.3964C62.8929 13.0083 62.8638 12.7496 62.8412 12.6009L62.4402 10.3471L62.2591 10.2922C62.083 10.2352 61.9103 10.1682 61.7418 10.0917L61.4184 11.1394C61.2754 11.6071 61.1673 12.0848 61.0951 12.5686L61.8517 12.8919L61.5122 13.7876C61.399 13.7423 61.1274 13.6453 60.6974 13.4934C60.2673 13.3414 59.7596 13.17 59.1905 13.0019C58.9577 12.9307 58.7152 12.8628 58.463 12.8014L57.9553 12.685L58.159 11.8281L58.9965 11.9251L59.2035 11.4821C59.2885 11.3008 59.3641 11.1151 59.4298 10.9259L60.7232 6.72236C60.8601 6.27416 60.9607 5.81568 61.0239 5.35134L60.2867 4.96655L60.6262 4.08057L61.1048 4.26811C61.3538 4.36188 61.6027 4.44595 61.8485 4.52356C62.0166 4.5753 62.243 4.63673 62.5275 4.70787L63.1451 4.85985C63.6528 4.97625 64.0602 5.08296 64.3674 5.1832C65.1225 5.37704 65.7777 5.84653 66.204 6.49924C66.3919 6.81258 66.5071 7.16403 66.5412 7.52775C66.5754 7.89147 66.5276 8.25822 66.4013 8.60103C66.2615 9.07543 65.9806 9.49607 65.5961 9.80714C65.1978 10.12 64.7315 10.3349 64.2348 10.4344C64.3448 11.1005 64.4676 11.688 64.6034 12.1967C64.7425 12.7076 64.8136 12.9857 64.8233 13.0374L65.0335 13.8361L65.5994 14.0689L65.2825 14.9581ZM62.3303 9.21217C62.5472 9.3019 62.7808 9.34456 63.0155 9.33731C63.2501 9.33006 63.4806 9.27308 63.6916 9.17013C64.0877 8.89621 64.3678 8.48474 64.4773 8.01577C64.6408 7.59877 64.6338 7.13426 64.4579 6.72236C64.3391 6.52982 64.1829 6.36307 63.9985 6.23199C63.8141 6.10091 63.6053 6.00817 63.3844 5.95924L63.1257 5.89457C62.9317 6.3602 62.8024 6.71589 62.7215 6.95517L62.0425 9.13457L62.3303 9.21217Z" fill="#E5E5E5"/>
<path d="M78.2036 12.9341C78.5284 13.6068 78.6412 14.3623 78.527 15.1005C78.3917 15.9174 78.0697 16.692 77.586 17.364C77.1407 18.0499 76.5403 18.6214 75.8334 19.0325C75.1853 19.3987 74.4405 19.5578 73.6993 19.4884C72.8593 19.3921 72.0584 19.0802 71.3744 18.5831C71.1448 18.4246 70.9379 18.2791 70.7568 18.1433L70.2912 17.7844C69.9225 17.5031 69.5733 17.2476 69.2403 17.0213C69.0398 16.8822 68.8296 16.7464 68.5936 16.6138C68.3575 16.4813 68.2249 16.394 68.1538 16.3584L68.6259 15.6082L69.3987 15.951C69.4602 15.8766 69.5798 15.744 69.7544 15.5468C69.8807 15.4131 69.9984 15.2717 70.1069 15.1232L72.5967 11.4887C72.7512 11.2603 72.8937 11.0239 73.0235 10.7806C73.1658 10.5219 73.2531 10.3505 73.2886 10.2697L72.6807 9.70056L73.266 8.95361C73.321 9.00212 73.4536 9.10882 73.6605 9.27697C73.8675 9.44511 74.0712 9.60032 74.2716 9.72319C74.5303 9.90104 74.9022 10.1306 75.3904 10.4152L75.966 10.7644C76.215 10.9131 76.3993 11.0295 76.5189 11.1104C77.2292 11.5618 77.8098 12.1903 78.2036 12.9341ZM75.0283 11.4531C74.6758 11.9058 74.4689 12.1807 74.401 12.2777L71.9144 15.9122C71.6083 16.3627 71.3539 16.7637 71.1513 17.115C71.3679 17.2929 71.5878 17.4578 71.8142 17.6098C72.5471 18.1142 73.2563 18.222 73.9418 17.9331C74.7424 17.5399 75.4151 16.9277 75.8819 16.1676C76.4169 15.461 76.7429 14.6186 76.8229 13.736C76.8378 13.3595 76.75 12.986 76.5689 12.6557C76.3877 12.3253 76.1201 12.0504 75.7946 11.8606C75.5484 11.709 75.2924 11.574 75.0283 11.4564V11.4531Z" fill="#E5E5E5"/>
<path d="M28.2975 81.9601L27.6799 82.7782L27.0073 82.2867L26.616 82.6327C26.4902 82.7391 26.3714 82.8536 26.2604 82.9754L23.3858 86.2478L21.8013 88.0585L20.5306 86.9462L21.1773 80.0523L19.0755 82.4548C18.8601 82.6963 18.6603 82.9512 18.4773 83.218C18.3124 83.4637 18.2218 83.593 18.2056 83.6124L18.7618 84.2074L18.0925 84.8767C18.0375 84.8153 17.8823 84.6633 17.6236 84.4176C17.3649 84.1718 17.0189 83.8517 16.5759 83.4637C16.3949 83.3053 16.2041 83.1403 15.9971 82.9884C15.7902 82.8364 15.6576 82.7297 15.5962 82.6877L16.1265 81.9925L16.8443 82.4193L17.2582 82.0571C17.3919 81.9412 17.5193 81.8181 17.6398 81.6885L20.5111 78.4129C20.6866 78.2135 20.8518 78.0052 21.0059 77.7889C21.1611 77.5722 21.271 77.4073 21.3292 77.2974L20.8151 76.6507L21.4877 75.9878C21.5394 76.046 21.6591 76.1656 21.8401 76.3467C22.0212 76.5278 22.2055 76.6992 22.3866 76.8576L23.3567 77.6983V78.0411C23.3243 78.2351 23.2564 78.6005 23.1529 79.1372C23.0495 79.6772 22.9848 80.0135 22.9622 80.1526L22.503 84.8444L24.8247 82.1962C25.1182 81.8385 25.3934 81.4662 25.6492 81.0806L25.1351 80.4339L25.8044 79.7872L26.7001 80.6505C27.0235 80.9319 27.3468 81.2035 27.6702 81.4654C27.9935 81.7273 28.2069 81.889 28.2975 81.9601Z" fill="#E5E5E5"/>
<path d="M31.5181 83.7481C31.7638 83.8807 31.9675 83.9842 32.1357 84.0715L35.1687 85.4781C35.2657 85.5233 35.4921 85.6074 35.8154 85.7303L36.5009 85.9696L36.6173 86.2703L35.8833 88.0714L35.0394 87.748C35.1623 87.3664 35.2334 87.1272 35.2496 87.0302C35.269 86.9232 35.269 86.8137 35.2496 86.7068C34.9618 86.5387 34.6708 86.3835 34.3797 86.2509L33.151 85.6882C32.8697 86.2153 32.7145 86.5128 32.6821 86.5839L31.9287 88.2007C31.9999 88.2427 32.0969 88.2912 32.2165 88.3494L32.8632 88.6437C32.9662 88.6909 33.0749 88.7245 33.1866 88.7439C33.2607 88.7617 33.3367 88.7704 33.4129 88.7698L33.8527 88.094L34.5252 88.482L34.079 89.4165C33.9367 89.7237 33.8042 90.0179 33.6845 90.296C33.5649 90.5741 33.4841 90.7649 33.4452 90.8684L32.6918 90.5967L32.902 89.8692L32.5787 89.6784C32.4567 89.6011 32.3304 89.5309 32.2003 89.4682L31.8511 89.3066C31.67 89.2225 31.5504 89.1708 31.4922 89.1514L30.8455 90.5353C30.6838 90.8802 30.5092 91.2844 30.3217 91.7479L31.7347 92.3946C32.029 92.5333 32.3367 92.6416 32.653 92.7179C32.8123 92.605 32.9597 92.476 33.0928 92.3331C33.2479 92.1487 33.3936 91.9566 33.5293 91.7576L34.2924 92.1779L33.1995 94.0889L32.8762 94.1924C32.7662 94.131 32.5754 94.0307 32.307 93.8949C32.0387 93.7591 31.8026 93.6395 31.6086 93.5489L28.4171 92.068C28.139 91.9484 27.8933 91.8449 27.6799 91.7608C27.4665 91.6767 27.321 91.6185 27.2466 91.5927L27.5699 90.7778L28.3816 90.9848C28.4236 90.933 28.5141 90.794 28.6499 90.5709C28.7545 90.4056 28.8505 90.235 28.9377 90.06L30.7711 86.1118C30.9772 85.6997 31.1366 85.2659 31.2465 84.8184L30.5739 84.3431L31.0233 83.5186C31.1171 83.5412 31.2723 83.6285 31.5181 83.7481Z" fill="#E5E5E5"/>
<path d="M50.7802 90.186C50.6475 90.3765 50.5327 90.5789 50.4375 90.7907L47.4756 97.2739L46.056 97.1025L45.086 91.6767L42.7999 96.7177L41.3804 96.5496L39.9609 89.1287C39.9344 88.977 39.8954 88.8277 39.8444 88.6824C39.7992 88.5499 39.7668 88.4658 39.7571 88.4302L39.0264 88.2265L39.188 87.3696L39.6698 87.4634C39.9156 87.5087 40.1355 87.5442 40.3165 87.5669C40.9018 87.6348 41.445 87.6897 41.9333 87.735L42.9034 87.8126L42.8549 88.7212L42.0368 88.7406C42.0368 88.773 42.0368 88.8538 42.0077 88.9864C41.9899 89.1195 41.9899 89.2543 42.0077 89.3873L42.5929 94.0954L44.9308 88.4949L46.3277 88.663L47.2622 94.6483L49.0762 90.0567C49.1148 89.964 49.1388 89.8658 49.1473 89.7657C49.1498 89.7258 49.1498 89.6859 49.1473 89.646V89.5878L48.3745 89.3421L48.5426 88.4852C48.6332 88.5046 48.8207 88.5402 49.1053 88.5887C49.3898 88.6372 49.655 88.6792 49.8975 88.7083C50.3243 88.7568 50.7123 88.7956 51.0615 88.8215C51.4108 88.8473 51.6306 88.8603 51.7083 88.8635L51.6597 89.7721L51.0324 89.7883C51.0098 89.8465 50.9193 89.9791 50.7802 90.186Z" fill="#E5E5E5"/>
<path d="M56.7848 94.9038C56.8562 95.0707 56.9463 95.229 57.0531 95.3759C57.5012 95.5189 57.9775 95.55 58.4403 95.4664C58.7682 95.4195 59.0715 95.2661 59.3037 95.0299C59.4071 94.9202 59.4814 94.7865 59.5198 94.6407C59.5582 94.495 59.5595 94.342 59.5236 94.1956C59.4836 93.9645 59.3702 93.7525 59.2002 93.5909C59.0232 93.4309 58.8167 93.3068 58.5923 93.2256C58.3595 93.1383 58.0361 93.0348 57.6222 92.9216C57.181 92.8038 56.7488 92.6547 56.3288 92.4754C55.9721 92.3157 55.6519 92.0846 55.3879 91.7963C55.0868 91.4536 54.8904 91.0316 54.822 90.5805C54.7256 90.1247 54.7684 89.6504 54.9449 89.2192C55.126 88.7943 55.4257 88.4305 55.8082 88.1716C56.2398 87.8786 56.7295 87.6823 57.2439 87.596C58.1615 87.4379 59.0973 87.415 60.0215 87.5281L60.2996 89.9241L59.2713 90.0567L59.1 89.1546C59.039 89.0163 58.9631 88.8851 58.8736 88.7633C58.7068 88.7057 58.5345 88.6656 58.3595 88.6437C58.1813 88.6255 58.0015 88.6342 57.826 88.6695C57.5027 88.7142 57.2042 88.8669 56.9788 89.1028C56.8863 89.2102 56.8205 89.338 56.7867 89.4757C56.753 89.6133 56.7523 89.757 56.7848 89.895C56.8246 90.1088 56.9392 90.3013 57.1081 90.4383C57.286 90.5783 57.486 90.6876 57.6998 90.7616C57.9262 90.8457 58.2366 90.9395 58.6279 91.0494C59.0703 91.1752 59.5044 91.3286 59.9277 91.5086C60.2962 91.6565 60.6274 91.8839 60.8978 92.1747C61.1992 92.5075 61.397 92.9211 61.4669 93.3646C61.5735 93.8702 61.5215 94.3964 61.3182 94.8714C61.1066 95.336 60.7709 95.7332 60.3481 96.0193C59.8864 96.3371 59.3613 96.5512 58.8089 96.6466C58.3489 96.737 57.8809 96.7803 57.4121 96.776C57.0385 96.7765 56.6654 96.7473 56.2965 96.6887C56.1433 96.6684 55.9919 96.636 55.8438 96.5917L55.5819 94.1924L56.6101 94.063L56.7848 94.9038Z" fill="#E5E5E5"/>
<path d="M66.7345 84.5988L67.2454 85.4751L66.5728 85.889C66.6084 86.0216 66.6601 86.1897 66.7313 86.387C66.8024 86.5842 66.8671 86.7427 66.9188 86.8461L68.8589 90.749C69.0796 91.1786 69.328 91.5934 69.6027 91.9907L70.3205 91.7223L70.6794 92.5986C70.5759 92.6406 70.3173 92.7538 69.9098 92.9381C69.5024 93.1224 69.04 93.3423 68.5194 93.601C68.2995 93.7109 68.0829 93.8273 67.8727 93.9502L67.4782 94.1862L67.0255 93.449L67.6722 92.964C67.6593 92.9165 67.6076 92.7646 67.517 92.508C67.4558 92.3185 67.3835 92.1328 67.3004 91.9519L65.3603 88.0522C65.2226 87.7666 65.0648 87.491 64.8882 87.2277C64.7362 87.0078 64.6521 86.8849 64.6424 86.8655L63.8858 87.0757L63.5269 86.2059C63.5883 86.1865 63.7306 86.1283 63.9569 86.0345C64.1833 85.9407 64.4031 85.8405 64.623 85.7306C65.1469 85.4719 65.5931 85.2326 66.0005 85.0192C66.4079 84.8058 66.6375 84.657 66.7345 84.5988ZM75.271 90.3189L74.9056 89.4459L74.3365 89.6399C73.8289 89.5009 73.5282 89.4103 73.4311 89.3683L71.0771 88.3465L69.8096 87.8065L70.2752 85.1259C70.3722 84.7702 70.5145 84.3434 70.6923 83.8325L71.31 83.4445L70.8055 82.5649L70.2203 82.8883C69.8969 83.0629 69.4895 83.2763 68.9786 83.535C68.7522 83.6493 68.5259 83.757 68.2995 83.8584L67.863 84.033L68.2252 84.8995L68.61 84.7928L68.5776 85.5269L68.0118 88.9318L69.441 89.6108C70.1524 89.9341 70.5856 90.1443 70.7344 90.209C70.8831 90.2737 71.3197 90.5323 71.8952 90.8977L71.5072 91.2049L71.9502 91.9583C72.0052 91.9228 72.1345 91.8419 72.3414 91.7223C72.5484 91.6026 72.7586 91.4895 72.9882 91.3795C73.512 91.1165 73.9927 90.8859 74.4303 90.6876L75.271 90.3189Z" fill="#E5E5E5"/>
<path d="M79.038 76.9577C79.038 77.0482 79.0574 77.2455 79.08 77.543C79.0957 77.7872 79.127 78.0302 79.1738 78.2705L80.1956 82.2768L80.6709 82.8071C80.9946 83.1659 81.3436 83.5008 81.7153 83.8095L82.3621 83.331L82.9441 84.0747L82.2974 84.6179C81.9482 84.9089 81.5537 85.2495 81.1139 85.6397C80.9361 85.8014 80.755 85.9631 80.5739 86.1571C80.3928 86.3511 80.2764 86.461 80.2247 86.5192L79.5974 85.9113L80.1115 85.2485L79.8367 84.8507C79.7259 84.6858 79.606 84.5271 79.4777 84.3754L78.7631 83.5767L74.3817 82.002C74.219 81.952 74.0506 81.9227 73.8805 81.9147C73.6833 81.9147 73.5572 81.8953 73.4925 81.8985L72.8458 82.3124L72.3123 81.6204C72.3705 81.5784 72.4998 81.4814 72.697 81.3262C72.8943 81.171 73.0624 81.0319 73.2047 80.9026C73.6358 80.5103 74.0368 80.1416 74.4076 79.7967C74.773 79.4507 75.0026 79.2276 75.0996 79.1306L75.7463 79.7773L75.3259 80.3076L75.5716 80.4661C75.6823 80.5351 75.7979 80.5956 75.9176 80.6471L78.6144 81.698L77.8028 78.7329C77.7749 78.6564 77.7308 78.5869 77.6734 78.5292C77.5991 78.4354 77.5473 78.3772 77.5215 78.3481L77.0332 78.5745L76.5029 77.8825L76.9556 77.5268C77.1819 77.3457 77.3824 77.1743 77.5667 77.0127C77.8901 76.7281 78.1714 76.4597 78.4204 76.2172C78.6694 75.9747 78.8278 75.8163 78.8925 75.7451L79.5392 76.3918L79.038 76.9577Z" fill="#E5E5E5"/>
<path fill-rule="evenodd" clip-rule="evenodd" d="M83.0798 19.9926L83.8656 20.5714L83.2868 21.3571L83.4323 22.324L82.4687 22.4695L81.8899 23.2552L81.1041 22.6764L80.1373 22.8252L79.9918 21.8583L79.2061 21.2795L79.7849 20.4938L79.6361 19.5302L80.6029 19.3814L81.1817 18.5957L81.9675 19.1745L82.9311 19.029L83.0798 19.9926Z" fill="#E5E5E5"/>
<path fill-rule="evenodd" clip-rule="evenodd" d="M20.1587 19.9926L20.9444 20.5714L20.3656 21.3571L20.5111 22.324L19.5475 22.4695L18.9687 23.2552L18.183 22.6764L17.2162 22.8252L17.0707 21.8583L16.2849 21.2795L16.8637 20.4938L16.715 19.5302L17.6818 19.3814L18.2606 18.5957L19.0463 19.1745L20.0099 19.029L20.1587 19.9926Z" fill="#E5E5E5"/>
<path fill-rule="evenodd" clip-rule="evenodd" d="M15.0854 71.613L15.8712 72.1886L15.2924 72.9776L15.4379 73.9411L14.4743 74.0867L13.8955 74.8724L13.1098 74.2936L12.1429 74.4423L11.9974 73.4755L11.2117 72.8967L11.7905 72.111L11.6417 71.1474L12.6086 70.9986L13.1874 70.2129L13.9731 70.7917L14.9367 70.6462L15.0854 71.613Z" fill="#E5E5E5"/>
<path fill-rule="evenodd" clip-rule="evenodd" d="M88.1533 71.613L88.9391 72.1886L88.3602 72.9776L88.5058 73.9411L87.5422 74.0867L86.9634 74.8724L86.1776 74.2936L85.2108 74.4423L85.0653 73.4755L84.2795 72.8967L84.8583 72.111L84.7128 71.1474L85.6764 70.9986L86.2552 70.2129L87.041 70.7917L88.0078 70.6462L88.1533 71.613Z" fill="#E5E5E5"/>
</g>
<defs>
<clipPath id="clip0_1271_364">
<rect width="100" height="100" fill="white" transform="translate(0.0751953)"/>
</clipPath>
</defs>
</svg>
