<svg width="220" height="60" viewBox="0 0 220 60" fill="none" xmlns="http://www.w3.org/2000/svg">
<path d="M73.2163 29.2173V8.62862H86.9689V10.1457C86.9689 11.6936 85.6008 12.9489 83.9131 12.9489H78.7115V17.2679H85.557V18.7308C85.557 20.3086 84.1624 21.587 82.4422 21.587H78.7115V29.2173H73.2163Z" fill="#E5E5E5"/>
<path d="M90.0776 29.2173V8.62862H97.8959C99.8849 8.62862 101.34 8.79187 102.261 9.11876C103.559 9.57695 104.574 10.3217 105.307 11.3487C106.039 12.3768 106.404 13.6288 106.404 15.1078C106.404 16.259 106.112 17.3581 105.527 18.404C104.94 19.4514 104.113 20.2237 103.046 20.7233V20.7807C103.254 21.03 103.537 21.4426 103.894 22.0188L108.258 29.2173H102.135L98.1469 22.2764H95.5733V29.2173H90.0776ZM95.5733 17.9574H97.9595C98.8586 17.9574 99.5596 17.7379 100.063 17.2954C100.565 16.855 100.816 16.2312 100.816 15.4249C100.816 14.2908 100.376 13.5609 99.4985 13.2352C99.0163 13.0441 98.3252 12.9489 97.4253 12.9489H95.5733V17.9574Z" fill="#E5E5E5"/>
<path d="M110.739 29.2173V8.62862H124.806V12.9489H116.234V16.6909H123.079V21.0099H116.234V24.8982H125.246V29.2173H110.739Z" fill="#E5E5E5"/>
<path d="M128.762 29.2173V8.62862H142.829V12.9489H134.257V16.6909H141.102V21.0099H134.257V24.8982H143.269V29.2173H128.762Z" fill="#E5E5E5"/>
<path d="M146.783 29.2173V8.62862H154.759C158.316 8.62862 161.137 9.53462 163.22 11.3487C165.304 13.1642 166.346 15.6742 166.346 18.8806C166.346 22.1046 165.304 24.6338 163.22 26.4671C161.137 28.3007 158.316 29.2173 154.759 29.2173H146.783ZM152.279 24.8982H154.539C156.464 24.8982 157.967 24.3804 159.044 23.3439C160.124 22.3072 160.661 20.8188 160.661 18.8806C160.661 16.9603 160.118 15.4917 159.03 14.4742C157.94 13.4558 156.444 12.9489 154.539 12.9489H152.279V24.8982Z" fill="#E5E5E5"/>
<path d="M168.7 18.7934C168.7 15.7974 169.799 13.2989 171.997 11.2905C174.195 9.28539 177.009 8.28148 180.444 8.28148C183.876 8.28148 186.691 9.28539 188.89 11.2905C191.089 13.2989 192.186 15.7974 192.186 18.7934C192.186 21.8639 191.089 24.4272 188.89 26.482C186.691 28.5362 183.876 29.562 180.444 29.562C177.009 29.562 174.195 28.5362 171.997 26.482C169.799 24.4272 168.7 21.8639 168.7 18.7934ZM174.382 18.7934C174.382 20.5601 174.952 22.0272 176.093 23.1997C177.234 24.3686 178.685 24.9555 180.444 24.9555C182.201 24.9555 183.651 24.3686 184.791 23.1997C185.932 22.0272 186.503 20.5601 186.503 18.7934C186.503 17.1045 185.932 15.6965 184.791 14.5731C183.651 13.4506 182.201 12.8904 180.444 12.8904C178.685 12.8904 177.234 13.4506 176.093 14.5731C174.952 15.6965 174.382 17.1045 174.382 18.7934Z" fill="#E5E5E5"/>
<path d="M194.792 29.2173L196.644 8.62862H202.611L205.876 17.3241L207.006 20.7233H207.07C207.489 19.3411 207.864 18.2067 208.2 17.3241L211.464 8.62862H217.431L219.253 29.2173H213.759L213.067 19.9445C213.024 19.4842 213.004 18.9663 213.004 18.3904C213.004 17.813 213.014 17.3537 213.035 17.0068L213.067 16.4903H213.004C212.501 17.9299 212.083 19.0811 211.749 19.9445L209.393 25.906H204.684L202.329 19.9445L201.072 16.4903H201.009C201.092 17.7569 201.092 18.908 201.009 19.9445L200.319 29.2173H194.792Z" fill="#E5E5E5"/>
<path d="M77.223 42.4474H79.1175C79.7629 42.4474 80.2586 42.2658 80.6037 41.9017C80.9489 41.5384 81.1214 41.0611 81.1214 40.4683C81.1214 39.8755 80.9527 39.4044 80.615 39.0542C80.2767 38.7037 79.8 38.5288 79.184 38.5288H77.223V42.4474ZM73.3691 49.9414V35.4989H79.91C81.4368 35.4989 82.6747 35.9638 83.6215 36.8932C84.5686 37.8222 85.0425 39.0139 85.0425 40.4683C85.0425 41.9357 84.5686 43.1377 83.6215 44.0739C82.6747 45.0092 81.4368 45.4777 79.91 45.4777H77.223V49.9414H73.3691Z" fill="#E5E5E5"/>
<path d="M91.3201 44.0834H94.4246L93.5444 41.2758L92.9053 38.7915H92.8616C92.6271 39.8415 92.4132 40.67 92.2233 41.2758L91.3201 44.0834ZM85.5049 49.9414L90.8569 35.4989H94.9101L100.262 49.9414H96.298L95.3279 46.9111H90.4168L89.4697 49.9414H85.5049Z" fill="#E5E5E5"/>
<path d="M105.174 49.9414V44.0228L99.9761 35.4989H104.359L106.143 38.9731L107.089 41.0543H107.134C107.428 40.3266 107.742 39.633 108.081 38.9731L109.843 35.4989H114.225L109.028 44.0228V49.9414H105.174Z" fill="#E5E5E5"/>
<path d="M22.6681 40.1478H32.4647C41.5795 40.1275 43.2713 35.6655 43.2713 30.1359V26.8675H22.6681V15.946H43.268C51.4286 15.8441 54.0794 11.461 54.0794 5.92963V15.8409C54.0794 48.9848 28.5015 57.1775 28.5015 57.1775C28.5015 57.1775 26.05 56.5094 22.6681 54.5696V40.1478ZM0 15.842C0 34.4979 7.40484 45.407 13.6164 51.2729C20.4772 57.7508 27.382 59.6754 27.6733 59.7543L28.5756 60L29.4615 59.7157C29.7472 59.6255 36.5645 57.4183 43.4108 50.7881C49.6115 44.7851 57.0036 33.8492 57.0036 15.842V-3.8147e-06H0V15.842Z" fill="#E5E5E5"/>
</svg>
