<svg width="235" height="66" viewBox="0 0 235 66" fill="none" xmlns="http://www.w3.org/2000/svg">
<g clip-path="url(#clip0_1271_444)">
<path fill-rule="evenodd" clip-rule="evenodd" d="M221.157 23.8706C229.108 23.8706 234.21 30.1518 232.936 37.7854H214.725C215.125 41.0979 217.887 43.1629 220.981 43.1606C223.795 43.1583 226.119 41.881 227.374 39.2925L232.403 41.8333C230.354 45.847 226.044 48.481 221.159 48.481C213.808 48.4424 208.696 42.9717 208.696 36.1758C208.696 29.38 213.848 23.9092 221.159 23.8706H221.157ZM227.232 33.6054C226.625 31.0534 223.87 29.182 221.071 29.182C218.275 29.182 215.602 30.976 214.912 33.6054H227.232Z" fill="#E5E5E5"/>
<path d="M202.344 24.5376L196.628 41.2526L190.952 24.5376H184.521L193.03 47.8117H200.268L208.776 24.5376H202.344Z" fill="#E5E5E5"/>
<path d="M175.342 47.8117H181.39V24.5376H175.342V47.8117Z" fill="#E5E5E5"/>
<path fill-rule="evenodd" clip-rule="evenodd" d="M175.342 15.522H181.392V21.5756H175.342V15.522Z" fill="#E5E5E5"/>
<path d="M162.63 27.0626L162.455 24.5401H156.843V47.812H162.892V37.7015C162.892 31.9917 167.235 29.5375 172.037 30.5915V24.3716C169.114 23.6409 164.823 24.0916 162.63 27.0626Z" fill="#E5E5E5"/>
<path d="M137.592 42.0564H132.938V23.9457H137.592C142.924 23.9457 146.689 27.6679 146.689 33.002C146.689 38.3363 142.924 42.0585 137.592 42.0585V42.0564ZM137.592 18.1903H126.885V47.8118H137.592C146.225 47.8118 152.74 41.4644 152.74 32.9999C152.74 24.5352 146.225 18.188 137.592 18.188V18.1924V18.1903Z" fill="#E5E5E5"/>
<path d="M105.908 26.9396L105.733 24.5353H100.121V47.8096H106.17V35.8367C106.17 28.6993 116.032 28.153 116.032 34.2657V47.8096H122.084V33.7262C122.084 23.2968 110.58 22.0219 105.908 26.9417V26.9396Z" fill="#E5E5E5"/>
<path d="M89.3843 47.8118H95.4355V24.5376H89.3843V47.8118Z" fill="#E5E5E5"/>
<path fill-rule="evenodd" clip-rule="evenodd" d="M89.384 15.522H95.4352V21.5756H89.384V15.522Z" fill="#E5E5E5"/>
<path d="M0.0751953 33C0.0751953 23.8387 0.0751953 19.2558 1.35239 15.57C3.67685 8.86982 8.94502 3.60165 15.6452 1.2772C19.331 0 23.9139 0 33.0752 0C42.2365 0 46.8194 0 50.5051 1.2772C57.2076 3.60165 62.4736 8.86755 64.7979 15.57C66.0752 19.2558 66.0752 23.8366 66.0752 33C66.0752 42.1634 66.0752 46.7442 64.7979 50.4299C62.4736 57.1324 57.2076 62.3984 50.5051 64.7227C46.8194 66 42.2386 66 33.0752 66C23.9118 66 19.331 66 15.6452 64.7227C8.94274 62.3984 3.67685 57.1324 1.35239 50.4299C0.0751953 46.7442 0.0751953 42.1634 0.0751953 33Z" fill="#E5E5E5"/>
<path fill-rule="evenodd" clip-rule="evenodd" d="M20.6822 15.647H20.6503C20.2269 15.647 19.8626 15.647 19.5689 15.6857C19.257 15.7267 18.9566 15.8223 18.7129 16.0659C18.4693 16.3095 18.3736 16.61 18.3327 16.9218C18.2939 17.2132 18.2939 17.5799 18.2939 18.0033V20.8536C18.2939 21.2772 18.2939 21.6413 18.3327 21.935C18.3759 22.2492 18.4693 22.5475 18.7129 22.7911C18.9566 23.0348 19.257 23.1303 19.5689 23.1712C19.8603 23.21 20.2269 23.21 20.6503 23.21H23.7079C24.1313 23.21 24.4956 23.21 24.7893 23.1712C25.1012 23.1303 25.4016 23.0348 25.6454 22.7911C25.8889 22.5475 25.9846 22.2471 26.0255 21.935C26.0643 21.6437 26.0643 21.2772 26.0643 20.8536V18.0033C26.0643 17.5799 26.0643 17.2155 26.0255 16.9218C25.9823 16.6077 25.8889 16.3095 25.6454 16.0659C25.4016 15.8223 25.1012 15.7267 24.7893 15.6857C24.4979 15.647 24.1313 15.647 23.7079 15.647H20.6822ZM20.6822 28.658H20.6503C20.2269 28.658 19.8626 28.658 19.5689 28.6967C19.257 28.74 18.9566 28.8334 18.7129 29.0769C18.4693 29.3204 18.3736 29.6211 18.3327 29.9329C18.2939 30.2243 18.2939 30.5909 18.2939 31.0143V47.9093C18.2939 48.3327 18.2939 48.6971 18.3327 48.9908C18.3759 49.3049 18.4693 49.6032 18.7129 49.8468C18.9566 50.0903 19.257 50.186 19.5689 50.2269C19.8603 50.2657 20.2269 50.2657 20.6503 50.2657H23.7079C24.1313 50.2657 24.4956 50.2657 24.7893 50.2269C25.1012 50.1837 25.4016 50.0903 25.6454 49.8468C25.8889 49.6032 25.9846 49.3026 26.0255 48.9908C26.0643 48.6994 26.0643 48.3327 26.0643 47.9093V31.0143C26.0643 30.5909 26.0643 30.2266 26.0255 29.9329C25.9823 29.6188 25.8889 29.3204 25.6454 29.0769C25.4016 28.8334 25.1012 28.7377 24.7893 28.6967C24.4979 28.658 24.1313 28.658 23.7079 28.658H20.6822ZM34.078 15.647H37.4429C47.4214 15.647 54.9822 23.0188 54.9822 32.9585C54.9822 42.8985 47.4214 50.2702 37.4429 50.2702H34.078C33.6546 50.2702 33.2903 50.2702 32.9966 50.2315C32.6824 50.1883 32.3841 50.0949 32.1406 49.8514C31.897 49.6077 31.8013 49.3072 31.7604 48.9954C31.7216 48.704 31.7216 48.3374 31.7216 47.914V45.1319C31.7216 44.7083 31.7216 44.3442 31.7604 44.0505C31.8013 43.7363 31.897 43.438 32.1406 43.1945C32.3841 42.9508 32.6847 42.8552 32.9966 42.8141C33.288 42.7755 33.6546 42.7755 34.078 42.7755H37.4429C40.3297 42.7755 42.7658 41.7601 44.4799 40.0413C46.1943 38.3247 47.212 35.8751 47.212 32.9608C47.212 30.0468 46.192 27.5972 44.4799 25.8805C42.7658 24.1617 40.3297 23.1463 37.4452 23.1463H34.0803C33.6568 23.1463 33.2926 23.1463 32.9989 23.1075C32.6847 23.0666 32.3864 22.9709 32.1429 22.7274C31.8993 22.4838 31.8036 22.1832 31.7627 21.8714C31.724 21.58 31.724 21.2133 31.724 20.7899V18.0079C31.724 17.5845 31.724 17.2202 31.7627 16.9265C31.8036 16.6123 31.8993 16.314 32.1429 16.0704C32.3864 15.8268 32.6871 15.7312 32.9989 15.6902C33.2903 15.6515 33.6568 15.6515 34.0803 15.6515L34.078 15.647Z" fill="white"/>
</g>
<defs>
<clipPath id="clip0_1271_444">
<rect width="234.3" height="66" fill="white" transform="translate(0.0751953)"/>
</clipPath>
</defs>
</svg>
