<svg width="145" height="66" viewBox="0 0 145 66" fill="none" xmlns="http://www.w3.org/2000/svg">
<path d="M126.201 37.5478H133.688V44.4845C132.314 45.0064 129.617 45.5285 127.061 45.5285C118.78 45.5285 116.026 41.3414 116.026 32.8387C116.026 24.7241 118.648 19.9488 126.921 19.9488C131.531 19.9488 134.147 21.3898 136.315 24.1375L142.036 18.9029C138.543 13.9416 132.446 12.438 126.722 12.438C113.852 12.4329 107.085 19.4251 107.085 32.771C107.085 46.0507 113.199 53.2495 126.653 53.2495C132.831 53.2495 138.868 51.6833 142.156 49.3879V30.1548H126.201L126.201 37.5478ZM86.9308 44.9408H105.983V52.6606H77.7363V13.0198H86.9315L86.9308 44.9408Z" fill="#E5E5E5"/>
<path d="M54.9469 54.6792C66.9658 42.7078 66.9651 23.2968 54.9457 11.328C42.9263 -0.642931 23.4388 -0.644371 11.4225 11.3269C-0.596464 23.298 -0.595741 42.7092 11.4237 54.678C23.4429 66.65 42.9306 66.6503 54.9469 54.6792Z" fill="#E5E5E5"/>
<path d="M23.8472 27.0238C24.549 27.0205 25.234 26.81 25.8159 26.4191C26.3976 26.0284 26.8501 25.4747 27.1162 24.8279C27.3825 24.1812 27.4504 23.4702 27.3114 22.7852C27.1722 22.1 26.8326 21.4713 26.3353 20.9783C25.8377 20.4853 25.2048 20.1499 24.5162 20.0148C23.8279 19.8797 23.1145 19.9508 22.4666 20.219C21.8184 20.4874 21.2647 20.9408 20.8752 21.5223C20.4857 22.1037 20.278 22.787 20.278 23.4859C20.2789 23.9517 20.3722 24.4127 20.5522 24.8425C20.7323 25.2724 20.9955 25.6628 21.3268 25.9912C21.6584 26.3197 22.0516 26.5801 22.4839 26.7572C22.9164 26.9345 23.3796 27.025 23.8472 27.0238ZM56.3999 33.9742H40.7488V31.665H58.6937C58.7182 32.1123 58.7304 32.5594 58.7304 33.0119C58.7304 46.9166 47.3531 58.1879 33.322 58.1879C19.2903 58.1879 7.91113 46.9235 7.91113 33.0119C7.91113 19.1015 19.2867 7.83594 33.3196 7.83594C33.69 7.83594 34.0586 7.8434 34.4254 7.85852V10.1504C34.0586 10.1341 33.6911 10.1261 33.3229 10.1261C20.5691 10.1261 10.2262 20.3726 10.2262 33.0096C10.2262 45.6468 20.5676 55.8953 33.3229 55.8953C45.7276 55.8953 55.8616 46.2005 56.398 34.0385L56.3999 33.9742ZM40.7131 43.5946H34.4233V20.0571H32.0979V45.9195H34.4286V45.904H40.7185L40.7131 43.5946Z" fill="white"/>
</svg>
