<svg width="169" height="49" viewBox="0 0 169 49" fill="none" xmlns="http://www.w3.org/2000/svg">
<g clip-path="url(#clip0_1271_456)">
<path d="M49.3691 48.1712H58.5852C59.5267 48.1712 60.4296 47.798 61.0953 47.1338C61.761 46.4695 62.135 45.5686 62.135 44.6292V43.8473C63.0452 45.2048 64.2828 46.3122 65.7341 47.0678C67.1853 47.8234 68.8036 48.2028 70.4402 48.1712H78.2967C79.2382 48.1712 80.1411 47.798 80.8068 47.1338C81.4725 46.4695 81.8465 45.5686 81.8465 44.6292V44.3218C85.0472 47.1058 89.1474 48.6435 93.3935 48.6524C95.7774 48.651 98.1373 48.1777 100.337 47.26C102.536 46.3423 104.531 44.9983 106.206 43.3059V44.6426C106.205 45.1083 106.297 45.5696 106.475 46.0001C106.653 46.4306 106.914 46.8219 107.244 47.1515C107.573 47.4811 107.965 47.7426 108.396 47.921C108.827 48.0994 109.289 48.1913 109.756 48.1913H119.448C119.962 48.1872 120.47 48.0708 120.935 47.8504C121.401 48.0731 121.911 48.1895 122.428 48.1913H132.086C132.559 48.1967 133.028 48.1076 133.466 47.9294C133.903 47.7513 134.301 47.4875 134.635 47.1537C134.969 46.8199 135.232 46.4228 135.41 45.9858C135.588 45.5488 135.676 45.0807 135.67 44.6091V43.9408C137.965 46.2154 140.874 47.7755 144.041 48.4316C147.209 49.0877 150.499 48.8115 153.513 47.6366C154.059 47.9767 154.69 48.1595 155.334 48.1645H164.845C165.788 48.1645 166.693 47.7907 167.36 47.1251C168.027 46.4596 168.402 45.557 168.402 44.6158V16.1459C168.403 15.254 168.066 14.3947 167.458 13.7403C166.851 13.0858 166.018 12.6847 165.127 12.6173H164.772V12.3633C164.795 11.7567 164.695 11.1517 164.479 10.5844C164.262 10.0171 163.933 9.49928 163.512 9.06187C163.09 8.62447 162.584 8.2765 162.024 8.03882C161.464 7.80114 160.862 7.67863 160.254 7.67863C159.646 7.67863 159.043 7.80114 158.484 8.03882C157.924 8.2765 157.418 8.62447 156.996 9.06187C156.574 9.49928 156.245 10.0171 156.029 10.5844C155.812 11.1517 155.713 11.7567 155.736 12.3633V12.6039H155.354C154.612 12.6073 153.889 12.8408 153.285 13.2722C151.397 12.479 149.372 12.0635 147.324 12.0492C142.955 12.0712 138.77 13.804 135.67 16.8744V3.65526C135.67 3.18698 135.577 2.72332 135.396 2.29102C135.216 1.85872 134.952 1.46632 134.619 1.13644C134.286 0.806561 133.89 0.545724 133.456 0.368964C133.021 0.192205 132.556 0.103018 132.086 0.106546H122.428C121.912 0.110745 121.402 0.227046 120.935 0.447383C120.468 0.224766 119.958 0.108348 119.441 0.106546H109.756C108.813 0.106546 107.908 0.480427 107.241 1.14594C106.574 1.81145 106.2 2.71408 106.2 3.65526V16.4333C104.532 14.7291 102.54 13.3737 100.342 12.4465C98.1427 11.5193 95.7806 11.0389 93.3935 11.0334C89.225 11.0327 85.191 12.5054 82.0073 15.1902C81.8086 14.4422 81.3667 13.7811 80.7509 13.3107C80.1352 12.8402 79.3804 12.5869 78.6048 12.5905H76.6759V6.57576C76.6749 5.99768 76.5324 5.4286 76.2608 4.91799C75.9891 4.40738 75.5966 3.97072 75.1173 3.64596C74.638 3.32121 74.0865 3.11821 73.5107 3.0546C72.9348 2.991 72.3521 3.06872 71.8133 3.28101L62.5302 6.9567C61.87 7.21988 61.304 7.67444 60.9052 8.26173C60.5065 8.84902 60.2933 9.54208 60.2931 10.2515V12.5905H60.119C59.8572 12.5907 59.5964 12.6222 59.342 12.6841C59.0936 12.6281 58.8399 12.5989 58.5852 12.5972H47.3597C46.8448 12.598 46.3365 12.7145 45.8728 12.9381C45.4038 12.7161 44.8916 12.5998 44.3725 12.5972H32.3166C31.6308 12.5972 30.9598 12.7954 30.3845 13.1678C29.8092 13.5402 29.3543 14.0709 29.0749 14.6957C27.4629 13.4976 25.6143 12.6547 23.6515 12.2227C21.6886 11.7906 19.6562 11.7793 17.6887 12.1895C16.7749 12.4444 15.8798 12.7615 15.0096 13.1385C14.4465 12.7887 13.7974 12.6013 13.1342 12.5972H3.93145C3.46391 12.5954 3.00063 12.686 2.56834 12.8637C2.13604 13.0415 1.74327 13.3028 1.41267 13.6327C1.08206 13.9625 0.820158 14.3545 0.642054 14.7858C0.46395 15.2172 0.373167 15.6794 0.374938 16.1459V44.6091C0.35968 45.0674 0.43688 45.524 0.601951 45.9519C0.767022 46.3798 1.0166 46.7703 1.33585 47.1001C1.65511 47.4298 2.03753 47.6922 2.46041 47.8716C2.88328 48.0511 3.33798 48.1438 3.79749 48.1445H15.887C16.4037 48.1403 16.9134 48.024 17.3806 47.8037C17.8507 48.0223 18.3622 48.1385 18.8809 48.1445H30.0929C30.5608 48.1445 31.024 48.0525 31.4562 47.8736C31.8883 47.6947 32.2809 47.4324 32.6113 47.1019C32.9127 46.7965 33.1556 46.4386 33.3279 46.046C34.9463 47.2494 36.8026 48.0958 38.7737 48.529C40.7448 48.9623 42.7857 48.9724 44.761 48.5588C45.6765 48.3097 46.5721 47.9925 47.4401 47.6098C48.0209 47.9664 48.6872 48.1603 49.3691 48.1712Z" fill="white"/>
<path fill-rule="evenodd" clip-rule="evenodd" d="M63.8295 37.7525V24.0121H60.1189V16.4001H63.8295V10.519L73.1126 6.82324V16.4001H78.598V24.0188H73.0992V35.2464C73.0992 36.9773 73.9699 37.6055 76.1266 37.6055H78.2966V44.9569H70.4402C66.2474 44.9569 63.8295 41.7624 63.8295 37.7859" fill="#E5E5E5"/>
<path d="M109.783 3.90918H119.481V44.9032H109.783V3.90918Z" fill="#E5E5E5"/>
<path fill-rule="evenodd" clip-rule="evenodd" d="M122.482 3.90234L132.14 3.90903V44.903H122.482V3.90234Z" fill="#E5E5E5"/>
<path fill-rule="evenodd" clip-rule="evenodd" d="M88.4907 26.8854C88.4907 25.1545 90.5402 22.8756 93.3801 22.8756C96.4611 22.8756 98.3766 25.4552 98.3766 26.8854H88.4907ZM107.753 33.7957C107.021 37.0589 105.205 39.9798 102.602 42.0854C99.9979 44.191 96.7581 45.358 93.4069 45.3975C85.2624 45.3975 78.8459 38.5875 78.8459 30.1401C78.8459 21.6926 85.2624 14.8091 93.4069 14.8091C101.551 14.8091 108.142 21.6659 108.142 30.1133C108.147 30.9258 108.085 31.7373 107.954 32.5393H88.2161C88.3279 33.8124 88.9196 34.9958 89.8719 35.8505C90.8242 36.7051 92.066 37.1674 93.3466 37.1439C94.3953 37.1405 95.418 36.8183 96.2784 36.2201C97.1388 35.6218 97.7959 34.7761 98.1623 33.7957H107.753Z" fill="#E5E5E5"/>
<path fill-rule="evenodd" clip-rule="evenodd" d="M49.3422 16.3999H58.565V44.9233H49.3489V42.1565C47.1118 44.3151 46.3282 44.7361 43.9907 45.4312C40.5145 46.2733 36.0672 44.6827 34.3861 42.377C33.0367 40.6184 32.3089 38.4635 32.3165 36.2486V16.3999H41.4991V33.1076C41.4991 35.988 43.0798 37.9328 45.4642 37.9328C47.6476 37.9328 49.3422 36.008 49.3422 33.1076V16.3999Z" fill="#E5E5E5"/>
<path fill-rule="evenodd" clip-rule="evenodd" d="M13.1007 44.8832H3.85107V16.3999H13.1007V19.1801C15.3377 17.0148 16.1214 16.5937 18.4589 15.892C21.9216 15.0433 26.3556 16.6405 28.0568 18.9529C29.3816 20.7227 30.1108 22.8657 30.1398 25.0746V44.8832H20.9036V28.1755C20.9036 25.3018 19.3497 23.3637 16.9452 23.3637C14.7751 23.3637 13.0806 25.2817 13.0806 28.1755V44.8832" fill="#E5E5E5"/>
<path fill-rule="evenodd" clip-rule="evenodd" d="M143.037 30.6148C143.07 29.3707 143.47 28.1639 144.187 27.1454C144.903 26.1268 145.905 25.3417 147.067 24.8882C148.228 24.4347 149.498 24.3329 150.717 24.5957C151.936 24.8584 153.051 25.474 153.921 26.3654C154.791 27.2568 155.379 28.3844 155.61 29.6073C155.842 30.8303 155.707 32.0941 155.222 33.2409C154.738 34.3876 153.925 35.3663 152.886 36.0547C151.847 36.743 150.627 37.1103 149.38 37.1108C147.676 37.0879 146.051 36.3908 144.861 35.1727C143.672 33.9547 143.016 32.3153 143.037 30.6148ZM133.66 30.6883C133.66 22.4882 139.816 15.8452 147.431 15.8452C150.365 15.9215 153.191 16.9649 155.468 18.8125V16.3999H164.939V44.9166H155.388V42.6176C153.379 44.6225 150.452 45.5181 147.351 45.5181C139.789 45.5515 133.614 38.8684 133.614 30.6883H133.66Z" fill="#E5E5E5"/>
<path fill-rule="evenodd" clip-rule="evenodd" d="M159.782 10.873H159.983C160.324 10.873 160.713 10.9064 160.713 11.3074C160.713 11.7084 160.324 11.7752 159.983 11.7752H159.782V10.873ZM159.112 13.6933H159.782V12.3032H159.976C160.284 12.3032 160.344 12.4035 160.451 12.644L160.847 13.6933H161.623L161.068 12.3901C161.007 12.2364 160.887 12.0559 160.713 12.0426C160.907 12.0256 161.088 11.9354 161.219 11.7902C161.35 11.645 161.42 11.4557 161.416 11.2606C161.416 10.3384 160.545 10.3584 159.815 10.3584H159.145L159.112 13.6933Z" fill="#E5E5E5"/>
<path d="M160.224 9.18897C159.662 9.18897 159.113 9.35516 158.646 9.66652C158.179 9.97789 157.815 10.4204 157.6 10.9382C157.385 11.456 157.329 12.0257 157.438 12.5754C157.548 13.1251 157.818 13.63 158.216 14.0263C158.613 14.4226 159.119 14.6924 159.67 14.8018C160.22 14.9111 160.791 14.855 161.31 14.6405C161.829 14.4261 162.273 14.0629 162.585 13.5969C162.897 13.1309 163.063 12.583 163.063 12.0226C163.064 11.6502 162.992 11.2814 162.849 10.9372C162.707 10.593 162.498 10.2803 162.234 10.017C161.97 9.75365 161.656 9.54497 161.311 9.40287C160.967 9.26078 160.597 9.18809 160.224 9.18897ZM160.224 14.5755C159.718 14.5755 159.223 14.4258 158.802 14.1453C158.381 13.8648 158.054 13.4661 157.86 12.9996C157.666 12.5331 157.616 12.0198 157.714 11.5245C157.813 11.0293 158.057 10.5744 158.414 10.2174C158.772 9.86036 159.228 9.61722 159.724 9.51872C160.221 9.42021 160.735 9.47077 161.203 9.66399C161.67 9.85722 162.07 10.1844 162.351 10.6043C162.632 11.0241 162.782 11.5177 162.782 12.0226C162.782 12.6997 162.513 13.349 162.033 13.8278C161.553 14.3066 160.902 14.5755 160.224 14.5755Z" fill="#E5E5E5"/>
</g>
<defs>
<clipPath id="clip0_1271_456">
<rect width="168" height="49" fill="white" transform="translate(0.375)"/>
</clipPath>
</defs>
</svg>
