<svg width="90" height="60" viewBox="0 0 90 60" fill="none" xmlns="http://www.w3.org/2000/svg">
<g clip-path="url(#clip0_1273_513)">
<mask id="mask0_1273_513" style="mask-type:luminance" maskUnits="userSpaceOnUse" x="0" y="0" width="90" height="60">
<path d="M89.3023 0H0V60H89.3023V0Z" fill="white"/>
</mask>
<g mask="url(#mask0_1273_513)">
<path d="M58.6268 55.3258H46.4985V4.20996H58.6268V55.3258ZM42.1268 29.7686C42.1268 33.9358 40.8911 38.0094 38.576 41.4743C36.2608 44.9392 32.9701 47.6398 29.1201 49.2345C25.2701 50.8292 21.0337 51.2465 16.9466 50.4335C12.8594 49.6205 9.10516 47.6138 6.1585 44.6671C3.21185 41.7205 1.20515 37.9662 0.392164 33.8791C-0.420818 29.7919 -0.00356566 25.5555 1.59116 21.7055C3.18588 17.8555 5.88644 14.5649 9.35135 12.2497C12.8163 9.93452 16.8899 8.6988 21.0571 8.6988C23.824 8.6988 26.5638 9.24378 29.1201 10.3026C31.6764 11.3615 33.9991 12.9135 35.9557 14.87C37.9122 16.8265 39.4642 19.1492 40.523 21.7055C41.5819 24.2618 42.1268 27.0016 42.1268 29.7686ZM27.4464 29.7686C27.4464 28.506 27.072 27.2718 26.3705 26.222C25.6691 25.1722 24.6721 24.3539 23.5056 23.8708C22.3391 23.3876 21.0556 23.2612 19.8173 23.5075C18.5789 23.7538 17.4415 24.3618 16.5487 25.2546C15.6559 26.1474 15.0479 27.2848 14.8016 28.5232C14.5553 29.7615 14.6817 31.045 15.1649 32.2115C15.648 33.378 16.4663 34.375 17.5161 35.0764C18.5659 35.7779 19.8001 36.1523 21.0627 36.1523C21.9012 36.1527 22.7316 35.9878 23.5065 35.6672C24.2813 35.3465 24.9854 34.8763 25.5784 34.2835C26.1715 33.6907 26.642 32.9868 26.963 32.2122C27.284 31.4375 27.4492 30.6071 27.4492 29.7686H27.4464ZM89.3036 16.9676H81.2385L76.5138 21.6923L71.7892 16.9676H63.7282V25.1583L68.3887 29.8188L63.7282 34.4807V42.5597H71.891L76.5082 37.9411L81.1241 42.5569H89.3022V34.4876L84.6403 29.8258L89.3022 25.1583L89.3036 16.9676Z" fill="#E5E5E5"/>
</g>
</g>
<defs>
<clipPath id="clip0_1273_513">
<rect width="89.3023" height="60" fill="white"/>
</clipPath>
</defs>
</svg>
