<svg width="248" height="69" viewBox="0 0 248 69" fill="none" xmlns="http://www.w3.org/2000/svg">
<g clip-path="url(#clip0_1391_22)">
<path fill-rule="evenodd" clip-rule="evenodd" d="M63.7695 43.1304H69.5056C71.7436 43.1304 72.5946 43.9044 72.5946 45.8002C72.5946 47.6256 71.7431 48.3987 69.5056 48.3987H63.7695V43.1304ZM54.8833 62.305H63.77V54.508H73.2885C79.5906 54.508 81.8596 50.7872 81.8596 45.9766C81.8596 40.3925 79.5265 37.2326 73.2244 37.2326H54.8833V62.305ZM84.7903 37.2326H108.708V43.3414H93.6769V46.7127H107.638V52.824H93.6769V56.1949H108.708V62.305H84.7903V37.2326ZM121.314 43.1304H127.05C129.287 43.1304 130.139 43.9044 130.139 45.8002C130.139 47.6256 129.287 48.3987 127.05 48.3987H121.314V43.1304ZM112.427 62.305H121.314V54.508H130.831C137.135 54.508 139.404 50.7872 139.404 45.9766C139.404 40.3925 137.071 37.2326 130.768 37.2326H112.427V62.305ZM148.006 51.6648C143.658 50.9261 141.863 48.117 141.863 44.6064C141.863 38.1089 147.567 36.3546 154.876 36.3546C164.896 36.3546 169.025 39.2682 169.341 44.5714H159.004C159.004 43.5528 158.468 42.9194 157.65 42.5687C156.862 42.1834 155.854 42.0432 154.876 42.0432C152.229 42.0432 151.316 42.7797 151.316 43.8341C151.316 44.5352 151.599 44.9934 152.481 45.1332L163.101 46.8883C167.576 47.6256 170.35 49.9433 170.35 54.1913C170.35 60.3035 165.875 63.183 155.884 63.183C149.046 63.183 141.577 62.1298 141.546 54.7552H152.261C152.291 55.5969 152.576 56.1587 153.207 56.5452C153.867 56.8969 154.844 57.0729 156.23 57.0729C159.003 57.0729 159.761 56.2294 159.761 55.0352C159.761 54.2978 159.35 53.5609 158.155 53.3513L148.006 51.6648ZM173.248 37.2326H182.134V62.305H173.248V37.2326ZM215.068 52.5427C214.501 55.8437 213.491 58.5126 211.285 60.338C209.112 62.1643 205.707 63.183 200.288 63.183C194.899 63.183 184.909 62.7606 184.909 49.7694C184.909 36.7757 194.899 36.3542 200.288 36.3542C205.644 36.3542 213.901 37.126 215.068 47.0652H205.047C204.794 45.2725 203.721 42.6744 200.288 42.6744C196.662 42.6744 194.362 44.6758 194.362 49.769C194.362 54.8609 196.6 56.861 199.846 56.861C202.651 56.861 204.321 55.562 205.046 52.5423H215.068V52.5427ZM226.696 49.7699C226.696 44.6763 228.997 42.6752 232.621 42.6752C236.245 42.6752 238.546 44.6767 238.546 49.7699C238.546 54.8617 236.245 56.8619 232.621 56.8619C228.997 56.8615 226.696 54.8613 226.696 49.7699ZM217.241 49.7699C217.241 62.7606 227.231 63.1834 232.621 63.1834C238.01 63.1834 248 62.761 248 49.7699C248 36.7761 238.01 36.3546 232.621 36.3546C227.231 36.3546 217.241 36.7757 217.241 49.7699ZM41.4552 37.4811C42.029 25.4521 31.6788 11.9057 17.5684 10.2313L17.5925 10.0669C31.5031 10.0669 42.1672 22.9739 42.1672 33.1564C42.1539 35.276 41.9868 36.5893 41.6889 37.5428L41.4552 37.4811ZM40.6123 39.0102C39.6868 40.1436 38.5228 41.2847 37.1591 42.3681C34.6503 27.9066 24.0474 15.261 16.5512 11.57L16.3906 11.6822C23.9294 17.8833 32.9211 29.927 36.4178 42.9354C34.6342 44.2486 32.7076 45.3544 30.6749 46.2316C23.5609 38.1007 16.9287 22.4195 14.7914 12.4687L14.574 12.5343C14.6222 22.1934 21.4646 38.5908 29.8088 46.5919C27.895 47.3509 25.9055 47.9018 23.8743 48.2352C15.8757 45.0594 10.1823 34.8877 10.1823 24.468C10.1823 17.6659 12.2516 13.458 12.6519 12.5969L12.4815 12.5291C11.9972 13.2634 8.96582 17.4691 8.96582 24.8127C8.96582 36.5906 14.7613 45.5931 22.4555 48.4281C19.704 48.7314 16.9221 48.6005 14.2111 48.0402L14.1539 48.2197C14.9769 48.5234 17.7694 49.6983 22.0293 49.6983C31.6646 49.6983 38.178 43.6982 40.8 39.1374L40.6123 39.0102Z" fill="#E5E5E5"/>
<path fill-rule="evenodd" clip-rule="evenodd" d="M21.0662 5.81689C13.7619 5.81689 5.19727 11.1003 5.19727 15.9299C5.19727 17.798 6.90236 19.3762 10.4314 19.3762C18.6237 19.3762 26.2348 13.7351 26.2348 9.34868C26.2348 7.04046 24.0231 5.81689 21.0662 5.81689ZM23.9822 9.21234C23.9822 12.9098 16.8979 17.4296 10.9759 17.4296C8.35951 17.4296 6.94584 16.3976 6.94584 14.6947C6.94584 10.9441 14.1106 6.50116 19.6654 6.50116C23.287 6.50116 23.9822 8.34816 23.9822 9.21234Z" fill="#E5E5E5"/>
<path fill-rule="evenodd" clip-rule="evenodd" d="M2.28681 18.1662C2.08148 18.5221 1.25928 20.1357 1.25928 21.789C1.25928 24.8553 4.35049 27.7019 10.0362 27.7019C20.974 27.7019 33.6109 19.6327 33.6109 12.1424C33.6109 8.78018 30.4353 6.95216 28.2304 6.57422L28.1891 6.70538C28.8749 6.92282 31.3871 8.09332 31.3871 11.0884C31.3871 17.0565 20.2297 25.1883 9.11581 25.1883C4.86103 25.1883 2.18049 23.0833 2.18049 20.0171C2.18049 19.0472 2.38195 18.4082 2.43532 18.2231L2.28681 18.1662Z" fill="#E5E5E5"/>
<path fill-rule="evenodd" clip-rule="evenodd" d="M38.1208 12.7021C38.4208 12.9304 40.2223 14.4352 40.2223 17.281C40.2223 26.9842 25.0534 36.5255 11.6429 36.5255C3.64561 36.5255 -4.82798e-05 32.5679 0.161378 29.0538H0.304725C0.618108 30.8788 3.21471 34.1444 10.2142 34.1444C23.6414 34.1444 38.6334 24.2717 38.6334 15.6217C38.6334 14.138 38.2314 13.2134 38.0041 12.8022L38.1208 12.7021Z" fill="#E5E5E5"/>
<path fill-rule="evenodd" clip-rule="evenodd" d="M43.1908 21.7607C43.2537 21.9674 43.5804 22.8963 43.5804 24.3511C43.5804 35.1449 28.2294 44.3855 14.8783 44.3855C8.00668 44.3855 4.41827 41.0401 3.66064 39.6815L3.7829 39.5909C5.68429 41.2576 9.42939 42.5239 13.8 42.5239C25.5914 42.5239 43.1861 33.5326 43.0289 21.8L43.1908 21.7607Z" fill="#E5E5E5"/>
</g>
<defs>
<clipPath id="clip0_1391_22">
<rect width="248" height="69" fill="white"/>
</clipPath>
</defs>
</svg>
