<svg width="117" height="66" viewBox="0 0 117 66" fill="none" xmlns="http://www.w3.org/2000/svg">
<g clip-path="url(#clip0_1271_323)">
<path d="M116.899 0H0.428223V66H116.899V0Z" fill="#E5E5E5"/>
<path d="M31.0043 21.8897C27.6379 21.9546 22.8472 22.1301 22.8472 22.1301C22.7127 22.1351 22.5852 22.1919 22.4912 22.2887C22.3972 22.3855 22.3439 22.5149 22.3423 22.6501V43.2917C22.3423 43.3682 22.3574 43.444 22.3868 43.5146C22.4161 43.5852 22.4591 43.6493 22.5133 43.7031C22.5675 43.7568 22.6318 43.7993 22.7025 43.828C22.7731 43.8567 22.8487 43.871 22.9249 43.8702H26.6021C26.6783 43.871 26.7539 43.8567 26.8245 43.828C26.8952 43.7993 26.9595 43.7568 27.0137 43.7031C27.0679 43.6493 27.1109 43.5852 27.1402 43.5146C27.1696 43.444 27.1847 43.3682 27.1847 43.2917V36.396C27.1847 36.3329 27.1973 36.2704 27.222 36.2123C27.2466 36.1542 27.2827 36.1017 27.328 36.058C27.3734 36.0143 27.4271 35.9803 27.4859 35.9579C27.5447 35.9356 27.6074 35.9254 27.6702 35.9281C28.1882 35.9281 29.1657 35.9801 31.0043 35.9801C35.4065 35.9801 38.0478 32.9904 38.0478 28.9413C38.0478 24.8923 35.387 21.7987 31.0043 21.8897ZM29.7095 32.373C28.6219 32.373 27.981 32.373 27.612 32.373C27.4918 32.3679 27.3781 32.3164 27.2949 32.2292C27.2116 32.142 27.1652 32.0258 27.1653 31.905V25.9972C27.1652 25.8764 27.2116 25.7602 27.2949 25.673C27.3781 25.5858 27.4918 25.5343 27.612 25.5292C27.981 25.5292 28.6219 25.5292 29.7095 25.5292C32.3573 25.5292 33.8398 26.6211 33.8398 28.9738C33.8398 31.3266 32.3573 32.425 29.7095 32.425" fill="white"/>
<path d="M49.5645 21.8896C46.7678 21.8896 41.0449 22.6046 41.0449 32.8864C41.0449 43.1682 46.7678 43.8831 49.5645 43.8831C52.3612 43.8831 58.0776 43.1682 58.0776 32.8864C58.0776 22.6046 52.3547 21.8896 49.5645 21.8896ZM49.5645 40.484C46.3729 40.484 45.9262 37.4229 45.9262 32.8864C45.9262 28.3499 46.3923 25.2823 49.5645 25.2823C52.7366 25.2823 53.1963 28.4084 53.1963 32.8864C53.1963 37.3644 52.7561 40.484 49.5645 40.484Z" fill="white"/>
<path d="M86.4655 21.8896C83.6753 21.8896 77.9524 22.6046 77.9524 32.8864C77.9524 43.1682 83.6753 43.8831 86.4655 43.8831C89.2557 43.8831 94.985 43.1682 94.985 32.8864C94.985 22.6046 89.2622 21.8896 86.4655 21.8896ZM86.4655 40.484C83.2739 40.484 82.8272 37.4229 82.8272 32.8864C82.8272 28.3499 83.2739 25.2823 86.4655 25.2823C89.6571 25.2823 90.1038 28.4084 90.1038 32.8864C90.1038 37.3644 89.6571 40.484 86.4655 40.484Z" fill="white"/>
<path d="M61.1138 32.8864C61.1138 38.4758 62.9977 43.8831 70.0735 43.8831C71.9895 43.8659 73.8778 43.4219 75.6022 42.5833C75.6955 42.5368 75.7683 42.4573 75.8066 42.3601C75.8448 42.2628 75.8458 42.1548 75.8094 42.0569L74.9095 39.7496C74.8729 39.6525 74.8014 39.5727 74.7092 39.5258C74.617 39.4789 74.5106 39.4683 74.411 39.4961C73.3868 39.7882 72.3292 39.9455 71.2647 39.9641C67.3027 39.9641 65.9691 36.8834 65.9691 32.8864C65.9691 28.8894 67.3027 25.8477 71.2647 25.8477C72.3271 25.866 73.3826 26.0233 74.4045 26.3156C74.505 26.3437 74.6123 26.3334 74.7056 26.2865C74.7989 26.2397 74.8716 26.1597 74.9095 26.0622L75.8094 23.7159C75.8458 23.618 75.8448 23.51 75.8066 23.4127C75.7683 23.3155 75.6955 23.236 75.6022 23.1895C73.8778 22.3509 71.9895 21.9069 70.0735 21.8896C62.9977 21.8896 61.1138 27.297 61.1138 32.8864Z" fill="white"/>
</g>
<defs>
<clipPath id="clip0_1271_323">
<rect width="116.471" height="66" fill="white" transform="translate(0.428223)"/>
</clipPath>
</defs>
</svg>
