<svg width="200" height="66" viewBox="0 0 200 66" fill="none" xmlns="http://www.w3.org/2000/svg">
<g clip-path="url(#clip0_1271_334)">
<path d="M199.305 15.7138C202.014 31.2317 159.752 51.5539 104.901 61.1036C50.0557 70.6532 3.39854 65.8074 0.693965 50.283C-2.00842 34.7629 40.2642 14.4472 95.1093 4.89971C149.957 -4.65432 196.605 0.191483 199.305 15.7138Z" fill="#E5E5E5"/>
<path d="M147.685 38.7502L147.403 22.6143H152.493V42.9518H145.175L140.095 26.2612H139.986L140.268 42.9518H135.21V22.6143H142.846L147.571 38.7502H147.685Z" fill="white"/>
<path d="M55.1591 24.5185L52.3431 43.1658H46.792L50.6042 22.6143H59.749L63.5437 43.1658H58.0144L55.2749 24.5185H55.1591Z" fill="white"/>
<path d="M76.4721 43.1658L73.0335 24.6888H72.9221L72.7932 43.1658H67.644L68.0984 22.6143H76.4874L79.026 38.3244H79.1352L81.6759 22.6143H90.0605L90.5062 43.1658H85.3679L85.2325 24.6888H85.1254L81.689 43.1658H76.4721Z" fill="white"/>
<path d="M38.1342 37.368C38.3352 37.8659 38.2741 38.5057 38.1801 38.8923C38.0075 39.5758 37.5444 40.2724 36.1768 40.2724C34.8879 40.2724 34.1058 39.5343 34.1058 38.4053V36.4158H28.5918L28.5874 38.0078C28.5874 42.5894 32.1964 43.9717 36.0632 43.9717C39.7814 43.9717 42.8443 42.7008 43.3315 39.2766C43.5805 37.5012 43.3948 36.3394 43.3096 35.9005C42.4423 31.5984 34.6388 30.3144 34.0577 27.9079C33.9594 27.4951 33.9878 27.0584 34.0359 26.8247C34.1779 26.1696 34.6279 25.4467 35.9146 25.4467C37.1162 25.4467 37.8262 26.1892 37.8262 27.3117C37.8262 27.6895 37.8262 28.5805 37.8262 28.5805H42.9535V27.137C42.9535 22.6602 38.9338 21.9614 36.0217 21.9614C32.3646 21.9614 29.3761 23.1691 28.8299 26.5146C28.6813 27.4383 28.6595 28.2616 28.8758 29.2924C29.7737 33.4918 37.0769 34.7081 38.1342 37.368Z" fill="white"/>
<path d="M104.988 37.3311C105.191 37.8246 105.126 38.447 105.034 38.8335C104.866 39.5148 104.407 40.2005 103.048 40.2005C101.777 40.2005 101.001 39.4624 101.001 38.3596L100.997 36.3877H95.5398L95.5332 37.9578C95.5332 42.4935 99.1094 43.8627 102.937 43.8627C106.616 43.8627 109.65 42.6093 110.129 39.2157C110.378 37.4534 110.201 36.3069 110.111 35.8767C109.248 31.6139 101.523 30.343 100.949 27.9605C100.851 27.5499 100.879 27.1175 100.929 26.897C101.076 26.2375 101.517 25.5321 102.791 25.5321C103.981 25.5321 104.676 26.2571 104.676 27.3709C104.676 27.7443 104.676 28.6265 104.676 28.6265H109.764V27.1983C109.764 22.7696 105.777 22.0752 102.893 22.0752C99.2777 22.0752 96.3131 23.2675 95.7779 26.5891C95.6293 27.4997 95.614 28.3077 95.8259 29.3341C96.7107 33.4898 103.942 34.6974 104.988 37.3311Z" fill="white"/>
<path d="M122.258 40.091C123.684 40.091 124.13 39.1039 124.228 38.5995C124.27 38.3767 124.281 38.0797 124.276 37.8133V22.6055H129.476V37.3482C129.487 37.7259 129.45 38.5034 129.432 38.6977C129.067 42.5346 126.033 43.7794 122.256 43.7794C118.474 43.7794 115.437 42.5346 115.077 38.6977C115.059 38.5034 115.022 37.7259 115.033 37.3482V22.6055H120.228V37.8133C120.228 38.0797 120.237 38.3789 120.276 38.5995C120.388 39.1039 120.82 40.091 122.258 40.091Z" fill="white"/>
<path d="M165.147 39.8748C166.636 39.8748 167.156 38.9336 167.253 38.3854C167.29 38.1496 167.301 37.8635 167.298 37.6036V34.6206H165.188V31.6201H172.478V37.1363C172.474 37.5207 172.465 37.8046 172.404 38.4903C172.061 42.2289 168.817 43.5632 165.173 43.5632C161.522 43.5632 158.282 42.2289 157.935 38.4903C157.876 37.8046 157.867 37.5207 157.861 37.1363L157.865 28.482C157.865 28.1173 157.911 27.4709 157.95 27.1281C158.407 23.2868 161.522 22.0508 165.173 22.0508C168.819 22.0508 172.011 23.2802 172.389 27.1281C172.456 27.7832 172.435 28.482 172.435 28.482V29.1677H167.25V28.0169C167.255 28.019 167.244 27.5277 167.183 27.2351C167.095 26.7808 166.7 25.737 165.133 25.737C163.635 25.737 163.196 26.7241 163.086 27.2351C163.023 27.5059 162.999 27.8727 162.999 28.2047V37.6036C162.995 37.8635 163.01 38.1496 163.052 38.3854C163.141 38.9357 163.659 39.8748 165.147 39.8748Z" fill="white"/>
</g>
<defs>
<clipPath id="clip0_1271_334">
<rect width="198.857" height="66" fill="white" transform="translate(0.571289)"/>
</clipPath>
</defs>
</svg>
