<svg width="81" height="80" viewBox="0 0 81 80" fill="none" xmlns="http://www.w3.org/2000/svg">
<path d="M72.0367 8.3577C64.4895 0.839653 53.6371 0 40.3774 0C27.1177 0 16.2313 0.84936 8.68417 8.38682C1.137 15.9243 0.375 26.7767 0.375 40.0364C0.375 53.2961 1.14185 64.1582 8.68902 71.6957C16.2362 79.2331 27.0983 80 40.3774 80C53.6566 80 64.5187 79.2331 72.061 71.6957C79.6033 64.1582 80.375 53.301 80.375 40.0364C80.375 26.7718 79.5984 15.8952 72.0367 8.3577ZM37.4314 54.8444C37.4314 54.9731 37.3802 55.0966 37.2892 55.1876C37.1982 55.2786 37.0747 55.3297 36.946 55.3297H30.122C29.9933 55.3297 29.8698 55.2786 29.7788 55.1876C29.6878 55.0966 29.6367 54.9731 29.6367 54.8444V36.9836C29.6367 36.8548 29.6878 36.7314 29.7788 36.6404C29.8698 36.5493 29.9933 36.4982 30.122 36.4982H36.9169C37.0456 36.4982 37.1691 36.5493 37.2601 36.6404C37.3511 36.7314 37.4022 36.8548 37.4022 36.9836L37.4314 54.8444ZM50.7882 54.8444C50.7882 54.9731 50.737 55.0966 50.646 55.1876C50.555 55.2786 50.4315 55.3297 50.3028 55.3297H43.7894C43.6607 55.3297 43.5373 55.2786 43.4462 55.1876C43.3552 55.0966 43.3041 54.9731 43.3041 54.8444V39.4297C43.3041 36.7457 43.1439 33.9793 41.7558 32.5912C40.5667 31.3972 38.3584 31.1351 36.0238 31.0623H24.2347C24.106 31.0623 23.9826 31.1134 23.8915 31.2045C23.8005 31.2955 23.7494 31.4189 23.7494 31.5477V54.8444C23.7495 54.9102 23.7362 54.9754 23.7103 55.0359C23.6844 55.0964 23.6464 55.151 23.5988 55.1964C23.5511 55.2418 23.4947 55.2771 23.433 55.3C23.3713 55.3229 23.3055 55.333 23.2398 55.3297H16.7264C16.5977 55.3297 16.4742 55.2786 16.3832 55.1876C16.2922 55.0966 16.241 54.9731 16.241 54.8444V25.1799C16.241 25.0512 16.2922 24.9277 16.3832 24.8367C16.4742 24.7457 16.5977 24.6945 16.7264 24.6945H35.4608C40.3629 24.6945 45.4833 24.9178 48.012 27.4465C50.5406 29.9751 50.7736 35.1004 50.7736 40.0073L50.7882 54.8444ZM64.1644 54.8444C64.1644 54.9731 64.1132 55.0966 64.0222 55.1876C63.9312 55.2786 63.8077 55.3297 63.679 55.3297H57.1656C57.0369 55.3297 56.9135 55.2786 56.8224 55.1876C56.7314 55.0966 56.6803 54.9731 56.6803 54.8444V25.1799C56.6803 25.0512 56.7314 24.9277 56.8224 24.8367C56.9135 24.7457 57.0369 24.6945 57.1656 24.6945H63.6596C63.7883 24.6945 63.9118 24.7457 64.0028 24.8367C64.0938 24.9277 64.1449 25.0512 64.1449 25.1799L64.1644 54.8444Z" fill="#E5E5E5"/>
</svg>
