<svg width="185" height="53" viewBox="0 0 185 53" fill="none" xmlns="http://www.w3.org/2000/svg">
<g clip-path="url(#clip0_1271_331)">
<path d="M175.855 46.1502C179.465 46.1502 182.022 45.5002 183.927 44.1002V37.7502C181.971 39.1002 179.615 39.9502 176.306 39.9502C170.741 39.9502 168.435 35.6502 168.435 28.8502C168.435 21.7002 171.242 18.0502 176.356 18.0502C179.364 18.0502 182.322 19.1002 183.877 20.1002V13.5002C182.222 12.6002 179.364 11.9502 175.454 11.9502C165.477 11.9502 160.313 19.1002 160.313 29.1002C160.363 40.0502 165.427 46.1502 175.855 46.1502ZM127.072 43.2502V36.9002C124.666 38.5502 120.555 40.0002 116.794 40.0002C111.079 40.0002 108.923 37.3002 108.572 31.8002H127.423V27.7002C127.423 16.2502 122.36 11.9502 114.588 11.9502C105.063 11.9502 100.55 19.2002 100.55 29.1502C100.55 40.6002 106.216 46.1502 116.143 46.1502C121.106 46.1502 124.766 44.8002 127.072 43.2502ZM55.5279 12.5502V25.5502H45.0996V12.5502H37.2783V45.5002H45.0996V31.7502H55.5279V45.5002H63.3492V12.5502H55.5279ZM98.5949 39.3002H95.1355V12.5502H72.3737V15.3502C72.3737 23.4002 71.8723 33.8002 69.1148 39.3002H66.608V53.0002H73.8276V45.5002H91.3252V53.0002H98.5448V39.3002H98.5949ZM151.99 45.5002H160.864L148.33 27.7502L159.36 12.5502H151.489L140.459 27.7502V12.5502H132.637V45.5002H140.459V29.3002L151.99 45.5002ZM114.388 18.0502C118.248 18.0502 119.452 21.2502 119.452 25.4002V26.0502H108.572C108.773 20.8002 110.678 18.0502 114.388 18.0502ZM87.3143 39.3002H76.2843C78.4402 34.3502 79.0418 25.3502 79.0418 19.6502V18.6502H87.3143V39.3002Z" fill="#E5E5E5"/>
<path d="M30.7606 45.5H22.789V6.15H19.2293C12.7116 6.15 9.30234 9.4 9.30234 14.25C9.30234 19.75 11.6587 22.3 16.522 25.55L20.5329 28.25L9.00152 45.5H0.428223L10.8064 30.1C4.84021 25.85 1.48108 21.7 1.48108 14.7C1.48108 5.95 7.59771 0 19.1792 0H30.7105V45.5H30.7606Z" fill="#E5E5E5"/>
</g>
<defs>
<clipPath id="clip0_1271_331">
<rect width="184" height="53" fill="white" transform="translate(0.428223)"/>
</clipPath>
</defs>
</svg>
