<svg width="60" height="64" viewBox="0 0 60 64" fill="none" xmlns="http://www.w3.org/2000/svg">
<g filter="url(#filter0_d_1107_179)">
<rect width="60" height="60" fill="black"/>
</g>
<path fill-rule="evenodd" clip-rule="evenodd" d="M49.7622 18.6734C49.7622 20.6988 48.1143 22.3468 46.0888 22.3468C44.0631 22.3468 42.4155 20.6988 42.4155 18.6734C42.4155 16.6479 44.0631 15 46.0888 15C48.1143 15 49.7622 16.6479 49.7622 18.6734ZM47.3133 18.6734C47.3133 17.9983 46.7639 17.4489 46.0888 17.4489C45.4135 17.4489 44.8644 17.9983 44.8644 18.6734C44.8644 19.3484 45.4135 19.8978 46.0888 19.8978C46.7639 19.8978 47.3133 19.3484 47.3133 18.6734ZM20.3193 33.7882C22.4908 33.7882 24.2433 32.8265 24.2433 30.2829V29.9883C24.2433 28.7319 23.5765 28.0495 22.6614 27.7083C23.4369 27.3515 23.8555 26.2967 23.8555 25.1647C23.8555 23.0707 22.3667 22.3574 20.3968 22.3574C17.7291 22.3574 16.8608 23.9237 16.8608 25.1335C16.8608 25.878 17.0002 26.1108 18.1168 26.1108C19.0164 26.1108 19.2491 25.754 19.2491 25.2266C19.2491 24.6217 19.6369 24.4358 20.3968 24.4358C21.0329 24.4358 21.5447 24.6529 21.5447 25.5525C21.5447 26.8088 20.9242 26.8863 20.3349 26.8863C19.8075 26.8863 19.6369 27.3515 19.6369 27.8171C19.6369 28.2823 19.8075 28.7475 20.3349 28.7475C21.1879 28.7475 21.824 28.9491 21.824 29.9883V30.2829C21.824 31.2912 21.4516 31.6789 20.3971 31.6789C19.6991 31.6789 19.0167 31.5083 19.0167 30.7794C19.0167 30.1898 18.7683 29.9726 17.776 29.9726C16.9227 29.9726 16.628 30.1589 16.628 30.8569C16.628 32.1598 17.6516 33.7882 20.3193 33.7882ZM29.92 24.4667C30.6489 24.4667 31.2695 24.777 31.2695 25.3662C31.2695 26.0796 31.8587 26.2501 32.5258 26.2501C33.3013 26.2501 33.6581 26.0177 33.6581 25.2731C33.6581 23.9859 32.6189 22.3574 29.9978 22.3574C27.7641 22.3574 26.0425 23.35 26.0425 26.0177V30.1279C26.0425 32.7956 27.7176 33.7882 29.8581 33.7882C31.9984 33.7882 33.6581 32.7956 33.6581 30.1279V29.9883C33.6581 27.5068 32.169 26.7313 30.4009 26.7313C29.6566 26.7313 28.9586 26.8707 28.4621 27.4134V26.0177C28.4621 24.9472 29.0052 24.4667 29.92 24.4667ZM29.8425 28.5922C30.7267 28.5922 31.2385 29.0265 31.2385 30.1589V30.2985C31.2385 31.3687 30.7267 31.8339 29.8581 31.8339C28.9895 31.8339 28.4621 31.3687 28.4621 30.2985V30.0192C28.4621 28.9956 29.0052 28.5922 29.8425 28.5922ZM40.1258 28.0808C40.1258 28.546 39.8309 28.8719 39.3503 28.8719C38.8539 28.8719 38.5592 28.546 38.5592 28.0808C38.5592 27.5999 38.8539 27.3053 39.3503 27.3053C39.8309 27.3053 40.1258 27.5999 40.1258 28.0808ZM39.3343 33.7882C41.4745 33.7882 43.1495 32.7956 43.1495 30.1276V26.0177C43.1495 23.3497 41.4745 22.3574 39.3343 22.3574C37.1937 22.3574 35.5343 23.3497 35.5343 26.0177V30.1276C35.5343 32.7956 37.1937 33.7882 39.3343 33.7882ZM37.9539 26.0177C37.9539 24.9476 38.4657 24.4667 39.3343 24.4667C40.2029 24.4667 40.73 24.9476 40.73 26.0177V30.1279C40.73 31.1981 40.2029 31.6789 39.3343 31.6789C38.4657 31.6789 37.9539 31.1981 37.9539 30.1279V26.0177ZM47.1093 26.9592C46.5522 26.5762 45.7898 26.7169 45.4065 27.2742C45.0232 27.8313 45.1642 28.5937 45.7212 28.977C46.9186 29.8007 48.3462 31.1214 48.3462 32.7352C48.3462 34.1995 47.1265 35.7163 44.9113 37.0071C42.4892 38.4181 39.0243 39.4669 35.1552 39.9595C34.4843 40.045 34.0098 40.6582 34.0952 41.3291C34.174 41.9474 34.7011 42.3989 35.3082 42.3989C35.3599 42.3989 35.4122 42.3957 35.4648 42.389C39.7128 41.8479 43.4056 40.7185 46.1441 39.1228C49.1867 37.3502 50.7951 35.1414 50.7951 32.7352C50.7951 30.6154 49.5206 28.618 47.1093 26.9592ZM25.7665 37.3794C26.2445 36.9011 27.02 36.9011 27.498 37.3794L30.7632 40.6446C31.2415 41.1229 31.2415 41.8981 30.7632 42.3761L27.498 45.6413C27.2592 45.8804 26.9457 46 26.6323 46C26.3188 46 26.0057 45.8804 25.7665 45.6413C25.2882 45.1633 25.2882 44.3878 25.7665 43.9098L27.0315 42.6445C22.6897 42.3706 18.6672 41.4765 15.4877 40.0585C11.3042 38.1922 9 35.5915 9 32.735C9 31.0791 9.78857 28.6378 13.5455 26.4109C14.1274 26.0662 14.8784 26.2581 15.2234 26.8401C15.5681 27.4217 15.3761 28.1726 14.7942 28.5176C12.637 29.7963 11.4489 31.294 11.4489 32.735C11.4489 34.5401 13.2847 36.394 16.4852 37.8219C19.3209 39.0866 22.9177 39.8984 26.8328 40.1774L25.7665 39.1108C25.2882 38.6328 25.2882 37.8573 25.7665 37.3794Z" fill="#F2F2F2"/>
<defs>
<filter id="filter0_d_1107_179" x="0" y="0" width="60" height="64" filterUnits="userSpaceOnUse" color-interpolation-filters="sRGB">
<feFlood flood-opacity="0" result="BackgroundImageFix"/>
<feColorMatrix in="SourceAlpha" type="matrix" values="0 0 0 0 0 0 0 0 0 0 0 0 0 0 0 0 0 0 127 0" result="hardAlpha"/>
<feOffset dy="4"/>
<feComposite in2="hardAlpha" operator="out"/>
<feColorMatrix type="matrix" values="0 0 0 0 0.0196078 0 0 0 0 0.223529 0 0 0 0 0.984314 0 0 0 1 0"/>
<feBlend mode="normal" in2="BackgroundImageFix" result="effect1_dropShadow_1107_179"/>
<feBlend mode="normal" in="SourceGraphic" in2="effect1_dropShadow_1107_179" result="shape"/>
</filter>
</defs>
</svg>
