<svg width="162" height="23" viewBox="0 0 162 23" fill="none" xmlns="http://www.w3.org/2000/svg">
<path d="M63 0H57L64.5 22.5H70L63 0Z" fill="#AB028A"/>
<path d="M52 0H46L53.5 22.5H59L52 0Z" fill="#AB028A"/>
<path d="M41 0H35L42.5 22.5H48L41 0Z" fill="#AB028A"/>
<path d="M96 0H90L97.5 22.5H103L96 0Z" fill="#AB028A"/>
<path d="M85 0H79L86.5 22.5H92L85 0Z" fill="#AB028A"/>
<path d="M74 0H68L75.5 22.5H81L74 0Z" fill="#AB028A"/>
<path d="M28 0H22L29.5 22.5H35L28 0Z" fill="#AB028A"/>
<path d="M17 0H11L18.5 22.5H24L17 0Z" fill="#AB028A"/>
<path d="M6 0H0L7.5 22.5H13L6 0Z" fill="#AB028A"/>
<rect x="25" width="5" height="22.5" fill="#02A78F"/>
<rect x="61" width="5" height="22.5" fill="#02A78F"/>
<rect x="37" width="5" height="22.5" fill="#02A78F"/>
<rect x="73" width="5" height="22.5" fill="#02A78F"/>
<rect x="49" width="5" height="22.5" fill="#02A78F"/>
<rect x="85" width="5" height="22.5" fill="#02A78F"/>
<rect x="97" width="5" height="22.5" fill="#02A78F"/>
<rect x="133" width="5" height="22.5" fill="#02A78F"/>
<rect x="109" width="5" height="22.5" fill="#02A78F"/>
<rect x="145" width="5" height="22.5" fill="#02A78F"/>
<rect x="121" width="5" height="22.5" fill="#02A78F"/>
<rect x="157" width="5" height="22.5" fill="#02A78F"/>
</svg>
