<svg width="60" height="64" viewBox="0 0 60 64" fill="none" xmlns="http://www.w3.org/2000/svg">
<g filter="url(#filter0_d_1107_259)">
<rect width="60" height="60" fill="black"/>
</g>
<g clip-path="url(#clip0_1107_259)">
<path d="M44.594 27.0939C43.0948 27.0939 41.8196 28.0679 41.3657 29.416H32.7197V31.5839H41.3657C42.6383 35.1892 47.9241 34.3688 48 30.4999C48.0001 28.6219 46.4721 27.0939 44.594 27.0939Z" fill="#F2F2F2"/>
<path d="M39.9496 36.3824C39.4052 36.3824 38.8906 36.5114 38.4337 36.7396L36.0718 34.3777C35.8686 34.1744 35.5929 34.0602 35.3054 34.0602H32.7197V36.2282H34.8564L36.9007 38.2725C35.7611 40.4772 37.4567 43.2277 39.9497 43.1945C44.4619 43.0235 44.461 36.553 39.9496 36.3824Z" fill="#F2F2F2"/>
<path d="M16.944 31.584H11C11.1189 33.6565 11.5776 35.6647 12.3506 37.5435H17.6389C17.2412 35.6477 17.0055 33.6417 16.944 31.584Z" fill="#F2F2F2"/>
<path d="M17.6389 23.4565H12.3506C11.5776 25.3354 11.1189 27.3436 11 29.4161H16.944C17.0055 27.3583 17.2412 25.3524 17.6389 23.4565Z" fill="#F2F2F2"/>
<path d="M22.1789 13.4869C16.9608 15.7234 14.3545 19.6591 13.416 21.2885H18.1782C18.9131 18.7529 20.1598 15.809 22.1789 13.4869Z" fill="#F2F2F2"/>
<path d="M13.416 39.7114C14.3545 41.3409 16.9608 45.2765 22.1789 47.5131C20.1595 45.1906 18.9131 42.2471 18.1782 39.7114H13.416Z" fill="#F2F2F2"/>
<path d="M29.4677 12C25.305 12 22.0979 16.0686 20.4421 21.2885H30.5517V13.084C30.5517 12.4853 30.0663 12 29.4677 12V12Z" fill="#F2F2F2"/>
<path d="M29.4677 48.9999C30.0663 48.9999 30.5517 48.5146 30.5517 47.916V39.7114H20.4421C22.1002 44.9388 25.3106 48.9999 29.4677 48.9999Z" fill="#F2F2F2"/>
<path d="M19.113 29.4161H30.5518V23.4565H19.8563C19.4312 25.3346 19.1785 27.3438 19.113 29.4161Z" fill="#F2F2F2"/>
<path d="M36.0718 26.6223L38.4337 24.2604C40.6381 25.4 43.3891 23.7045 43.3557 21.2114C43.3557 19.3333 41.8277 17.8053 39.9496 17.8053C37.4568 17.7723 35.7607 20.523 36.9007 22.7274L34.8564 24.7718H32.7197V26.9397H35.3054C35.5929 26.9397 35.8686 26.8255 36.0718 26.6223Z" fill="#F2F2F2"/>
<path d="M19.8563 37.5435H30.5518V31.584H19.113C19.1785 33.6563 19.4312 35.6655 19.8563 37.5435Z" fill="#F2F2F2"/>
</g>
<defs>
<filter id="filter0_d_1107_259" x="0" y="0" width="60" height="64" filterUnits="userSpaceOnUse" color-interpolation-filters="sRGB">
<feFlood flood-opacity="0" result="BackgroundImageFix"/>
<feColorMatrix in="SourceAlpha" type="matrix" values="0 0 0 0 0 0 0 0 0 0 0 0 0 0 0 0 0 0 127 0" result="hardAlpha"/>
<feOffset dy="4"/>
<feComposite in2="hardAlpha" operator="out"/>
<feColorMatrix type="matrix" values="0 0 0 0 0.0196078 0 0 0 0 0.223529 0 0 0 0 0.984314 0 0 0 1 0"/>
<feBlend mode="normal" in2="BackgroundImageFix" result="effect1_dropShadow_1107_259"/>
<feBlend mode="normal" in="SourceGraphic" in2="effect1_dropShadow_1107_259" result="shape"/>
</filter>
<clipPath id="clip0_1107_259">
<rect width="37" height="37" fill="white" transform="translate(11 12)"/>
</clipPath>
</defs>
</svg>
