<svg width="20" height="35" viewBox="0 0 20 35" fill="none" xmlns="http://www.w3.org/2000/svg">
<path d="M12.3479 35H6.70502C5.76247 35 4.99574 34.2384 4.99574 33.3022V20.66H1.70354C0.760991 20.66 -0.0057373 19.8982 -0.0057373 18.9622V13.545C-0.0057373 12.6088 0.760991 11.8473 1.70354 11.8473H4.99574V9.13452C4.99574 6.44474 5.84608 4.1563 7.45454 2.51701C9.07026 0.870247 11.3282 0 13.9844 0L18.2879 0.00694272C19.2289 0.00854492 19.9943 0.770111 19.9943 1.70471V6.73447C19.9943 7.67067 19.2278 8.43224 18.2855 8.43224L15.388 8.4333C14.5043 8.4333 14.2793 8.60928 14.2312 8.66322C14.1519 8.75267 14.0575 9.00555 14.0575 9.70383V11.847H18.0678C18.3697 11.847 18.6622 11.921 18.9135 12.0604C19.4558 12.3613 19.7929 12.9303 19.7929 13.5453L19.7908 18.9625C19.7908 19.8982 19.024 20.6598 18.0815 20.6598H14.0575V33.3022C14.0575 34.2384 13.2905 35 12.3479 35ZM7.0615 32.9482H11.9915V19.7414C11.9915 19.1163 12.5036 18.6079 13.1327 18.6079H17.725L17.7269 13.8991H13.1324C12.5033 13.8991 11.9915 13.3907 11.9915 12.7656V9.70383C11.9915 8.90221 12.0735 7.99057 12.6827 7.30537C13.4187 6.47705 14.5788 6.38145 15.3874 6.38145L17.9285 6.38039V2.05826L13.9828 2.05185C9.71413 2.05185 7.0615 4.76593 7.0615 9.13452V12.7656C7.0615 13.3904 6.54963 13.8991 5.92055 13.8991H2.06002V18.6079H5.92055C6.54963 18.6079 7.0615 19.1163 7.0615 19.7414V32.9482ZM18.2839 2.05879H18.2842H18.2839Z" fill="white"/>
</svg>
