<svg width="60" height="64" viewBox="0 0 60 64" fill="none" xmlns="http://www.w3.org/2000/svg">
<g filter="url(#filter0_d_1107_253)">
<rect width="60" height="60" fill="black"/>
</g>
<g clip-path="url(#clip0_1107_253)">
<path d="M13.4375 30H24.8273L29.1715 34.3442C29.5093 34.6818 30.0162 34.7785 30.4486 34.5981C30.8869 34.4175 31.1719 33.9893 31.1719 33.5157V30H34.6875C36.626 30 38.2032 28.4229 38.2032 26.4844V14.7656C38.2032 12.8268 36.626 11.25 34.6875 11.25H13.4375C11.499 11.25 9.92188 12.8268 9.92188 14.7656V26.4844C9.92188 28.4229 11.499 30 13.4375 30ZM31.1719 18.2813C32.464 18.2813 33.5157 19.3329 33.5157 20.625C33.5157 21.9171 32.464 22.9688 31.1719 22.9688C29.8798 22.9688 28.8282 21.9171 28.8282 20.625C28.8282 19.3329 29.8798 18.2813 31.1719 18.2813ZM24.1406 18.2813C25.4328 18.2813 26.4844 19.3329 26.4844 20.625C26.4844 21.9171 25.4328 22.9688 24.1406 22.9688C22.8485 22.9688 21.7969 21.9171 21.7969 20.625C21.7969 19.3329 22.8485 18.2813 24.1406 18.2813ZM17.0313 18.2813C18.3234 18.2813 19.375 19.3329 19.375 20.625C19.375 21.9171 18.3234 22.9688 17.0313 22.9688C15.7391 22.9688 14.6875 21.9171 14.6875 20.625C14.6875 19.3329 15.7391 18.2813 17.0313 18.2813Z" fill="#F2F2F2"/>
<path d="M11.0938 48.75H27.489C27.6996 48.75 28.1436 48.5837 28.1836 48.5626L31.5119 46.8985C31.6056 46.8515 31.7228 46.7813 31.8164 46.6876L28.4882 43.3594C28.3945 43.4531 28.3243 43.5703 28.2773 43.6639L26.9062 46.4063H11.0938C10.4462 46.4063 9.92188 46.9302 9.92188 47.5781C9.92188 48.2257 10.4462 48.75 11.0938 48.75Z" fill="#F2F2F2"/>
<path d="M42.1171 29.7888L30.1523 41.7188L33.4571 45.0235L45.4454 33.1171L42.1171 29.7888Z" fill="#F2F2F2"/>
<path d="M47.9298 25.6641C47.4611 25.1953 46.7109 25.1953 46.2657 25.6641L43.7812 28.1485L47.086 31.4529L49.5704 28.9688C50.0392 28.5233 50.0392 27.7734 49.5704 27.3047L47.9298 25.6641Z" fill="#F2F2F2"/>
</g>
<defs>
<filter id="filter0_d_1107_253" x="0" y="0" width="60" height="64" filterUnits="userSpaceOnUse" color-interpolation-filters="sRGB">
<feFlood flood-opacity="0" result="BackgroundImageFix"/>
<feColorMatrix in="SourceAlpha" type="matrix" values="0 0 0 0 0 0 0 0 0 0 0 0 0 0 0 0 0 0 127 0" result="hardAlpha"/>
<feOffset dy="4"/>
<feComposite in2="hardAlpha" operator="out"/>
<feColorMatrix type="matrix" values="0 0 0 0 0.0196078 0 0 0 0 0.223529 0 0 0 0 0.984314 0 0 0 1 0"/>
<feBlend mode="normal" in2="BackgroundImageFix" result="effect1_dropShadow_1107_253"/>
<feBlend mode="normal" in="SourceGraphic" in2="effect1_dropShadow_1107_253" result="shape"/>
</filter>
<clipPath id="clip0_1107_253">
<rect width="40" height="40" fill="white" transform="translate(10 10)"/>
</clipPath>
</defs>
</svg>
