<svg width="30" height="30" viewBox="0 0 30 30" fill="none" xmlns="http://www.w3.org/2000/svg">
<path fill-rule="evenodd" clip-rule="evenodd" d="M29.918 8.82011C29.8478 7.22609 29.59 6.13021 29.2207 5.18062C28.8398 4.17266 28.2537 3.27023 27.4859 2.52003C26.7357 1.75816 25.8273 1.16616 24.8311 0.791173C23.876 0.421913 22.7858 0.164141 21.1918 0.0938601C19.5859 0.0176274 19.0761 0 15.003 0C10.9299 0 10.4201 0.0176274 8.82011 0.0879081C7.22609 0.158189 6.13021 0.41619 5.18085 0.785221C4.17266 1.16616 3.27023 1.75221 2.52003 2.52003C1.75816 3.27023 1.16638 4.17861 0.791173 5.1749C0.421913 6.13021 0.164141 7.22014 0.0938601 8.81416C0.0176274 10.4201 0 10.9299 0 15.003C0 19.076 0.0176274 19.5859 0.0879081 21.1858C0.158189 22.7799 0.41619 23.8757 0.785449 24.8253C1.16638 25.8333 1.75816 26.7357 2.52003 27.4859C3.27023 28.2478 4.17861 28.8398 5.1749 29.2148C6.13021 29.584 7.22014 29.8418 8.81439 29.9121C10.4141 29.9826 10.9242 30 14.9973 30C19.0703 30 19.5801 29.9826 21.1801 29.9121C22.7741 29.8418 23.87 29.584 24.8194 29.2148C26.8355 28.4353 28.4296 26.8413 29.2091 24.8253C29.5781 23.87 29.8361 22.7799 29.9064 21.1858C29.9767 19.5859 29.9943 19.076 29.9943 15.003C29.9943 10.9299 29.9883 10.4201 29.918 8.82011ZM27.2165 21.0686C27.1519 22.5338 26.9058 23.3249 26.7007 23.8524C26.1966 25.1593 25.1593 26.1966 23.8524 26.7007C23.3249 26.9058 22.528 27.1519 21.0686 27.2162C19.4863 27.2868 19.0117 27.3042 15.0089 27.3042C11.0061 27.3042 10.5256 27.2868 8.949 27.2162C7.48386 27.1519 6.69269 26.9058 6.16524 26.7007C5.51486 26.4603 4.92285 26.0794 4.44233 25.5812C3.94419 25.0948 3.56325 24.5087 3.32288 23.8583C3.11776 23.3309 2.87166 22.5338 2.80734 21.0746C2.73683 19.4922 2.71943 19.0174 2.71943 15.0147C2.71943 11.0119 2.73683 10.5313 2.80734 8.95495C2.87166 7.48981 3.11776 6.69864 3.32288 6.17119C3.56325 5.52058 3.94419 4.9288 4.44829 4.44806C4.93453 3.94991 5.52058 3.56898 6.17119 3.32883C6.69864 3.12371 7.49577 2.87762 8.95495 2.81306C10.5373 2.74278 11.0121 2.72515 15.0147 2.72515C19.0234 2.72515 19.498 2.74278 21.0746 2.81306C22.5397 2.87762 23.3309 3.12371 23.8583 3.32883C24.5087 3.56898 25.1007 3.94991 25.5812 4.44806C26.0794 4.93453 26.4603 5.52058 26.7007 6.17119C26.9058 6.69864 27.1519 7.49554 27.2165 8.95495C27.2868 10.5373 27.3044 11.0119 27.3044 15.0147C27.3044 19.0174 27.2868 19.4863 27.2165 21.0686ZM15.003 7.2962C10.7483 7.2962 7.29635 10.748 7.29635 15.0028C7.29635 19.2576 10.7483 22.7094 15.003 22.7094C19.2578 22.7094 22.7096 19.2576 22.7096 15.0028C22.7096 10.748 19.2578 7.2962 15.003 7.2962ZM15.003 20.0019C12.2428 20.0019 10.0039 17.7632 10.0039 15.0028C10.0039 12.2424 12.2428 10.0037 15.003 10.0037C17.7634 10.0037 20.002 12.2424 20.002 15.0028C20.002 17.7632 17.7634 20.0019 15.003 20.0019ZM23.0143 8.79075C24.0081 8.79075 24.8137 7.98515 24.8137 6.99161C24.8137 5.99783 24.0081 5.19247 23.0143 5.19247C22.0208 5.19247 21.2152 5.99783 21.2152 6.99161C21.2152 7.98515 22.0208 8.79075 23.0143 8.79075Z" fill="white"/>
</svg>
