<svg width="45" height="40" viewBox="0 0 45 40" fill="none" xmlns="http://www.w3.org/2000/svg">
<path d="M39.1276 0.221784C39.8206 0.364588 40.4938 0.590632 41.1326 0.894999C41.7811 1.18949 42.3906 1.56309 42.9474 2.00727C43.5265 2.43539 44.0566 2.92621 44.528 3.47078C44.6874 3.64282 44.8072 3.84761 44.8792 4.07082C44.9292 4.28749 44.9292 4.51272 44.8792 4.7294C44.8226 4.9352 44.7283 5.12873 44.6011 5.30017C44.4659 5.49407 44.2974 5.66253 44.1035 5.79776C43.9447 5.92142 43.7593 6.00658 43.562 6.04656C43.3539 6.08321 43.1409 6.08321 42.9327 6.04656C42.7593 6.00506 42.592 5.9411 42.4351 5.8563C42.2492 5.73447 42.0816 5.58662 41.9375 5.41725C41.2981 4.73342 40.5196 4.19447 39.6545 3.83665C38.8013 3.46384 37.8779 3.27916 36.947 3.29516C36.3293 3.2876 35.7135 3.36641 35.1176 3.52932C34.5576 3.67344 34.0241 3.90562 33.537 4.21717C33.0474 4.51778 32.6038 4.88747 32.2198 5.3148C31.8251 5.75352 31.4949 6.24633 31.2393 6.77831C30.9541 7.32732 30.7472 7.91353 30.6246 8.51989C30.4796 9.1831 30.4109 9.86071 30.4197 10.5395C30.4181 11.2035 30.4868 11.8658 30.6246 12.5153C30.7686 13.1195 30.9848 13.7043 31.2686 14.2569C31.5457 14.7903 31.8954 15.2828 32.3077 15.7204C32.7095 16.1522 33.1731 16.5221 33.6834 16.818C34.1977 17.1276 34.755 17.3593 35.3371 17.5058C35.9531 17.6683 36.5881 17.747 37.225 17.74C37.6608 17.7419 38.0961 17.7126 38.5276 17.6522C38.9197 17.5971 39.3065 17.509 39.6837 17.3888C40.0413 17.2767 40.3849 17.1245 40.7082 16.9351C41.0304 16.761 41.3344 16.5551 41.6156 16.3204C41.7821 16.1831 41.9638 16.0653 42.1571 15.9692C42.3464 15.8817 42.5494 15.8272 42.7571 15.8082C42.9554 15.7713 43.1588 15.7713 43.3572 15.8082C43.5552 15.869 43.7393 15.9684 43.8987 16.1009C44.0575 16.258 44.1953 16.4351 44.3084 16.6277C44.4218 16.8147 44.4918 17.0248 44.5133 17.2424C44.5648 17.449 44.5648 17.6651 44.5133 17.8717C44.4264 18.0779 44.3024 18.2664 44.1475 18.4279C43.2297 19.2791 42.1495 19.9362 40.9716 20.3597C39.7604 20.7923 38.4818 21.0054 37.1958 20.989C36.249 20.9908 35.3054 20.8778 34.3858 20.6524C33.5099 20.4167 32.6685 20.0674 31.8832 19.6133C31.1205 19.1679 30.4214 18.6214 29.805 17.9888C29.1854 17.352 28.6493 16.6389 28.2098 15.8667C27.7695 15.0696 27.4349 14.2185 27.2146 13.3348C26.9814 12.4117 26.8682 11.4623 26.878 10.5103C26.8708 9.55435 26.9789 8.60106 27.2 7.67105C27.6308 5.93012 28.4913 4.32499 29.7026 3.00245C30.3226 2.3799 31.0154 1.83445 31.7661 1.37796C33.3287 0.439794 35.1248 -0.0371401 36.947 0.0022577C37.6795 0.000589718 38.4102 0.0741511 39.1276 0.221784Z" fill="black"/>
<path d="M10.6767 17.7406C9.2774 17.7435 7.90871 17.331 6.74402 16.5554C5.57933 15.7798 4.67104 14.6759 4.13421 13.3837C3.59738 12.0915 3.45616 10.669 3.72844 9.29639C4.00072 7.92382 4.67426 6.66295 5.66372 5.67349C6.65318 4.68402 7.91406 4.01049 9.28662 3.73821C10.6592 3.46592 12.0817 3.60714 13.3739 4.14397C14.6662 4.6808 15.77 5.58909 16.5456 6.75378C17.3212 7.91847 17.7337 9.28716 17.7308 10.6865C17.7231 12.555 16.9774 14.3447 15.6562 15.666C14.335 16.9872 12.5452 17.7329 10.6767 17.7406ZM9.31564 21.2677V33.0782H1.0029V35.1271H4.25189V36.254H1.0029V38.2444H9.31564V40.0006H12.872V21.1359C14.7528 20.737 16.4911 19.8378 17.9035 18.5334C19.3159 17.2289 20.3502 15.5674 20.8972 13.7242C21.4441 11.881 21.4835 9.92434 21.0113 8.06059C20.539 6.19683 19.5725 4.49507 18.2138 3.13476C17.223 2.14401 16.0469 1.35811 14.7524 0.821924C13.4579 0.285738 12.0705 0.00976563 10.6694 0.00976562C7.83969 0.00976563 5.12589 1.13386 3.12499 3.13476C1.12409 5.13566 0 7.84946 0 10.6792C0 13.5089 1.12409 16.2227 3.12499 18.2236C4.78785 19.9051 6.96865 20.9774 9.31564 21.2677Z" fill="black"/>
</svg>
