<svg width="255" height="46" viewBox="0 0 255 46" fill="none" xmlns="http://www.w3.org/2000/svg">
<path d="M34.5761 8.46719C33.9595 8.12129 33.0558 7.94834 31.8649 7.94834C30.5514 7.93124 29.2576 8.26733 28.1198 8.92117C27.2672 9.41595 26.5194 10.0713 25.9183 10.8506V9.61674C25.9183 9.22973 25.7639 8.85857 25.4891 8.58491C25.2142 8.31124 24.8415 8.1575 24.4528 8.1575C24.0641 8.1575 23.6914 8.31124 23.4165 8.58491C23.1417 8.85857 22.9873 9.22973 22.9873 9.61674V25.743C22.9873 26.13 23.1417 26.5012 23.4165 26.7748C23.6914 27.0485 24.0641 27.2022 24.4528 27.2022C24.8415 27.2022 25.2142 27.0485 25.4891 26.7748C25.7639 26.5012 25.9183 26.13 25.9183 25.743V15.4067C25.8965 14.4044 26.2343 13.4271 26.8709 12.6503C27.5387 11.8587 28.4281 11.283 29.4257 10.9965C30.4971 10.6593 31.7097 10.5836 33.0634 10.7695C33.4368 10.7922 33.769 10.8036 34.0599 10.8036C34.3292 10.8093 34.5951 10.7433 34.8301 10.6123C34.9507 10.5323 35.0523 10.4269 35.1277 10.3037C35.2031 10.1805 35.2504 10.0423 35.2665 9.89886C35.4228 9.29355 35.1927 8.81632 34.5761 8.46719Z" fill="black"/>
<path d="M50.8255 9.18207C49.5228 8.37895 47.9721 7.97793 46.1734 7.97901C44.3529 7.97901 42.7496 8.39732 41.3633 9.23396C39.982 10.0628 38.8517 11.2483 38.092 12.6648C37.2985 14.1165 36.9022 15.7919 36.9033 17.6911C36.9033 19.5719 37.3229 21.2435 38.162 22.706C38.9774 24.1452 40.1759 25.3324 41.6255 26.1368C43.0942 26.9627 44.785 27.375 46.6977 27.374C47.8615 27.3647 49.0149 27.1557 50.1074 26.7562C51.1788 26.3966 52.1793 25.8546 53.0644 25.1543C53.2052 25.0458 53.3181 24.9056 53.394 24.7452C53.4698 24.5849 53.5065 24.4089 53.5008 24.2317C53.4888 24.0407 53.4377 23.8541 53.3506 23.6835C53.2635 23.5128 53.1423 23.3617 52.9944 23.2394C52.733 23.0289 52.402 22.9231 52.0663 22.9427C51.7133 22.9512 51.374 23.0807 51.1056 23.3092C50.5186 23.7781 49.8479 24.1324 49.1288 24.3533C48.3469 24.6243 47.5256 24.7656 46.6977 24.7716C45.4179 24.7964 44.155 24.4772 43.0421 23.8475C42.0002 23.2484 41.1392 22.3815 40.5491 21.3376C40.0838 20.5167 39.7928 19.6095 39.6943 18.672H53.5611C53.9224 18.6841 54.2738 18.5529 54.5381 18.3072C54.666 18.1832 54.7663 18.0338 54.8325 17.8688C54.8987 17.7037 54.9294 17.5266 54.9224 17.349C54.9224 15.5373 54.5669 13.9235 53.8558 12.5075C53.1832 11.1351 52.1322 9.98165 50.8255 9.18207ZM42.7099 11.5152C43.6869 10.9002 44.8414 10.5927 46.1734 10.5927C47.4315 10.5927 48.51 10.8829 49.4089 11.4634C50.3151 12.0542 51.0362 12.8868 51.4899 13.8662C51.8472 14.6243 52.075 15.4364 52.164 16.2691H39.735C39.849 15.4943 40.0842 14.7421 40.4319 14.0397C40.9407 13.0036 41.7296 12.1294 42.7099 11.5152Z" fill="black"/>
<path d="M74.3319 8.2933C73.4635 7.92255 72.8452 8.1544 72.4772 8.98887L66.2603 22.7366L59.5695 8.95483C59.4998 8.78207 59.3958 8.62509 59.2638 8.49331C59.1317 8.36153 58.9743 8.25766 58.8009 8.18791C58.4435 8.07405 58.0562 8.09895 57.7165 8.25763C57.3707 8.4148 57.0961 8.69457 56.9463 9.04238C56.8772 9.21331 56.8477 9.39749 56.8598 9.58132C56.8719 9.76515 56.9254 9.94391 57.0163 10.1044L64.8616 25.8318L61.3916 33.5106C60.9964 34.3451 61.2298 34.9601 62.0918 35.3558C62.3112 35.4581 62.5484 35.5175 62.7903 35.5309C63.3038 35.5309 63.6886 35.2288 63.9448 34.6245L75.0695 10.1044C75.4408 9.24505 75.1949 8.64136 74.3319 8.2933Z" fill="black"/>
<path d="M100.95 8.79764C99.7317 8.24599 98.4067 7.96652 97.0682 7.97885C95.2488 7.97885 93.6455 8.40311 92.2581 9.25163C90.8732 10.096 89.7386 11.2918 88.9706 12.7165C88.1705 14.179 87.7705 15.8393 87.7705 17.6974C87.7436 19.4254 88.1714 21.1303 89.0113 22.6426C89.8137 24.0806 90.9897 25.2773 92.4161 26.1075C93.8621 26.956 95.5061 27.3797 97.3483 27.3787C99.8896 27.3787 102.012 26.6009 103.715 25.0455C103.845 24.9284 103.945 24.7817 104.005 24.6179C104.066 24.4542 104.086 24.2782 104.064 24.1051C104.007 23.7394 103.821 23.4058 103.539 23.1647C103.414 23.0542 103.267 22.9708 103.107 22.9198C102.948 22.8687 102.779 22.8511 102.613 22.868C102.255 22.9117 101.919 23.064 101.65 23.3041C101.087 23.7699 100.44 24.1243 99.7436 24.3483C98.9687 24.5899 98.1602 24.7076 97.3483 24.6969C96.1262 24.7193 94.9216 24.4057 93.8669 23.7905C92.8615 23.1966 92.0435 22.3338 91.5059 21.3001C90.9332 20.1855 90.6452 18.9476 90.6673 17.6958C90.6673 16.3036 90.9354 15.0843 91.4717 14.0379C91.9563 13.1325 92.6532 12.3568 93.5032 11.7769C94.3533 11.197 95.3313 10.83 96.3543 10.7069C97.3773 10.5839 98.4149 10.7085 99.3792 11.0702C100.343 11.432 101.206 12.0201 101.893 12.7846C102.123 13.0697 102.444 13.2668 102.803 13.3424C102.966 13.3786 103.136 13.3787 103.299 13.3425C103.462 13.3064 103.615 13.2349 103.748 13.1332C104.066 12.9254 104.297 12.6097 104.399 12.2447C104.436 12.0678 104.429 11.8844 104.377 11.7111C104.325 11.5379 104.231 11.3802 104.103 11.2524C103.251 10.2079 102.173 9.36865 100.95 8.79764Z" fill="black"/>
<path d="M123.32 9.24531C121.827 8.3877 120.129 7.94793 118.406 7.97253C116.665 7.94646 114.95 8.38601 113.438 9.24531C111.989 10.0721 110.788 11.2681 109.958 12.7102C109.106 14.1727 108.68 15.833 108.681 17.6911C108.654 19.4171 109.076 21.1208 109.906 22.6363C110.686 24.0651 111.832 25.2628 113.228 26.1077C114.664 26.965 116.312 27.4054 117.986 27.3788C119.363 27.4045 120.726 27.1018 121.961 26.496C123.196 25.8901 124.268 24.9986 125.087 23.8961V25.7412C125.078 25.9377 125.111 26.1338 125.183 26.3168C125.256 26.4997 125.366 26.6655 125.507 26.8032C125.652 26.9384 125.823 27.0436 126.009 27.1126C126.195 27.1817 126.393 27.2132 126.591 27.2053C126.988 27.2164 127.373 27.0727 127.664 26.8049C127.81 26.6697 127.924 26.5048 128 26.3215C128.075 26.1381 128.109 25.9407 128.101 25.7428V17.6976C128.11 15.9526 127.661 14.2356 126.798 12.7167C125.968 11.2737 124.767 10.0758 123.32 9.24531ZM124.282 21.2792C123.725 22.32 122.89 23.1874 121.869 23.7858C121.092 24.2467 120.229 24.5477 119.333 24.6709C118.436 24.7942 117.524 24.7374 116.65 24.5037C115.776 24.27 114.958 23.8643 114.244 23.3105C113.53 22.7566 112.935 22.0659 112.493 21.2792C111.881 20.1829 111.567 18.9457 111.585 17.6911C111.563 16.4308 111.876 15.1872 112.493 14.0868C113.075 13.054 113.917 12.1896 114.936 11.5785C115.71 11.1124 116.571 10.8074 117.467 10.6818C118.363 10.5562 119.275 10.6125 120.149 10.8475C121.022 11.0826 121.839 11.4913 122.549 12.0491C123.26 12.607 123.849 13.3023 124.282 14.0932C124.878 15.2007 125.179 16.4415 125.157 17.6976C125.175 18.948 124.874 20.1825 124.282 21.2857V21.2792Z" fill="black"/>
<path d="M144.938 8.46715C144.319 8.12126 143.415 7.94831 142.227 7.94831C140.913 7.93169 139.62 8.26774 138.482 8.92114C137.629 9.41578 136.881 10.0711 136.28 10.8506V9.61671C136.28 9.2297 136.126 8.85853 135.851 8.58487C135.576 8.31121 135.203 8.15747 134.815 8.15747C134.426 8.15747 134.053 8.31121 133.778 8.58487C133.504 8.85853 133.349 9.2297 133.349 9.61671V25.743C133.349 26.13 133.504 26.5011 133.778 26.7748C134.053 27.0485 134.426 27.2022 134.815 27.2022C135.203 27.2022 135.576 27.0485 135.851 26.7748C136.126 26.5011 136.28 26.13 136.28 25.743V15.4067C136.256 14.4053 136.591 13.4282 137.225 12.6503C137.892 11.8587 138.781 11.283 139.778 10.9965C140.851 10.6593 142.064 10.5836 143.415 10.7695C143.788 10.7922 144.121 10.8036 144.414 10.8036C144.682 10.8095 144.948 10.7435 145.182 10.6122C145.303 10.5323 145.405 10.427 145.481 10.3038C145.556 10.1806 145.604 10.0424 145.62 9.89883C145.783 9.29352 145.556 8.81629 144.938 8.46715Z" fill="black"/>
<path d="M165.173 0.00330917C164.975 -0.00429551 164.777 0.0271666 164.591 0.0958908C164.405 0.164615 164.234 0.269249 164.089 0.40379C163.946 0.547922 163.836 0.719915 163.764 0.908869C163.692 1.09782 163.66 1.29962 163.67 1.50146V11.4632C162.864 10.4065 161.829 9.54325 160.643 8.93711C159.386 8.29044 157.988 7.96138 156.572 7.97888C154.898 7.95009 153.248 8.38875 151.811 9.24517C150.416 10.0884 149.27 11.2837 148.488 12.7101C147.659 14.2259 147.238 15.9295 147.265 17.6553C147.265 19.5134 147.69 21.1737 148.542 22.6361C149.371 24.0809 150.572 25.2792 152.021 26.1075C153.533 26.9665 155.249 27.4055 156.989 27.3787C158.676 27.4057 160.34 26.9822 161.807 26.1521C163.274 25.3221 164.491 24.1158 165.331 22.6588C166.193 21.1692 166.657 19.4844 166.678 17.7655V1.50146C166.688 1.29931 166.656 1.09717 166.584 0.908103C166.511 0.719033 166.4 0.547232 166.256 0.40379C166.111 0.269446 165.941 0.164925 165.755 0.096206C165.569 0.0274875 165.371 -0.00408009 165.173 0.00330917ZM162.866 21.2677C162.422 22.0472 161.827 22.7312 161.116 23.28C160.405 23.8289 159.591 24.2316 158.722 24.4649C157.853 24.6983 156.947 24.7575 156.055 24.6392C155.163 24.521 154.303 24.2275 153.526 23.776C152.506 23.1656 151.665 22.3011 151.083 21.2677C150.466 20.1666 150.153 18.9225 150.175 17.6618C150.157 16.4077 150.471 15.171 151.083 14.0753C151.997 12.5094 153.495 11.3667 155.251 10.8968C157.007 10.4269 158.879 10.6678 160.458 11.567C161.479 12.1664 162.314 13.0342 162.872 14.0753C163.463 15.1781 163.764 16.4119 163.747 17.6618C163.766 18.9188 163.463 20.16 162.866 21.2677Z" fill="black"/>
<path d="M174.967 0.630847C174.427 0.623266 173.905 0.829694 173.517 1.20482C173.317 1.38862 173.159 1.61272 173.054 1.86213C172.948 2.11154 172.897 2.38052 172.904 2.65109C172.898 2.92185 172.947 3.19104 173.05 3.44202C173.152 3.69301 173.305 3.92046 173.499 4.11033C173.684 4.30136 173.908 4.45243 174.154 4.55421C174.401 4.656 174.666 4.70634 174.933 4.70213C175.203 4.70534 175.47 4.65461 175.719 4.55295C175.968 4.45128 176.194 4.30076 176.384 4.11033C176.583 3.92302 176.74 3.69645 176.845 3.44515C176.951 3.19385 177.002 2.92337 176.996 2.65109C177.004 2.38052 176.953 2.11154 176.847 1.86213C176.741 1.61272 176.584 1.38862 176.384 1.20482C176.006 0.834729 175.497 0.628394 174.967 0.630847Z" fill="black"/>
<path d="M174.967 8.15414C174.769 8.14617 174.571 8.17747 174.385 8.24621C174.199 8.31495 174.028 8.41978 173.883 8.55462C173.74 8.69828 173.629 8.8702 173.557 9.05927C173.485 9.24834 173.453 9.45036 173.464 9.65229V25.704C173.455 25.9031 173.487 26.102 173.559 26.2879C173.631 26.4739 173.742 26.6427 173.883 26.7838C174.025 26.9248 174.194 27.0349 174.381 27.1069C174.568 27.1789 174.767 27.2114 174.967 27.2021C175.165 27.2108 175.362 27.1781 175.545 27.106C175.729 27.0339 175.896 26.9242 176.034 26.7838C176.169 26.6392 176.275 26.4693 176.344 26.284C176.413 26.0986 176.444 25.9015 176.436 25.704V9.65229C176.447 9.45173 176.418 9.25098 176.348 9.06227C176.279 8.87356 176.172 8.70084 176.034 8.55462C175.893 8.419 175.726 8.31351 175.542 8.24464C175.359 8.17577 175.163 8.14497 174.967 8.15414Z" fill="black"/>
<path d="M196.847 8.97295C195.48 8.27178 193.96 7.91967 192.423 7.94823C190.983 7.92998 189.562 8.27764 188.295 8.95835C187.51 9.37973 186.801 9.9276 186.196 10.5797V9.6523C186.207 9.45178 186.177 9.25113 186.108 9.06248C186.039 8.87382 185.932 8.70107 185.794 8.55463C185.653 8.41917 185.485 8.31378 185.302 8.24492C185.119 8.17606 184.923 8.14518 184.727 8.15415C184.529 8.14601 184.331 8.17722 184.145 8.24597C183.959 8.31472 183.788 8.41964 183.643 8.55463C183.5 8.69821 183.388 8.87008 183.316 9.05914C183.244 9.2482 183.212 9.45027 183.223 9.6523V25.7429C183.214 25.9393 183.247 26.1354 183.319 26.3184C183.392 26.5014 183.502 26.6671 183.643 26.8049C183.788 26.9401 183.958 27.0453 184.145 27.1143C184.331 27.1833 184.529 27.2148 184.727 27.207C184.923 27.2186 185.119 27.1887 185.302 27.1195C185.485 27.0503 185.651 26.9432 185.789 26.8053C185.928 26.6674 186.035 26.5019 186.105 26.3196C186.175 26.1373 186.204 25.9424 186.193 25.7477V15.6076C186.177 14.7065 186.446 13.8231 186.963 13.0831C187.497 12.3311 188.222 11.734 189.064 11.3531C189.981 10.9293 190.983 10.7154 191.995 10.7273C193.063 10.7064 194.122 10.9329 195.088 11.3888C195.987 11.8312 196.736 12.5277 197.239 13.3912C197.782 14.2851 198.05 15.4401 198.044 16.8561V25.738C198.038 25.9317 198.073 26.1243 198.145 26.3042C198.217 26.4841 198.326 26.6473 198.464 26.7838C198.606 26.9235 198.776 27.0327 198.963 27.1047C199.149 27.1766 199.349 27.2098 199.548 27.2021C199.742 27.2066 199.935 27.1718 200.114 27.1001C200.294 27.0283 200.458 26.921 200.595 26.7846C200.732 26.6482 200.839 26.4856 200.911 26.3065C200.983 26.1275 201.018 25.9357 201.014 25.7429V16.8658C201.014 14.9396 200.641 13.3145 199.895 11.9903C199.197 10.71 198.137 9.66109 196.847 8.97295Z" fill="black"/>
<path d="M220.598 9.24531C219.105 8.3877 217.407 7.94792 215.683 7.97253C213.943 7.94651 212.228 8.38606 210.717 9.24531C209.268 10.0716 208.066 11.2677 207.236 12.7102C206.383 14.1727 205.958 15.833 205.959 17.6911C205.932 19.4171 206.353 21.1208 207.184 22.6363C207.964 24.0656 209.11 25.2634 210.507 26.1077C211.942 26.9656 213.59 27.406 215.263 27.3788C216.64 27.4046 218.003 27.1018 219.238 26.496C220.474 25.8901 221.546 24.9986 222.364 23.8961V25.7412C222.356 25.9377 222.388 26.1338 222.461 26.3168C222.533 26.4997 222.644 26.6655 222.784 26.8032C223.082 27.0636 223.464 27.2072 223.86 27.2072C224.256 27.2072 224.638 27.0636 224.935 26.8032C225.081 26.6682 225.196 26.5033 225.271 26.32C225.347 26.1367 225.382 25.9392 225.374 25.7412V17.6976C225.38 15.9517 224.927 14.2347 224.061 12.7167C223.234 11.2755 222.04 10.0778 220.598 9.24531ZM221.56 21.2792C221.003 22.32 220.168 23.1874 219.147 23.7858C218.369 24.2469 217.507 24.548 216.61 24.6714C215.714 24.7948 214.802 24.738 213.928 24.5043C213.054 24.2706 212.236 23.8648 211.522 23.3108C210.808 22.7569 210.214 22.066 209.773 21.2792C209.158 20.1833 208.845 18.9459 208.862 17.6911C208.84 16.4306 209.154 15.1868 209.773 14.0868C210.354 13.0534 211.196 12.1888 212.215 11.5785C212.989 11.1132 213.849 10.8087 214.744 10.6831C215.639 10.5576 216.55 10.6137 217.423 10.8481C218.295 11.0824 219.111 11.4901 219.821 12.0467C220.532 12.6033 221.121 13.2972 221.555 14.0868C222.151 15.1942 222.452 16.435 222.43 17.6911C222.45 18.9433 222.151 20.1801 221.56 21.2857V21.2792Z" fill="black"/>
<path d="M235.762 24.2803H234.888C234.304 24.2803 233.82 23.9788 233.436 23.3756C233.051 22.7708 232.859 21.9942 232.859 21.0408V1.46265C232.868 1.26774 232.837 1.07311 232.767 0.890565C232.698 0.708017 232.593 0.541343 232.457 0.400641C232.162 0.142416 231.782 0 231.39 0C230.997 0 230.617 0.142416 230.322 0.400641C230.187 0.541392 230.082 0.708152 230.013 0.890742C229.944 1.07333 229.914 1.26793 229.923 1.46265V21.0408C229.902 22.1418 230.117 23.2346 230.553 24.2463C230.929 25.1206 231.54 25.8739 232.32 26.4222C233.074 26.944 233.973 27.2183 234.891 27.2069H235.206C235.687 27.2307 236.163 27.0888 236.552 26.8048C236.715 26.6802 236.846 26.519 236.934 26.3345C237.022 26.1499 237.066 25.9472 237.06 25.7428C237.079 25.3579 236.954 24.9797 236.71 24.6808C236.592 24.5479 236.446 24.4429 236.282 24.3736C236.118 24.3043 235.94 24.2724 235.762 24.2803Z" fill="black"/>
<path d="M254.337 19.3869C253.892 18.6562 253.163 18.0233 252.15 17.4882C251.137 16.9532 249.753 16.5354 247.998 16.2349C246.738 16.0036 245.761 15.742 245.067 15.4502C244.372 15.1583 243.888 14.8276 243.614 14.4579C243.341 14.0713 243.2 13.6074 243.212 13.1348C243.212 12.3922 243.592 11.7886 244.352 11.3238C245.112 10.859 246.086 10.6266 247.273 10.6266C248.143 10.612 249.007 10.7537 249.826 11.0449C250.59 11.3345 251.273 11.8001 251.821 12.4036C252.092 12.7001 252.456 12.8962 252.853 12.9597C253.229 13.0351 253.62 12.9735 253.954 12.7862C254.106 12.6868 254.235 12.556 254.331 12.4027C254.428 12.2494 254.49 12.0772 254.514 11.8977C254.534 11.7114 254.513 11.523 254.452 11.3455C254.392 11.1681 254.294 11.0058 254.164 10.8698C253.424 9.95652 252.475 9.23364 251.396 8.76198C250.253 8.23989 248.9 7.97831 247.338 7.97723C246.163 7.96669 244.996 8.16773 243.893 8.57066C242.892 8.92384 242.004 9.53743 241.322 10.3477C240.67 11.1378 240.345 12.1247 240.345 13.3083C240.345 14.6054 240.887 15.7199 241.973 16.6516C243.058 17.5834 244.778 18.2454 247.131 18.6378C248.95 18.9394 250.238 19.3572 250.997 19.8911C251.756 20.4251 252.123 21.0872 252.099 21.8773C252.074 22.6675 251.69 23.3349 250.945 23.8797C250.2 24.4245 249.022 24.6974 247.412 24.6985C246.384 24.7109 245.363 24.5277 244.404 24.1586C243.493 23.7986 242.794 23.3284 242.305 22.748C242.037 22.4751 241.686 22.2973 241.307 22.2421C241.105 22.2159 240.899 22.2312 240.703 22.2869C240.507 22.3427 240.325 22.4378 240.167 22.5664C239.856 22.818 239.656 23.1803 239.609 23.5765C239.583 23.7657 239.602 23.9581 239.662 24.1392C239.723 24.3204 239.823 24.4855 239.957 24.6223C240.774 25.5043 241.865 26.1837 243.228 26.6604C244.594 27.1359 246.031 27.3772 247.478 27.3738C248.998 27.3738 250.321 27.13 251.448 26.6425C252.575 26.1551 253.449 25.493 254.071 24.6564C254.687 23.8317 255.013 22.8284 255 21.8011C255.006 20.9509 254.777 20.1155 254.337 19.3869Z" fill="black"/>
<path d="M9.91862 7.79898C7.41117 7.79804 4.99649 8.74313 3.16081 10.4439C1.32513 12.1447 0.204803 14.4749 0.0254209 16.9653C-0.153961 19.4556 0.620929 21.9212 2.19405 23.8654C3.76718 25.8097 6.02169 27.0882 8.50361 27.4436C8.54594 27.4436 8.58991 27.4533 8.63224 27.4582V38.8322H0.743005V40.7081H3.82705V41.7831H0.743005V43.6574H8.63387V45.3128H12.0126V27.3155C14.4016 26.7983 16.5143 25.4204 17.9449 23.4465C19.3756 21.4725 20.0233 19.0418 19.7636 16.6213C19.5039 14.2008 18.3551 11.9612 16.5379 10.3328C14.7207 8.70436 12.3633 7.80197 9.91862 7.79898ZM9.91862 24.3371C8.59353 24.3377 7.29804 23.9469 6.19607 23.2142C5.0941 22.4814 4.23518 21.4397 3.72802 20.2207C3.22086 19.0017 3.08824 17.6604 3.34695 16.3663C3.60566 15.0723 4.24407 13.8837 5.18139 12.9511C6.11871 12.0185 7.31281 11.3836 8.61259 11.127C9.91236 10.8703 11.2594 11.0033 12.4832 11.5092C13.707 12.0151 14.7526 12.8711 15.4877 13.9689C16.2228 15.0667 16.6143 16.357 16.6127 17.6764C16.6092 19.4429 15.9027 21.1359 14.648 22.3847C13.3933 23.6335 11.6926 24.3361 9.91862 24.3387V24.3371Z" fill="black"/>
</svg>
