<svg width="349" height="62" viewBox="0 0 349 62" fill="none" xmlns="http://www.w3.org/2000/svg">
<path d="M47.3094 11.5853C46.4658 11.112 45.2292 10.8754 43.5998 10.8754C41.8026 10.852 40.0322 11.3118 38.4755 12.2064C37.3088 12.8834 36.2857 13.7801 35.4632 14.8464V13.1582C35.4632 12.6286 35.252 12.1208 34.8759 11.7463C34.4999 11.3719 33.9899 11.1615 33.4581 11.1615C32.9263 11.1615 32.4162 11.3719 32.0402 11.7463C31.6641 12.1208 31.4529 12.6286 31.4529 13.1582V35.2231C31.4529 35.7527 31.6641 36.2605 32.0402 36.635C32.4162 37.0094 32.9263 37.2198 33.4581 37.2198C33.9899 37.2198 34.4999 37.0094 34.8759 36.635C35.252 36.2605 35.4632 35.7527 35.4632 35.2231V21.0804C35.4335 19.7089 35.8956 18.3718 36.7666 17.3089C37.6804 16.2258 38.8973 15.438 40.2623 15.0461C41.7283 14.5847 43.3874 14.4811 45.2396 14.7355C45.7506 14.7666 46.2051 14.7821 46.6032 14.7821C46.9716 14.7899 47.3354 14.6995 47.657 14.5203C47.822 14.4108 47.961 14.2667 48.0641 14.0981C48.1673 13.9295 48.2321 13.7404 48.2541 13.5442C48.468 12.716 48.1531 12.063 47.3094 11.5853Z" fill="white"/>
<path d="M69.5426 12.5636C67.7603 11.4647 65.6385 10.916 63.1773 10.9175C60.6864 10.9175 58.4926 11.4899 56.5958 12.6346C54.7059 13.7687 53.1593 15.3907 52.1198 17.3289C51.0341 19.3152 50.4919 21.6076 50.4934 24.2062C50.4934 26.7796 51.0675 29.0669 52.2156 31.0679C53.3313 33.0371 54.9711 34.6615 56.9546 35.7622C58.9642 36.8922 61.2776 37.4564 63.8947 37.4549C65.4871 37.4423 67.0653 37.1563 68.5601 36.6097C70.026 36.1177 71.395 35.376 72.6061 34.4178C72.7987 34.2693 72.9532 34.0775 73.057 33.8581C73.1608 33.6387 73.2109 33.3979 73.2032 33.1555C73.1868 32.8941 73.1168 32.6388 72.9976 32.4054C72.8785 32.1719 72.7126 31.9651 72.5103 31.7978C72.1526 31.5097 71.6997 31.3649 71.2404 31.3918C70.7573 31.4035 70.2931 31.5805 69.9258 31.8932C69.1227 32.5348 68.205 33.0196 67.2211 33.3219C66.1512 33.6927 65.0275 33.886 63.8947 33.8943C62.1436 33.9282 60.4157 33.4913 58.8929 32.6297C57.4673 31.8101 56.2892 30.624 55.4819 29.1955C54.8452 28.0724 54.447 26.831 54.3122 25.5483H73.2856C73.7801 25.5649 74.2608 25.3853 74.6224 25.0492C74.7975 24.8796 74.9347 24.6752 75.0253 24.4493C75.1159 24.2234 75.1578 23.9811 75.1482 23.7381C75.1482 21.2593 74.6618 19.0512 73.6889 17.1137C72.7686 15.2358 71.3305 13.6576 69.5426 12.5636ZM58.4384 15.756C59.7752 14.9144 61.3548 14.4937 63.1773 14.4937C64.8988 14.4937 66.3745 14.8908 67.6043 15.685C68.8443 16.4934 69.8309 17.6327 70.4517 18.9728C70.9406 20.01 71.2523 21.1212 71.374 22.2606H54.3679C54.5239 21.2004 54.8457 20.1712 55.3214 19.2102C56.0176 17.7925 57.097 16.5963 58.4384 15.756Z" fill="white"/>
<path d="M101.706 11.3475C100.517 10.8402 99.6715 11.1574 99.168 12.2992L90.6616 31.1097L81.5068 12.2526C81.4115 12.0162 81.2692 11.8015 81.0885 11.6212C80.9078 11.4408 80.6924 11.2987 80.4552 11.2033C79.9662 11.0475 79.4362 11.0816 78.9714 11.2987C78.4983 11.5137 78.1226 11.8965 77.9175 12.3724C77.8231 12.6063 77.7827 12.8583 77.7993 13.1098C77.8159 13.3614 77.889 13.606 78.0133 13.8255L88.7478 35.3448L83.9999 45.8515C83.4593 46.9932 83.7786 47.8348 84.958 48.3761C85.2582 48.5161 85.5827 48.5974 85.9138 48.6157C86.6163 48.6157 87.1429 48.2023 87.4934 47.3756L102.715 13.8255C103.223 12.6497 102.887 11.8237 101.706 11.3475Z" fill="white"/>
<path d="M138.126 12.0374C136.459 11.2826 134.646 10.9002 132.815 10.917C130.326 10.917 128.132 11.4975 126.234 12.6585C124.339 13.8138 122.786 15.45 121.735 17.3994C120.641 19.4005 120.093 21.6722 120.093 24.2146C120.056 26.5789 120.642 28.9117 121.791 30.9809C122.889 32.9485 124.498 34.586 126.45 35.7218C128.428 36.8828 130.678 37.4626 133.198 37.4611C136.675 37.4611 139.579 36.397 141.91 34.2687C142.087 34.1085 142.224 33.9078 142.307 33.6837C142.39 33.4596 142.417 33.2189 142.386 32.982C142.309 32.4816 142.055 32.0252 141.669 31.6953C141.497 31.5441 141.296 31.43 141.078 31.3602C140.86 31.2903 140.629 31.2662 140.401 31.2893C139.911 31.3492 139.452 31.5575 139.084 31.8861C138.314 32.5233 137.429 33.0083 136.476 33.3148C135.415 33.6454 134.309 33.8064 133.198 33.7918C131.526 33.8225 129.878 33.3934 128.435 32.5516C127.059 31.739 125.94 30.5584 125.204 29.144C124.421 27.619 124.027 25.9252 124.057 24.2124C124.057 22.3074 124.424 20.6391 125.157 19.2075C125.82 17.9686 126.774 16.9073 127.937 16.1138C129.1 15.3203 130.438 14.8181 131.838 14.6498C133.238 14.4814 134.658 14.652 135.977 15.1469C137.296 15.6418 138.476 16.4465 139.416 17.4926C139.731 17.8827 140.171 18.1523 140.662 18.2558C140.885 18.3054 141.117 18.3054 141.34 18.256C141.563 18.2065 141.773 18.1087 141.954 17.9696C142.389 17.6853 142.706 17.2532 142.845 16.7539C142.897 16.5118 142.886 16.2609 142.815 16.0238C142.745 15.7867 142.616 15.571 142.44 15.3961C141.275 13.9669 139.8 12.8187 138.126 12.0374Z" fill="white"/>
<path d="M168.734 12.6502C166.692 11.4768 164.368 10.8751 162.01 10.9087C159.629 10.873 157.281 11.4745 155.213 12.6502C153.231 13.7815 151.588 15.4179 150.452 17.3911C149.286 19.3922 148.703 21.6639 148.705 24.2063C148.667 26.5679 149.244 28.8991 150.38 30.9726C151.448 32.9276 153.016 34.5664 154.925 35.7224C156.89 36.8955 159.145 37.498 161.436 37.4617C163.319 37.4969 165.184 37.0827 166.875 36.2537C168.565 35.4247 170.032 34.2049 171.152 32.6964V35.221C171.14 35.4898 171.185 35.7581 171.284 36.0085C171.383 36.2588 171.534 36.4856 171.727 36.6741C171.925 36.8591 172.158 37.003 172.413 37.0974C172.668 37.1919 172.939 37.235 173.21 37.2243C173.753 37.2395 174.28 37.0428 174.679 36.6763C174.878 36.4914 175.034 36.2658 175.137 36.0149C175.24 35.7641 175.288 35.494 175.276 35.2232V24.2151C175.288 21.8276 174.674 19.4783 173.493 17.4C172.357 15.4255 170.715 13.7866 168.734 12.6502ZM170.051 29.1158C169.289 30.5399 168.146 31.7267 166.749 32.5455C165.685 33.1761 164.505 33.5879 163.278 33.7566C162.052 33.9253 160.804 33.8475 159.608 33.5277C158.412 33.208 157.292 32.6529 156.316 31.8951C155.339 31.1373 154.524 30.1922 153.921 29.1158C153.082 27.6157 152.653 25.9229 152.677 24.2063C152.647 22.4819 153.076 20.7803 153.921 19.2746C154.717 17.8615 155.869 16.6788 157.263 15.8426C158.322 15.2049 159.5 14.7876 160.726 14.6157C161.952 14.4438 163.2 14.521 164.395 14.8425C165.59 15.1641 166.708 15.7233 167.68 16.4866C168.652 17.2498 169.458 18.2013 170.051 19.2835C170.866 20.7987 171.278 22.4965 171.248 24.2151C171.272 25.926 170.86 27.6152 170.051 29.1246V29.1158Z" fill="white"/>
<path d="M198.313 11.5852C197.467 11.112 196.23 10.8753 194.604 10.8753C192.807 10.8526 191.036 11.3124 189.479 12.2064C188.313 12.8832 187.289 13.7799 186.467 14.8464V13.1581C186.467 12.6286 186.256 12.1207 185.88 11.7463C185.504 11.3719 184.994 11.1615 184.462 11.1615C183.93 11.1615 183.42 11.3719 183.044 11.7463C182.668 12.1207 182.457 12.6286 182.457 13.1581V35.2231C182.457 35.7526 182.668 36.2605 183.044 36.6349C183.42 37.0094 183.93 37.2197 184.462 37.2197C184.994 37.2197 185.504 37.0094 185.88 36.6349C186.256 36.2605 186.467 35.7526 186.467 35.2231V21.0803C186.434 19.7102 186.892 18.3733 187.759 17.3089C188.672 16.2258 189.889 15.438 191.253 15.0461C192.722 14.5846 194.381 14.4811 196.23 14.7355C196.74 14.7665 197.195 14.7821 197.596 14.7821C197.964 14.7902 198.327 14.6998 198.648 14.5203C198.813 14.4109 198.952 14.2669 199.056 14.0983C199.159 13.9296 199.225 13.7405 199.247 13.5441C199.47 12.7159 199.159 12.0629 198.313 11.5852Z" fill="white"/>
<path d="M226.001 0.00445107C225.729 -0.00595415 225.458 0.0370944 225.204 0.131127C224.949 0.22516 224.716 0.368327 224.517 0.552415C224.322 0.749625 224.171 0.984958 224.072 1.2435C223.974 1.50204 223.93 1.77814 223.944 2.05432V15.6846C222.84 14.2387 221.425 13.0576 219.802 12.2283C218.082 11.3434 216.169 10.8932 214.232 10.9171C211.941 10.8778 209.684 11.478 207.718 12.6498C205.809 13.8036 204.24 15.439 203.171 17.3906C202.036 19.4648 201.46 21.7956 201.497 24.157C201.497 26.6994 202.08 28.9711 203.244 30.9722C204.379 32.9489 206.022 34.5885 208.005 35.7219C210.074 36.8972 212.421 37.4979 214.803 37.4612C217.111 37.4982 219.387 36.9187 221.395 35.7829C223.402 34.6472 225.067 32.9968 226.217 31.0032C227.396 28.965 228.03 26.6598 228.059 24.3079V2.05432C228.074 1.77772 228.03 1.50115 227.931 1.24245C227.831 0.983751 227.679 0.748681 227.482 0.552415C227.284 0.368596 227.05 0.225584 226.796 0.131559C226.542 0.0375334 226.272 -0.0056594 226.001 0.00445107ZM222.844 29.0998C222.236 30.1663 221.422 31.1022 220.449 31.8531C219.476 32.6041 218.363 33.1552 217.174 33.4744C215.985 33.7937 214.744 33.8748 213.524 33.7129C212.303 33.5511 211.127 33.1496 210.064 32.5317C208.669 31.6966 207.517 30.5137 206.722 29.0998C205.878 27.5932 205.449 25.8909 205.479 24.1659C205.455 22.45 205.883 20.7579 206.722 19.2586C207.972 17.116 210.022 15.5526 212.425 14.9097C214.828 14.2667 217.389 14.5963 219.548 15.8266C220.945 16.6468 222.089 17.8342 222.852 19.2586C223.661 20.7676 224.072 22.4558 224.049 24.1659C224.076 25.8859 223.661 27.5841 222.844 29.0998Z" fill="white"/>
<path d="M239.402 0.863069C238.662 0.852696 237.948 1.13514 237.417 1.64841C237.144 1.89991 236.928 2.20653 236.783 2.54779C236.639 2.88905 236.569 3.25708 236.579 3.62729C236.57 3.99777 236.638 4.36609 236.778 4.7095C236.918 5.05292 237.127 5.36413 237.392 5.62392C237.646 5.8853 237.952 6.092 238.289 6.23127C238.627 6.37055 238.99 6.43943 239.355 6.43366C239.723 6.43806 240.089 6.36864 240.43 6.22954C240.771 6.09043 241.081 5.88448 241.34 5.62392C241.612 5.36763 241.827 5.05762 241.971 4.71378C242.115 4.36993 242.186 3.99985 242.178 3.62729C242.188 3.25708 242.118 2.88905 241.974 2.54779C241.829 2.20653 241.613 1.89991 241.34 1.64841C240.824 1.14203 240.127 0.859712 239.402 0.863069Z" fill="white"/>
<path d="M239.402 11.1569C239.13 11.1461 238.859 11.1889 238.604 11.2829C238.35 11.377 238.116 11.5204 237.918 11.7049C237.722 11.9015 237.57 12.1367 237.471 12.3954C237.373 12.6541 237.33 12.9305 237.345 13.2068V35.1697C237.332 35.4422 237.376 35.7143 237.475 35.9687C237.574 36.2232 237.725 36.4543 237.918 36.6472C238.112 36.8402 238.344 36.9908 238.599 37.0893C238.855 37.1879 239.128 37.2323 239.402 37.2196C239.672 37.2315 239.941 37.1868 240.192 37.0881C240.444 36.9895 240.672 36.8393 240.861 36.6472C241.046 36.4494 241.19 36.217 241.285 35.9634C241.379 35.7098 241.422 35.44 241.411 35.1697V13.2068C241.427 12.9324 241.386 12.6577 241.291 12.3995C241.197 12.1413 241.05 11.905 240.861 11.7049C240.668 11.5193 240.439 11.375 240.188 11.2808C239.937 11.1865 239.669 11.1444 239.402 11.1569Z" fill="white"/>
<path d="M269.339 12.2773C267.469 11.3179 265.389 10.8362 263.286 10.8752C261.315 10.8503 259.372 11.326 257.638 12.2574C256.564 12.8339 255.593 13.5835 254.766 14.4758V13.2069C254.781 12.9325 254.74 12.658 254.645 12.3998C254.55 12.1417 254.404 11.9053 254.215 11.705C254.022 11.5196 253.793 11.3754 253.542 11.2812C253.292 11.187 253.024 11.1447 252.756 11.157C252.485 11.1459 252.214 11.1886 251.959 11.2826C251.704 11.3767 251.471 11.5203 251.272 11.705C251.076 11.9014 250.924 12.1366 250.825 12.3953C250.726 12.6539 250.683 12.9304 250.697 13.2069V35.223C250.685 35.4918 250.73 35.7602 250.829 36.0105C250.929 36.2609 251.079 36.4877 251.272 36.6761C251.471 36.8611 251.704 37.005 251.959 37.0995C252.213 37.1939 252.484 37.237 252.756 37.2263C253.024 37.2421 253.291 37.2013 253.542 37.1066C253.792 37.0119 254.02 36.8653 254.209 36.6767C254.399 36.488 254.546 36.2615 254.641 36.0121C254.736 35.7627 254.777 35.496 254.761 35.2297V21.3553C254.739 20.1223 255.108 18.9137 255.815 17.9012C256.545 16.8722 257.537 16.0552 258.689 15.534C259.945 14.9541 261.315 14.6615 262.7 14.6777C264.162 14.6492 265.611 14.959 266.933 15.5829C268.163 16.1882 269.187 17.1412 269.876 18.3227C270.619 19.5458 270.985 21.1261 270.977 23.0636V35.2164C270.969 35.4813 271.016 35.745 271.115 35.9911C271.214 36.2372 271.363 36.4605 271.551 36.6473C271.746 36.8385 271.979 36.9879 272.234 37.0863C272.489 37.1848 272.762 37.2301 273.035 37.2197C273.3 37.2257 273.564 37.1782 273.81 37.08C274.056 36.9818 274.279 36.835 274.467 36.6484C274.654 36.4617 274.802 36.2392 274.9 35.9942C274.999 35.7492 275.046 35.4869 275.04 35.223V23.0769C275.04 20.4413 274.53 18.2177 273.51 16.4059C272.554 14.654 271.104 13.2189 269.339 12.2773Z" fill="white"/>
<path d="M301.836 12.6502C299.793 11.4768 297.47 10.8751 295.112 10.9087C292.731 10.8731 290.384 11.4745 288.317 12.6502C286.334 13.7808 284.69 15.4173 283.553 17.3911C282.387 19.3922 281.805 21.6639 281.806 24.2063C281.769 26.5679 282.346 28.8991 283.482 30.9726C284.549 32.9282 286.118 34.5671 288.029 35.7224C289.993 36.8963 292.247 37.4989 294.537 37.4617C296.421 37.4969 298.286 37.0827 299.976 36.2537C301.667 35.4247 303.133 34.2049 304.253 32.6964V35.221C304.241 35.4898 304.286 35.7581 304.385 36.0085C304.484 36.2589 304.635 36.4856 304.828 36.6741C305.235 37.0304 305.758 37.2269 306.3 37.2269C306.841 37.2269 307.365 37.0304 307.771 36.6741C307.971 36.4893 308.127 36.2637 308.231 36.0129C308.334 35.7621 308.382 35.4919 308.371 35.221V24.2151C308.379 21.8264 307.76 19.477 306.575 17.4C305.444 15.4281 303.809 13.7894 301.836 12.6502ZM303.153 29.1158C302.39 30.5399 301.248 31.7267 299.851 32.5455C298.787 33.1763 297.607 33.5884 296.38 33.7572C295.154 33.926 293.906 33.8483 292.71 33.5285C291.514 33.2088 290.395 32.6535 289.418 31.8955C288.442 31.1376 287.628 30.1924 287.024 29.1158C286.184 27.6163 285.755 25.9232 285.779 24.2063C285.748 22.4816 286.178 20.7798 287.024 19.2746C287.82 17.8607 288.972 16.6778 290.366 15.8426C291.425 15.206 292.602 14.7893 293.826 14.6176C295.051 14.4458 296.298 14.5226 297.492 14.8432C298.686 15.1638 299.802 15.7217 300.774 16.4833C301.746 17.2449 302.552 18.1943 303.146 19.2746C303.961 20.7899 304.373 22.4876 304.342 24.2063C304.37 25.9196 303.961 27.6119 303.153 29.1246V29.1158Z" fill="white"/>
<path d="M322.585 33.2219H321.389C320.59 33.2219 319.928 32.8093 319.402 31.984C318.876 31.1565 318.613 30.0939 318.613 28.7894V2.00129C318.625 1.7346 318.582 1.4683 318.488 1.21853C318.393 0.968754 318.248 0.7407 318.063 0.548183C317.659 0.194863 317.14 0 316.602 0C316.065 0 315.546 0.194863 315.142 0.548183C314.957 0.740768 314.813 0.968939 314.719 1.21877C314.625 1.4686 314.583 1.73486 314.596 2.00129V28.7894C314.567 30.2958 314.861 31.7911 315.458 33.1753C315.971 34.3716 316.808 35.4023 317.876 36.1525C318.907 36.8665 320.137 37.2418 321.394 37.2263H321.824C322.483 37.2589 323.133 37.0646 323.666 36.6761C323.889 36.5056 324.068 36.285 324.189 36.0325C324.309 35.78 324.368 35.5026 324.361 35.223C324.387 34.6964 324.216 34.1789 323.882 33.7699C323.721 33.588 323.521 33.4444 323.296 33.3495C323.072 33.2547 322.829 33.2111 322.585 33.2219Z" fill="white"/>
<path d="M348 26.5265C347.391 25.5267 346.394 24.6608 345.008 23.9287C343.622 23.1966 341.728 22.6249 339.326 22.2138C337.604 21.8973 336.267 21.5394 335.316 21.14C334.365 20.7407 333.703 20.2881 333.329 19.7823C332.955 19.2534 332.762 18.6187 332.778 17.9721C332.778 16.956 333.298 16.13 334.338 15.494C335.378 14.8581 336.71 14.5401 338.335 14.5401C339.525 14.5202 340.708 14.7141 341.829 15.1124C342.873 15.5087 343.808 16.1458 344.558 16.9715C344.928 17.3772 345.427 17.6455 345.97 17.7325C346.485 17.8355 347.019 17.7513 347.476 17.4951C347.684 17.3591 347.86 17.1801 347.993 16.9703C348.125 16.7606 348.21 16.5249 348.243 16.2794C348.27 16.0244 348.241 15.7666 348.158 15.5238C348.076 15.281 347.941 15.0589 347.764 14.8728C346.752 13.6233 345.453 12.6342 343.976 11.9888C342.412 11.2745 340.562 10.9166 338.424 10.9151C336.816 10.9007 335.219 11.1757 333.71 11.7271C332.34 12.2103 331.125 13.0498 330.192 14.1585C329.301 15.2396 328.855 16.5899 328.855 18.2094C328.855 19.9842 329.598 21.509 331.083 22.7839C332.568 24.0588 334.921 24.9647 338.141 25.5016C340.629 25.9142 342.392 26.4858 343.43 27.2164C344.469 27.9471 344.971 28.8529 344.939 29.9341C344.905 31.0152 344.378 31.9285 343.359 32.6739C342.34 33.4193 340.729 33.7927 338.524 33.7942C337.118 33.8112 335.721 33.5605 334.409 33.0555C333.163 32.563 332.206 31.9196 331.537 31.1254C331.171 30.752 330.691 30.5088 330.172 30.4332C329.895 30.3974 329.614 30.4183 329.346 30.4946C329.078 30.5709 328.828 30.701 328.612 30.8769C328.187 31.2211 327.912 31.7169 327.848 32.259C327.814 32.5179 327.839 32.7812 327.921 33.029C328.004 33.2768 328.142 33.5028 328.325 33.69C329.443 34.8968 330.935 35.8264 332.801 36.4786C334.67 37.1293 336.636 37.4593 338.616 37.4547C340.695 37.4547 342.506 37.1212 344.048 36.4542C345.589 35.7872 346.786 34.8813 347.637 33.7365C348.479 32.6082 348.925 31.2355 348.907 29.8298C348.916 28.6666 348.602 27.5234 348 26.5265Z" fill="white"/>
<path d="M13.5713 10.6709C10.1404 10.6696 6.83652 11.9627 4.32483 14.2899C1.81313 16.617 0.280224 19.8054 0.0347825 23.2128C-0.210659 26.6203 0.849595 29.9938 3.00205 32.654C5.1545 35.3143 8.23926 37.0637 11.6352 37.55C11.6931 37.55 11.7533 37.5633 11.8112 37.5699V53.1325H1.01663V55.6993H5.23642V57.1702H1.01663V59.7347H11.8134V61.9998H16.4365V37.3747C19.7051 36.667 22.5959 34.7817 24.5534 32.0808C26.511 29.38 27.3972 26.0541 27.0418 22.7422C26.6865 19.4303 25.1146 16.3659 22.6282 14.1378C20.1419 11.9097 16.9163 10.675 13.5713 10.6709ZM13.5713 33.2994C11.7582 33.3002 9.98564 32.7656 8.47786 31.763C6.97007 30.7604 5.79485 29.335 5.10092 27.6671C4.40699 25.9992 4.22553 24.1639 4.57951 22.3933C4.9335 20.6227 5.80701 18.9964 7.08951 17.7203C8.37201 16.4442 10.0059 15.5757 11.7843 15.2245C13.5627 14.8733 15.4058 15.0553 17.0803 15.7475C18.7548 16.4397 20.1855 17.6109 21.1913 19.113C22.1971 20.6151 22.7327 22.3805 22.7305 24.1859C22.7258 26.6028 21.7592 28.9194 20.0424 30.628C18.3256 32.3367 15.9986 33.2981 13.5713 33.3016V33.2994Z" fill="white"/>
</svg>
