<svg width="60" height="64" viewBox="0 0 60 64" fill="none" xmlns="http://www.w3.org/2000/svg">
<g filter="url(#filter0_d_1107_258)">
<rect width="60" height="60" fill="black"/>
</g>
<g clip-path="url(#clip0_1107_258)">
<path d="M48.0476 33.4955L49.2976 32.9486C49.8906 32.6892 50.1609 31.9982 49.9015 31.4053C49.6421 30.8123 48.951 30.5418 48.3582 30.8014L47.1082 31.3483C46.5153 31.6076 46.2449 32.2987 46.5043 32.8916C46.7639 33.4849 47.4553 33.7548 48.0476 33.4955Z" fill="#F2F2F2"/>
<path d="M49.2976 41.27L48.0476 40.7232C47.4547 40.4638 46.7637 40.7341 46.5043 41.3271C46.2449 41.92 46.5153 42.611 47.1082 42.8704L48.3582 43.4172C48.9511 43.6767 49.6422 43.4062 49.9015 42.8133C50.1609 42.2204 49.8906 41.5294 49.2976 41.27Z" fill="#F2F2F2"/>
<path d="M48.8279 35.9375H47.5779C46.9307 35.9375 46.406 36.4622 46.406 37.1094C46.406 37.7566 46.9307 38.2812 47.5779 38.2812H48.8279C49.4751 38.2812 49.9998 37.7566 49.9998 37.1094C49.9998 36.4622 49.4751 35.9375 48.8279 35.9375Z" fill="#F2F2F2"/>
<path d="M32.6139 30.0781C42.0509 25.3981 41.4197 25.7031 41.6404 25.6203V14.6876C41.6404 12.7493 40.063 11.172 38.1248 11.172H13.5156C11.5773 11.172 10 12.7493 10 14.6876V33.5156C10 35.4538 11.5773 37.0312 13.5156 37.0312H21.7968V35.1562C21.7968 32.3562 24.0749 30.0781 26.8749 30.0781H32.6139ZM21.6568 29.8372C20.8793 30.226 19.9609 29.6592 19.9609 28.789V19.414C19.9609 18.5431 20.8794 17.9772 21.6568 18.3658L31.0317 23.0533C31.8944 23.4846 31.8937 24.7187 31.0317 25.1496L21.6568 29.8372Z" fill="#F2F2F2"/>
<path d="M22.3047 26.8929L27.8874 24.1016L22.3047 21.3102V26.8929Z" fill="#F2F2F2"/>
<path d="M26.875 32.4219C25.3673 32.4219 24.1406 33.6485 24.1406 35.1562V39.0624C24.1406 40.3671 25.0594 41.4606 26.2837 41.7317L25.3284 47.4635C25.2094 48.1776 25.7609 48.8281 26.4844 48.8281H31.1718C31.7399 48.8281 32.2262 48.4207 32.3256 47.8613L33.3842 41.9066L33.5156 41.9718V32.2469L33.1628 32.4219H26.875Z" fill="#F2F2F2"/>
<path d="M42.3697 27.8563L35.8591 31.0847V43.1338L42.3697 46.3622C43.1458 46.7471 44.0622 46.182 44.0622 45.3123V28.9062C44.0622 28.0372 43.1471 27.4708 42.3697 27.8563Z" fill="#F2F2F2"/>
</g>
<defs>
<filter id="filter0_d_1107_258" x="0" y="0" width="60" height="64" filterUnits="userSpaceOnUse" color-interpolation-filters="sRGB">
<feFlood flood-opacity="0" result="BackgroundImageFix"/>
<feColorMatrix in="SourceAlpha" type="matrix" values="0 0 0 0 0 0 0 0 0 0 0 0 0 0 0 0 0 0 127 0" result="hardAlpha"/>
<feOffset dy="4"/>
<feComposite in2="hardAlpha" operator="out"/>
<feColorMatrix type="matrix" values="0 0 0 0 0.0196078 0 0 0 0 0.223529 0 0 0 0 0.984314 0 0 0 1 0"/>
<feBlend mode="normal" in2="BackgroundImageFix" result="effect1_dropShadow_1107_258"/>
<feBlend mode="normal" in="SourceGraphic" in2="effect1_dropShadow_1107_258" result="shape"/>
</filter>
<clipPath id="clip0_1107_258">
<rect width="40" height="40" fill="white" transform="translate(10 10)"/>
</clipPath>
</defs>
</svg>
