<svg width="60" height="64" viewBox="0 0 60 64" fill="none" xmlns="http://www.w3.org/2000/svg">
<g filter="url(#filter0_d_1126_23)">
<rect width="60" height="60" fill="black"/>
</g>
<path d="M36.6417 14.0625H31.992L24.0229 20.0391H28.6725L36.6417 14.0625Z" fill="#F2F2F2"/>
<path d="M44.6766 14.0625H39.9608L31.9917 20.0391H36.6413L44.6766 14.0625Z" fill="#F2F2F2"/>
<path d="M39.9603 20.0391H47V15.0586C47 14.9818 46.9728 14.9139 46.9564 14.842L39.9603 20.0391Z" fill="#F2F2F2"/>
<path d="M15.9878 20.0391H20.7038L28.6729 14.0625H24.0233L15.9878 20.0391Z" fill="#F2F2F2"/>
<path d="M13 44.9414C13 45.492 13.4455 45.9375 13.9961 45.9375H46.0039C46.5545 45.9375 47 45.492 47 44.9414V22.0312H13V44.9414ZM25.0195 27.0117C25.0195 26.6528 25.2121 26.322 25.5244 26.145C25.8367 25.9679 26.22 25.9728 26.5283 26.1576L36.4892 32.1342C36.7888 32.3141 36.9727 32.6381 36.9727 32.9882C36.9727 33.3384 36.7888 33.6623 36.4892 33.8423L26.5283 39.8188C26.2198 40.0036 25.8364 40.0084 25.5244 39.8314C25.2121 39.6545 25.0195 39.3238 25.0195 38.9648V27.0117Z" fill="#F2F2F2"/>
<path d="M13.9961 14.0625C13.4455 14.0625 13 14.508 13 15.0586V19.7905L20.7042 14.0625H13.9961Z" fill="#F2F2F2"/>
<path d="M27.0117 28.7714V37.2051L34.0408 32.9882L27.0117 28.7714Z" fill="#F2F2F2"/>
<defs>
<filter id="filter0_d_1126_23" x="0" y="0" width="60" height="64" filterUnits="userSpaceOnUse" color-interpolation-filters="sRGB">
<feFlood flood-opacity="0" result="BackgroundImageFix"/>
<feColorMatrix in="SourceAlpha" type="matrix" values="0 0 0 0 0 0 0 0 0 0 0 0 0 0 0 0 0 0 127 0" result="hardAlpha"/>
<feOffset dy="4"/>
<feComposite in2="hardAlpha" operator="out"/>
<feColorMatrix type="matrix" values="0 0 0 0 0.0196078 0 0 0 0 0.223529 0 0 0 0 0.984314 0 0 0 1 0"/>
<feBlend mode="normal" in2="BackgroundImageFix" result="effect1_dropShadow_1126_23"/>
<feBlend mode="normal" in="SourceGraphic" in2="effect1_dropShadow_1126_23" result="shape"/>
</filter>
</defs>
</svg>
