<svg width="60" height="64" viewBox="0 0 60 64" fill="none" xmlns="http://www.w3.org/2000/svg">
<g filter="url(#filter0_d_1107_257)">
<rect width="60" height="60" fill="black"/>
</g>
<path d="M20.427 48.9751C19.888 48.9729 19.356 48.8539 18.8675 48.6262C18.379 48.3985 17.9457 48.0676 17.5975 47.6562C17.2493 47.2449 16.9944 46.7629 16.8505 46.2435C16.7065 45.7242 16.6769 45.1798 16.7637 44.6478L18.1947 35.8308L12.0534 29.489C11.5772 28.9987 11.245 28.3869 11.0931 27.7205C10.9413 27.0541 10.9756 26.3588 11.1924 25.7106C11.4092 25.0624 11.8001 24.4863 12.3223 24.0453C12.8445 23.6044 13.478 23.3155 14.1533 23.2104L22.4708 21.9338L26.1359 14.1042C26.4429 13.4733 26.9212 12.9415 27.5161 12.5694C28.1109 12.1973 28.7984 12 29.5001 12C30.2017 12 30.8893 12.1973 31.4841 12.5694C32.079 12.9415 32.5573 13.4733 32.8643 14.1042L36.5172 21.9226L44.8467 23.2104C45.522 23.3155 46.1554 23.6044 46.6777 24.0453C47.1999 24.4863 47.5908 25.0624 47.8076 25.7106C48.0244 26.3588 48.0587 27.0541 47.9069 27.7205C47.755 28.3869 47.4228 28.9987 46.9466 29.489L40.8116 35.8055L42.2372 44.6491C42.3506 45.3382 42.2676 46.0452 41.9978 46.6892C41.7279 47.3332 41.282 47.8882 40.7113 48.2905C40.1406 48.6928 39.4681 48.9262 38.7708 48.964C38.0735 49.0017 37.3798 48.8423 36.7689 48.5039L29.5048 44.4706L22.2316 48.5039C21.68 48.8122 21.0589 48.9744 20.427 48.9751ZM29.4997 40.7663C30.1297 40.7669 30.7491 40.9283 31.2993 41.2353L38.5643 45.2698L37.1514 36.4238C37.0599 35.8498 37.103 35.2623 37.2773 34.7078C37.4516 34.1533 37.7524 33.6468 38.156 33.2285L44.2916 26.9107L35.9669 25.5909C35.3625 25.4982 34.7904 25.2577 34.3014 24.8906C33.8124 24.5235 33.4216 24.0413 33.1639 23.4868L29.5124 15.6707H29.5115C29.5092 15.6642 29.5059 15.6581 29.5016 15.6527L25.8338 23.4887C25.5763 24.0427 25.186 24.5245 24.6975 24.8913C24.2089 25.258 23.6373 25.4984 23.0335 25.5909L14.715 26.8675L20.8427 33.2274C21.2465 33.6456 21.5475 34.152 21.722 34.7065C21.8965 35.2611 21.9397 35.8486 21.8482 36.4227L20.4164 45.2416L27.6994 41.236C28.2497 40.9286 28.8694 40.767 29.4997 40.7663Z" fill="#F2F2F2"/>
<defs>
<filter id="filter0_d_1107_257" x="0" y="0" width="60" height="64" filterUnits="userSpaceOnUse" color-interpolation-filters="sRGB">
<feFlood flood-opacity="0" result="BackgroundImageFix"/>
<feColorMatrix in="SourceAlpha" type="matrix" values="0 0 0 0 0 0 0 0 0 0 0 0 0 0 0 0 0 0 127 0" result="hardAlpha"/>
<feOffset dy="4"/>
<feComposite in2="hardAlpha" operator="out"/>
<feColorMatrix type="matrix" values="0 0 0 0 0.0196078 0 0 0 0 0.223529 0 0 0 0 0.984314 0 0 0 1 0"/>
<feBlend mode="normal" in2="BackgroundImageFix" result="effect1_dropShadow_1107_257"/>
<feBlend mode="normal" in="SourceGraphic" in2="effect1_dropShadow_1107_257" result="shape"/>
</filter>
</defs>
</svg>
