<svg width="93" height="93" viewBox="0 0 93 93" fill="none" xmlns="http://www.w3.org/2000/svg">
<path fill-rule="evenodd" clip-rule="evenodd" d="M79.4501 13.5152C70.7076 4.80439 59.0809 0.00510864 46.6945 0C21.1711 0 0.398679 20.6724 0.388413 46.0805C0.38499 54.2027 2.51698 62.1313 6.56936 69.1199L0 93L24.5476 86.5915C31.3114 90.2635 38.9262 92.1985 46.6757 92.2008H46.6951C72.2157 92.2008 92.9903 71.5267 93 46.1174C93.0051 33.8033 88.193 22.2254 79.4501 13.5152ZM46.6945 84.4181H46.6785C39.7726 84.4152 32.9997 82.5682 27.0896 79.0789L25.6849 78.2485L11.118 82.0516L15.0061 67.9171L14.0906 66.468C10.2379 60.3694 8.20343 53.3206 8.20686 46.0834C8.21484 24.9648 25.4807 7.7833 46.7099 7.7833C56.99 7.78671 66.6535 11.776 73.9199 19.0161C81.1862 26.2562 85.1856 35.8797 85.1821 46.1146C85.173 67.2348 67.9083 84.4181 46.6945 84.4181ZM67.8057 55.7308C66.649 55.154 60.9602 52.3693 59.8994 51.9844C58.8397 51.6001 58.0674 51.4088 57.2968 52.5611C56.5252 53.7134 54.3082 56.3075 53.6329 57.0755C52.9576 57.844 52.2834 57.9405 51.1262 57.3638C49.9689 56.7877 46.2411 55.5712 41.8214 51.6484C38.3821 48.5951 36.0602 44.8244 35.3849 43.6721C34.7107 42.5187 35.3792 41.9556 35.8925 41.3221C37.145 39.7742 38.3992 38.1513 38.7848 37.3833C39.1709 36.6148 38.9776 35.9421 38.6878 35.366C38.3992 34.7899 36.0853 29.1221 35.1214 26.8158C34.1814 24.5714 33.2284 24.8745 32.5177 24.8394C31.8436 24.8059 31.0719 24.7991 30.3002 24.7991C29.5291 24.7991 28.2754 25.0868 27.2145 26.2403C26.1543 27.3931 23.1656 30.1785 23.1656 35.8462C23.1656 41.514 27.3115 46.9893 27.8898 47.7579C28.4682 48.5264 36.0488 60.1571 47.655 65.1443C50.4155 66.3317 52.5703 67.0396 54.2511 67.5703C57.0231 68.4467 59.5446 68.323 61.5386 68.0267C63.7618 67.6958 68.3834 65.2408 69.3485 62.5514C70.3124 59.8614 70.3124 57.5562 70.0226 57.0755C69.734 56.5952 68.9623 56.3075 67.8057 55.7308Z" fill="white"/>
</svg>
