<svg width="40" height="30" viewBox="0 0 40 30" fill="none" xmlns="http://www.w3.org/2000/svg">
<path d="M19.9985 29.1667C19.9952 29.1667 19.9915 29.1667 19.9879 29.1667C18.7809 29.1583 8.11073 29.0601 5.08766 28.2352C2.97493 27.6621 1.30714 25.9811 0.737686 23.849C-0.0533297 20.8525 -0.00297567 15.0834 0.00251749 14.6227C-0.00267049 14.1642 -0.0536349 8.34741 0.735244 5.32629C0.73616 5.32352 0.73677 5.32044 0.737686 5.31767C1.30074 3.20988 3.00606 1.47684 5.08247 0.90224C5.08766 0.9007 5.09315 0.899468 5.09834 0.897929C8.08723 0.105313 18.7785 0.00831417 19.9879 0H20.0095C21.2196 0.00831417 31.9181 0.106544 34.9134 0.932725C37.0206 1.50425 38.6872 3.18309 39.2582 5.31244C40.0788 8.33571 40.0028 14.1652 39.9946 14.6572C40.0004 15.1419 40.0483 20.8593 39.2619 23.8709C39.2612 23.8739 39.2603 23.8767 39.2597 23.8795C38.69 26.0116 37.0225 27.6926 34.9073 28.2663C34.9046 28.2672 34.9015 28.2678 34.8988 28.2687C31.9102 29.061 21.2186 29.158 20.0095 29.1667C20.0059 29.1667 20.0022 29.1667 19.9985 29.1667ZM3.75587 6.13492C3.06129 8.80161 3.12691 14.5442 3.12752 14.6021V14.6437C3.10677 16.2363 3.1797 20.8485 3.75618 23.033C4.03572 24.079 4.85817 24.9077 5.90126 25.1907C8.13179 25.7994 16.8223 25.991 19.9985 26.0134C23.1831 25.991 31.8864 25.8047 34.1004 25.2202C35.1401 24.9363 35.9599 24.1104 36.2412 23.0632C36.8183 20.8467 36.8906 16.2569 36.8696 14.6745C36.8696 14.6579 36.8696 14.6412 36.8699 14.6246C36.8986 13.0129 36.8421 8.34679 36.244 6.14477C36.2434 6.14262 36.2427 6.14046 36.2424 6.13831C35.9617 5.08765 35.1389 4.259 34.0958 3.97601C31.887 3.36662 23.1824 3.1757 19.9985 3.15322C16.8162 3.1757 8.12141 3.36169 5.90065 3.94553C4.8774 4.2319 4.03633 5.09011 3.75587 6.13492ZM37.7509 23.4693H37.7518H37.7509ZM16.0157 20.9683V8.19806L26.9532 14.5833L16.0157 20.9683Z" fill="white"/>
</svg>
